<svg width="50" height="50" viewBox="0 0 50 50" fill="none" xmlns="http://www.w3.org/2000/svg">
<path d="M4.59711 22.8088C4.41493 22.3303 4.24676 21.9223 4.0786 21.5001C3.65819 20.4307 3.93846 19.4458 4.55507 18.5593C4.7933 18.2075 5.14364 17.9261 5.46596 17.6587C5.8163 17.3632 6.19467 17.11 6.55903 16.8285C6.95141 16.533 7.32978 16.2235 7.72216 15.9139C8.10053 15.6184 8.46489 15.3229 8.84326 15.0415C9.17959 14.7882 9.52993 14.549 9.86626 14.2957C10.4408 13.8736 11.0014 13.4374 11.5759 13.0153C12.0244 12.6776 12.4868 12.368 12.9353 12.0444C13.2436 11.8192 13.5519 11.5659 13.8742 11.3408C14.2666 11.0594 14.6589 10.792 15.0513 10.5106C15.6259 10.0885 16.2004 9.66633 16.775 9.25827C17.4056 8.80799 18.0362 8.38586 18.6669 7.94966C19.2694 7.52753 19.858 7.10539 20.4606 6.68326C20.9231 6.37369 21.3855 6.0782 21.848 5.76864C22.2123 5.51536 22.5767 5.26207 22.9551 5.00879C23.5717 4.60073 24.1883 4.22081 24.7908 3.81275C25.3374 3.46097 25.8839 3.09512 26.4445 2.74335C27.033 2.3775 27.6356 2.01165 28.2242 1.6458C28.5465 1.4488 28.8548 1.23774 29.1911 1.0126C29.3313 1.19552 29.4714 1.36438 29.5975 1.5473C29.6116 1.53323 29.6396 1.51916 29.6536 1.50509C29.5555 1.32217 29.4434 1.15331 29.3033 0.914101C29.5975 0.77339 29.8778 0.590464 30.1861 0.534179C30.6065 0.449752 31.055 0.407541 31.4754 0.421612C32.092 0.449754 32.6806 0.660816 33.171 1.04074C34.0819 1.71615 34.7406 2.64484 35.5113 3.46097C35.9317 3.91125 36.3521 4.3756 36.7585 4.85401C37.3751 5.58571 37.9917 6.33148 38.5943 7.07725C38.9447 7.49938 39.295 7.92151 39.6173 8.34365C40.0377 8.87835 40.4441 9.41305 40.8505 9.96183C41.285 10.5387 41.7054 11.1016 42.1258 11.6785C42.5882 12.3258 43.0227 12.973 43.4711 13.6203C43.7934 14.0847 44.1157 14.549 44.424 15.0274C44.6903 15.4214 44.9425 15.8295 45.1948 16.2235C45.5171 16.7582 45.8534 17.2929 46.1617 17.8276C46.7503 18.8407 47.3249 19.8538 47.8854 20.881C48.3479 21.7393 48.7543 22.6118 49.2307 23.4701C49.553 24.0611 49.8473 24.6802 49.9594 25.3416C50.0155 25.6933 50.0015 26.0592 49.9875 26.411C49.9594 26.8331 49.9174 27.2693 49.8473 27.6914C49.6371 28.8875 49.0906 29.9006 48.2077 30.7308C46.456 32.363 44.7463 34.0234 42.9386 35.5853C40.9767 37.2739 38.9727 38.9343 36.9127 40.4961C34.7686 42.1143 32.5404 43.6621 30.2982 45.1396C28.1121 46.5608 25.8419 47.8694 23.5997 49.2202C23.3334 49.375 23.0812 49.4032 22.7729 49.2765C22.5066 49.164 22.2123 49.1358 21.9321 49.0936C21.2033 48.967 20.5587 48.6433 19.9841 48.193C19.1153 47.5176 18.2605 46.8282 17.4337 46.1105C16.4247 45.2381 15.4437 44.3376 14.4768 43.4229C13.0053 42.0299 11.5339 40.6509 10.1185 39.2016C8.32475 37.3724 6.57304 35.5009 4.84935 33.6154C3.65819 32.3208 2.53709 30.9559 1.40198 29.6192C0.547149 28.6061 0.378985 27.2271 0.981574 26.0733C1.13572 25.7778 1.35994 25.4963 1.61219 25.2712C2.10267 24.8209 2.63519 24.4269 3.13968 24.0048C3.68622 23.6108 4.16268 23.1887 4.59711 22.8088ZM48.6562 26.2843C48.6982 25.7496 48.46 25.1164 48.1377 24.4973C47.3669 23.0057 46.6102 21.4861 45.7974 20.0086C45.1948 18.9111 44.5081 17.8557 43.8495 16.7863C43.2469 15.8154 42.6443 14.8586 41.9856 13.9158C41.1588 12.7198 40.29 11.5519 39.4211 10.384C38.8746 9.65226 38.3141 8.90649 37.7395 8.20294C36.9828 7.27424 36.212 6.35962 35.4272 5.45907C34.5444 4.46002 33.6335 3.50318 32.7366 2.5182C32.4003 2.13828 31.9659 1.94129 31.4894 1.85687C30.9429 1.75837 30.4384 1.92722 29.9619 2.22271C29.3453 2.6167 28.7147 2.99662 28.0981 3.39061C27.4254 3.81275 26.7388 4.24895 26.0661 4.68516C25.3234 5.16358 24.5947 5.67014 23.8519 6.16263C23.0812 6.66919 22.3104 7.16167 21.5537 7.6823C20.7969 8.18886 20.0682 8.7095 19.3255 9.23013C18.6949 9.66633 18.0643 10.1166 17.4337 10.5669C16.775 11.0312 16.1304 11.4815 15.4717 11.9459C14.9252 12.3398 14.3927 12.7338 13.8461 13.1278C13.2576 13.564 12.669 13.9862 12.0664 14.4224C11.646 14.7319 11.2116 15.0415 10.7912 15.3651C10.3007 15.731 9.8102 16.0968 9.31972 16.4768C8.82924 16.8567 8.33876 17.2225 7.84829 17.6024C7.49794 17.8698 7.13359 18.1512 6.79726 18.4326C6.46093 18.7141 6.09657 18.9955 5.80229 19.3332C5.1997 20.0086 5.26977 21.1765 5.90038 21.8379C6.72719 22.7243 7.56801 23.6108 8.36679 24.5114C9.41782 25.7074 10.4548 26.9175 11.4778 28.1417C12.3607 29.2111 13.2015 30.3087 14.0283 31.4203C14.743 32.363 15.4157 33.334 16.0883 34.3049C16.719 35.2195 17.3356 36.1482 17.9241 37.0909C18.3726 37.7945 18.821 38.5121 19.2414 39.2297C19.9141 40.3695 20.5867 41.5093 21.2174 42.6772C21.9881 44.1406 22.7028 45.618 23.4455 47.0955C23.5997 47.4051 23.5997 47.4191 23.922 47.2221C25.3234 46.392 26.7388 45.5758 28.1261 44.7034C29.9199 43.5496 31.6996 42.3817 33.4373 41.1575C34.9648 40.0881 36.4362 38.9343 37.9217 37.7945C38.7625 37.1472 39.5893 36.4577 40.4021 35.7683C41.313 34.9943 42.2239 34.1923 43.1208 33.3762C44.5782 32.0253 46.0356 30.6886 47.465 29.2955C48.2498 28.592 48.6562 27.5929 48.6562 26.2843ZM9.48789 28.0151C9.17959 27.6633 8.89931 27.3397 8.63305 27.016C8.53496 26.9035 8.4789 26.9034 8.38081 27.0019C8.25468 27.1286 8.10053 27.2271 7.94638 27.3115C7.37182 27.6492 6.85331 28.0573 6.4329 28.5779C6.20868 28.8593 5.95644 29 5.59208 28.9719C5.15766 28.9438 4.84935 28.3809 5.07357 28.0151C5.49398 27.3397 6.1246 26.8612 6.7412 26.3828C7.00746 26.1858 7.28774 26.017 7.58203 25.82C6.95141 25.1305 6.33481 24.4551 5.74623 23.8078C5.508 23.9907 5.28378 24.1596 5.08759 24.3284C4.34486 24.9616 3.58812 25.6089 2.8454 26.2562C2.15872 26.8472 2.01859 27.6492 2.53709 28.3809C3.02757 29.0845 3.60213 29.7317 4.16268 30.379C5.17167 31.5469 6.18066 32.7289 7.23168 33.8546C8.53496 35.2617 9.82422 36.6829 11.1835 38.0196C12.9773 39.7926 14.8131 41.5374 16.6629 43.2541C17.8961 44.3938 19.1854 45.4914 20.4606 46.5889C20.853 46.9267 21.3014 47.2081 21.848 47.4191C20.6568 44.8723 19.3816 42.4239 17.8821 40.0177C17.6158 40.3414 17.3636 40.6087 17.1394 40.9042C16.9011 41.2278 16.4387 41.3686 16.1024 41.1716C15.78 40.9746 15.6539 40.5102 15.8361 40.1584C16.1304 39.5675 16.5928 39.1453 17.1113 38.7654C16.8731 38.3855 16.6349 38.0196 16.4107 37.6679C15.8501 38.09 15.3596 38.4981 14.8131 38.8639C14.6449 38.9765 14.3506 38.9765 14.1544 38.9061C13.9162 38.8217 13.7481 38.6106 13.734 38.3011C13.72 37.9493 13.9162 37.7382 14.1544 37.5553C14.6029 37.1894 15.0653 36.8236 15.5278 36.4718C15.6259 36.4015 15.6539 36.3311 15.5698 36.2185C15.4437 36.0497 15.3456 35.8667 15.2335 35.6838C15.1494 35.5572 15.0653 35.5009 14.9252 35.6275C14.4487 36.0638 13.9723 36.4718 13.5098 36.908C13.2436 37.1613 12.9633 37.2739 12.5989 37.105C12.3187 36.9784 12.1084 36.5 12.2766 36.2326C12.4448 35.9653 12.6129 35.6979 12.8372 35.4868C13.2436 35.1069 13.692 34.7692 14.1264 34.4174C14.2245 34.333 14.3086 34.2626 14.2105 34.136C14.0423 33.9109 13.8742 33.6717 13.678 33.3902C13.3417 33.6435 12.9913 33.8827 12.669 34.1501C12.3607 34.4174 12.0804 34.7129 11.8001 35.0084C11.5339 35.2617 11.0294 35.2195 10.7912 35.0084C10.581 34.8255 10.4268 34.5019 10.6931 34.1641C10.9874 33.7842 11.3517 33.4325 11.7021 33.0947C12.0524 32.7711 12.4448 32.4897 12.8372 32.166C12.5569 31.7861 12.2766 31.4062 11.9963 31.0263C11.632 31.3499 11.2957 31.6595 10.9733 31.955C10.623 32.2786 10.2727 32.6022 9.9083 32.9118C9.61401 33.1651 9.13755 33.151 8.89931 32.8977C8.63305 32.6023 8.63305 32.1238 8.91333 31.8706C9.16557 31.6313 9.4038 31.3921 9.65605 31.167C10.1185 30.773 10.581 30.379 11.0574 29.971C10.8612 29.7317 10.637 29.4503 10.4128 29.183C10.1886 29.3096 9.99238 29.4222 9.79619 29.5347C9.08149 29.9709 8.42285 30.4916 7.82026 31.0826C7.69413 31.2092 7.48393 31.3218 7.31576 31.3077C7.00746 31.2796 6.71318 31.1389 6.61508 30.7871C6.531 30.5197 6.61508 30.2805 6.82529 30.0976C7.17563 29.774 7.53998 29.4363 7.90434 29.1267C8.1706 28.9016 8.49292 28.7327 8.77319 28.5357C8.9834 28.3809 9.23564 28.198 9.48789 28.0151Z" fill="#FCB817"/>
<path d="M20.5164 34.7978C20.138 34.8119 19.8577 34.5164 19.7877 34.2772C19.6896 33.9254 19.8437 33.5595 20.124 33.3625C20.6425 32.9967 21.161 32.6168 21.6795 32.2509C22.0719 31.9695 22.4923 31.7162 22.8847 31.4348C23.3892 31.083 23.8937 30.7172 24.3982 30.3513C24.8046 30.0699 25.197 29.7744 25.6034 29.493C26.0378 29.1834 26.4722 28.8598 26.9066 28.5502C27.299 28.2688 27.6914 28.0014 28.0838 27.7341C28.7705 27.2416 29.4431 26.7491 30.1298 26.2566C30.6763 25.8626 31.2228 25.4827 31.7694 25.0887C32.3159 24.6947 32.8625 24.2866 33.423 23.8927C33.9695 23.4987 34.5161 23.1187 35.0626 22.7247C35.6512 22.3026 36.2257 21.8664 36.8003 21.4443C37.2347 21.1347 37.6692 20.8392 38.1036 20.5296C38.4119 20.3045 38.7062 20.0653 39.0145 19.8542C39.3088 19.6291 39.603 19.3899 39.9113 19.207C40.3598 18.9537 40.9343 19.1647 41.0184 19.7557C41.0465 19.9387 40.8923 20.1919 40.7522 20.3327C40.5279 20.5719 40.2477 20.7407 39.9814 20.9377C39.4909 21.3036 39.0145 21.6553 38.524 22.0212C38.1176 22.3167 37.6972 22.6122 37.2908 22.9217C36.6742 23.372 36.0576 23.8364 35.441 24.3007C34.8804 24.7088 34.3059 25.1028 33.7453 25.5108C33.1848 25.9189 32.6382 26.341 32.0777 26.7491C31.7974 26.9602 31.5031 27.1572 31.2228 27.3682C30.9145 27.5934 30.6062 27.8044 30.2979 28.0296C29.8775 28.3391 29.4431 28.6346 29.0227 28.9442C28.7144 29.1693 28.4061 29.3945 28.0978 29.6055C27.7054 29.887 27.327 30.1684 26.9347 30.4498C26.5142 30.7453 26.0938 31.0408 25.6734 31.3363C25.239 31.6459 24.8046 31.9414 24.3701 32.2509C23.8797 32.5886 23.4032 32.9404 22.9127 33.2922C22.3802 33.6721 21.8337 34.038 21.3012 34.4179C21.189 34.5023 21.0769 34.5867 20.9508 34.6571C20.8107 34.6852 20.6565 34.7415 20.5164 34.7978Z" fill="#FCB817"/>
<path d="M32.3304 8.49876C32.4145 8.75204 32.4846 8.94904 32.5266 9.1601C32.6387 9.68073 32.7368 10.2014 32.8489 10.7079C32.9751 11.3271 33.1292 11.9321 33.2553 12.5512C33.3114 12.8608 33.3254 13.1704 33.3674 13.4799C33.3955 13.6769 33.4375 13.8739 33.4655 14.0709C33.5216 14.5493 33.0031 14.9011 32.5967 14.7745C32.5126 14.7463 32.4285 14.7604 32.3444 14.7463C31.868 14.6901 31.3915 14.6197 30.915 14.5493C30.6208 14.5071 30.3265 14.479 30.0462 14.4227C29.794 14.3805 29.5557 14.2961 29.3035 14.2398C29.2194 14.2257 29.1353 14.2257 29.0092 14.2116C29.0232 14.4086 29.0512 14.5916 29.0652 14.7745C29.0793 15.3514 29.0933 15.9283 29.1073 16.5052C29.1353 17.2369 29.1773 17.9686 29.2194 18.7144C29.2614 19.4883 29.2895 20.2481 29.3175 21.0643C29.5557 20.9236 29.7659 20.811 29.9621 20.6843C30.3965 20.4029 30.817 20.1074 31.2514 19.8119C31.8259 19.432 32.4005 19.0662 32.9751 18.6722C33.6197 18.236 34.2643 17.7857 34.8949 17.3354C35.4415 16.9414 35.988 16.5474 36.5345 16.1534C36.9129 15.872 37.2773 15.5625 37.6837 15.3232C37.9499 15.1544 38.2722 15.07 38.5805 15.281C38.8048 15.4358 38.9449 15.661 38.9169 15.9424C38.8888 16.2519 38.6786 16.4349 38.4544 16.6037C37.8378 17.0681 37.2212 17.5324 36.5906 17.9827C35.8759 18.4893 35.1612 18.9817 34.4325 19.4742C33.956 19.8119 33.4655 20.1356 32.9751 20.4592C32.3444 20.8813 31.7138 21.2894 31.0832 21.6975C30.5507 22.0352 30.0322 22.3729 29.4997 22.7247C29.2614 22.8794 29.0372 23.0342 28.799 23.1749C28.4486 23.3719 27.9441 23.1749 27.748 22.7809C27.3836 22.0492 27.0473 21.3035 26.6549 20.5999C26.1644 19.7416 25.6459 18.8973 25.0994 18.0671C24.6369 17.3636 24.1464 16.6741 23.6419 15.9987C23.2496 15.478 22.8291 14.9855 22.4087 14.4931C22.0724 14.085 21.7221 13.691 21.3717 13.297C21.1475 13.0437 21.2316 12.495 21.5119 12.3261C21.9042 12.101 22.1144 12.1291 22.4227 12.4527C23.4037 13.4518 24.2866 14.5353 25.1134 15.661C25.4917 16.1816 25.8981 16.7022 26.2485 17.2369C26.6829 17.8983 27.0893 18.5877 27.5097 19.2632C27.5518 19.3335 27.6078 19.3898 27.6499 19.4602C27.6779 19.4461 27.6919 19.4461 27.7199 19.432C27.7059 19.1365 27.6779 18.8551 27.6639 18.5596C27.6499 18.2641 27.6218 17.9686 27.6078 17.6731C27.5518 16.4067 27.5097 15.1403 27.4537 13.8739C27.4396 13.6066 27.4256 13.3674 27.4817 13.1C27.5938 12.6075 28.0983 12.509 28.4626 12.5935C28.855 12.6779 29.2474 12.7905 29.6538 12.8889C30.0602 12.9874 30.4666 13.1 30.887 13.1704C31.1813 13.2267 31.4896 13.2407 31.8119 13.2829C31.5316 11.8195 31.3074 10.3843 30.915 8.97718C30.873 8.97718 30.845 8.97718 30.8029 8.96311C30.7189 9.34303 30.5927 9.70888 30.5507 10.0888C30.4946 10.5672 30.0462 10.9331 29.5277 10.8205C29.3595 10.7783 29.0793 10.3984 29.0512 10.2014C28.9952 9.77924 29.1773 9.42746 29.3035 9.04754C29.4576 8.56912 29.6118 8.07663 29.7799 7.61228C29.9481 7.13386 30.0742 6.61323 30.5507 6.33181C31.1393 5.98003 31.4055 5.9941 31.9661 6.37402C32.6527 6.85244 33.3254 7.359 34.0121 7.83742C34.2783 8.02035 34.4325 8.25955 34.4605 8.5269C34.4745 8.69576 34.3484 8.93497 34.2083 9.07568C33.942 9.32896 33.6057 9.31489 33.2974 9.10382C33.0591 8.93497 32.8349 8.76612 32.5967 8.61133C32.5126 8.55505 32.4285 8.54097 32.3304 8.49876Z" fill="black"/>
<path d="M15.1919 28.9866C14.8555 28.9866 14.6033 28.7896 14.4772 28.4519C14.4071 28.283 14.5612 27.889 14.7574 27.7342C15.6823 26.9744 16.5792 26.1864 17.5181 25.4406C18.1207 24.9622 18.7653 24.5119 19.3819 24.0476C19.7883 23.738 20.1947 23.4285 20.6152 23.147C21.1757 22.7671 21.7503 22.4154 22.3248 22.0495C22.9274 21.6696 23.544 21.2756 24.1606 20.9238C24.553 20.6987 25.1136 21.0645 25.1416 21.5148C25.1556 21.8525 25.0435 22.0776 24.7632 22.2465C24.0485 22.6827 23.3338 23.1189 22.6331 23.5692C22.0305 23.9632 21.442 24.3853 20.8534 24.8074C20.3069 25.1874 19.7603 25.5813 19.2138 25.9753C18.6813 26.3693 18.1768 26.7915 17.6583 27.1995C17.1398 27.6217 16.6212 28.0438 16.1027 28.4659C16.0046 28.5363 15.9206 28.6207 15.8365 28.7051C15.6543 28.9021 15.4441 29.0288 15.1919 28.9866Z" fill="black"/>
<path d="M22.6189 18.4756C22.9412 18.3912 23.1374 18.5882 23.2635 18.8133C23.4036 19.0666 23.3476 19.4606 23.1093 19.6435C22.731 19.939 22.3526 20.2345 21.9602 20.5159C21.3857 20.9381 20.8111 21.3743 20.2365 21.7964C19.8021 22.12 19.3537 22.4296 18.9052 22.7392C18.4708 23.0628 18.0364 23.3864 17.602 23.7101C17.1535 24.0337 16.7051 24.3714 16.2566 24.695C15.8082 25.0187 15.3738 25.3564 14.9253 25.6659C14.5049 25.9614 14.0705 26.2569 13.6361 26.5243C13.3979 26.665 12.8793 26.3836 12.7953 26.1162C12.6832 25.7363 12.8373 25.3705 13.1736 25.1453C13.6501 24.8217 14.1126 24.4558 14.575 24.1181C15.0234 23.7945 15.4579 23.4849 15.9063 23.1613C16.3407 22.8517 16.7611 22.5281 17.1815 22.2185C17.4898 21.9934 17.7982 21.7683 18.0924 21.5431C18.5689 21.1913 19.0454 20.8255 19.5218 20.4737C19.9563 20.1501 20.3907 19.8546 20.8251 19.531C21.2455 19.2214 21.6659 18.8978 22.1004 18.6023C22.2405 18.5038 22.4087 18.4616 22.5628 18.4053C22.6189 18.4334 22.6189 18.4616 22.6189 18.4756Z" fill="black"/>
<path d="M17.3779 31.0401C17.0836 31.0542 16.8594 30.9135 16.7333 30.6742C16.5931 30.421 16.7192 29.9566 16.9295 29.7878C17.7703 29.0561 18.6111 28.3244 19.4659 27.6067C19.9844 27.1705 20.545 26.7765 21.0915 26.3685C21.7502 25.876 22.3948 25.3835 23.0675 24.9191C23.67 24.497 24.2866 24.1171 24.9032 23.7231C25.2536 23.498 25.6179 23.2728 25.9823 23.0758C26.2906 22.907 26.697 23.0336 26.8792 23.3572C27.0754 23.695 27.0473 24.103 26.711 24.3281C26.2626 24.6236 25.7861 24.891 25.3237 25.1865C24.8472 25.4961 24.3988 25.8197 23.9363 26.1433C23.5159 26.4248 23.0955 26.7062 22.6891 26.9876C22.1986 27.3394 21.7081 27.7052 21.2317 28.0851C20.5029 28.6621 19.7742 29.2671 19.0455 29.8581C18.7092 30.1395 18.3729 30.435 18.0365 30.7165C17.8544 30.8712 17.6722 31.0823 17.3779 31.0401Z" fill="black"/>
<path d="M10.8054 23.6541C10.8755 23.5275 10.9175 23.3586 11.0296 23.2601C11.6883 22.6832 12.375 22.1063 13.0476 21.5434C13.6502 21.0369 14.2528 20.5444 14.8554 20.0519C15.2337 19.7564 15.6261 19.475 16.0045 19.1795C16.3408 18.9121 16.6772 18.6448 17.0275 18.3915C17.49 18.0397 17.9524 17.688 18.4149 17.3362C18.7512 17.0829 19.0875 16.8578 19.4098 16.6045C19.7041 16.3794 19.9704 16.3512 20.2647 16.5341C20.5169 16.703 20.7271 17.1251 20.587 17.3784C20.4609 17.6035 20.2226 17.7724 20.0124 17.9412C19.6901 18.1945 19.3538 18.4337 19.0174 18.687C18.555 19.0247 18.1066 19.3624 17.6441 19.7142C17.2797 19.9815 16.9154 20.263 16.551 20.5444C15.9344 21.0228 15.3318 21.5012 14.7152 21.9937C14.2808 22.3455 13.8464 22.7113 13.426 23.0631C12.9355 23.4712 12.459 23.8933 11.9686 24.3014C11.7864 24.4421 11.5622 24.5406 11.3379 24.428C11.0857 24.2732 10.8054 24.0903 10.8054 23.6541Z" fill="black"/>
<path d="M19.2837 14.8734C19.3117 15.2674 19.0314 15.4221 18.7932 15.5769C18.0505 16.0413 17.2937 16.4915 16.551 16.9559C15.9484 17.3358 15.3598 17.7439 14.7713 18.166C14.449 18.3911 14.1406 18.6444 13.8183 18.8836C13.44 19.1791 13.0616 19.4746 12.6832 19.7701C12.417 19.9812 12.1507 20.1922 11.8985 20.4174C11.394 20.8536 10.8895 21.3039 10.371 21.7401C9.97858 22.0637 9.50212 21.8667 9.31994 21.4024C9.1798 21.0506 9.33395 20.8677 9.55817 20.6707C10.1608 20.136 10.7634 19.5872 11.38 19.0666C11.9265 18.6022 12.5151 18.1801 13.0896 17.7439C13.6502 17.3217 14.1967 16.8855 14.7713 16.4915C15.3739 16.0694 16.0045 15.6895 16.6211 15.2955C17.1956 14.9296 17.7842 14.5779 18.3728 14.212C18.5269 14.1135 18.8492 14.1698 19.0454 14.3527C19.1856 14.4653 19.3117 14.6482 19.2837 14.8734Z" fill="black"/>
<path d="M31.0831 36.0357C31.1532 36.4438 30.8309 36.6267 30.5366 36.7956C29.7098 37.274 28.8689 37.7102 28.0561 38.2027C27.3835 38.6107 26.7248 39.0751 26.0662 39.5394C25.5057 39.9334 24.9731 40.3556 24.4126 40.7355C24.0763 40.9606 23.6839 40.834 23.4316 40.454C23.2635 40.2008 23.3475 39.6942 23.5858 39.5113C24.2865 38.9907 24.9731 38.47 25.6878 37.9635C26.2344 37.5835 26.7809 37.2036 27.3555 36.8518C28.2243 36.3312 29.1352 35.8528 30.0181 35.3462C30.5085 35.093 31.1532 35.4025 31.0831 36.0357Z" fill="black"/>
<path d="M25.1273 43.6482C24.833 43.62 24.4827 43.423 24.4266 43.1697C24.3566 42.8883 24.3986 42.5928 24.6368 42.3958C25.0573 42.0441 25.4777 41.7063 25.9121 41.3686C26.4867 40.9324 27.0612 40.4962 27.6498 40.0882C28.1403 39.7505 28.6448 39.4128 29.1493 39.1032C29.7659 38.7373 30.3965 38.3996 31.0131 38.0338C31.3214 37.8509 31.5596 37.9916 31.7838 38.1464C32.008 38.3011 32.0921 38.5544 32.0361 38.8218C31.98 39.1032 31.8119 39.272 31.5596 39.4268C30.3404 40.1726 29.1212 40.9043 27.9441 41.7063C27.0892 42.2833 26.2764 42.9587 25.4496 43.5778C25.3796 43.62 25.2394 43.62 25.1273 43.6482Z" fill="black"/>
<path d="M23.0814 38.3022C22.689 38.3163 22.5349 38.063 22.4088 37.7815C22.2826 37.5142 22.3527 37.2468 22.5629 37.0639C22.8292 36.8247 23.1235 36.6137 23.4177 36.4026C23.8802 36.0649 24.3426 35.7272 24.8051 35.4176C25.4778 34.9673 26.1504 34.5311 26.8231 34.0808C27.2855 33.7713 27.734 33.4336 28.1964 33.1521C28.4346 33.0114 28.6589 32.7722 29.0092 32.9692C29.5978 33.2929 29.6819 33.8979 29.1213 34.2919C28.5748 34.6718 28.0142 35.0236 27.4537 35.3895C26.8791 35.7694 26.3186 36.1634 25.744 36.5433C25.2255 36.8951 24.721 37.2469 24.2165 37.6127C23.9783 37.7816 23.7401 37.9504 23.4878 38.1052C23.3757 38.2037 23.2216 38.2459 23.0814 38.3022Z" fill="black"/>
<path d="M31.9382 33.8269C32.0363 33.658 32.1064 33.461 32.2325 33.3344C32.8211 32.7856 33.3957 32.2087 34.0403 31.7303C34.9652 31.0268 35.9462 30.3936 37.0392 29.9574C37.6418 29.7181 38.1323 29.9855 38.0622 30.7172C38.0482 30.872 37.9221 31.0549 37.796 31.1253C37.2494 31.463 36.6889 31.7444 36.1423 32.068C35.75 32.3072 35.3576 32.5605 35.0072 32.856C34.3766 33.3766 33.788 33.9395 33.1714 34.4601C33.0033 34.6008 32.765 34.7134 32.5408 34.6008C32.1344 34.3897 31.9803 34.2631 32.0083 33.841C31.9803 33.855 31.9522 33.841 31.9382 33.8269Z" fill="black"/>
<path d="M39.4634 32.842C39.3373 33.0249 39.2532 33.2501 39.0851 33.3767C38.7067 33.6863 38.3003 33.9396 37.9079 34.235C37.5435 34.5024 37.1652 34.7697 36.8148 35.0512C36.0581 35.6844 35.3294 36.3457 34.5867 36.9789C34.2223 37.2885 33.7038 37.0915 33.5497 36.6412C33.4095 36.2472 33.5637 35.9939 33.8159 35.7688C34.7408 34.9386 35.6517 34.0803 36.6887 33.3767C37.2493 32.9968 37.7818 32.5887 38.3563 32.237C38.8188 31.9415 39.4074 32.2792 39.4074 32.7998C39.4214 32.8279 39.4494 32.8279 39.4634 32.842Z" fill="black"/>
<path d="M30.5787 31.2368C30.5507 30.7302 30.887 30.5473 31.1533 30.3222C31.5176 30.0267 31.882 29.7453 32.2603 29.4779C32.6948 29.1683 33.1152 28.8588 33.5636 28.5914C34.1802 28.2115 34.8108 27.8456 35.4555 27.522C35.8619 27.3109 36.4224 27.3813 36.5345 27.9582C36.6046 28.3241 36.5345 28.4929 36.2122 28.6758C35.4975 29.0839 34.7968 29.506 34.1101 29.9423C33.5356 30.3081 32.9891 30.7162 32.4425 31.1102C32.2183 31.279 32.0081 31.4479 31.7979 31.6449C31.4055 32.0107 30.8309 31.9263 30.5927 31.4479C30.5647 31.3634 30.5787 31.2649 30.5787 31.2368Z" fill="black"/>
<path d="M39.1833 28.4368C39.1132 28.0568 39.4916 27.8739 39.7579 27.6488C40.963 26.6216 42.2383 25.6788 43.5836 24.8346C43.7378 24.7361 44.0461 24.7079 44.2002 24.8064C44.3964 24.919 44.5506 25.1582 44.6206 25.3693C44.7467 25.7351 44.4805 25.9743 44.2142 26.1713C43.4715 26.6919 42.7007 27.1844 41.986 27.7191C41.4535 28.1272 40.949 28.5915 40.4586 29.0418C40.1362 29.3232 39.87 29.3795 39.4916 29.1966C39.1973 29.0559 39.1973 28.7885 39.1833 28.4368Z" fill="black"/>
<path d="M41.1872 31.5616C40.8649 31.6179 40.6827 31.4209 40.5285 31.1817C40.3464 30.8862 40.4305 30.6188 40.6266 30.3937C40.7948 30.1967 41.019 30.056 41.2292 29.9012C41.7898 29.465 42.3363 29.0006 42.9109 28.5785C43.5695 28.086 44.2422 27.6217 44.9429 27.1714C45.3633 26.904 45.9378 27.2699 45.9799 27.7483C46.0079 28.1001 45.8538 28.2971 45.5875 28.48C44.8588 28.9866 44.1161 29.4791 43.4014 30.0138C42.8128 30.45 42.2522 30.9565 41.6637 31.4068C41.5375 31.5053 41.3554 31.5475 41.2012 31.6179C41.2012 31.6038 41.2012 31.5897 41.1872 31.5616Z" fill="black"/>
<path d="M38.8188 26.7625C38.2022 26.7202 37.9639 26.2137 38.09 25.7353C38.1321 25.5664 38.3283 25.4257 38.4824 25.3131C39.113 24.8347 39.7577 24.3703 40.3883 23.906C40.8788 23.5401 41.3552 23.1743 41.8317 22.7803C42.2521 22.4285 42.9248 22.5692 43.0789 22.9773C43.191 23.3009 43.0789 23.6949 42.7706 23.9201C42.2521 24.3 41.7336 24.694 41.2291 25.088C40.7386 25.4538 40.2482 25.8056 39.7717 26.1715C39.6035 26.2981 39.4354 26.4388 39.2672 26.5514C39.099 26.6358 38.9589 26.6921 38.8188 26.7625Z" fill="black"/>
</svg>
