<svg width="46" height="37" viewBox="0 0 46 37" fill="none" xmlns="http://www.w3.org/2000/svg">
<path d="M38.3441 22.6724C37.7738 22.6305 37.3287 22.6305 36.8836 22.5607C36.7028 22.5328 36.5081 22.435 36.3829 22.3093C33.2951 19.5301 30.2073 16.7508 27.1195 13.9716C26.0763 13.0358 25.047 12.1001 24.0038 11.1644C23.8369 11.0108 23.6978 10.9828 23.4753 11.0527C21.9314 11.4577 20.3875 11.9325 18.8158 12.1979C16.8129 12.5331 14.9351 12.142 13.4886 10.5359C13.2104 10.2147 12.9879 9.83761 12.7792 9.47449C12.3898 8.77619 12.7236 7.96616 13.4886 7.7008C16.173 6.75111 18.8436 5.77349 21.5419 4.86569C22.2096 4.64223 22.9328 4.58637 23.6283 4.51654C23.9482 4.48861 24.3098 4.58637 24.6297 4.6981C27.2447 5.66176 29.8456 6.63938 32.4606 7.60304C32.6414 7.67287 32.8639 7.6589 33.0586 7.60304C34.9085 7.10026 36.7585 6.59748 38.5944 6.06677C38.8448 5.99694 38.97 6.05281 39.1091 6.24833C40.194 7.7008 41.0424 9.29293 41.7935 10.9409C43.0593 13.7202 44.2554 16.5553 45.4933 19.3485C45.6185 19.6278 45.549 19.7814 45.3543 19.9909C43.9077 21.4434 42.1413 22.2255 40.1384 22.5328C39.4985 22.5886 38.8587 22.6166 38.3441 22.6724Z" fill="#FCB817"/>
<path d="M8.03645 19.0424C9.24654 18.4 10.4149 18.791 11.0825 19.4754C11.9032 20.3133 12.0005 21.2351 11.4024 22.6038C12.5847 22.4641 13.5444 22.8412 14.1286 23.8886C14.6989 24.9361 14.5181 25.9277 13.6557 26.8355C14.0034 26.8355 14.2816 26.7936 14.5598 26.8355C15.5334 26.9891 16.215 27.5477 16.5349 28.4835C16.8548 29.3913 16.6184 30.1873 15.9507 30.8717C15.3109 31.542 14.6989 32.2264 14.0869 32.9107C13.1689 33.9302 11.7224 33.9861 10.7487 33.0085C8.82926 31.0672 7.16018 28.9164 5.505 26.7656C4.50354 25.4528 3.48818 24.14 2.50063 22.8132C1.97209 22.1149 1.56872 21.3468 1.79127 20.425C1.86082 20.1318 2.01382 19.8245 2.22245 19.5871C2.76491 18.9726 3.33518 18.386 3.90545 17.7855C5.08772 16.5704 7.2019 17.0313 7.88345 18.6653C7.93908 18.791 7.98081 18.9027 8.03645 19.0424Z" fill="#FCB817"/>
<path d="M15.7976 33.4819C16.2705 32.9652 16.7156 32.4903 17.2024 31.9456C17.8283 32.5881 18.4403 33.2165 19.0523 33.845C19.3861 34.1942 19.7895 34.4037 20.2624 34.4875C21.1943 34.669 22.2514 34.1523 22.6965 33.2864C21.7785 32.3646 20.8466 31.4429 19.9286 30.5211C19.3861 29.9764 18.8437 29.4317 18.3012 28.8731C17.9257 28.496 17.8979 28.0072 18.2317 27.6581C18.5655 27.3089 19.0801 27.3229 19.4696 27.7139C21.25 29.5016 23.0999 31.2334 24.7968 33.1048C25.8678 34.278 27.7455 33.845 28.4549 32.63C28.4688 32.602 28.4966 32.5741 28.5105 32.5322C28.7887 32.0434 28.7887 32.0294 28.3853 31.6384C25.8399 29.0826 23.2946 26.5268 20.7492 23.985C20.5128 23.7476 20.2902 23.4962 20.332 23.133C20.3737 22.8118 20.5406 22.5465 20.8744 22.4487C21.2221 22.337 21.5142 22.4208 21.7785 22.6722C22.9051 23.8174 24.0457 24.9486 25.1862 26.0939C26.7719 27.686 28.3575 29.2641 29.9292 30.8702C30.1239 31.0797 30.3326 31.1496 30.6108 31.1216C31.6261 31.0099 32.558 30.1859 32.7945 29.1943C32.8501 28.9709 32.8084 28.8172 32.6276 28.6496C29.6649 25.6888 26.7023 22.7141 23.7397 19.7393C23.6562 19.6555 23.5589 19.5717 23.4893 19.4739C23.1555 19.0969 23.1694 18.608 23.5171 18.2868C23.837 17.9796 24.3239 17.9935 24.6716 18.3287C25.4505 19.0969 26.2155 19.879 26.9805 20.6471C29.2198 22.8817 31.4592 25.1162 33.6847 27.3648C33.8933 27.5743 34.088 27.6301 34.3662 27.5463C35.771 27.1553 36.536 25.6749 36.0353 24.2922C36.0214 24.2364 35.9936 24.1805 35.9657 24.1107C36.7029 24.1805 37.4262 24.2364 38.1634 24.3062C38.3442 25.228 38.2468 26.1218 37.8574 26.9877C37.301 28.2167 36.383 29.0407 35.1034 29.4876C34.9087 29.5574 34.8113 29.6273 34.7417 29.8368C34.1158 31.778 32.7806 32.8953 30.7777 33.1746C30.5551 33.2026 30.4438 33.2724 30.3465 33.4679C29.1364 35.7444 26.3963 36.5544 24.143 35.2835C23.9483 35.1718 23.851 35.2137 23.7119 35.3533C21.9037 37.0432 19.2888 37.0013 17.5501 35.2416C16.9799 34.669 16.3957 34.0964 15.7976 33.4819Z" fill="black"/>
<path d="M19.0942 3.94371C18.0649 4.30683 17.0912 4.65598 16.1315 4.99117C15.9924 5.03306 15.8116 5.00513 15.6725 4.94927C12.9464 4.06941 10.2341 3.18954 7.52182 2.30968C7.28536 2.22589 7.11845 2.26779 6.93763 2.42141C4.00282 4.92134 2.31983 8.0637 2.08337 11.9323C2.04165 12.5608 2.06946 13.1892 2.09728 13.8038C2.1251 14.4741 2.48674 15.0048 2.86228 15.5355C3.00137 15.7311 3.16828 15.9266 3.23783 16.0244C2.77883 16.5411 2.33373 17.0439 1.86083 17.5746C0.901102 16.4433 0.108286 15.2842 0.0248315 13.7339C-0.142077 10.5078 0.525559 7.49109 2.23637 4.72581C3.39083 2.86833 4.82346 1.27619 6.67336 0.0890796C6.79854 0.00528327 7.00718 -0.0226489 7.13236 0.0192493C11.0686 1.29016 14.991 2.56107 18.9133 3.83198C18.9412 3.87388 18.9829 3.90181 19.0942 3.94371Z" fill="black"/>
</svg>
