<svg width="46" height="54" viewBox="0 0 46 54" fill="none" xmlns="http://www.w3.org/2000/svg">
<path d="M21.1772 49.1187C20.5059 49.7941 19.7935 50.18 18.9303 50.3041C16.656 50.6211 14.8202 49.1049 14.7105 46.7754C14.5461 43.4672 16.7793 41.4133 20.1771 41.7579C20.958 41.8406 21.7253 42.0061 22.5062 42.1439C22.8076 42.199 22.9172 42.3507 22.9035 42.6815C22.8213 44.0875 22.7665 45.4934 22.7117 46.8994C22.698 47.1889 22.6843 47.5059 22.7939 47.754C22.9035 48.0021 23.1227 48.333 23.342 48.3881C23.5749 48.4432 23.9311 48.2503 24.1229 48.0573C24.3421 47.8367 24.4791 47.5059 24.5613 47.2027C24.8764 46.1137 24.9312 44.9972 24.712 43.8807C24.2599 41.6201 22.9309 40.2555 20.6566 39.9109C17.848 39.4836 15.1216 40.4622 13.8611 43.1915C13.2857 44.4183 13.1076 45.7278 13.2035 47.0786C13.2446 47.6438 13.3268 48.2089 13.4912 48.7465C14.1214 50.8003 15.834 52.0271 18.122 52.1374C19.6702 52.2063 21.1635 51.9582 22.6295 51.4482C22.7802 51.393 22.9309 51.3517 23.1227 51.2828C23.1227 51.8479 23.1501 52.3579 23.109 52.8679C23.0953 53.0333 22.8761 53.2263 22.7117 53.2952C20.9169 54.0258 19.0536 54.1085 17.1493 53.9017C15.9162 53.7639 14.7653 53.3642 13.7378 52.6336C12.1485 51.5033 11.3265 49.9181 11.0936 48.0297C10.8744 46.3205 11.0251 44.6388 11.6964 43.0261C13.0939 39.7041 16.1491 37.857 19.9305 38.0087C22.1226 38.0914 24.0818 38.753 25.4518 40.5449C27.2192 42.8607 27.4247 45.4521 26.315 48.1124C25.8218 49.2978 24.9449 50.0973 23.5749 50.1938C22.5884 50.2627 21.739 50.1111 21.1772 49.1187ZM20.6703 44.5561C20.6292 43.481 20.6292 43.4809 19.5606 43.4947C18.2042 43.5085 17.2726 44.2253 17.0397 45.5072C16.9438 46.0172 16.9575 46.5686 17.0123 47.0924C17.0945 47.7265 17.4096 48.2089 18.0809 48.3881C19.1222 48.6638 20.0127 48.2227 20.2867 47.1475C20.4922 46.2929 20.547 45.4107 20.6703 44.5561Z" fill="#FCB817"/>
<path d="M44.4766 27.6846C42.8929 27.213 41.3092 26.7548 39.7121 26.2831C33.8471 24.5582 27.9822 22.8198 22.1172 21.0949C21.1106 20.7984 20.3859 21.2027 20.0906 22.2268C18.6948 26.9569 17.3125 31.687 15.9301 36.4305C15.8899 36.5653 15.863 36.7135 15.8228 36.9022C16.2925 36.7405 16.6683 36.5788 17.0709 36.471C17.393 36.3901 17.5541 36.2284 17.648 35.8915C18.668 32.3473 19.7148 28.8166 20.7483 25.2859C21.0167 24.3695 21.2851 23.4532 21.5669 22.4964C29.1766 24.7468 36.7192 26.9704 44.3289 29.2209C42.6513 34.9482 40.9871 40.6216 39.3095 46.3489C35.8335 45.3247 32.4514 44.3275 29.0156 43.3168C29.0424 43.7615 29.0827 44.1253 29.0693 44.4892C29.0559 44.7856 29.1498 44.9204 29.4585 45.0147C32.5453 45.9176 35.6321 46.834 38.7055 47.7369C39.739 48.0468 40.4905 47.6425 40.7858 46.6184C42.4232 41.0528 44.0471 35.4737 45.671 29.9081C46.02 28.7357 45.6174 28.0215 44.4766 27.6846Z" fill="#FCB817"/>
<path d="M42.6781 31.0531C42.9465 30.824 43.0404 30.541 42.9062 30.2041C42.772 29.8672 42.517 29.7055 42.1681 29.7459C41.9802 29.7729 41.8057 29.8538 41.6312 29.9211C38.1284 31.5517 34.6255 33.1958 31.136 34.8399C30.8005 35.0016 30.6394 34.9881 30.4113 34.6647C28.5458 31.9425 26.6534 29.2204 24.7745 26.4982C24.2913 25.811 23.8216 25.1237 23.3384 24.4364C23.1237 24.1399 22.8419 24.0052 22.4795 24.1265C22.144 24.2477 21.9829 24.4903 21.9829 24.962C22.05 25.0833 22.1305 25.2989 22.2647 25.4875C24.8147 29.1665 27.3647 32.8454 29.9013 36.5378C30.116 36.8478 30.2771 36.9017 30.626 36.74C34.5181 34.9073 38.4236 33.0745 42.3157 31.2553C42.4365 31.2014 42.5707 31.1475 42.6781 31.0531Z" fill="#FCB817"/>
<path d="M35.0013 36.8086C34.7731 36.7952 34.4779 36.9164 34.3168 37.0916C34.0618 37.3342 34.1423 37.6711 34.3034 37.9676C34.961 39.2478 35.6186 40.528 36.2628 41.8082C36.7863 42.8189 37.2963 43.8431 37.8197 44.8538C37.9941 45.1907 38.276 45.3793 38.6786 45.2715C39.0544 45.1772 39.2289 44.9212 39.2423 44.4899C39.2289 44.4225 39.202 44.3013 39.1483 44.1935C37.9673 41.8621 36.7863 39.5443 35.5784 37.2264C35.471 37.0377 35.2026 36.8356 35.0013 36.8086Z" fill="#FCB817"/>
<path d="M25.083 34.0732C23.9691 34.6797 22.8685 35.3265 21.6741 36.0003C22.372 36.1755 22.9759 36.3507 23.5799 36.4854C23.6872 36.5124 23.8349 36.4854 23.9288 36.4315C24.5462 36.0946 25.177 35.7577 25.7809 35.3804C26.1701 35.1378 26.2641 34.7201 26.0627 34.3562C25.8614 34.0193 25.4588 33.8711 25.083 34.0732Z" fill="#FCB817"/>
<path d="M30.9721 10.4665C30.9651 9.85224 30.7195 9.27367 30.3169 8.89384L26.6326 5.33071C26.1522 4.86544 25.5078 4.53314 24.846 4.40013C24.4975 4.32871 24.1711 4.31448 23.8552 4.35418C23.5156 4.38732 23.1681 4.49479 22.8226 4.64105C22.7773 4.66674 22.7268 4.66546 22.6764 4.66418C20.4496 5.49914 14.8624 8.00188 9.76623 13.3073C6.27799 16.9422 3.62829 21.3079 1.65366 26.6267C1.64707 26.6504 1.65228 26.6774 1.64569 26.7011C1.23959 27.9786 1.55421 29.4055 2.44153 30.4176L2.47361 30.4393C2.5024 30.4728 2.5312 30.5064 2.5449 30.5484L6.19849 34.0393C6.59774 34.4309 7.17418 34.6423 7.77452 34.6306C8.37486 34.619 8.93684 34.3798 9.33128 33.9665L14.0363 29.0626C14.8436 28.2156 14.8227 26.6918 13.9803 25.8834L11.6358 23.6241C11.5259 23.517 11.5031 23.3704 11.5662 23.2348C12.4378 21.3342 13.5293 19.6477 14.8243 18.2347C15.715 17.2705 17.2707 15.879 19.6322 14.7881C19.7614 14.7348 19.9095 14.7504 20.0195 14.8575L22.4536 17.2056L22.5414 17.2555C23.058 17.5905 23.624 17.7479 24.1805 17.7113C24.7101 17.68 25.2584 17.3988 25.6391 16.9434C25.6759 16.9026 25.7093 16.8736 25.7664 16.8512L30.4031 12.0559C30.7674 11.6597 30.9825 11.0689 30.9721 10.4665ZM29.4451 10.4756C29.4495 10.6426 29.3425 10.7532 29.2723 10.8229C29.2539 10.8433 29.2355 10.8637 29.2021 10.8927L24.4202 15.8901C24.3618 15.9631 24.2496 16.0467 24.0563 16.0567C23.9016 16.0647 23.7431 15.9951 23.5879 15.9137C23.4987 15.9144 23.4195 15.8796 23.3501 15.8093L20.5521 13.0794L20.1495 12.6996L19.6663 12.8841C19.6361 12.9012 16.1312 14.312 13.5747 17.109C11.055 19.8653 9.66757 23.2553 9.65769 23.2909L9.45905 23.8224L9.8635 24.2411L12.839 27.1096C12.8678 27.1431 12.888 27.1615 12.9083 27.1799C12.9777 27.2502 13.091 27.3455 13.0953 27.5125C13.0997 27.6796 12.9927 27.7901 12.9225 27.8599C12.9041 27.8803 12.8857 27.9007 12.8523 27.9297L8.15574 32.8487C8.12227 32.8777 8.1039 32.8981 8.08552 32.9185C8.03038 32.9797 7.95358 33.0731 7.83098 33.1028C7.8041 33.1081 7.77723 33.1134 7.75035 33.1186C7.58388 33.1234 7.47392 33.0163 7.40454 32.9459C7.38425 32.9275 7.36396 32.9091 7.33517 32.8756L3.68159 29.3848C3.64101 29.348 3.61551 29.3026 3.6018 29.2606C3.13073 28.6703 2.9874 28.0437 3.18497 27.3332C3.18306 27.2944 3.18964 27.2707 3.19952 27.2352L3.20281 27.2234C5.05646 22.2026 7.6746 17.9047 10.9824 14.4619C15.9565 9.27563 21.6065 6.86689 23.3349 6.22501C23.3867 6.17565 23.4438 6.15324 23.5211 6.14924C23.6805 6.07874 23.8417 6.04705 24.0115 6.03048C24.5326 5.98405 25.0887 6.17699 25.4559 6.54698L29.1789 10.1081C29.2077 10.1416 29.2279 10.16 29.2482 10.1784C29.3308 10.2014 29.4407 10.3085 29.4451 10.4756Z" fill="#010101"/>
</svg>
