<svg width="50" height="45" viewBox="0 0 50 45" fill="none" xmlns="http://www.w3.org/2000/svg">
<path d="M45.6451 36.6747H14.0481C13.6133 36.6747 13.2453 36.3724 13.1561 35.9582L5.55234 1.83597H1.82848V5.51911C1.82848 6.02289 1.41596 6.4371 0.914241 6.4371C0.412524 6.4371 0 6.02289 0 5.51911V0.917981C0 0.414208 0.412524 0 0.914241 0H6.29934C6.73416 0 7.10209 0.30226 7.19128 0.716473L14.7951 34.8387H44.7309V22.8601C44.7309 22.3563 45.1434 21.9421 45.6451 21.9421H48.8004C49.3021 21.9421 49.7146 22.3563 49.7146 22.8601C49.7146 23.3639 49.3021 23.7781 48.8004 23.7781H46.5705V35.7567C46.5594 36.2605 46.1468 36.6747 45.6451 36.6747Z" fill="black"/>
<path d="M23.1125 9.36973H17.3706C17.0027 9.36973 16.7017 9.06747 16.7017 8.69803V2.68635C16.7017 2.31691 17.0027 2.01465 17.3706 2.01465H23.1125C23.4804 2.01465 23.7815 2.31691 23.7815 2.68635V8.69803C23.7815 9.06747 23.4804 9.36973 23.1125 9.36973Z" fill="#FCB817"/>
<path d="M28.8876 18.0916C29.2778 17.3863 29.6346 16.7258 30.0025 16.0653C30.2032 15.6847 30.415 15.3152 30.6157 14.9346C30.8164 14.5652 31.1954 14.442 31.5522 14.6212C31.8979 14.8003 32.0316 15.1921 31.831 15.5615C31.084 16.9385 30.337 18.3267 29.5677 19.6924C29.2889 20.1962 28.698 20.2186 28.3635 19.7484C27.951 19.1551 27.5385 18.5506 27.1371 17.9572C26.903 17.599 26.9699 17.2072 27.2932 16.9833C27.6054 16.7594 28.0068 16.8489 28.252 17.1848C28.3524 17.3191 28.4527 17.4759 28.5419 17.6102C28.6534 17.7445 28.7538 17.8901 28.8876 18.0916Z" fill="black"/>
<path d="M29.4898 22.8383C26.3123 22.8383 23.7368 20.2411 23.7368 17.0617C23.7368 13.8712 26.3234 11.2852 29.4898 11.2852C32.6674 11.2852 35.2429 13.8824 35.2429 17.0617C35.2429 20.2523 32.6674 22.8383 29.4898 22.8383ZM29.4898 12.6285C27.0593 12.6285 25.0747 14.6212 25.0747 17.0617C25.0747 19.5022 27.0593 21.4949 29.4898 21.4949C31.9204 21.4949 33.905 19.5022 33.905 17.0617C33.905 14.6212 31.9204 12.6285 29.4898 12.6285Z" fill="black"/>
<path d="M22.4331 32H17.5669C17.2551 32 17 31.7114 17 31.3673V20.6327C17 20.2775 17.2551 20 17.5669 20H22.4331C22.7449 20 23 20.2886 23 20.6327V31.3673C23 31.7114 22.7449 32 22.4331 32Z" fill="#FCB817"/>
<path d="M41.4328 32H36.5669C36.2551 32 36 31.7114 36 31.3673V20.6327C36 20.2775 36.2551 20 36.5669 20H41.4328C41.7446 20 41.9998 20.2886 41.9998 20.6327V31.3673C42.0092 31.7114 41.7446 32 41.4328 32Z" fill="#FCB817"/>
<path d="M32.3442 9.36973H26.6023C26.2344 9.36973 25.9333 9.06747 25.9333 8.69803V2.68635C25.9333 2.31691 26.2344 2.01465 26.6023 2.01465H32.3442C32.7121 2.01465 33.0131 2.31691 33.0131 2.68635V8.69803C33.0131 9.06747 32.7121 9.36973 32.3442 9.36973Z" fill="#FCB817"/>
<path d="M41.6091 9.36973H35.8672C35.4993 9.36973 35.1982 9.06747 35.1982 8.69803V2.68635C35.1982 2.31691 35.4993 2.01465 35.8672 2.01465H41.6091C41.977 2.01465 42.278 2.31691 42.278 2.68635V8.69803C42.2892 9.06747 41.977 9.36973 41.6091 9.36973Z" fill="#FCB817"/>
<path d="M33.2918 32.4311H25.8887C25.5208 32.4311 25.2197 32.1288 25.2197 31.7594V25.994C25.2197 25.6245 25.5208 25.3223 25.8887 25.3223H33.2918C33.6597 25.3223 33.9608 25.6245 33.9608 25.994V31.7594C33.9719 32.1288 33.6709 32.4311 33.2918 32.4311Z" fill="#FCB817"/>
<path d="M17.1811 17.7669C15.5087 17.7669 14.1597 16.4011 14.1597 14.7331C14.1597 13.065 15.5199 11.6992 17.1811 11.6992C18.8535 11.6992 20.2026 13.065 20.2026 14.7331C20.2026 16.4011 18.8424 17.7669 17.1811 17.7669ZM17.1811 13.0426C16.2557 13.0426 15.4976 13.8039 15.4976 14.7331C15.4976 15.6623 16.2557 16.4235 17.1811 16.4235C18.1065 16.4235 18.8647 15.6623 18.8647 14.7331C18.8647 13.8039 18.1065 13.0426 17.1811 13.0426Z" fill="#FCB817"/>
<path d="M41.7986 17.7669C40.1262 17.7669 38.7771 16.4011 38.7771 14.7331C38.7771 13.065 40.1373 11.6992 41.7986 11.6992C43.4598 11.6992 44.82 13.065 44.82 14.7331C44.82 16.4011 43.4598 17.7669 41.7986 17.7669ZM41.7986 13.0426C40.8732 13.0426 40.115 13.8039 40.115 14.7331C40.115 15.6623 40.8732 16.4235 41.7986 16.4235C42.7239 16.4235 43.4821 15.6623 43.4821 14.7331C43.4821 13.8039 42.7239 13.0426 41.7986 13.0426Z" fill="#FCB817"/>
<path d="M22.243 44.1084C23.6838 44.1084 24.8519 42.9355 24.8519 41.4888C24.8519 40.042 23.6838 38.8691 22.243 38.8691C20.8021 38.8691 19.634 40.042 19.634 41.4888C19.634 42.9355 20.8021 44.1084 22.243 44.1084Z" fill="black"/>
<path d="M36.5362 44.1084C37.977 44.1084 39.1451 42.9355 39.1451 41.4888C39.1451 40.042 37.977 38.8691 36.5362 38.8691C35.0953 38.8691 33.9272 40.042 33.9272 41.4888C33.9272 42.9355 35.0953 44.1084 36.5362 44.1084Z" fill="black"/>
</svg>
