<svg width="50" height="50" viewBox="0 0 50 50" fill="none" xmlns="http://www.w3.org/2000/svg">
<path d="M39.0676 10.3679H35.7255L38.0863 8.00739C38.3733 7.72042 38.3733 7.24831 38.0863 6.96134L32.8462 1.72182C32.55 1.4441 32.0963 1.4441 31.8001 1.72182L29.4393 4.08238V0.740568C29.4393 0.333255 29.106 0 28.6986 0H21.2922C20.8849 0 20.5516 0.333255 20.5516 0.740568V4.08238L18.1908 1.72182C17.9038 1.43485 17.4316 1.43485 17.1446 1.72182L11.9046 6.96134C11.6176 7.24831 11.6176 7.72042 11.9046 8.00739L14.2654 10.3679H10.9233C10.5159 10.3679 10.1826 10.7012 10.1826 11.1085V18.5142C10.1826 18.9215 10.5159 19.2548 10.9233 19.2548H14.2654L11.9046 21.6153C11.6176 21.9023 11.6176 22.3744 11.9046 22.6614L17.1446 27.9009C17.4409 28.1786 17.8945 28.1786 18.1908 27.9009L20.5516 25.5403V28.8821C20.5516 29.2894 20.8849 29.6227 21.2922 29.6227H28.6986C29.106 29.6227 29.4393 29.2894 29.4393 28.8821V25.5403L31.8001 27.9009C32.0871 28.1879 32.5592 28.1879 32.8462 27.9009L38.0863 22.6614C38.3733 22.3744 38.3733 21.9023 38.0863 21.6153L35.7255 19.2548H39.0676C39.475 19.2548 39.8083 18.9215 39.8083 18.5142V11.1085C39.8083 10.7012 39.475 10.3679 39.0676 10.3679ZM38.327 17.7736H34.6701C34.3645 17.7736 34.0868 17.9588 33.9757 18.2457C33.9109 18.4124 33.8461 18.5697 33.7813 18.7271C33.6517 19.0048 33.7165 19.3381 33.9294 19.551L36.5124 22.1337L32.3185 26.3272L29.7355 23.7444C29.5226 23.5315 29.1893 23.4667 28.9116 23.5963C28.7542 23.6704 28.5875 23.7352 28.4302 23.7907C28.1432 23.9018 27.958 24.1795 27.958 24.485V28.1416H22.0329V24.485C22.0329 24.1795 21.8477 23.9018 21.5607 23.7907C21.3941 23.7259 21.2367 23.6611 21.0793 23.5963C20.8016 23.4667 20.4683 23.5315 20.2553 23.7444L17.6723 26.3272L13.4785 22.1337L16.0615 19.551C16.2744 19.3381 16.3392 19.0048 16.2096 18.7271C16.1355 18.5697 16.0707 18.4031 16.0152 18.2457C15.9041 17.9588 15.6263 17.7736 15.3208 17.7736H11.6639V11.8491H15.3208C15.6263 11.8491 15.9041 11.6639 16.0152 11.377C16.08 11.2103 16.1448 11.053 16.2096 10.8956C16.3392 10.6179 16.2744 10.2846 16.0615 10.0717L13.4785 7.48899L17.6723 3.29552L20.2553 5.87825C20.4683 6.09117 20.8016 6.15597 21.0793 6.02637C21.2367 5.95231 21.4033 5.88751 21.5607 5.83197C21.8477 5.72088 22.0329 5.44317 22.0329 5.13769V1.48114H27.958V5.13769C27.958 5.44317 28.1432 5.72088 28.4302 5.83197C28.5968 5.89677 28.7542 5.96157 28.9116 6.02637C29.1893 6.15597 29.5226 6.09117 29.7355 5.87825L32.3185 3.29552L36.5124 7.48899L33.9294 10.0717C33.7165 10.2846 33.6517 10.6179 33.7813 10.8956C33.8554 11.053 33.9202 11.2196 33.9757 11.377C34.0868 11.6639 34.3645 11.8491 34.6701 11.8491H38.327V17.7736Z" fill="#FCB817"/>
<path d="M24.9954 8.14648C21.3107 8.14648 18.3296 11.1273 18.3296 14.8116C18.3388 18.4867 21.3199 21.4767 24.9954 21.4767C28.68 21.4767 31.6611 18.4959 31.6611 14.8116C31.6611 11.1273 28.68 8.14648 24.9954 8.14648Z" fill="#FCB817"/>
<path d="M40.5488 31.8447H27.2173C25.986 31.8447 24.9954 32.8352 24.9954 34.0664V35.5476C24.9954 36.7788 25.986 37.7693 27.2173 37.7693H36.105C36.5123 37.7693 36.8456 37.436 36.8456 37.0287C36.8456 36.6214 36.5123 36.2881 36.105 36.2881H27.2173C26.8099 36.2881 26.4766 35.9549 26.4766 35.5476V34.0664C26.4766 33.6591 26.8099 33.3259 27.2173 33.3259H40.5488C42.5948 33.3259 45.7333 35.816 45.7333 38.8801C45.7333 39.2874 46.0666 39.6207 46.474 39.6207C46.8813 39.6207 47.2146 39.2874 47.2146 38.8801C47.2146 35.094 43.5484 31.8447 40.5488 31.8447Z" fill="black"/>
<path d="M2.35007 6.60123C2.52597 6.68454 2.72964 6.68454 2.9148 6.61974C3.09996 6.54568 3.24809 6.40683 3.33141 6.23094C3.55361 5.74957 3.79431 5.2682 4.05354 4.80534C4.24796 4.44431 4.10909 3.99996 3.75728 3.80556C3.40548 3.61116 2.96109 3.7315 2.75742 4.08328C2.47968 4.58316 2.22045 5.10157 1.989 5.61997C1.8131 5.99026 1.97975 6.4346 2.35007 6.60123Z" fill="black"/>
<path d="M3.3964 25.9113C3.65563 25.9113 3.90559 25.7724 4.0352 25.5502C4.16482 25.3281 4.17407 25.0411 4.04446 24.8189C1.28557 19.7923 0.720836 13.8586 2.48912 8.40615C2.59095 8.02661 2.37802 7.62854 2.0077 7.5082C1.62812 7.38786 1.22077 7.58226 1.0819 7.95255C-0.806736 13.7938 -0.204965 20.1534 2.74834 25.541C2.87795 25.7632 3.12792 25.9113 3.3964 25.9113Z" fill="black"/>
<path d="M5.06284 21.7921C5.22022 22.1717 5.64609 22.3568 6.02567 22.1995C6.40525 22.0421 6.59041 21.6163 6.43302 21.2367C4.22962 15.8121 4.97026 9.63758 8.37721 4.87943C8.5994 4.54618 8.51608 4.10184 8.19204 3.86115C7.86801 3.62973 7.41437 3.69452 7.17366 4.00926C3.47046 9.18398 2.66501 15.8954 5.06284 21.7921Z" fill="black"/>
<path d="M6.4608 23.0874C6.29415 23.1892 6.16454 23.3466 6.11825 23.541C6.07196 23.7354 6.09048 23.9298 6.19232 24.1056C6.48857 24.6148 6.8126 25.1239 7.16441 25.6053C7.40512 25.9385 7.86802 26.0126 8.20131 25.7719C8.5346 25.5312 8.60866 25.0684 8.36795 24.7351C8.04392 24.2908 7.74766 23.8279 7.46992 23.3558C7.26625 23.0041 6.8126 22.8837 6.4608 23.0874Z" fill="black"/>
<path d="M46.6591 6.23065C46.7609 6.4806 46.9924 6.64722 47.2609 6.67499C47.5293 6.70277 47.7886 6.58243 47.946 6.36026C48.1034 6.13809 48.1219 5.8511 48.0108 5.61041C47.7793 5.09201 47.5201 4.58287 47.2423 4.07372C47.0387 3.72194 46.5943 3.59234 46.2425 3.796C45.8907 3.9904 45.7518 4.43475 45.9462 4.79579C46.1962 5.2679 46.4369 5.74928 46.6591 6.23065Z" fill="black"/>
<path d="M47.5018 8.40665C49.2701 13.8591 48.7053 19.7929 45.9464 24.8195C45.8168 25.0509 45.8168 25.3379 45.9557 25.5693C46.0946 25.8008 46.3445 25.9396 46.613 25.9303C46.8815 25.9211 47.1222 25.773 47.2518 25.5415C50.2051 20.1632 50.8069 13.7943 48.9183 7.9623C48.7794 7.59202 48.372 7.39763 47.9925 7.51797C47.6129 7.6198 47.3999 8.01785 47.5018 8.40665Z" fill="black"/>
<path d="M44.8073 14.8123C44.8073 17.0154 44.3907 19.1908 43.5574 21.2274C43.4001 21.6069 43.5852 22.042 43.9648 22.1901C44.3444 22.3475 44.7795 22.1624 44.9276 21.7828C47.3162 15.8861 46.52 9.1747 42.8075 4.00926C42.5668 3.69452 42.1132 3.62973 41.7892 3.86115C41.4651 4.09258 41.3818 4.54617 41.604 4.87943C43.6963 7.76763 44.8165 11.2483 44.8073 14.8123Z" fill="black"/>
<path d="M42.5115 23.3556C42.2338 23.8277 41.9375 24.2906 41.6135 24.7349C41.3728 25.0682 41.4468 25.531 41.7801 25.7717C42.1134 26.0124 42.5763 25.9383 42.817 25.6051C43.1688 25.1237 43.4929 24.6146 43.7891 24.1054C43.928 23.874 43.928 23.5963 43.7984 23.3556C43.6688 23.1242 43.4188 22.9854 43.1503 22.9854C42.8911 22.9854 42.6411 23.1242 42.5115 23.3556Z" fill="black"/>
<path d="M47.0479 45.6747C44.4834 43.2031 38.8916 42.9624 36.8919 42.9624C36.8734 42.9624 36.8641 42.9624 36.8456 42.9624H20.9681L5.47943 34.02C4.72953 33.5849 4.47031 32.6222 4.90544 31.8631C5.34982 31.1225 6.29414 30.8726 7.0533 31.2892C7.07181 31.2984 24.7361 39.2595 24.9861 39.2595H25.2545C25.6064 39.2595 25.9026 39.0096 25.9767 38.6671C26.0507 38.3246 25.8748 37.9821 25.5508 37.8339L7.7569 29.9839C6.29414 29.1693 4.44254 29.6877 3.61857 31.1503C2.79461 32.6129 3.29454 34.4551 4.73879 35.2975L20.4033 44.3417C20.5144 44.4065 20.6441 44.4435 20.7737 44.4435H36.142C36.1697 44.4435 36.1975 44.4435 36.2253 44.4435C36.2253 44.4435 36.2531 44.4435 36.2901 44.4435H36.8456C36.8734 44.4435 36.9011 44.4435 36.9289 44.4343C38.799 44.4435 43.8817 44.6749 46.0295 46.7393C46.6406 47.3317 46.9368 48.0075 46.9368 48.8221C46.9368 49.2294 47.2701 49.5627 47.6775 49.5627C48.0848 49.5627 48.4181 49.2294 48.4181 48.8221C48.4088 47.6002 47.9459 46.5449 47.0479 45.6747Z" fill="black"/>
</svg>
