<svg width="46" height="47" viewBox="0 0 46 47" fill="none" xmlns="http://www.w3.org/2000/svg">
<path d="M31.7081 24.7717C30.7101 24.5192 29.8804 23.8339 29.4235 22.8961C29.0027 22.0304 28.9425 21.0565 29.2552 20.1548L23.8562 18.7721C23.3873 18.6519 23.1107 18.171 23.231 17.7021L24.6979 11.9911C24.7581 11.7386 24.9384 11.5342 25.1669 11.414C25.3953 11.3058 25.6719 11.3058 25.9124 11.414L25.9605 11.438C26.4415 11.6665 27.0066 11.6544 27.4876 11.426C27.9686 11.1976 28.3293 10.7647 28.4616 10.2477C28.5938 9.73075 28.4856 9.1897 28.173 8.74485C27.8603 8.31202 27.3794 8.03548 26.8383 7.99941H26.7902C26.5256 7.97537 26.2972 7.85514 26.1409 7.63872C25.9845 7.4223 25.9364 7.1578 26.0086 6.90531L27.6078 0.653285C27.7281 0.184383 28.209 -0.0921499 28.678 0.0280813L42.7345 3.63502C44.8507 4.17606 46.1253 6.34022 45.5842 8.45629L41.9769 22.5113C41.8567 22.9802 41.3757 23.2568 40.9068 23.1365L36.097 21.8982C35.9527 22.8119 35.4477 23.6295 34.6902 24.1825C33.8485 24.7957 32.7783 25.0121 31.7683 24.7717C31.7442 24.7837 31.7202 24.7837 31.7081 24.7717ZM25.1308 17.2933L30.674 18.712C30.9265 18.7721 31.131 18.9525 31.2512 19.1809C31.3594 19.4094 31.3594 19.6859 31.2512 19.9264L30.9746 20.5275C30.7342 21.0325 30.7462 21.6216 30.9867 22.1266C31.2272 22.6195 31.636 22.9562 32.1651 23.0764C32.6821 23.1966 33.2232 23.0884 33.6441 22.7758C34.0769 22.4632 34.3415 21.9823 34.3775 21.4533L34.4256 20.7319C34.4497 20.4674 34.582 20.239 34.7864 20.0827C35.0028 19.9264 35.2673 19.8783 35.5198 19.9504L40.4859 21.2249L43.8768 8.02346C44.1774 6.84519 43.4679 5.63086 42.2775 5.33028L29.0748 1.95178L27.9084 6.4845C28.5698 6.72497 29.159 7.1578 29.5798 7.74693C30.1931 8.60057 30.3975 9.68265 30.1329 10.7046C29.8684 11.7266 29.171 12.5682 28.2211 13.0251C27.5718 13.3377 26.8503 13.4339 26.1529 13.3257L25.1308 17.2933Z" fill="#FCB817"/>
<path d="M36.061 32.5028C36.542 32.5028 36.9388 32.1061 36.9388 31.6251V28.463C36.9388 27.9821 36.542 27.5853 36.061 27.5853H30.0609C29.7964 27.5853 29.5559 27.7056 29.3875 27.8979C29.2192 28.1023 29.147 28.3548 29.1951 28.6193L29.3274 29.3287C29.4236 29.8457 29.2793 30.3867 28.9426 30.7955C28.6059 31.2043 28.1129 31.4448 27.5839 31.4568C27.0548 31.4568 26.5618 31.2404 26.2131 30.8196C25.8524 30.3867 25.696 29.8337 25.8043 29.2806L25.9245 28.6314C25.9726 28.3789 25.9005 28.1144 25.7321 27.91C25.5638 27.7056 25.3233 27.5974 25.0588 27.5974H19.3352V23.4734C20.0326 23.4013 20.7059 23.1247 21.2591 22.6679C22.0647 21.9946 22.5336 20.9966 22.5336 19.9386C22.5336 18.8805 22.0647 17.8947 21.2591 17.2093C20.7059 16.7525 20.0326 16.4759 19.3352 16.4038V10.8611C19.3352 10.3802 18.9384 9.9834 18.4574 9.9834H3.96804C1.7796 9.9834 0 11.7628 0 13.951V42.963C0 45.1512 1.7796 46.9306 3.96804 46.9306H32.9828C35.1712 46.9306 36.9508 45.1512 36.9508 42.963V40.4261C36.9508 39.9452 36.554 39.5484 36.0731 39.5484C35.5921 39.5484 35.1953 39.9452 35.1953 40.4261V42.963C35.1953 44.1893 34.1973 45.1752 32.9828 45.1752H19.3472V39.5364C19.3472 39.2719 19.2269 39.0314 19.0346 38.8631C18.8422 38.6947 18.5776 38.6226 18.3131 38.6707L18.265 38.6827C17.7359 38.7789 17.2069 38.6346 16.786 38.298C16.3772 37.9613 16.1367 37.4564 16.1367 36.9153C16.1367 36.3863 16.3772 35.8813 16.786 35.5327C17.1948 35.196 17.7359 35.0517 18.265 35.1479L18.3131 35.1599C18.5656 35.208 18.8301 35.1359 19.0346 34.9676C19.239 34.7992 19.3472 34.5588 19.3472 34.2943V29.3287H24.0367C23.9645 30.2665 24.2651 31.2043 24.8784 31.9377C25.5638 32.7433 26.5618 33.2002 27.6079 33.1881C28.654 33.1761 29.628 32.6952 30.3014 31.8896C30.8906 31.1682 31.1792 30.2424 31.095 29.3287H35.1833V31.6251C35.1953 32.1061 35.5801 32.5028 36.061 32.5028ZM1.74353 13.951C1.74353 12.7247 2.74155 11.7388 3.95601 11.7388H17.5916V17.3296C17.5916 17.5941 17.7119 17.8345 17.9043 18.0029C18.1087 18.1712 18.3612 18.2433 18.6257 18.1952L18.6738 18.1832C19.2029 18.087 19.732 18.2313 20.1528 18.5679C20.5616 18.9046 20.8021 19.4096 20.8021 19.9506C20.8021 20.4917 20.5616 20.9846 20.1528 21.3333C19.744 21.6699 19.2029 21.8142 18.6738 21.718L18.6257 21.706C18.3732 21.6579 18.1087 21.73 17.9043 21.8984C17.6999 22.0667 17.5916 22.3072 17.5916 22.5717V27.5974H13.84C13.4072 26.1185 12.0484 25.0484 10.4371 25.0484C8.82588 25.0484 7.4551 26.1185 7.03425 27.5974H1.74353V13.951ZM15.6677 34.1981C14.8621 34.8714 14.3932 35.8693 14.3932 36.9273C14.3932 37.9854 14.8621 38.9713 15.6677 39.6566C16.2209 40.1135 16.8942 40.39 17.5916 40.4622V45.1873H3.96804C2.74155 45.1873 1.75556 44.1893 1.75556 42.975V29.3407H7.76773C8.23668 29.3407 8.62146 28.968 8.64551 28.4991C8.68159 27.5372 9.47519 26.7798 10.4371 26.7798C11.3991 26.7798 12.1927 27.5372 12.2288 28.4991C12.2528 28.968 12.6376 29.3407 13.1065 29.3407H17.5916V33.3925C16.8942 33.4526 16.2209 33.7292 15.6677 34.1981Z" fill="black"/>
<path d="M36.0611 36.8547C35.7004 36.8547 35.3637 36.6142 35.2434 36.2776C35.1232 35.9409 35.2314 35.5442 35.496 35.3157C35.7845 35.0752 36.2054 35.0392 36.518 35.2436C36.8186 35.4359 36.987 35.8087 36.9148 36.1573C36.8427 36.5541 36.482 36.8547 36.0611 36.8547Z" fill="#010101"/>
</svg>
