<svg width="40" height="35" viewBox="0 0 40 35" fill="none" xmlns="http://www.w3.org/2000/svg">
<path d="M36.7613 15.2408C36.7613 15.2548 36.6769 14.9171 36.508 14.5231C36.4799 14.4386 36.4376 14.3542 36.3954 14.2698C36.2265 13.8757 36.2547 13.2987 36.4799 12.9188C36.9021 12.2011 37.3525 11.1315 36.7332 10.5264L36.2969 10.062C35.7762 9.54134 34.6502 9.97759 33.9184 10.3716C33.5384 10.5686 32.9473 10.5968 32.5532 10.4138C32.4828 10.3857 32.3984 10.3435 32.3139 10.3153C31.9199 10.1605 31.5258 9.72429 31.3991 9.31618C31.1739 8.51404 30.7236 7.47266 29.851 7.47266H29.3725C28.6265 7.47266 28.1199 8.55625 27.8384 9.34432C27.6977 9.75243 27.2754 10.1887 26.8814 10.3435C26.811 10.3716 26.7406 10.3998 26.6702 10.4279C26.2762 10.6109 25.6991 10.5686 25.3332 10.3435C24.6295 9.9213 23.5317 9.45691 22.8984 10.0761L22.434 10.4701C21.8991 11.0049 22.3777 12.1729 22.7858 12.9188C22.9969 13.2987 23.011 13.8898 22.8421 14.2838C22.814 14.3401 22.7858 14.4105 22.7577 14.4668C22.5888 14.8608 22.1525 15.2548 21.7443 15.3674C20.9421 15.5785 19.8584 16.0429 19.8584 16.9295V17.408C19.8584 18.1679 20.9843 18.6745 21.7725 18.9419C22.1806 19.0826 22.6169 19.5048 22.7858 19.8988C22.814 19.9551 22.8421 20.0114 22.8562 20.0677C23.0391 20.4617 23.011 21.0528 22.8139 21.4327C22.4199 22.1786 21.9414 23.3466 22.4902 23.8955L22.9265 24.2614C23.5599 24.8946 24.6295 24.4584 25.3051 24.0643C25.671 23.8532 25.9102 23.5859 25.8539 23.5296C25.7977 23.4733 26.051 23.614 26.431 23.797C26.5717 23.8673 26.7125 23.9377 26.8673 23.994C27.2614 24.1628 27.6836 24.585 27.8243 24.9931C28.0917 25.7812 28.6125 26.9211 29.3725 26.9211H29.851C30.7376 26.9211 31.2021 25.8516 31.4132 25.0916C31.5258 24.6835 31.5399 24.3317 31.4976 24.3317C31.4554 24.3317 31.751 24.2473 32.1591 24.1066C32.2858 24.0643 32.4125 24.008 32.5251 23.9658C32.9191 23.797 33.5102 23.8251 33.8902 24.0221C34.6221 24.4162 35.6917 24.8524 36.2125 24.3317L36.7051 23.8532C37.3243 23.2341 36.888 22.1645 36.4799 21.489C36.2547 21.1232 36.0295 20.8558 36.0154 20.8698C36.0014 20.8839 36.1702 20.6025 36.3391 20.2084C36.3813 20.1099 36.4236 20.0114 36.4658 19.9129C36.6347 19.5189 37.0569 19.0967 37.465 18.956C38.2532 18.6745 39.3369 18.1679 39.3369 17.422V16.9436C39.3369 15.5504 36.7473 15.2126 36.7473 15.2126C36.7613 15.2126 36.7613 15.2267 36.7613 15.2408ZM29.5976 22.3053C26.811 22.3053 24.531 19.9692 24.531 17.1687C24.531 14.3683 26.7969 12.1026 29.5976 12.1026C32.3984 12.1026 34.7628 14.3683 34.7628 17.1687C34.7628 19.9692 32.3984 22.3053 29.5976 22.3053Z" fill="#FCB817"/>
<path d="M25.0942 25.5843C24.8549 25.4576 24.7142 25.4013 24.7705 25.4436C24.7986 25.4717 24.7705 25.5562 24.686 25.6547L25.0942 25.5843Z" fill="#010101"/>
<path d="M28.0637 28.9616C26.403 30.5096 24.4045 31.6917 22.2089 32.4234C24.0948 30.7347 25.5445 28.6097 26.4311 26.2596C26.3185 26.1752 26.1919 26.1048 26.0793 26.0626C25.8822 25.9782 25.6993 25.8937 25.5163 25.8093C25.4741 25.7952 25.4459 25.7811 25.4178 25.753C23.7852 30.0029 20.9845 32.916 17.7474 33.2115V26.344C18.7326 26.33 19.7037 26.2878 20.6889 26.2033L20.3793 25.95C20.1682 25.7389 20.0696 25.4434 20.0696 25.1057C19.2956 25.1619 18.5215 25.1901 17.7474 25.2042V18.6885C17.283 18.3648 16.9593 17.9708 16.9593 17.4923V16.8731C16.9593 16.3243 17.297 15.8881 17.7474 15.5644V9.20353C18.5074 9.2176 19.2533 9.24575 20.0133 9.30204C20.0133 8.9643 20.1119 8.66877 20.323 8.45768L20.6326 8.20437C19.6756 8.11993 18.7185 8.07771 17.7474 8.06364V1.18211C20.9422 1.49171 23.7289 4.33439 25.3615 8.52804C25.5304 8.4999 25.6852 8.45768 25.8259 8.40139C25.9104 8.35917 26.0089 8.31695 26.0933 8.28881C26.2059 8.24659 26.3185 8.17623 26.417 8.10586C25.5163 5.75573 24.0808 3.6589 22.2089 1.97017C24.4045 2.70195 26.3889 3.89813 28.0637 5.43205C28.303 5.08024 28.5704 4.78471 28.8941 4.62991C25.8259 1.75909 21.7022 0.0140727 17.1845 0C7.68445 0 0 7.69776 0 17.1827C0 26.6677 7.69852 34.3655 17.1845 34.3655C21.7163 34.3655 25.84 32.6064 28.9082 29.7496C28.5845 29.623 28.303 29.3274 28.0637 28.9616ZM12.1319 1.97017C9.9926 3.89813 8.4163 6.36085 7.57186 9.10502L2.88519 9.90717C4.81334 6.16383 8.13482 3.30708 12.1319 1.97017ZM2.30815 11.1737L7.19186 10.3293C6.62889 12.384 6.33334 14.4949 6.29111 16.6198H1.14C1.21037 14.7622 1.60445 12.9187 2.30815 11.1737ZM1.15408 17.7738H6.30519C6.34741 19.8988 6.64297 22.0097 7.20593 24.0643L2.32222 23.2199C1.60445 21.489 1.21037 19.6455 1.15408 17.7738ZM2.88519 24.4865L7.57186 25.2886C8.4163 28.0328 9.9926 30.5096 12.1319 32.4234C8.13482 31.0865 4.81334 28.2439 2.88519 24.4865ZM16.6074 33.2115C13.3282 32.9019 10.4711 29.8904 8.8526 25.5138L10.2741 25.753C12.3711 26.1048 14.4822 26.3018 16.6074 26.33V33.2115ZM16.6074 25.1901C14.5526 25.1619 12.4978 24.979 10.4711 24.6272L8.44445 24.2754C7.82519 22.1645 7.48741 19.9691 7.44519 17.7738H16.6074V25.1901ZM16.6074 16.6339H7.44519C7.48741 14.4245 7.81112 12.2432 8.44445 10.1323L10.4711 9.78051C12.4978 9.42869 14.5526 9.24575 16.6074 9.2176V16.6339ZM16.6074 8.06364C14.4822 8.09179 12.3711 8.28881 10.2741 8.64062L8.8526 8.87986C10.4711 4.50326 13.3282 1.49171 16.6074 1.18211V8.06364Z" fill="#010101"/>
</svg>
