<svg width="51" height="38" viewBox="0 0 51 38" fill="none" xmlns="http://www.w3.org/2000/svg">
<path d="M48.8343 21.1026C48.1894 19.9121 47.2219 18.9323 45.8576 18.6843C44.7041 18.4734 44.2948 17.7541 44.2328 16.824C44.1211 15.1373 44.0095 13.4135 44.1708 11.7392C44.3816 9.64331 44.4684 7.5722 43.9227 5.51349C43.2653 3.00831 41.9878 0.9744 39.3335 0.242689C38.4157 -0.00534858 37.3987 0.0566608 36.4312 0.00705329C33.7149 -0.104564 31.7676 1.11082 30.5273 3.49198C29.7211 5.02981 29.3614 6.70407 29.3614 8.41552C29.3614 9.97816 29.6467 11.5408 29.6467 13.1034C29.6467 14.5669 29.4731 16.0303 29.287 17.4937C29.2622 17.7169 29.1754 17.9278 29.0638 18.089C28.8901 18.2874 28.6421 18.4486 28.332 18.5603C28.2576 18.5851 28.1831 18.5975 28.0963 18.5975C27.8483 18.6223 27.6126 18.7091 27.3397 18.8207C27.2529 18.8579 27.1537 18.8951 27.0669 18.9323C26.9552 18.9819 26.8312 19.0191 26.7072 19.0687C26.7196 19.0811 26.732 19.0811 26.7444 19.0935C25.963 19.54 25.3676 20.2717 24.9211 21.0902C24.3878 22.0824 23.9909 23.1366 23.532 24.1783C23.532 24.6372 23.532 25.0836 23.532 25.5425C24.0157 26.7951 25.0328 27.4152 26.2111 27.8493C28.1087 28.5438 30.0808 28.891 32.0777 29.015C32.3134 29.0398 32.5366 29.0646 32.7475 29.0646C33.0452 29.0646 33.3304 29.0646 33.6281 29.0646C34.1863 29.077 34.732 29.0895 35.2901 29.0895V29.077C37.2002 29.0895 39.0979 29.1019 40.9956 29.0398C43.2157 28.953 45.4235 28.6058 47.532 27.8369C48.7103 27.4028 49.7397 26.7703 50.2111 25.5301C50.2111 25.0712 50.2111 24.6248 50.2111 24.1659C49.7646 23.149 49.3677 22.0824 48.8343 21.1026ZM36.977 20.7058C34.9552 20.8298 32.4994 19.5524 32.0033 18.2626C32.487 17.7665 32.9459 17.2829 33.4421 16.762C34.3599 17.5681 35.4886 18.275 36.9025 18.275C38.2917 18.2626 39.408 17.5805 40.3258 16.7496C40.8095 17.2705 41.2312 17.7293 41.7645 18.2998C40.6607 19.9369 38.9366 20.5942 36.977 20.7058ZM42.0994 12.0617C41.9382 12.1609 41.839 12.3965 41.7521 12.595C41.2188 13.8723 40.5242 15.0257 39.47 15.9311C37.7707 17.3821 35.8607 17.3573 34.1987 15.8566C33.1816 14.9389 32.4994 13.7979 31.9785 12.5453C31.8917 12.3345 31.6064 12.2105 31.4948 12.0121C31.2467 11.5532 30.9366 11.0819 30.8498 10.5859C30.7754 10.127 30.5397 9.46968 31.3335 9.23405C31.4328 9.20924 31.4576 8.924 31.5196 8.76278C31.7925 8.11788 31.9785 7.42337 32.3506 6.84049C32.9707 5.88554 33.9382 5.69951 34.9552 6.22039C37.0142 7.27455 39.0731 8.32871 41.1196 9.40767C41.6901 9.70532 42.2111 10.0278 42.6452 9.24645C43.2777 10.1642 42.9801 11.5532 42.0994 12.0617Z" fill="#FCB817"/>
<path d="M31.4824 31.2848C31.0607 29.5485 30.3785 27.9115 29.225 26.5225C28.3072 25.4187 27.1661 24.6746 25.7398 24.4638C24.3754 24.2777 23.0111 24.1289 21.8824 24.0049C20.3196 25.9024 18.8808 27.6634 17.3305 29.5361C17.07 28.544 16.8591 27.7502 16.6607 26.9565C16.6359 26.8325 16.7103 26.6837 16.7599 26.5597C16.946 26.014 17.1444 25.4807 17.3677 24.8606C16.2514 24.8606 15.3088 24.8606 14.2049 24.8606C14.4405 25.4807 14.639 26.0264 14.8374 26.5721C14.8746 26.6837 14.9491 26.8077 14.9243 26.9193C14.7258 27.7254 14.5026 28.544 14.2421 29.5485C12.6793 27.651 11.2281 25.8776 9.73976 24.0545C9.05759 24.1041 8.23898 24.1661 7.42038 24.2281C5.29944 24.3769 3.42657 25.0094 2.11184 26.8201C1.10719 28.1595 0.437424 29.6353 0.090137 31.2352C-0.182731 32.4878 0.152153 33.6411 1.25603 34.4101C1.87619 34.8441 2.55836 35.2038 3.26533 35.4766C5.55991 36.3447 7.97852 36.6424 10.4095 36.8532C11.4514 36.94 12.5057 37.0268 13.5475 37.1137C15.0359 37.1137 16.5243 37.1137 18.0126 37.1137C18.2731 37.0765 18.5336 37.0268 18.8064 37.002C20.8778 36.7912 22.9615 36.6424 25.0204 36.3447C26.7692 36.0843 28.5057 35.6378 30.0188 34.6457C31.2219 33.852 31.8049 32.5994 31.4824 31.2848Z" fill="black"/>
<path d="M6.63903 12.4094C6.87469 12.5582 7.01112 12.9302 7.11035 13.2527C7.11035 13.2899 7.11035 13.3147 7.09794 13.3519C6.86228 14.5549 7.11035 15.6834 7.66849 16.7624C7.76771 16.9608 7.95376 17.1097 8.09019 17.2833C8.22663 17.4569 8.40027 17.6181 8.5119 17.8042C8.5367 17.891 8.56151 17.9902 8.59872 18.077C8.61112 18.077 8.62353 18.0646 8.64833 18.0646C9.42973 19.8133 10.4468 21.4007 11.9228 22.6533C14.2917 24.6624 17.0328 24.6624 19.3894 22.6533C20.8778 21.3759 21.8949 19.7761 22.6887 18.0026C22.7879 17.9654 22.8375 17.9406 22.8499 17.9158C22.8995 17.7794 22.9367 17.6305 22.9863 17.4941C23.0483 17.4073 23.1228 17.3329 23.1972 17.2585C23.929 16.564 24.3631 14.7781 24.2018 13.5875C24.4003 12.9054 24.5987 12.2109 24.6607 11.5164C24.7972 9.76775 24.822 8.01909 23.3088 6.71689C23.1848 6.60527 23.0856 6.38204 23.098 6.22081C23.1352 5.68753 23.2344 5.17906 22.9615 4.65818C22.7631 4.28612 22.7135 3.85206 22.5894 3.44279C22.5522 3.4552 22.515 3.4676 22.4654 3.48C22.5274 3.79005 22.577 4.10009 22.639 4.42254C22.0561 3.05834 21.1507 1.90496 19.7615 1.58251C18.1491 1.19805 16.4127 0.937615 14.7879 1.14845C13.1755 1.35928 11.6623 2.26462 10.0871 2.77309C8.62353 3.24436 7.99097 4.69538 6.73825 5.41469C6.61422 5.4891 6.62662 5.77435 6.58942 5.97278C6.5398 6.19601 6.515 6.41924 6.44058 6.63008C6.1181 7.54782 5.746 8.45315 5.46073 9.38329C5.03903 10.7103 5.47314 11.6528 6.63903 12.4094ZM21.808 16.8616C21.6716 16.9112 21.5476 17.1221 21.4856 17.2833C20.8158 18.9575 19.9228 20.4706 18.484 21.5991C16.6607 23.0378 14.6886 23.0502 12.8654 21.6239C11.4018 20.483 10.4964 18.9575 9.81422 17.2585C9.73981 17.0849 9.51655 16.9732 9.36771 16.8244C9.20647 16.6756 8.99562 16.5516 8.88399 16.3656C8.75996 16.1671 8.67314 15.9563 8.61112 15.7455C8.61112 15.5346 8.61112 15.3238 8.63593 15.113C8.68554 14.6045 8.75996 14.1084 8.83438 13.5999C9.35531 13.5751 9.28089 13.1163 9.38012 12.8062C9.88864 11.2436 11.0297 10.3134 12.3941 10.4499C13.0266 10.5119 13.6344 10.7847 14.2669 10.8095C15.16 10.8591 16.1026 10.9335 16.9708 10.7227C18.1243 10.4375 19.129 10.6111 20.1212 11.1568C20.2576 11.2312 20.4065 11.3056 20.6669 11.4296C20.5801 11.1196 20.5305 10.9211 20.4809 10.7227C20.5057 10.6979 20.5305 10.6607 20.5553 10.6359C20.7042 10.7723 20.8902 10.8715 20.977 11.0451C21.3243 11.7272 21.6468 12.4094 21.9445 13.1039C22.0313 13.3147 22.0313 13.5751 22.3414 13.5379C22.5522 14.0712 22.6266 14.6293 22.6018 15.237C22.5894 15.4602 22.577 15.6958 22.577 15.9191C22.391 16.3904 22.1181 16.75 21.808 16.8616Z" fill="black"/>
</svg>
