<svg width="42" height="41" viewBox="0 0 42 41" fill="none" xmlns="http://www.w3.org/2000/svg">
<rect x="1.7921" y="16.2383" width="38.8119" height="5.14851" stroke="#FDB913" stroke-width="0.792079"/>
<rect x="1.7921" y="21.3848" width="38.8119" height="18.6139" stroke="#FDB913" stroke-width="0.792079"/>
<path d="M4.37358 7.41317C4.4474 7.48436 4.54595 7.52413 4.6485 7.52413H9.72153C9.82408 7.52413 9.92263 7.48436 9.99645 7.41317C10.2553 7.1635 10.4741 6.71076 10.5019 6.2233C10.5313 5.70939 10.3484 5.13776 9.7763 4.71334C8.63932 3.8699 8.10109 3.13354 7.84068 2.55401C7.58196 1.97823 7.58105 1.52402 7.58105 1.1875C7.58105 0.968773 7.40374 0.79146 7.18501 0.79146C6.96629 0.79146 6.78897 0.968773 6.78897 1.1875C6.78897 2.21984 6.46668 2.82465 6.03186 3.30115C5.80527 3.54947 5.5435 3.76768 5.25535 3.99924C5.22018 4.02751 5.18453 4.05604 5.14851 4.08486C4.89613 4.28682 4.62558 4.50332 4.37358 4.74634C3.84536 5.25574 3.71064 5.8236 3.79597 6.32913C3.87674 6.80759 4.14717 7.19483 4.37358 7.41317Z" fill="#FDB913" stroke="#FDB913" stroke-width="0.792079" stroke-linecap="round" stroke-linejoin="round"/>
<rect x="2.58414" y="7.12891" width="8.71287" height="0.792079" fill="#FDB913"/>
<rect x="4.16831" y="7.91992" width="0.792079" height="3.9604" fill="#FDB913"/>
<rect x="9.3168" y="7.91992" width="0.792079" height="3.9604" fill="#FDB913"/>
<path d="M32.4924 7.41317C32.5663 7.48436 32.6648 7.52413 32.7674 7.52413H37.8404C37.9429 7.52413 38.0415 7.48436 38.1153 7.41317C38.3742 7.1635 38.593 6.71076 38.6208 6.2233C38.6502 5.70939 38.4673 5.13776 37.8952 4.71334C36.7582 3.8699 36.22 3.13354 35.9595 2.55401C35.7008 1.97823 35.6999 1.52402 35.6999 1.1875C35.6999 0.968773 35.5226 0.79146 35.3039 0.79146C35.0852 0.79146 34.9078 0.968773 34.9078 1.1875C34.9078 2.21984 34.5856 2.82465 34.1507 3.30115C33.9241 3.54947 33.6624 3.76768 33.3742 3.99924C33.339 4.02751 33.3034 4.05604 33.2674 4.08486C33.015 4.28682 32.7444 4.50332 32.4924 4.74634C31.9642 5.25574 31.8295 5.8236 31.9148 6.32913C31.9956 6.80759 32.266 7.19483 32.4924 7.41317Z" fill="#FDB913" stroke="#FDB913" stroke-width="0.792079" stroke-linecap="round" stroke-linejoin="round"/>
<rect x="30.703" y="7.12891" width="8.71287" height="0.792079" fill="#FDB913"/>
<rect x="32.2872" y="7.91992" width="0.792079" height="3.9604" fill="#FDB913"/>
<rect x="37.4357" y="7.91992" width="0.792079" height="3.9604" fill="#FDB913"/>
<rect x="11.297" y="9.90039" width="0.792079" height="1.9802" fill="#FDB913"/>
<rect x="12.8812" y="9.90039" width="0.792079" height="1.9802" fill="#FDB913"/>
<rect x="14.4653" y="9.90039" width="0.792079" height="1.9802" fill="#FDB913"/>
<rect x="16.0495" y="9.90039" width="0.792079" height="1.9802" fill="#FDB913"/>
<rect x="17.6337" y="9.90039" width="0.792079" height="1.9802" fill="#FDB913"/>
<rect x="19.2178" y="9.90039" width="0.792079" height="1.9802" fill="#FDB913"/>
<rect x="20.8548" width="0.686446" height="12.68" fill="#FDB913"/>
<rect x="22.3861" y="9.90039" width="0.792079" height="1.9802" fill="#FDB913"/>
<rect x="23.9703" y="9.90039" width="0.792079" height="1.9802" fill="#FDB913"/>
<rect x="25.5544" y="9.90039" width="0.792079" height="1.9802" fill="#FDB913"/>
<rect x="27.1386" y="9.90039" width="0.792079" height="1.9802" fill="#FDB913"/>
<rect x="28.7228" y="9.90039" width="0.792079" height="1.9802" fill="#FDB913"/>
<rect x="30.3069" y="9.90039" width="0.792079" height="1.9802" fill="#FDB913"/>
<path d="M15.6534 0.352035C15.6534 0.352035 16.6534 1.14411 18.2534 0.352035C19.8534 -0.440044 20.8534 0.352035 20.8534 0.352035V3.91639C20.8534 3.91639 19.2534 3.32164 18.2534 3.91639C17.2534 4.51114 15.6534 3.91639 15.6534 3.91639V0.352035Z" fill="#FDB913"/>
<rect x="2.58414" y="12.2773" width="36.8317" height="2.37624" stroke="#FDB913" stroke-width="0.792079"/>
<path d="M1 16.2383H41L39.4158 14.6541H2.58416L1 16.2383Z" stroke="#FDB913" stroke-width="0.792079"/>
<path d="M3.77226 18.8131L4.96038 17.625L6.1485 18.8131V20.9913H3.77226V18.8131Z" fill="#FDB913"/>
<path d="M7.73266 18.8131L8.92078 17.625L10.1089 18.8131V20.9913H7.73266V18.8131Z" fill="#FDB913"/>
<path d="M11.6931 18.8131L12.8812 17.625L14.0693 18.8131V20.9913H11.6931V18.8131Z" fill="#FDB913"/>
<path d="M15.6535 18.8131L16.8416 17.625L18.0297 18.8131V20.9913H15.6535V18.8131Z" fill="#FDB913"/>
<path d="M19.6139 18.8131L20.802 17.625L21.9901 18.8131V20.9913H19.6139V18.8131Z" fill="#FDB913"/>
<path d="M23.5742 18.8131L24.7624 17.625L25.9505 18.8131V20.9913H23.5742V18.8131Z" fill="#FDB913"/>
<path d="M27.5346 18.8131L28.7228 17.625L29.9109 18.8131V20.9913H27.5346V18.8131Z" fill="#FDB913"/>
<path d="M31.495 18.8131L32.6832 17.625L33.8713 18.8131V20.9913H31.495V18.8131Z" fill="#FDB913"/>
<path d="M35.4554 18.8131L36.6436 17.625L37.8317 18.8131V20.9913H35.4554V18.8131Z" fill="#FDB913"/>
<path d="M4.9604 25.9505L6.34653 24.5527L7.73267 25.9505V28.5131H4.9604V25.9505Z" fill="#FDB913" stroke="#FDB913" stroke-width="0.792079"/>
<path d="M7.73266 25.9505L9.1188 24.5527L10.5049 25.9505V28.5131H7.73266V25.9505Z" stroke="#FDB913" stroke-width="0.792079"/>
<path d="M4.96039 31.673L6.34653 30.4902L7.73267 31.673V34.8467H4.96039V31.673Z" fill="#FDB913" stroke="#FDB913" stroke-width="0.792079"/>
<path d="M7.73265 31.673L9.11879 30.4902L10.5049 31.673V34.8467H7.73265V31.673Z" stroke="#FDB913" stroke-width="0.792079"/>
<path d="M31.8911 25.9505L33.2772 24.5527L34.6634 25.9505V28.5131H31.8911V25.9505Z" stroke="#FDB913" stroke-width="0.792079"/>
<path d="M34.6634 25.9505L36.0495 24.5527L37.4356 25.9505V28.5131H34.6634V25.9505Z" fill="#FDB913" stroke="#FDB913" stroke-width="0.792079"/>
<path d="M31.8911 31.673L33.2772 30.4902L34.6633 31.673V34.8467H31.8911V31.673Z" stroke="#FDB913" stroke-width="0.792079"/>
<path d="M34.6633 31.673L36.0495 30.4902L37.4356 31.673V34.8467H34.6633V31.673Z" fill="#FDB913" stroke="#FDB913" stroke-width="0.792079"/>
<rect x="11.693" y="35.0527" width="19.0099" height="1.58416" fill="#FDB913" stroke="#FDB913" stroke-width="0.792079"/>
<rect x="10.1089" y="36.6348" width="22.1782" height="1.58416" stroke="#FDB913" stroke-width="0.792079"/>
<path d="M8.12868 38.2188H34.2673V39.8029H8.12868V38.2188Z" fill="#2C384C" stroke="#FDB913" stroke-width="0.792079"/>
<path d="M12.4 23.8008L14.4 25.8008V34.8008H12.4V23.8008Z" fill="#FDB913"/>
<path d="M16.65 28.524C17.22 26.0688 19.7718 25.3008 21.15 23.8008C22.2067 25.3008 24.915 26.0904 25.65 28.524V35.0487H16.65V28.524Z" fill="#FDB913"/>
<path d="M30 23.8008V34.8008H28V25.8008L30 23.8008Z" fill="#FDB913"/>
</svg>
