<svg width="81" height="94" viewBox="0 0 81 94" fill="none" xmlns="http://www.w3.org/2000/svg">
<rect x="6.68756" y="15.7129" width="60.1881" height="37.2593" rx="3.11688" stroke="black" stroke-width="3.11688"/>
<rect y="52.9727" width="73.5632" height="4.77683" rx="2.38842" fill="black"/>
<path d="M42.2989 34.752H39.9239C38.967 35.1353 37.9023 35.3533 36.7816 35.3533C35.6609 35.3533 34.6006 35.1353 33.6394 34.752H31.2644C28.217 34.752 25.7471 36.9056 25.7471 39.5628V46.5787C25.7471 47.5747 26.6739 48.3828 27.8161 48.3828H45.7471C46.8894 48.3828 47.8161 47.5747 47.8161 46.5787V39.5628C47.8161 36.9056 45.3463 34.752 42.2989 34.752Z" fill="#FDB913"/>
<path d="M42.5422 28.545C42.5422 31.5686 40.0891 34.0217 37.0655 34.0217C34.042 34.0217 31.5889 31.5686 31.5889 28.545C31.5889 25.5215 34.042 23.0684 37.0655 23.0684C40.0891 23.0684 42.5422 25.5215 42.5422 28.545Z" fill="#FDB913"/>
<path d="M36.7816 68.0878C43.6351 68.0878 49.1954 62.3303 49.1954 55.2339C49.1954 48.1374 43.6351 42.3799 36.7816 42.3799C29.9282 42.3799 24.3678 48.1374 24.3678 55.2339C24.3678 62.3303 29.9282 68.0878 36.7816 68.0878ZM47.8161 67.1715H43.0661C41.1523 68.082 39.023 68.5997 36.7816 68.5997C34.5402 68.5997 32.4195 68.082 30.4971 67.1715H25.7471C19.6523 67.1715 14.7126 72.2863 14.7126 78.5972V87.7505C14.7126 90.1159 16.5661 92.0351 18.8506 92.0351H54.7126C56.9971 92.0351 58.8506 90.1159 58.8506 87.7505V78.5972C58.8506 72.2863 53.9109 67.1715 47.8161 67.1715Z" fill="white" stroke="black" stroke-width="2"/>
<path fill-rule="evenodd" clip-rule="evenodd" d="M53.6552 1C51.4461 1 49.6552 2.79086 49.6552 5V18.1494C49.6552 20.3586 51.4461 22.1494 53.6552 22.1494H54.7529L53.3333 31.3445L62.5391 22.1494H76C78.2092 22.1494 80 20.3586 80 18.1494V5C80 2.79086 78.2092 1 76 1H53.6552Z" fill="white"/>
<path d="M54.7529 22.1494L55.7412 22.302L55.9192 21.1494H54.7529V22.1494ZM53.3333 31.3445L52.345 31.1919L51.879 34.2105L54.04 32.052L53.3333 31.3445ZM62.5391 22.1494V21.1494H62.1253L61.8324 21.4419L62.5391 22.1494ZM50.6552 5C50.6552 3.34315 51.9984 2 53.6552 2V0C50.8938 0 48.6552 2.23858 48.6552 5H50.6552ZM50.6552 18.1494V5H48.6552V18.1494H50.6552ZM53.6552 21.1494C51.9984 21.1494 50.6552 19.8063 50.6552 18.1494H48.6552C48.6552 20.9108 50.8938 23.1494 53.6552 23.1494V21.1494ZM54.7529 21.1494H53.6552V23.1494H54.7529V21.1494ZM53.7647 21.9968L52.345 31.1919L54.3216 31.4971L55.7412 22.302L53.7647 21.9968ZM54.04 32.052L63.2458 22.8569L61.8324 21.4419L52.6266 30.637L54.04 32.052ZM76 21.1494H62.5391V23.1494H76V21.1494ZM79 18.1494C79 19.8063 77.6569 21.1494 76 21.1494V23.1494C78.7615 23.1494 81 20.9108 81 18.1494H79ZM79 5V18.1494H81V5H79ZM76 2C77.6569 2 79 3.34315 79 5H81C81 2.23858 78.7615 0 76 0V2ZM53.6552 2H76V0H53.6552V2Z" fill="black"/>
<path d="M63.3956 5.95611C63.6415 4.93494 65.0941 4.93494 65.34 5.95611L65.7051 7.47224C65.8532 8.08701 66.5275 8.41175 67.1005 8.14419L68.5135 7.48435C69.4652 7.03992 70.3708 8.1756 69.7258 9.00456L68.7681 10.2353C68.3797 10.7343 68.5463 11.464 69.1127 11.7452L70.5095 12.4385C71.4504 12.9055 71.1272 14.3216 70.0769 14.3342L68.5175 14.3527C67.8852 14.3603 67.4186 14.9454 67.5519 15.5636L67.8808 17.088C68.1023 18.1147 66.7936 18.745 66.1289 17.9316L65.1422 16.724C64.742 16.2344 63.9936 16.2344 63.5935 16.724L62.6067 17.9316C61.9421 18.745 60.6333 18.1147 60.8548 17.088L61.1837 15.5636C61.3171 14.9454 60.8504 14.3603 60.2181 14.3527L58.6587 14.3342C57.6085 14.3216 57.2852 12.9055 58.2261 12.4385L59.623 11.7452C60.1894 11.464 60.3559 10.7343 59.9676 10.2353L59.0098 9.00456C58.3648 8.1756 59.2705 7.03992 60.2222 7.48435L61.6352 8.14419C62.2081 8.41175 62.8825 8.08701 63.0305 7.47224L63.3956 5.95611Z" fill="#FDB913"/>
<circle cx="64.3678" cy="12.0339" r="2.24777" fill="white"/>
</svg>
