<svg width="80" height="96" viewBox="0 0 80 96" fill="none" xmlns="http://www.w3.org/2000/svg">
<circle cx="41.1429" cy="34.2859" r="22.8571" fill="#FECA04"/>
<path d="M2.28571 83.6449V95.0734H80V83.6449C80 68.5717 71.5107 64.0119 60.5714 72.2164C56 75.645 40 84.7877 24 72.2163C11.2 62.1591 2.28571 70.8574 2.28571 83.6449Z" fill="#FECA04"/>
<path d="M75.4286 34.2857C75.4286 27.5046 73.4177 20.8758 69.6504 15.2376C65.883 9.59933 60.5283 5.20485 54.2634 2.60984C47.9985 0.01484 41.1048 -0.664131 34.454 0.65879C27.8033 1.98171 21.6941 5.24711 16.8992 10.0421C12.1042 14.837 8.83885 20.9461 7.51593 27.5969C6.19301 34.2477 6.87198 41.1414 9.46698 47.4063C12.062 53.6712 16.4565 59.0259 22.0947 62.7932C27.733 66.5606 34.3618 68.5714 41.1428 68.5714V64.4202C35.1828 64.4202 29.3566 62.6528 24.401 59.3416C19.4455 56.0304 15.583 51.324 13.3022 45.8177C11.0214 40.3113 10.4247 34.2523 11.5874 28.4068C12.7502 22.5613 15.6202 17.1918 19.8346 12.9774C24.0489 8.76305 29.4184 5.89302 35.2639 4.73027C41.1094 3.56753 47.1685 4.16429 52.6748 6.4451C58.1812 8.7259 62.8875 12.5883 66.1987 17.5439C69.51 22.4995 71.2773 28.3257 71.2773 34.2857H75.4286Z" fill="black"/>
<path d="M0 26.1436C0 25.5913 0.447715 25.1436 1 25.1436H9.14286V45.715H1C0.447716 45.715 0 45.2673 0 44.715V26.1436Z" fill="black"/>
<rect x="32" y="59.4287" width="20.5714" height="13.7143" rx="3" fill="black"/>
</svg>
