<svg width="80" height="83" viewBox="0 0 80 83" fill="none" xmlns="http://www.w3.org/2000/svg">
<path fill-rule="evenodd" clip-rule="evenodd" d="M38.7015 41.4508H18.3323C13.8325 41.4508 10.1846 45.0986 10.1846 49.5985V69.9677C10.1846 74.4675 13.8325 78.1153 18.3323 78.1153H38.7015C43.2013 78.1153 46.8492 74.4675 46.8492 69.9677V49.5985C46.8492 45.0986 43.2013 41.4508 38.7015 41.4508ZM18.3323 37.377C11.5825 37.377 6.11078 42.8487 6.11078 49.5985V69.9677C6.11078 76.7174 11.5825 82.1892 18.3323 82.1892H38.7015C45.4512 82.1892 50.923 76.7174 50.923 69.9677V49.5985C50.923 42.8487 45.4512 37.377 38.7015 37.377H18.3323Z" fill="black"/>
<circle cx="20.3692" cy="55.7096" r="4.07384" fill="#FACC28"/>
<circle cx="38.7015" cy="55.7096" r="4.07384" fill="#FACC28"/>
<rect y="53.6729" width="4.07384" height="12.2215" fill="black"/>
<rect x="28.5169" y="29.2295" width="2.03692" height="6.11076" fill="black"/>
<rect x="52.9599" y="53.6729" width="4.07384" height="12.2215" fill="black"/>
<path d="M43.3354 2C43.3354 0.895429 44.2309 0 45.3354 0H78C79.1046 0 80 0.895431 80 2V20.4061C80 21.5107 79.1046 22.4061 78 22.4061H60.9529C60.1512 22.4061 59.4325 22.8881 59.0893 23.6127C56.4304 29.2272 53.1258 31.7694 47.4093 34.6276C41.8892 37.3877 50.7235 29.0297 51.5281 23.9179C51.6681 23.0286 50.8593 22.4061 49.9591 22.4061H45.3354C44.2309 22.4061 43.3354 21.5107 43.3354 20.4061V2Z" fill="#FECA04"/>
<circle cx="29.5352" cy="26.1753" r="5.0923" fill="black"/>
<circle r="2.03692" transform="matrix(1 0 0 -1 30.5538 25.1564)" fill="white"/>
</svg>
