<svg width="269" height="269" viewBox="0 0 269 269" fill="none" xmlns="http://www.w3.org/2000/svg">
<path fill-rule="evenodd" clip-rule="evenodd" d="M131.61 0C60.1106 1.29785 2.27702 58.5501 0.047674 129.819L38.1842 110.292C39.0075 109.871 39.9823 109.867 40.8094 110.281L79.3529 129.584C81.5889 102.043 104.144 80.2465 132.007 79.2062L152.005 39.5546L131.61 0ZM138.449 79.3376L157.861 40.8484C158.28 40.0174 158.276 39.0358 157.849 38.2085L138.168 0.0382242C209.36 2.16298 266.614 59.7707 268.172 131.104L228.301 151.662L188.969 131.825C187.84 103.994 166.002 81.4997 138.449 79.3376ZM188.857 138.277C186.765 166.027 164.051 188.022 135.998 188.979L116.241 228.151L136.877 268.173C208.475 266.714 266.295 209.147 268.158 137.649L229.647 157.506C228.82 157.932 227.838 157.937 227.007 157.517L188.857 138.277ZM130.327 268.149L110.398 229.497C109.971 228.67 109.967 227.688 110.386 226.857L129.566 188.827C101.98 186.577 80.163 163.941 79.2037 136.008L39.5228 116.135L0 136.372C1.1974 208.132 58.7577 266.176 130.327 268.149Z" fill="#FDB913"/>
<path d="M187.941 86.9707H196.246V101.377H187.941V86.9707Z" fill="white"/>
<path d="M209.902 80.3379H218.183V101.378H209.902V80.3379Z" fill="white"/>
<path d="M198.958 85.1074H207.166V101.378H198.958V85.1074Z" fill="white"/>
<path d="M220.92 71.9082H229.117V101.369H220.92V71.9082Z" fill="white"/>
<path fill-rule="evenodd" clip-rule="evenodd" d="M229.523 56.6645C229.496 56.3107 229.315 55.9865 229.029 55.7774C228.742 55.5684 228.378 55.4956 228.033 55.5783L218.942 57.7574C218.291 57.9132 217.891 58.5666 218.046 59.2168C218.202 59.867 218.856 60.2678 219.506 60.1119L225.537 58.6664C212.709 76.8932 194.271 80.7427 186.595 80.376C185.927 80.3441 185.359 80.8597 185.328 81.5275C185.296 82.1953 185.811 82.7626 186.479 82.7945C194.812 83.1925 213.996 79.1007 227.367 60.2727L227.774 65.672C227.824 66.3387 228.406 66.8384 229.072 66.7881C229.739 66.7378 230.239 66.1565 230.188 65.4898L229.523 56.6645Z" fill="black"/>
<path fill-rule="evenodd" clip-rule="evenodd" d="M92.6593 48.149L76.3573 64.8392C75.9368 65.2696 75.247 65.2777 74.8165 64.8573C74.386 64.4368 74.3779 63.747 74.7984 63.3165L91.2852 46.4372V42.7013L96.5877 37.2656V42.7013L102.387 43.125L96.5877 48.149H92.6593Z" fill="black"/>
<path d="M63.7999 191.316C70.7429 191.316 76.3713 185.559 76.3713 178.459C76.3713 171.358 70.7429 165.602 63.7999 165.602C56.8569 165.602 51.2285 171.358 51.2285 178.459C51.2285 185.559 56.8569 191.316 63.7999 191.316Z" fill="white"/>
<path d="M42.4277 206.223V212.651H85.1706V206.223C85.1706 197.744 80.5015 195.179 74.4849 199.794C71.9706 201.723 63.1706 206.866 54.3706 199.794C47.3306 194.137 42.4277 199.03 42.4277 206.223Z" fill="white"/>
<path d="M82.6577 178.458C82.6577 174.643 81.5517 170.915 79.4797 167.743C77.4076 164.572 74.4625 162.1 71.0168 160.64C67.5711 159.18 63.7796 158.798 60.1216 159.542C56.4638 160.287 53.1037 162.123 50.4665 164.821C47.8293 167.518 46.0333 170.954 45.3057 174.695C44.5781 178.436 44.9515 182.314 46.3788 185.838C47.806 189.362 50.223 192.374 53.324 194.493C56.4251 196.612 60.0709 197.743 63.8005 197.743V195.408C60.5225 195.408 57.3181 194.414 54.5925 192.552C51.867 190.689 49.7426 188.042 48.4882 184.944C47.2337 181.847 46.9055 178.439 47.545 175.151C48.1846 171.863 49.7631 168.842 52.081 166.472C54.3988 164.101 57.3521 162.487 60.5671 161.833C63.7821 161.179 67.1146 161.514 70.1431 162.797C73.1716 164.08 75.7601 166.253 77.5812 169.04C79.4024 171.828 80.3745 175.105 80.3745 178.458H82.6577Z" fill="black"/>
<path d="M41.1719 173.877C41.1719 173.566 41.4181 173.314 41.7219 173.314H46.2004V184.886H41.7219C41.4181 184.886 41.1719 184.634 41.1719 184.323V173.877Z" fill="black"/>
<path d="M68.4358 192.602H60.4215C59.5102 192.602 58.7715 193.357 58.7715 194.289V198.628C58.7715 199.56 59.5102 200.316 60.4215 200.316H68.4358C69.347 200.316 70.0858 199.56 70.0858 198.628V194.289C70.0858 193.357 69.347 192.602 68.4358 192.602Z" fill="black"/>
<g clip-path="url(#clip0)">
<path d="M167.365 201.947H192.65C194.322 201.947 195.683 203.308 195.683 204.98V219.769C195.683 221.441 194.322 222.802 192.65 222.802H176.82L170.407 229.217C170.164 229.46 169.839 229.589 169.509 229.589C169.345 229.589 169.18 229.557 169.023 229.492C168.548 229.296 168.239 228.832 168.239 228.318V222.802H167.366C165.694 222.802 164.333 221.441 164.333 219.768V204.98C164.333 203.308 165.693 201.947 167.365 201.947ZM166.874 219.769C166.874 220.04 167.094 220.26 167.365 220.26H169.508C170.177 220.26 170.723 220.777 170.774 221.433C170.777 221.461 170.779 225.251 170.779 225.251L175.391 220.637C175.396 220.632 175.401 220.628 175.406 220.623C175.424 220.605 175.441 220.59 175.457 220.576C175.681 220.38 175.973 220.26 176.294 220.26H192.65C192.921 220.26 193.142 220.04 193.142 219.768V204.98C193.142 204.709 192.921 204.489 192.65 204.489H167.365C167.094 204.489 166.874 204.709 166.874 204.98V219.769Z" fill="black"/>
<path d="M180.008 211.102C180.709 211.102 181.278 211.671 181.278 212.372C181.278 213.074 180.709 213.643 180.008 213.643C179.307 213.643 178.738 213.074 178.738 212.372C178.738 211.671 179.307 211.102 180.008 211.102Z" fill="white"/>
<path d="M185.528 194.805H208.648C209.349 194.805 209.918 195.374 209.918 196.075C209.918 196.777 209.349 197.346 208.648 197.346H185.528C184.827 197.346 184.258 196.777 184.258 196.075C184.258 195.374 184.827 194.805 185.528 194.805Z" fill="white"/>
<path d="M199.874 203.205H208.648C209.349 203.205 209.918 203.774 209.918 204.476C209.918 205.178 209.349 205.746 208.648 205.746H199.874C199.172 205.746 198.603 205.178 198.603 204.476C198.603 203.774 199.172 203.205 199.874 203.205Z" fill="white"/>
<path d="M185.91 211.102C186.611 211.102 187.181 211.671 187.181 212.372C187.181 213.074 186.611 213.643 185.91 213.643C185.209 213.643 184.64 213.074 184.64 212.372C184.64 211.671 185.209 211.102 185.91 211.102Z" fill="white"/>
<path d="M174.107 211.102C174.808 211.102 175.377 211.671 175.377 212.372C175.377 213.074 174.808 213.643 174.107 213.643C173.405 213.643 172.836 213.074 172.836 212.372C172.836 211.671 173.405 211.102 174.107 211.102Z" fill="white"/>
<path fill-rule="evenodd" clip-rule="evenodd" d="M184.551 186.402H215.149C216.822 186.402 218.182 187.763 218.182 189.435V211.113C218.182 212.785 216.822 214.146 215.149 214.146H212.807V222.216C212.807 222.73 212.498 223.193 212.023 223.39C211.936 223.426 211.846 223.452 211.756 223.468C211.683 223.481 211.61 223.487 211.537 223.487C211.206 223.487 210.881 223.357 210.638 223.114L201.673 214.146H199.874C199.172 214.146 198.603 213.577 198.603 212.875C198.603 212.173 199.172 211.605 199.874 211.605C199.874 211.605 202.26 211.606 202.285 211.609C202.581 211.629 202.871 211.751 203.097 211.977L210.266 219.148C210.266 219.148 210.269 212.795 210.273 212.762C210.33 212.113 210.874 211.605 211.538 211.605H215.149C215.266 211.605 215.374 211.564 215.458 211.495C215.569 211.405 215.641 211.267 215.641 211.113V189.435C215.641 189.164 215.421 188.944 215.149 188.944H184.551V186.402ZM184.551 188.944H179.027C178.915 188.944 178.811 188.982 178.728 189.045C178.611 189.135 178.536 189.277 178.536 189.435V197.752C178.536 198.454 177.966 199.023 177.265 199.023C176.564 199.023 175.995 198.454 175.995 197.752V189.435C175.995 187.763 177.355 186.402 179.027 186.402H184.551V188.944Z" fill="white"/>
</g>
<path fill-rule="evenodd" clip-rule="evenodd" d="M90.4343 44.3735C86.1858 41.0426 80.8324 39.0566 75.0152 39.0566C61.2018 39.0566 50.0039 50.2546 50.0039 64.0679C50.0039 77.8813 61.2018 89.0792 75.0152 89.0792C88.8285 89.0792 100.026 77.8813 100.026 64.0679C100.026 58.2534 98.0423 52.9023 94.7142 48.6547L91.1186 52.1516C93.587 55.4818 95.0469 59.6043 95.0469 64.0679C95.0469 75.1311 86.0784 84.0996 75.0152 84.0996C63.952 84.0996 54.9835 75.1311 54.9835 64.0679C54.9835 53.0047 63.952 44.0362 75.0152 44.0362C79.4307 44.0362 83.5125 45.4648 86.8236 47.8851L90.4343 44.3735Z" fill="white"/>
<path fill-rule="evenodd" clip-rule="evenodd" d="M83.7428 50.8825C81.2417 49.2239 78.2415 48.2578 75.0157 48.2578C66.2837 48.2578 59.2051 55.3365 59.2051 64.0684C59.2051 72.8004 66.2837 79.879 75.0157 79.879C83.7476 79.879 90.8263 72.8004 90.8263 64.0684C90.8263 60.7508 89.8045 57.6718 88.0583 55.1291L84.7973 58.3005C85.7962 59.9909 86.3695 61.9627 86.3695 64.0684C86.3695 70.3389 81.2862 75.4222 75.0157 75.4222C68.7452 75.4222 63.6619 70.3389 63.6619 64.0684C63.6619 57.7979 68.7452 52.7147 75.0157 52.7147C76.981 52.7147 78.8298 53.214 80.4419 54.0928L83.7428 50.8825Z" fill="white"/>
<path fill-rule="evenodd" clip-rule="evenodd" d="M72.8776 61.8377C71.5435 63.2035 71.5693 65.3921 72.9351 66.7261C74.3009 68.0601 76.4895 68.0344 77.8235 66.6686L81.5947 62.8077C81.709 63.2858 81.7696 63.7848 81.7696 64.2979C81.7696 67.8214 78.9132 70.6778 75.3897 70.6778C71.8662 70.6778 69.0098 67.8214 69.0098 64.2979C69.0098 60.7744 71.8662 57.918 75.3897 57.918C75.8018 57.918 76.2047 57.957 76.5951 58.0317L72.8776 61.8377Z" fill="white"/>
<path d="M112.308 128.059C111.778 127.407 111.122 126.906 110.338 126.556C109.578 126.207 108.692 126.032 107.678 126.032C106.665 126.032 105.721 126.23 104.846 126.626C103.994 127.022 103.245 127.582 102.6 128.304C101.978 129.003 101.483 129.841 101.115 130.82C100.769 131.798 100.596 132.858 100.596 134C100.596 135.165 100.769 136.237 101.115 137.215C101.483 138.17 101.978 139.009 102.6 139.731C103.222 140.43 103.947 140.978 104.777 141.374C105.629 141.77 106.538 141.968 107.506 141.968C108.611 141.968 109.59 141.735 110.442 141.269C111.294 140.803 111.997 140.151 112.549 139.312L117.04 142.702C116.004 144.169 114.691 145.253 113.102 145.952C111.513 146.651 109.878 147 108.197 147C106.285 147 104.523 146.697 102.911 146.091C101.299 145.486 99.9056 144.624 98.731 143.505C97.5564 142.364 96.6352 140.989 95.9673 139.382C95.3224 137.774 95 135.98 95 134C95 132.02 95.3224 130.226 95.9673 128.618C96.6352 127.011 97.5564 125.648 98.731 124.53C99.9056 123.388 101.299 122.514 102.911 121.909C104.523 121.303 106.285 121 108.197 121C108.888 121 109.602 121.07 110.338 121.21C111.099 121.326 111.836 121.524 112.549 121.804C113.286 122.083 113.989 122.456 114.657 122.922C115.325 123.388 115.923 123.959 116.453 124.634L112.308 128.059Z" fill="black"/>
<path d="M119.962 121.629H129.428C130.671 121.629 131.846 121.757 132.951 122.013C134.08 122.246 135.059 122.654 135.888 123.237C136.74 123.796 137.408 124.565 137.891 125.543C138.398 126.498 138.652 127.698 138.652 129.142C138.652 130.89 138.202 132.381 137.304 133.616C136.406 134.827 135.093 135.596 133.366 135.922L139.584 146.371H133.124L128.011 136.481H125.351V146.371H119.962V121.629ZM125.351 131.868H128.529C129.013 131.868 129.52 131.857 130.05 131.833C130.602 131.787 131.097 131.682 131.535 131.519C131.973 131.332 132.33 131.053 132.606 130.68C132.905 130.307 133.055 129.783 133.055 129.108C133.055 128.478 132.928 127.978 132.675 127.605C132.422 127.232 132.099 126.953 131.708 126.766C131.316 126.556 130.867 126.417 130.36 126.347C129.854 126.277 129.359 126.242 128.875 126.242H125.351V131.868Z" fill="black"/>
<path d="M142.363 121.629H150.516L156.147 137.774H156.216L161.882 121.629H170V146.371H164.611V127.395H164.542L158.116 146.371H154.005L147.821 127.395H147.752V146.371H142.363V121.629Z" fill="black"/>
<defs>
<clipPath id="clip0">
<rect width="53.8481" height="53.6688" fill="white" transform="matrix(-1 0 0 1 218.182 175.977)"/>
</clipPath>
</defs>
</svg>
