<svg width="50" height="48" viewBox="0 0 50 48" fill="none" xmlns="http://www.w3.org/2000/svg">
<path d="M23.6939 18.1816C23.0154 18.3515 22.3674 18.5676 21.8184 19.0386C21.0179 19.718 20.6215 20.6058 20.4843 21.6326C20.2861 23.1612 20.6977 24.6048 21.1323 26.0408C21.3915 26.9132 21.6507 27.7855 21.7651 28.6965C21.7651 28.712 21.7727 28.7351 21.7803 28.7506C21.8566 29.2215 21.8184 29.2601 21.361 29.1597C19.76 28.8046 18.1438 28.5962 16.5047 28.6734C15.6127 28.712 14.7359 28.8587 13.905 29.2447C12.243 30.009 11.5111 31.6765 12.0752 33.4213C12.1362 33.6066 12.1134 33.7378 12.0143 33.8999C11.1604 35.2664 11.1223 36.6406 12.0447 37.9994C12.1667 38.1846 12.1972 38.339 12.1362 38.5552C11.7169 40.0684 12.0752 41.3808 13.1502 42.5002C13.2874 42.6469 13.3408 42.7781 13.3255 42.9789C13.2188 44.7082 14.1718 46.1673 15.8719 46.9316C17.0536 47.4566 18.3039 47.7036 19.5771 47.7191C21.7041 47.7499 23.8311 47.6882 25.9505 47.5955C27.9175 47.5106 29.8844 47.3253 31.8361 47.0474C31.9657 47.032 32.0724 47.0628 32.1868 47.1323C32.5985 47.3794 33.0407 47.4952 33.5133 47.4952C34.7179 47.4952 35.9224 47.5029 37.127 47.4952C38.667 47.4875 39.7648 46.3757 39.7725 44.8163C39.7725 41.5738 39.7725 38.339 39.7725 35.0966C39.7725 33.4058 38.7737 32.3096 37.1041 32.2633C35.8081 32.2324 34.5044 32.2015 33.2084 32.2941C32.9568 32.3096 32.7281 32.3868 32.4917 32.4794C32.385 32.518 32.2859 32.5566 32.2249 32.4177C31.8132 31.5298 31.1652 30.8427 30.4867 30.1634C29.7396 29.4145 29.2288 28.4804 28.718 27.5539C27.704 25.7243 26.873 23.8097 26.1259 21.8487C26.0725 21.702 26.0573 21.5554 26.0801 21.401C26.1411 20.8142 26.1259 20.2275 25.9887 19.6562C25.8133 18.9459 25.4321 18.4287 24.7307 18.1816C24.3724 18.1816 24.0293 18.1816 23.6939 18.1816ZM20.6444 46.0283C19.8515 46.0206 19.2416 45.9897 18.6393 45.9048C17.7855 45.7967 16.9545 45.6115 16.2073 45.1637C15.2162 44.5769 14.8732 43.8049 15.0943 42.6623C15.1781 42.23 15.0561 41.898 14.7207 41.6201C13.6305 40.7091 13.417 39.8445 13.9583 38.532C14.1184 38.1383 14.0727 37.8063 13.8058 37.4898C13.722 37.3895 13.6381 37.2814 13.5543 37.181C12.952 36.4167 12.9367 35.5289 13.5085 34.7414C13.6076 34.6025 13.722 34.4712 13.8287 34.34C14.0346 34.0775 14.0727 33.7841 13.9431 33.4753C13.8897 33.3518 13.8287 33.236 13.7753 33.1125C13.3408 32.132 13.6686 31.2365 14.6292 30.7964C14.7436 30.7424 14.8579 30.7038 14.9723 30.6652C15.6508 30.449 16.3522 30.395 17.0536 30.3873C18.6317 30.3564 20.1641 30.6575 21.6965 30.9971C22.4817 31.1747 23.1297 30.8119 23.3661 30.0398C23.4957 29.623 23.5262 29.1983 23.4881 28.7583C23.3813 27.5617 23.0459 26.4191 22.6952 25.2842C22.3674 24.2343 22.1005 23.1843 22.1539 22.0649C22.2073 20.8837 22.8019 20.1426 23.9226 19.9187C24.2504 19.8492 24.319 19.9032 24.3495 20.2584C24.38 20.683 24.3877 21.1076 24.3343 21.5245C24.3038 21.7715 24.3419 22.0031 24.4258 22.227C25.2187 24.3423 26.1106 26.4036 27.2008 28.38C27.8641 29.5921 28.5807 30.7733 29.6023 31.7228C30.1512 32.2324 30.5477 32.8423 30.8298 33.5371C30.9517 33.8459 31.0508 34.147 30.9517 34.4867C30.8907 34.6874 30.8984 34.9036 30.8984 35.1197C30.8984 38.3236 30.8984 41.5198 30.8984 44.7236C30.8984 44.8858 30.8984 45.0556 30.9212 45.21C30.9517 45.3953 30.8831 45.4416 30.7154 45.4648C28.9238 45.6809 27.1322 45.8431 25.333 45.9125C23.7244 45.9589 22.0853 45.8894 20.6444 46.0283ZM32.6442 39.8831C32.6442 38.231 32.6442 36.5788 32.6442 34.9267C32.6442 34.394 32.9492 34.0157 33.4295 34.008C34.7103 33.9926 35.9911 33.9926 37.2719 34.008C37.653 34.008 37.9504 34.2859 38.0342 34.6642C38.0724 34.8418 38.08 35.0271 38.08 35.2046C38.08 37.4203 38.08 39.6437 38.08 41.8594C38.08 42.8167 38.0876 43.7818 38.08 44.7391C38.0724 45.4262 37.7522 45.7427 37.0813 45.7427C35.9453 45.7427 34.8018 45.7427 33.6658 45.7427C32.9339 45.7427 32.6442 45.4493 32.6442 44.7159C32.6366 43.1101 32.6442 41.4966 32.6442 39.8831Z" fill="black"/>
<path d="M23.8492 0.832508C24.2098 -0.277505 25.7802 -0.277502 26.1409 0.832511L27.0914 3.75789C27.2527 4.25431 27.7153 4.5904 28.2372 4.5904L31.3132 4.5904C32.4803 4.5904 32.9656 6.08392 32.0213 6.76994L29.5328 8.57793C29.1106 8.88473 28.9339 9.42854 29.0952 9.92496L30.0457 12.8503C30.4063 13.9604 29.1359 14.8834 28.1917 14.1974L25.7032 12.3894C25.2809 12.0826 24.7091 12.0826 24.2868 12.3894L21.7983 14.1974C20.8541 14.8834 19.5837 13.9604 19.9443 12.8503L20.8948 9.92495C21.0561 9.42854 20.8794 8.88473 20.4572 8.57793L17.9687 6.76994C17.0244 6.08391 17.5097 4.5904 18.6769 4.5904L21.7528 4.5904C22.2747 4.5904 22.7373 4.25431 22.8986 3.75789L23.8492 0.832508Z" fill="#FDB913"/>
<path d="M6.37752 11.4811C6.43861 10.3156 7.95547 9.90917 8.59114 10.888L10.2664 13.4677C10.5507 13.9055 11.0845 14.1104 11.5887 13.9753L14.5598 13.1792C15.6872 12.8771 16.5425 14.1941 15.808 15.1012L13.8722 17.4916C13.5437 17.8972 13.5138 18.4683 13.7981 18.906L15.4734 21.4857C16.109 22.4645 15.1208 23.685 14.0311 23.2667L11.1595 22.1644C10.6722 21.9773 10.1199 22.1253 9.79142 22.531L7.85568 24.9214C7.12117 25.8284 5.65511 25.2657 5.71619 24.1001L5.87717 21.0284C5.90449 20.5072 5.59306 20.0276 5.10577 19.8406L2.23414 18.7382C1.14453 18.32 1.22671 16.7518 2.35408 16.4497L5.3252 15.6536C5.82938 15.5185 6.18922 15.0741 6.21654 14.5529L6.37752 11.4811Z" fill="#FDB913"/>
<path d="M43.6225 11.4811C43.5614 10.3156 42.0445 9.90917 41.4089 10.888L39.7336 13.4677C39.4493 13.9055 38.9155 14.1104 38.4113 13.9753L35.4402 13.1792C34.3128 12.8771 33.4575 14.1941 34.192 15.1012L36.1278 17.4916C36.4563 17.8972 36.4862 18.4683 36.2019 18.906L34.5266 21.4857C33.891 22.4645 34.8792 23.685 35.9689 23.2667L38.8405 22.1644C39.3278 21.9773 39.8801 22.1253 40.2086 22.531L42.1443 24.9214C42.8788 25.8284 44.3449 25.2657 44.2838 24.1001L44.1228 21.0284C44.0955 20.5072 44.4069 20.0276 44.8942 19.8406L47.7659 18.7382C48.8555 18.32 48.7733 16.7518 47.6459 16.4497L44.6748 15.6536C44.1706 15.5185 43.8108 15.0741 43.7835 14.5529L43.6225 11.4811Z" fill="#FDB913"/>
</svg>
