<svg width="80" height="98" viewBox="0 0 80 98" fill="none" xmlns="http://www.w3.org/2000/svg">
<path d="M0 80.4795H17.1429V97.6861H0V80.4795Z" fill="#FACC28"/>
<path fill-rule="evenodd" clip-rule="evenodd" d="M14.2857 83.3473H2.85714V94.8183H14.2857V83.3473ZM0 80.4795V97.6861H17.1429V80.4795H0Z" fill="black"/>
<path d="M0 44.1543H17.1429V26.9477H0V44.1543Z" fill="#FACC28"/>
<path fill-rule="evenodd" clip-rule="evenodd" d="M14.2857 41.2865H2.85714V29.8155H14.2857V41.2865ZM0 44.1543V26.9477H17.1429V44.1543H0Z" fill="black"/>
<path d="M32.3809 80.4795H49.5238V97.6861H32.3809V80.4795Z" fill="#FACC28"/>
<path fill-rule="evenodd" clip-rule="evenodd" d="M46.6666 83.3473H35.2381V94.8183H46.6666V83.3473ZM32.3809 80.4795V97.6861H49.5238V80.4795H32.3809Z" fill="black"/>
<path d="M62.8571 80.4795H80V97.6861H62.8571V80.4795Z" fill="#FACC28"/>
<path fill-rule="evenodd" clip-rule="evenodd" d="M77.1429 83.3473H65.7143V94.8183H77.1429V83.3473ZM62.8571 80.4795V97.6861H80V80.4795H62.8571Z" fill="black"/>
<path d="M62.8571 44.1543H80V26.9477H62.8571V44.1543Z" fill="#FACC28"/>
<path fill-rule="evenodd" clip-rule="evenodd" d="M77.1429 41.2865H65.7143V29.8155H77.1429V41.2865ZM62.8571 44.1543V26.9477H80V44.1543H62.8571Z" fill="black"/>
<path fill-rule="evenodd" clip-rule="evenodd" d="M8.09525 68.5303H37.1429V71.398H10.9524V81.4352H8.09525V68.5303ZM70.9524 71.398H45.7143V68.5303H73.8095V81.4352H70.9524V71.398Z" fill="black"/>
<path fill-rule="evenodd" clip-rule="evenodd" d="M7.14285 54.1914H20V51.3236H10V43.1983H7.14285V54.1914ZM70 51.3236H60V54.1914H72.8571V43.1983H70V51.3236Z" fill="black"/>
<path d="M47.619 69.9649C47.619 73.6605 44.6343 76.6563 40.9524 76.6563C37.2705 76.6563 34.2857 73.6605 34.2857 69.9649C34.2857 66.2693 37.2705 63.2734 40.9524 63.2734C44.6343 63.2734 47.619 66.2693 47.619 69.9649Z" fill="#FACC28"/>
<path fill-rule="evenodd" clip-rule="evenodd" d="M40.9524 73.7886C43.0563 73.7886 44.7619 72.0767 44.7619 69.9649C44.7619 67.8531 43.0563 66.1412 40.9524 66.1412C38.8484 66.1412 37.1428 67.8531 37.1428 69.9649C37.1428 72.0767 38.8484 73.7886 40.9524 73.7886ZM40.9524 76.6563C44.6343 76.6563 47.619 73.6605 47.619 69.9649C47.619 66.2693 44.6343 63.2734 40.9524 63.2734C37.2705 63.2734 34.2857 66.2693 34.2857 69.9649C34.2857 73.6605 37.2705 76.6563 40.9524 76.6563Z" fill="black"/>
<path fill-rule="evenodd" clip-rule="evenodd" d="M57.1428 47.0221H22.8571C22.3311 47.0221 21.9048 47.45 21.9048 47.978V55.6254C21.9048 56.1533 22.3311 56.5813 22.8571 56.5813H57.1428C57.6688 56.5813 58.0952 56.1533 58.0952 55.6254V47.978C58.0952 47.45 57.6688 47.0221 57.1428 47.0221ZM22.8571 44.1543C20.7532 44.1543 19.0476 45.8662 19.0476 47.978V55.6254C19.0476 57.7371 20.7532 59.449 22.8571 59.449H57.1428C59.2468 59.449 60.9524 57.7371 60.9524 55.6254V47.978C60.9524 45.8662 59.2468 44.1543 57.1428 44.1543H22.8571Z" fill="black"/>
<path d="M26.6667 49.8896H34.2857V53.7133H26.6667V49.8896Z" fill="black"/>
<path d="M45.7143 49.8896H53.3333V53.7133H45.7143V49.8896Z" fill="black"/>
<path d="M38.0952 49.8896H41.9048V53.7133H38.0952V49.8896Z" fill="black"/>
<path fill-rule="evenodd" clip-rule="evenodd" d="M38.5714 39.0227V28.8594H41.4286V38.7806L47.5613 32.6251L49.5816 34.6529L40.0518 44.2181L29.5205 34.7048L31.4319 32.5732L38.5714 39.0227Z" fill="black"/>
<path fill-rule="evenodd" clip-rule="evenodd" d="M51.0025 16.6451L52.0924 12.7924C52.2797 12.1301 52.3809 11.4282 52.3809 10.6978C52.3809 6.47423 48.9698 3.05038 44.7619 3.05038C41.1925 3.05038 38.1899 5.51669 37.3666 8.84794L36.6426 11.7771L33.765 10.902C33.3305 10.7698 32.8667 10.6978 32.3809 10.6978C29.7528 10.6978 27.622 12.8347 27.619 15.4719L27.619 15.4774L27.6301 18.0304L25.1666 18.384C23.3231 18.6486 21.9048 20.2449 21.9048 22.1688C21.9048 24.2806 23.6103 25.9925 25.7143 25.9925C26.3498 25.9925 26.9861 25.9925 27.619 25.9925H52.3809C53.3394 25.9925 54.2851 25.9925 55.2381 25.9925C57.868 25.9925 60 23.8526 60 21.2129C60 18.5732 57.868 16.4333 55.2381 16.4333C55.1538 16.4333 55.0702 16.4355 54.9874 16.4397L51.0025 16.6451ZM24.7619 15.4774C24.7619 11.2538 28.1731 7.82999 32.3809 7.82999C32.8816 7.82999 33.371 7.87847 33.8448 7.971C34.0991 8.02067 34.3489 8.08305 34.5935 8.15743C34.6791 7.81081 34.782 7.47097 34.9009 7.13888C36.3541 3.08297 40.2206 0.182617 44.7619 0.182617C50.5477 0.182617 55.2381 4.8904 55.2381 10.6978C55.2381 11.6956 55.0996 12.6611 54.8409 13.5757C54.9724 13.569 55.1049 13.5655 55.2381 13.5655C56.0969 13.5655 56.9226 13.7082 57.6928 13.9711C60.6963 14.9965 62.8571 17.8514 62.8571 21.2129C62.8571 25.4364 59.446 28.8603 55.2381 28.8603C54.2657 28.8603 53.3462 28.8603 52.3809 28.8603H27.619C26.9793 28.8603 26.3557 28.8603 25.7143 28.8603C22.0324 28.8603 19.0476 25.8644 19.0476 22.1688C19.0476 18.7977 21.5313 16.0088 24.7622 15.5451L24.7619 15.4774Z" fill="black"/>
<path d="M39.5238 59.4492H42.3809V65.1847H39.5238V59.4492Z" fill="black"/>
<path d="M39.5238 74.7441H42.3809V80.4797H39.5238V74.7441Z" fill="black"/>
</svg>
