<svg width="89" height="82" viewBox="0 0 89 82" fill="none" xmlns="http://www.w3.org/2000/svg">
<path fill-rule="evenodd" clip-rule="evenodd" d="M37.8193 2.39977C37.1868 2.88851 36.5642 3.45133 35.9542 4.08774L37.5903 4.57089C37.9673 4.21272 38.3459 3.88754 38.725 3.5946L37.8193 2.39977ZM28.0449 19.5044L29.4769 19.9209C29.0657 21.3619 28.6977 22.8566 28.3747 24.3955L26.9169 24.0836C27.2469 22.5114 27.6234 20.9817 28.0449 19.5044ZM26.4697 26.4005L27.9368 26.6646C27.6728 28.1593 27.4501 29.6886 27.2702 31.2439L25.7901 31.0693C25.9734 29.4849 26.2004 27.9258 26.4697 26.4005ZM25.552 33.4173L27.0365 33.5493C26.9035 35.0746 26.811 36.62 26.7603 38.1777L25.2709 38.1283C25.3225 36.5432 25.4166 34.9704 25.552 33.4173ZM25.2258 40.4876L26.7159 40.4964C26.7115 41.2678 26.7173 42.0413 26.7335 42.8159C26.7493 43.5726 26.775 44.3262 26.8103 45.0759L25.3218 45.1474C25.2858 44.3844 25.2597 43.6176 25.2436 42.8477C25.2271 42.0595 25.2212 41.2725 25.2258 40.4876ZM25.4604 47.4435L26.9465 47.3318C27.0586 48.8522 27.2106 50.3525 27.4012 51.8257L25.9235 52.0205C25.7294 50.5192 25.5745 48.9912 25.4604 47.4435ZM26.2514 54.2977L27.7228 54.0593C27.963 55.5712 28.2445 57.0489 28.5654 58.4842L27.1118 58.8155C26.7837 57.3483 26.4964 55.8396 26.2514 54.2977ZM27.6514 61.0509L29.0928 60.6691C29.4792 62.1563 29.9093 63.5892 30.3808 64.9584L28.9732 65.4524C28.4883 64.044 28.047 62.5735 27.6514 61.0509ZM29.769 67.6081L31.153 67.0504C31.4307 67.7528 31.7199 68.4347 32.0201 69.0946C32.2948 69.6985 32.577 70.28 32.8659 70.8388L31.545 71.5352C31.2439 70.953 30.9507 70.3486 30.6659 69.7227C30.3547 69.0385 30.0556 68.3332 29.769 67.6081ZM32.5194 73.2962L33.7983 72.5238C34.4897 73.6907 35.2111 74.7334 35.9542 75.6491L34.8014 76.6026C34.007 75.6236 33.2442 74.5193 32.5194 73.2962ZM36.1386 78.102L37.195 77.0408C38.1236 77.9831 39.0698 78.7281 40.0183 79.2806L39.2738 80.5839C38.1952 79.9557 37.1462 79.1245 36.1386 78.102ZM41.082 81.4355L41.5848 80.0191C42.1297 80.2162 42.6747 80.3517 43.2188 80.4264C43.9843 80.5315 44.7469 80.5161 45.5051 80.3835L45.7595 81.866C44.8523 82.0247 43.9362 82.0433 43.018 81.9172C42.3666 81.8278 41.7205 81.6665 41.082 81.4355ZM48.3698 81.0122L47.7272 79.6547C49.0367 79.0229 50.3541 78.0247 51.6382 76.6381L52.7267 77.6658C51.3414 79.1616 49.878 80.2845 48.3698 81.0122ZM54.4748 75.5215L53.2713 74.6342C53.7606 73.9576 54.2395 73.2229 54.7052 72.4307C55.0502 71.8439 55.3853 71.23 55.7098 70.5905L57.0361 71.2766C56.6982 71.9424 56.3482 72.5836 55.9866 73.1986C55.4986 74.0289 54.9939 74.8036 54.4748 75.5215ZM57.974 69.296L56.6132 68.6829C57.1638 67.4369 57.6769 66.1133 58.1489 64.7208L59.5588 65.208C59.0734 66.6398 58.5443 68.0058 57.974 69.296ZM60.2225 63.1178L58.795 62.6858C59.1907 61.3532 59.5502 59.9681 59.8712 58.5377L61.3246 58.8702C60.9964 60.3325 60.6283 61.7508 60.2225 63.1178ZM61.7719 56.7219L60.309 56.4349C60.5749 55.0531 60.8058 53.6351 60.9998 52.1872L62.4766 52.389C62.2788 53.8646 62.0434 55.311 61.7719 56.7219ZM62.7387 50.2095L61.2571 50.0482C61.333 49.3384 61.4 48.6224 61.4581 47.901C61.5217 47.112 61.5742 46.321 61.6158 45.529L63.1039 45.6085C63.0616 46.4146 63.0082 47.2197 62.9434 48.023C62.8843 48.7575 62.816 49.4865 62.7387 50.2095ZM63.1972 43.1904L61.7074 43.1527C61.7468 41.5638 61.7425 39.9756 61.6951 38.3964L63.1846 38.3509C63.2328 39.9577 63.2373 41.5737 63.1972 43.1904ZM63.0786 35.9334L61.591 36.021C61.4989 34.4255 61.3627 32.8442 61.1832 31.2858L62.6634 31.112C62.8463 32.6996 62.9849 34.3097 63.0786 35.9334ZM62.351 28.7129L60.8766 28.9316C60.6453 27.3426 60.3682 25.7836 60.0462 24.2643L61.5034 23.9495C61.8324 25.5019 62.1152 27.0929 62.351 28.7129ZM60.9609 21.5927L59.5157 21.9596C59.3233 21.187 59.1188 20.4268 58.9025 19.6805C58.6855 18.9318 58.458 18.202 58.2205 17.4917L59.6324 17.0105C59.8766 17.7407 60.1102 18.4902 60.3327 19.2579C60.5545 20.0232 60.764 20.802 60.9609 21.5927ZM58.8374 14.7962L57.4485 15.3414C56.8757 13.854 56.2576 12.4699 55.6012 11.1972L56.9229 10.5022C57.6066 11.8277 58.2467 13.2622 58.8374 14.7962ZM55.7774 8.45048L54.5057 9.23484C53.6807 7.87128 52.8112 6.67742 51.9104 5.66207L53.0203 4.65815C53.9897 5.75072 54.912 7.02016 55.7774 8.45048ZM51.3621 3.00313L50.3864 4.14032C49.8315 3.65496 49.2707 3.23701 48.7069 2.88617C48.0488 2.47666 47.3948 2.16368 46.7487 1.94015L47.2317 0.516796C47.9901 0.779152 48.7438 1.14174 49.4888 1.60532C50.1268 2.0023 50.7519 2.46939 51.3621 3.00313ZM44.7832 0.0177188L44.6897 1.51934C43.3438 1.43393 41.9738 1.71841 40.5989 2.40539L39.938 1.05689C41.5263 0.263271 43.155 -0.0856097 44.7832 0.0177188ZM28.7365 17.2505L29.1409 17.3863L29.4539 17.9392L29.9445 17.6561L30.1506 17.7253C30.1762 17.6475 30.2019 17.57 30.2278 17.4926L30.7477 17.1926L29.5225 15.0283C29.4076 15.3313 29.2948 15.6375 29.1842 15.9467C29.0732 16.2569 28.9644 16.5701 28.8579 16.8863C28.8171 17.0073 28.7766 17.1287 28.7365 17.2505Z" fill="black"/>
<path d="M14.4247 65.3045C9.46509 63.1247 7.36021 58.8374 8.50699 53.251L10.2243 54C9.98709 55.9618 10.322 58.3514 10.9713 59.6738C11.7333 61.226 13.1078 62.5411 15.2294 63.4735C19.577 65.3843 26.5133 65.4267 34.9079 63.1538C43.2312 60.9002 52.1009 56.6064 59.8069 51.0761C67.531 45.5329 73.4105 39.233 76.451 33.4449C79.5165 27.6089 79.2557 23.2555 76.9927 20.6125C74.6024 17.821 69.4869 16.2623 61.9092 17.0667C54.4465 17.8588 45.6443 20.853 37.198 25.5481C30.5406 29.2489 24.5478 33.76 19.8925 38.5C19.7086 38.6873 17.404 40.9091 17.2243 41.0971L14.8912 41.0971C15.4348 40.4233 16.0061 39.7518 16.6034 39.0839C21.6369 33.4555 28.5186 28.0847 36.2263 23.8001C44.8486 19.0071 53.9087 15.9046 61.6981 15.0778C69.4876 14.251 75.4681 15.757 78.5118 19.3117C81.5556 22.8664 81.4524 28.2243 78.2215 34.375C74.9907 40.5256 68.8556 47.044 60.973 52.701C53.0905 58.358 44.0053 62.7626 35.4306 65.0843C26.8559 67.406 19.3843 67.4843 14.4247 65.3045Z" fill="black"/>
<path d="M74.4989 65.3045C79.4585 63.1247 81.5634 58.8374 80.4166 53.251L78.6993 54C78.9365 55.9618 78.6015 58.3514 77.9523 59.6738C77.1903 61.226 75.8157 62.5411 73.6942 63.4735C69.3466 65.3843 62.4102 65.4267 54.0157 63.1538C45.6924 60.9002 36.8227 56.6064 29.1166 51.0761C21.3926 45.5329 15.513 39.233 12.4726 33.4449C9.40709 27.6089 9.66783 23.2555 11.9309 20.6125C14.3212 17.821 19.4367 16.2623 27.0144 17.0667C34.4771 17.8588 43.2793 20.853 51.7256 25.5481C58.383 29.2489 64.3758 33.76 69.031 38.5C69.215 38.6873 71.5196 40.9091 71.6993 41.0971L74.0323 41.0971C73.4888 40.4233 72.9175 39.7518 72.3202 39.0839C67.2867 33.4555 60.405 28.0847 52.6973 23.8001C44.075 19.0071 35.0149 15.9046 27.2255 15.0778C19.436 14.251 13.4555 15.757 10.4117 19.3117C7.36795 22.8664 7.47121 28.2243 10.702 34.375C13.9329 40.5256 20.068 47.044 27.9505 52.701C35.8331 58.358 44.9183 62.7626 53.493 65.0843C62.0677 67.406 69.5393 67.4843 74.4989 65.3045Z" fill="black"/>
<path d="M13.2243 52C13.2243 53.6569 11.8812 55 10.2243 55C8.56745 55 7.2243 53.6569 7.2243 52C7.2243 50.3431 8.56745 49 10.2243 49C11.8812 49 13.2243 50.3431 13.2243 52Z" fill="#FDB913"/>
<path fill-rule="evenodd" clip-rule="evenodd" d="M15.2243 52C15.2243 54.7614 12.9857 57 10.2243 57C7.46288 57 5.2243 54.7614 5.2243 52C5.2243 49.2386 7.46288 47 10.2243 47C12.9857 47 15.2243 49.2386 15.2243 52ZM10.2243 55C11.8812 55 13.2243 53.6569 13.2243 52C13.2243 50.3431 11.8812 49 10.2243 49C8.56745 49 7.2243 50.3431 7.2243 52C7.2243 53.6569 8.56745 55 10.2243 55Z" fill="black"/>
<circle cx="36.2243" cy="5" r="4" fill="#FDB913" stroke="black" stroke-width="2"/>
<path d="M81.2243 52C81.2243 53.6569 79.8812 55 78.2243 55C76.5674 55 75.2243 53.6569 75.2243 52C75.2243 50.3431 76.5674 49 78.2243 49C79.8812 49 81.2243 50.3431 81.2243 52Z" fill="#FDB913"/>
<path fill-rule="evenodd" clip-rule="evenodd" d="M83.2243 52C83.2243 54.7614 80.9857 57 78.2243 57C75.4629 57 73.2243 54.7614 73.2243 52C73.2243 49.2386 75.4629 47 78.2243 47C80.9857 47 83.2243 49.2386 83.2243 52ZM78.2243 55C79.8812 55 81.2243 53.6569 81.2243 52C81.2243 50.3431 79.8812 49 78.2243 49C76.5674 49 75.2243 50.3431 75.2243 52C75.2243 53.6569 76.5674 55 78.2243 55Z" fill="black"/>
<path d="M44.1536 33.0605C44.4942 31.6465 46.5056 31.6465 46.8461 33.0605L47.3517 35.16C47.5567 36.0112 48.4905 36.4609 49.2838 36.0904L51.2404 35.1767C52.5583 34.5613 53.8124 36.1339 52.9192 37.2818L51.593 38.986C51.0553 39.6771 51.2859 40.6875 52.0702 41.0768L54.0045 42.0368C55.3073 42.6835 54.8597 44.6445 53.4054 44.6618L51.2461 44.6876C50.3705 44.698 49.7243 45.5083 49.909 46.3642L50.3644 48.4751C50.6711 49.8968 48.8589 50.7696 47.9385 49.6433L46.5721 47.9711C46.0181 47.2931 44.9817 47.2931 44.4276 47.9711L43.0612 49.6433C42.1409 50.7696 40.3286 49.8968 40.6354 48.4751L41.0908 46.3642C41.2754 45.5083 40.6292 44.698 39.7537 44.6876L37.5944 44.6618C36.14 44.6445 35.6924 42.6835 36.9953 42.0368L38.9295 41.0768C39.7139 40.6875 39.9445 39.6771 39.4067 38.986L38.0806 37.2818C37.1873 36.1339 38.4414 34.5613 39.7593 35.1767L41.7159 36.0904C42.5093 36.4609 43.4431 36.0112 43.6481 35.16L44.1536 33.0605Z" fill="#FDB913"/>
<circle cx="45.4999" cy="41.4758" r="3.11254" fill="white"/>
</svg>
