<svg width="270" height="236" viewBox="0 0 270 236" fill="none" xmlns="http://www.w3.org/2000/svg">
<path d="M38 113.436H79.143V154.872H38V113.436Z" fill="#FACC28"/>
<path fill-rule="evenodd" clip-rule="evenodd" d="M72.2857 120.342H44.8571V147.966H72.2857V120.342ZM38 113.436V154.872H79.143V113.436H38Z" fill="black"/>
<path d="M113.715 113.436H154.858V154.872H113.715V113.436Z" fill="#FACC28"/>
<path fill-rule="evenodd" clip-rule="evenodd" d="M148.001 120.342H120.572V147.966H148.001V120.342ZM113.715 113.436V154.872H154.858V113.436H113.715Z" fill="black"/>
<path d="M189 113.436H230.143V154.872H189V113.436Z" fill="#FACC28"/>
<path fill-rule="evenodd" clip-rule="evenodd" d="M223.286 120.342H195.857V147.966H223.286V120.342ZM189 113.436V154.872H230.143V113.436H189Z" fill="black"/>
<path fill-rule="evenodd" clip-rule="evenodd" d="M55.4297 70.0957H145.715V77.0016H62.2868V115.738H55.4297V70.0957ZM206.287 77.0016H145.715V70.0957H213.144V115.738H206.287V77.0016Z" fill="black"/>
<path d="M157 23.0002C157 35.7028 146.703 46 134 46C121.298 46 111 35.7028 111 23.0002C111 10.2976 121.298 0 134 0C146.703 0 157 10.2976 157 23.0002Z" fill="#FACC28"/>
<path fill-rule="evenodd" clip-rule="evenodd" d="M134 36.1431C141.259 36.1431 147.143 30.2589 147.143 23.0002C147.143 15.7414 141.259 9.85726 134 9.85726C126.741 9.85726 120.857 15.7414 120.857 23.0002C120.857 30.2589 126.741 36.1431 134 36.1431ZM134 46C146.703 46 157 35.7028 157 23.0002C157 10.2976 146.703 0 134 0C121.298 0 111 10.2976 111 23.0002C111 35.7028 121.298 46 134 46Z" fill="black"/>
<path d="M131 42H138V113H131V42Z" fill="black"/>
<path d="M0 193.904H41.143V235.341H0V193.904Z" fill="#FACC28"/>
<path d="M151 193.904H192.143V235.341H151V193.904Z" fill="#FACC28"/>
<path fill-rule="evenodd" clip-rule="evenodd" d="M34.2857 200.81H6.85714V228.434H34.2857V200.81ZM0 193.904V235.341H41.143V193.904H0Z" fill="black"/>
<path fill-rule="evenodd" clip-rule="evenodd" d="M185.286 200.81H157.857V228.434H185.286V200.81ZM151 193.904V235.341H192.143V193.904H151Z" fill="black"/>
<path d="M77.7148 193.904H118.858V235.341H77.7148V193.904Z" fill="#FACC28"/>
<path d="M228.715 193.904H269.858V235.341H228.715V193.904Z" fill="#FACC28"/>
<path fill-rule="evenodd" clip-rule="evenodd" d="M112.001 200.81H84.5721V228.434H112.001V200.81ZM77.7148 193.904V235.341H118.858V193.904H77.7148Z" fill="black"/>
<path fill-rule="evenodd" clip-rule="evenodd" d="M263.001 200.81H235.572V228.434H263.001V200.81ZM228.715 193.904V235.341H269.858V193.904H228.715Z" fill="black"/>
<path fill-rule="evenodd" clip-rule="evenodd" d="M19.4297 172H95.143V178.906H26.2868V196.904H19.4297V172ZM95.143 178.906V172H102V196.904H95.143V178.906Z" fill="black"/>
<path fill-rule="evenodd" clip-rule="evenodd" d="M170.43 172H246.143V178.906H177.287V196.904H170.43V172ZM246.143 178.906V172H253V196.904H246.143V178.906Z" fill="black"/>
<path d="M56 155H63V177H56V155Z" fill="black"/>
<path d="M207 155H214V177H207V155Z" fill="black"/>
</svg>
