<svg width="68" height="68" viewBox="0 0 68 68" fill="none" xmlns="http://www.w3.org/2000/svg">
<rect x="1" y="1" width="59" height="59" stroke="black" stroke-width="2"/>
<line x1="2" y1="13" x2="60" y2="13" stroke="black" stroke-width="2"/>
<circle cx="42" cy="7" r="2" fill="#FDB913"/>
<circle cx="48" cy="7" r="2" fill="#FDB913"/>
<circle cx="54" cy="7" r="2" fill="#FDB913"/>
<path d="M53.0699 44.5374C53.529 42.6308 56.2411 42.6308 56.7002 44.5374L57.3819 47.368C57.6583 48.5158 58.9173 49.1221 59.987 48.6226L62.6252 47.3907C64.402 46.5609 66.093 48.6813 64.8886 50.2289L63.1005 52.5268C62.3755 53.4585 62.6864 54.8209 63.7439 55.3458L66.352 56.6403C68.1086 57.5121 67.5051 60.1562 65.5441 60.1795L62.6327 60.2142C61.4522 60.2283 60.581 61.3208 60.8299 62.4749L61.444 65.321C61.8575 67.238 59.4141 68.4147 58.1732 66.8961L56.3308 64.6416C55.5838 63.7273 54.1864 63.7274 53.4393 64.6416L51.597 66.8961C50.3561 68.4147 47.9126 67.238 48.3262 65.321L48.9402 62.4749C49.1892 61.3208 48.3179 60.2283 47.1374 60.2142L44.226 60.1795C42.2651 60.1562 41.6616 57.5121 43.4182 56.6403L46.0262 55.3458C47.0837 54.8209 47.3947 53.4585 46.6696 52.5268L44.8815 50.2289C43.6772 48.6813 45.3681 46.5609 47.145 47.3907L49.7831 48.6226C50.8528 49.1221 52.1118 48.5158 52.3882 47.368L53.0699 44.5374Z" fill="#FDB913"/>
<circle cx="54.8851" cy="55.8842" r="4.19668" fill="white"/>
<rect x="5" y="5" width="15" height="4" rx="2" fill="#FDB913"/>
<path d="M22.7808 37.4864L8.51447 31.2165V29.702L22.7808 22.584V24.9466L11.3617 30.3381L22.7808 35.1238V37.4864ZM37.1179 35.1238L48.537 30.3684L37.1179 24.9466V22.584L51.3843 29.702V31.2165L37.1179 37.4864V35.1238Z" fill="black"/>
<path d="M35.2984 19.3733L27.2414 41H24.6365L32.6935 19.3733H35.2984Z" fill="#FDB913"/>
<rect x="9" y="46" width="33" height="3" rx="1.5" fill="#AAAAAA"/>
<rect x="9" y="52" width="27" height="3" rx="1.5" fill="#AAAAAA"/>
</svg>
