<svg width="119" height="66" viewBox="0 0 119 66" fill="none" xmlns="http://www.w3.org/2000/svg">
<path d="M24.7021 27H28.6645C29.558 27 30.2392 27.0684 30.7079 27.2051C31.3378 27.3906 31.8774 27.7202 32.3266 28.1938C32.7758 28.6675 33.1176 29.2485 33.352 29.937C33.5864 30.6206 33.7036 31.4653 33.7036 32.4712C33.7036 33.355 33.5937 34.1167 33.374 34.7563C33.1054 35.5376 32.7221 36.1699 32.2241 36.6533C31.8481 37.0195 31.3403 37.3052 30.7006 37.5103C30.2221 37.6616 29.5825 37.7373 28.7817 37.7373H24.7021V27ZM26.8701 28.8164V35.9282H28.4887C29.0942 35.9282 29.5312 35.894 29.7997 35.8257C30.1513 35.7378 30.4418 35.5889 30.6713 35.3789C30.9057 35.1689 31.0961 34.8247 31.2426 34.3462C31.3891 33.8628 31.4623 33.2061 31.4623 32.376C31.4623 31.5459 31.3891 30.9087 31.2426 30.4644C31.0961 30.02 30.8911 29.6733 30.6274 29.4243C30.3637 29.1753 30.0292 29.0068 29.624 28.9189C29.3212 28.8506 28.728 28.8164 27.8442 28.8164H26.8701Z" fill="black"/>
<path d="M40.039 35.2617L42.0898 35.606C41.8261 36.3579 41.4086 36.9316 40.8373 37.3271C40.2709 37.7178 39.5605 37.9131 38.706 37.9131C37.3535 37.9131 36.3525 37.4712 35.7031 36.5874C35.1904 35.8794 34.934 34.9858 34.934 33.9067C34.934 32.6177 35.2709 31.6094 35.9448 30.8818C36.6186 30.1494 37.4706 29.7832 38.5009 29.7832C39.6581 29.7832 40.5712 30.1665 41.2402 30.9331C41.9091 31.6948 42.2289 32.8643 42.1996 34.4414H37.0434C37.058 35.0518 37.2241 35.5278 37.5414 35.8696C37.8588 36.2065 38.2543 36.375 38.728 36.375C39.0502 36.375 39.3212 36.2871 39.541 36.1113C39.7607 35.9355 39.9267 35.6523 40.039 35.2617ZM40.1562 33.1816C40.1415 32.5859 39.9877 32.1343 39.6948 31.8267C39.4018 31.5142 39.0453 31.3579 38.6254 31.3579C38.1762 31.3579 37.8051 31.5215 37.5121 31.8486C37.2192 32.1758 37.0751 32.6201 37.08 33.1816H40.1562Z" fill="black"/>
<path d="M46.0229 37.7373L42.8881 29.959H45.0488L46.5136 33.9287L46.9384 35.2544C47.0507 34.9175 47.1215 34.6953 47.1508 34.5879C47.2192 34.3682 47.2924 34.1484 47.3705 33.9287L48.85 29.959H50.9667L47.8759 37.7373H46.0229Z" fill="black"/>
<path d="M71.27 31.6177C71.27 30.5239 71.4335 29.606 71.7607 28.8638C72.0048 28.3169 72.3369 27.8262 72.7568 27.3916C73.1816 26.957 73.6454 26.6348 74.1484 26.4248C74.8173 26.1416 75.5888 26 76.4628 26C78.0449 26 79.3095 26.4907 80.2568 27.4722C81.2089 28.4536 81.685 29.8184 81.685 31.5664C81.685 33.2998 81.2138 34.6572 80.2714 35.6387C79.329 36.6152 78.0693 37.1035 76.4921 37.1035C74.8954 37.1035 73.6259 36.6177 72.6835 35.646C71.7411 34.6694 71.27 33.3267 71.27 31.6177ZM73.5038 31.5444C73.5038 32.7603 73.7846 33.6831 74.3461 34.313C74.9077 34.938 75.6205 35.2505 76.4848 35.2505C77.3491 35.2505 78.0571 34.9404 78.6088 34.3203C79.1655 33.6953 79.4438 32.7603 79.4438 31.5151C79.4438 30.2847 79.1728 29.3667 78.6308 28.7612C78.0937 28.1558 77.3784 27.853 76.4848 27.853C75.5912 27.853 74.871 28.1606 74.3242 28.7759C73.7773 29.3862 73.5038 30.3091 73.5038 31.5444Z" fill="black"/>
<path d="M83.311 29.1421H85.2299V30.2847C85.4789 29.894 85.8159 29.5767 86.2407 29.3325C86.6655 29.0884 87.1367 28.9663 87.6542 28.9663C88.5576 28.9663 89.3242 29.3203 89.954 30.0283C90.5839 30.7363 90.8989 31.7227 90.8989 32.9873C90.8989 34.2861 90.5815 35.2969 89.9467 36.0195C89.312 36.7373 88.5429 37.0962 87.6396 37.0962C87.2099 37.0962 86.8193 37.0107 86.4677 36.8398C86.121 36.6689 85.7548 36.376 85.3691 35.9609V39.8794H83.311V29.1421ZM85.3471 32.8994C85.3471 33.7734 85.5204 34.4204 85.8671 34.8403C86.2138 35.2554 86.6362 35.4629 87.1342 35.4629C87.6127 35.4629 88.0107 35.2725 88.3281 34.8916C88.6454 34.5059 88.8041 33.876 88.8041 33.002C88.8041 32.1865 88.6406 31.5811 88.3134 31.1855C87.9863 30.79 87.581 30.5923 87.0976 30.5923C86.5947 30.5923 86.1772 30.7876 85.8452 31.1782C85.5131 31.564 85.3471 32.1377 85.3471 32.8994Z" fill="black"/>
<path d="M91.8144 34.7012L93.8798 34.3862C93.9677 34.7866 94.1459 35.0918 94.4145 35.3018C94.683 35.5068 95.059 35.6094 95.5424 35.6094C96.0746 35.6094 96.475 35.5117 96.7436 35.3164C96.9243 35.1797 97.0146 34.9966 97.0146 34.7671C97.0146 34.6108 96.9658 34.4814 96.8681 34.3789C96.7656 34.2812 96.5361 34.1909 96.1796 34.1079C94.5195 33.7417 93.4672 33.4072 93.0229 33.1045C92.4077 32.6846 92.1 32.1011 92.1 31.354C92.1 30.6802 92.3661 30.1138 92.8984 29.6548C93.4306 29.1958 94.2558 28.9663 95.374 28.9663C96.4384 28.9663 97.2294 29.1396 97.747 29.4863C98.2646 29.833 98.621 30.3457 98.8163 31.0244L96.8754 31.3833C96.7924 31.0806 96.6337 30.8486 96.3994 30.6875C96.1699 30.5264 95.8403 30.4458 95.4106 30.4458C94.8686 30.4458 94.4804 30.5215 94.246 30.6729C94.0898 30.7803 94.0117 30.9194 94.0117 31.0903C94.0117 31.2368 94.08 31.3613 94.2167 31.4639C94.4023 31.6006 95.0419 31.7935 96.1357 32.0425C97.2343 32.2915 98.0009 32.5967 98.4355 32.958C98.8652 33.3242 99.08 33.8345 99.08 34.4888C99.08 35.2017 98.7822 35.8145 98.1865 36.3271C97.5908 36.8398 96.7094 37.0962 95.5424 37.0962C94.4828 37.0962 93.643 36.8813 93.0229 36.4517C92.4077 36.022 92.0048 35.4385 91.8144 34.7012Z" fill="black"/>
<path fill-rule="evenodd" clip-rule="evenodd" d="M47.8241 20.7377C44.3042 16.1562 38.7698 13.2031 32.5456 13.2031C21.9112 13.2031 13.2902 21.8241 13.2902 32.4585C13.2902 43.093 21.9112 51.714 32.5456 51.714C38.4369 51.714 43.7103 49.0682 47.2424 44.9001L44.4017 42.0594C41.6048 45.5091 37.3327 47.714 32.5456 47.714C24.1203 47.714 17.2902 40.8839 17.2902 32.4585C17.2902 24.0332 24.1203 17.2031 32.5456 17.2031C37.6664 17.2031 42.198 19.7262 44.9649 23.597L47.8241 20.7377Z" fill="#FDB913"/>
<path fill-rule="evenodd" clip-rule="evenodd" d="M71.7623 20.7377C75.2823 16.1562 80.8167 13.2031 87.0408 13.2031C97.6753 13.2031 106.296 21.8241 106.296 32.4585C106.296 43.093 97.6753 51.714 87.0408 51.714C81.1495 51.714 75.8761 49.0682 72.3441 44.9001L75.1847 42.0594C77.9817 45.5091 82.2537 47.714 87.0408 47.714C95.4661 47.714 102.296 40.8839 102.296 32.4585C102.296 24.0332 95.4661 17.2031 87.0408 17.2031C81.92 17.2031 77.3885 19.7262 74.6216 23.597L71.7623 20.7377Z" fill="#FDB913"/>
<path fill-rule="evenodd" clip-rule="evenodd" d="M75.133 3.6833L77.9719 8.60036L79.4286 8.24381C81.2027 7.80956 83.0514 7.56151 84.9535 7.52231L86.4546 7.49137L87.9262 1.99956L98.8304 4.92133L97.3604 10.4074L98.6421 11.1854C100.238 12.1541 101.719 13.294 103.06 14.5797L104.143 15.6187L109.067 12.7759L114.711 22.5523L109.794 25.3912L110.151 26.8478C110.585 28.622 110.833 30.4707 110.872 32.3728L110.903 33.8739L116.396 35.3457L113.474 46.2499L107.987 44.7797L107.209 46.0614C106.24 47.6572 105.101 49.1383 103.815 50.4789L102.776 51.5622L105.619 56.4862L95.8424 62.1306L93.0035 57.2135L91.5468 57.57C89.7729 58.0042 87.9245 58.2523 86.0227 58.2915L84.5216 58.3225L83.0498 63.8153L72.1456 60.8935L73.6157 55.4068L72.3339 54.6288C70.7379 53.6601 69.2566 52.5201 67.9158 51.2341L66.8325 50.1952L64.9973 51.2547V53.3969V53.5631L66.5321 52.6769C67.9777 54.0633 69.575 55.2927 71.2967 56.3377L70.2146 60.3761C69.9289 61.4426 70.5617 62.5387 71.6282 62.8245L82.5324 65.7463C83.5988 66.032 84.695 65.3991 84.9807 64.3327L86.0639 60.2901C88.1132 60.2479 90.1071 59.9805 92.0221 59.5118L94.1111 63.1302C94.6632 64.0863 95.8858 64.4139 96.8419 63.8619L106.618 58.2174C107.574 57.6654 107.902 56.4428 107.35 55.4867L105.258 51.8626C106.644 50.4172 107.873 48.8201 108.918 47.0987L112.957 48.1808C114.023 48.4666 115.119 47.8337 115.405 46.7673L118.327 35.8631C118.613 34.7967 117.98 33.7005 116.913 33.4147L112.871 32.3316C112.829 30.282 112.561 28.2878 112.093 26.3726L115.711 24.2835C116.667 23.7315 116.995 22.5089 116.443 21.5528L110.798 11.7763C110.246 10.8202 109.024 10.4926 108.067 11.0446L104.443 13.137C102.998 11.7507 101.401 10.5214 99.6794 9.47652L100.761 5.43873C101.047 4.37229 100.414 3.27613 99.3477 2.99038L88.4436 0.0686128C87.3771 -0.217137 86.281 0.415731 85.9952 1.48217L84.9123 5.52366C82.8627 5.5659 80.8685 5.83328 78.9533 6.30206L76.8643 2.68377C76.3122 1.72763 75.0896 1.40003 74.1335 1.95206L64.3571 7.59648C63.4009 8.14851 63.0733 9.37112 63.6254 10.3273L65.7177 13.9513C64.3313 15.3969 63.1018 16.9943 62.0568 18.716L58.0193 17.6341C56.9529 17.3484 55.8567 17.9813 55.5709 19.0477L52.6492 29.9519C52.3634 31.0183 52.9963 32.1145 54.0627 32.4002L58.1045 33.4832C58.1468 35.5325 58.4141 37.5264 58.8829 39.4413L55.2645 41.5304C54.3084 42.0824 53.9808 43.305 54.5328 44.2612L58.7801 51.6178L60.2435 50.1544L56.264 43.2616L61.1812 40.4227L60.8246 38.966C60.3904 37.1922 60.1424 35.3438 60.1031 33.442L60.0721 31.9409L54.5801 30.4693L57.5019 19.5651L62.9878 21.035L63.7658 19.7532C64.7345 18.1571 65.8745 16.6758 67.1605 15.335L68.1994 14.2517L65.3566 9.32773L75.133 3.6833Z" fill="black"/>
<path fill-rule="evenodd" clip-rule="evenodd" d="M57.9867 50.3982L58.0603 50.4718L50.0779 58.4543L46.0599 54.4363L44.7441 55.1611C43.1279 56.0514 41.4048 56.7705 39.5991 57.2942L38.1568 57.7125V63.3915H26.868L26.868 57.7125L25.4258 57.2942C23.62 56.7705 21.8969 56.0514 20.2807 55.1611L18.9649 54.4362L14.9469 58.4542L6.96451 50.4718L10.9823 46.4539L10.2574 45.1381C9.36693 43.5217 8.64774 41.7984 8.12394 39.9924L7.70565 38.5502H2.02665L2.02665 27.2613L7.70565 27.2613L8.12394 25.8191C8.64767 24.0133 9.36672 22.2903 10.257 20.6741L10.9819 19.3582L6.96452 15.3409L14.9469 7.35844L18.9642 11.3757L20.28 10.6507C21.8964 9.76025 23.6198 9.04105 25.4258 8.51725L26.868 8.09896V2.41997L38.1568 2.41997V8.09896L39.5991 8.51725C41.4051 9.04105 43.1284 9.76024 44.7448 10.6507L46.0606 11.3756L50.0779 7.35837L53.8746 11.1551L55.3044 9.75777L51.4915 5.94482C50.7108 5.16413 49.445 5.16413 48.6643 5.94482L45.7094 8.89978C43.9654 7.939 42.1055 7.16274 40.1559 6.59731V2.41997C40.1559 1.31591 39.2609 0.420898 38.1568 0.420898H26.868C25.7639 0.420898 24.8689 1.31591 24.8689 2.41997V6.59731C22.9194 7.16274 21.0594 7.93901 19.3154 8.89981L16.3605 5.94489C15.5798 5.1642 14.3141 5.1642 13.5334 5.94489L5.55097 13.9273C4.77028 14.708 4.77028 15.9737 5.55097 16.7544L8.50606 19.7095C7.54547 21.4533 6.76935 23.313 6.204 25.2622H2.02665C0.922601 25.2622 0.0275879 26.1573 0.0275879 27.2613V38.5502C0.0275879 39.6542 0.922599 40.5492 2.02665 40.5492H6.204C6.76943 42.4988 7.54569 44.3587 8.50647 46.1027L5.55096 49.0582C4.77027 49.8389 4.77027 51.1046 5.55096 51.8853L13.5334 59.8677C14.3141 60.6484 15.5798 60.6484 16.3605 59.8677L19.3162 56.9121C21.0599 57.8727 22.9196 58.6488 24.8689 59.2142V63.3915C24.8689 64.4956 25.7639 65.3906 26.868 65.3906H38.1568C39.2609 65.3906 40.1559 64.4956 40.1559 63.3915V59.2142C42.1052 58.6488 43.9649 57.8727 45.7086 56.9121L48.6644 59.8678C49.445 60.6485 50.7108 60.6485 51.4915 59.8678L59.4739 51.8854C59.883 51.4763 60.0777 50.9341 60.058 50.3982H57.9867Z" fill="black"/>
</svg>
