<svg width="84" height="62" viewBox="0 0 84 62" fill="none" xmlns="http://www.w3.org/2000/svg">
<path d="M1.78381 2.13374H10.1397C11.5323 1.57669 15.1532 2.46798 18.4955 10.4896C21.8379 18.5112 28.244 35.5572 31.0293 43.0775C31.8649 45.3057 35.5415 49.7622 43.5631 49.7622C51.5847 49.7622 69.7448 49.7622 77.8221 49.7622" stroke="black" stroke-width="3.34234" stroke-linecap="round" stroke-linejoin="round"/>
<path d="M25.1802 5.47739H76.1509C78.1006 5.19886 82 5.81162 82 10.4909C82 15.1702 82 28.0375 82 33.8863L78.8143 34.3563M31.0293 41.4066L43.772 39.5265L50.1433 38.5865" stroke="black" stroke-width="3.34234" stroke-linecap="round" stroke-linejoin="round"/>
<circle cx="42.7275" cy="57.2824" r="4.17793" fill="black"/>
<circle cx="69.4662" cy="57.2824" r="4.17793" fill="black"/>
<rect x="60.0713" y="29.6166" width="6.72076" height="19.3591" transform="rotate(-37.5093 60.0713 29.6166)" fill="#FDB913" stroke="black" stroke-width="2.50676" stroke-linejoin="round"/>
<path d="M54.7255 15.3493C54.3118 15.178 53.8381 15.2404 53.4829 15.5131C53.1277 15.7857 52.9449 16.2272 53.0034 16.6711L55.436 35.125C55.4945 35.569 55.7854 35.948 56.1991 36.1193C56.6129 36.2906 57.0866 36.2281 57.4418 35.9555L72.2071 24.6219C72.5623 24.3492 72.7451 23.9078 72.6865 23.4638C72.628 23.0199 72.3371 22.6409 71.9234 22.4696L54.7255 15.3493Z" fill="#FDB913" stroke="black" stroke-width="2.50676" stroke-linejoin="round"/>
</svg>
