<svg width="93" height="82" viewBox="0 0 93 82" fill="none" xmlns="http://www.w3.org/2000/svg">
<path d="M78.5379 13.5762C78.0665 13.5762 77.6246 13.6351 77.2121 13.7529L31.2525 25.8615C29.367 26.3329 27.835 27.3346 26.6566 28.8666C25.4781 30.3986 24.8889 32.1368 24.8889 34.0812V72.9701C24.8889 75.2681 25.7138 77.2715 27.3636 78.9802C29.0724 80.63 31.0758 81.455 33.3737 81.455H84.2828C86.5808 81.455 88.5547 80.63 90.2045 78.9802C91.9133 77.2715 92.7677 75.2681 92.7677 72.9701V36.2024C92.7677 33.9045 91.9133 31.9305 90.2045 30.2807C88.5547 28.572 86.5808 27.7176 84.2828 27.7176H46.4545L78.6263 19.2327V24.8893H84.2828V19.2327C84.2828 17.6418 83.6936 16.3161 82.5151 15.2555C81.3956 14.1359 80.0699 13.5762 78.5379 13.5762ZM33.3737 33.3742H84.2828C85.1077 33.3742 85.7853 33.6393 86.3157 34.1696C86.846 34.6999 87.1111 35.3775 87.1111 36.2024V72.9701C87.1111 73.795 86.846 74.4726 86.3157 75.0029C85.7853 75.5332 85.1077 75.7984 84.2828 75.7984H33.3737C32.5488 75.7984 31.8712 75.5332 31.3409 75.0029C30.8106 74.4726 30.5455 73.795 30.5455 72.9701V36.2024C30.5455 35.3775 30.8106 34.6999 31.3409 34.1696C31.8712 33.6393 32.5488 33.3742 33.3737 33.3742ZM77.2121 50.3438C76.0337 50.3438 75.032 50.7563 74.2071 51.5812C73.3821 52.4061 72.9697 53.4078 72.9697 54.5863C72.9697 55.7647 73.3821 56.7664 74.2071 57.5913C75.032 58.4162 76.0337 58.8287 77.2121 58.8287C78.3906 58.8287 79.3923 58.4162 80.2172 57.5913C81.0421 56.7664 81.4545 55.7647 81.4545 54.5863C81.4545 53.4078 81.0421 52.4061 80.2172 51.5812C79.3923 50.7563 78.3906 50.3438 77.2121 50.3438Z" fill="black"/>
<circle cx="21.4949" cy="21.4949" r="19.2323" fill="#FDB913" stroke="black" stroke-width="4.52525"/>
<path d="M20.8232 32.8079V30.5603C19.5636 30.4187 18.5372 30.169 17.7441 29.811C16.9604 29.4448 16.2793 28.8579 15.7008 28.0504C15.1316 27.2429 14.8004 26.2564 14.7071 25.091L17.2403 24.6664C17.4362 25.8735 17.7814 26.7601 18.276 27.3262C18.9851 28.1253 19.8341 28.5707 20.8232 28.6623V21.5073C19.7875 21.3324 18.7285 20.9745 17.6462 20.4334C16.8437 20.0338 16.2233 19.4802 15.7847 18.7726C15.3555 18.065 15.1409 17.2617 15.1409 16.3627C15.1409 14.7643 15.7754 13.4699 17.0443 12.4792C17.8934 11.8133 19.153 11.4054 20.8232 11.2555V10.1816H22.3067V11.2555C23.7716 11.3804 24.9332 11.7633 25.7916 12.4043C26.8926 13.2201 27.5551 14.3398 27.779 15.7633L25.1758 16.1129C25.0265 15.2305 24.714 14.5562 24.2381 14.09C23.7716 13.6155 23.1278 13.3034 22.3067 13.1535V19.6342C23.5756 19.9173 24.4154 20.1379 24.8259 20.296C25.6097 20.604 26.2488 20.9786 26.7433 21.4199C27.2378 21.8611 27.6157 22.3855 27.877 22.9932C28.1475 23.6009 28.2828 24.2585 28.2828 24.9661C28.2828 26.5228 27.7277 27.8215 26.6174 28.862C25.507 29.9026 24.0702 30.4604 22.3067 30.5353V32.8079H20.8232ZM20.8232 13.1285C19.8435 13.2617 19.069 13.6114 18.4999 14.1774C17.9401 14.7435 17.6602 15.4137 17.6602 16.1878C17.6602 16.9537 17.8981 17.5947 18.3739 18.1108C18.8591 18.6269 19.6755 19.039 20.8232 19.347V13.1285ZM22.3067 28.6623C23.2864 28.554 24.0935 28.1753 24.7279 27.5259C25.3717 26.8766 25.6936 26.0733 25.6936 25.116C25.6936 24.3002 25.465 23.6467 25.0079 23.1555C24.56 22.6561 23.6596 22.2107 22.3067 21.8194V28.6623Z" fill="black"/>
</svg>
