<svg xmlns="http://www.w3.org/2000/svg" xmlns:xlink="http://www.w3.org/1999/xlink" viewBox="0 0 948.04 173.27"><defs><style>.cls-1{fill:none;}.cls-2{isolation:isolate;}.cls-3{fill:#5f6060;}.cls-4{opacity:0.2;mix-blend-mode:multiply;}.cls-5{clip-path:url(#clip-path);}.cls-6{fill:#fdb913;}</style><clipPath id="clip-path" transform="translate(-66.07 -453.41)"><rect class="cls-1" x="385.31" y="457.29" width="628.79" height="169.4"/></clipPath></defs><title>five-splash-logo</title><g class="cls-2"><g id="Layer_1" data-name="Layer 1"><polygon class="cls-3" points="73.58 4.13 73.58 15.43 12.74 15.43 12.74 61.91 70.7 61.91 70.7 73.21 12.74 73.21 12.74 134.04 0 134.04 0 4.13 73.58 4.13"/><path class="cls-3" d="M175,471.53H160.82v-14H175Zm-1.43,115.93H162.25V497h11.31Z" transform="translate(-66.07 -453.41)"/><polygon class="cls-3" points="137.1 43.6 168.15 117.18 196.32 43.6 209.06 43.6 173.71 134.04 160.97 134.04 124.36 43.6 137.1 43.6"/><path class="cls-3" d="M354.26,556.42H367q-4.32,18.12-14.54,25.29t-25.12,7.18q-21.9,0-31.23-12.74A55.61,55.61,0,0,1,285.35,548c-.12-1.2-.21-2.36-.26-3.5s-.1-2.31-.1-3.5q0-21.16,12.57-34.63t28.53-13.46q21.18,0,30.78,13.82a56.81,56.81,0,0,1,10.32,30.5v4.49a3.12,3.12,0,0,0-.18,1.07v1.08l-69.27-.18a39.34,39.34,0,0,0,.45,5.93,49.82,49.82,0,0,0,1.34,6.28,40,40,0,0,0,8.61,16.06q6.28,7.26,17.23,7.26h2q10.22-.71,15.7-4.66a26.86,26.86,0,0,0,8-8.44,27.58,27.58,0,0,0,2.16-5.11,41.41,41.41,0,0,0,1.07-4.4Zm0-23.07a1.45,1.45,0,0,1,.18-.62v-1.26q0-11.47-6.63-18.21a28.4,28.4,0,0,0-14.72-8.35c-1-.23-1.92-.41-2.87-.54a25.25,25.25,0,0,0-2.87-.17,49,49,0,0,0-6.11.44,22,22,0,0,0-7,2.25q-4.85,2.33-9.43,8.52T297.74,534l56.52-.17Z" transform="translate(-66.07 -453.41)"/><g class="cls-4"><g class="cls-5"><path class="cls-3" d="M406.39,575.45q7.28,7.63,19.83,7.63,18.48,0,26.47-7.45t8.17-16.41a23.76,23.76,0,0,0-4.31-13.55,24.4,24.4,0,0,0-11.84-9.25c-1.56-.59-3.14-1.13-4.76-1.61s-3.2-1-4.75-1.44c-1.08-.36-2.1-.68-3.05-1s-2-.63-3-1A124,124,0,0,1,401,518.57q-12.83-8-12.83-27.37,0-12.74,11.31-23.32t28.17-10.59q18.12,0,30.51,8.07t13.28,23l-12.57-.18q0-7.17-8.16-13.37t-23.06-6.19q-12,.72-19,7.72t-7,15.43a20.62,20.62,0,0,0,3.5,11.22q3.5,5.48,11.21,9.42,3.42,1.61,6.91,3c2.34,1,4.7,1.85,7.09,2.69,1.56.6,3.08,1.17,4.58,1.71s3,1,4.4,1.52a115.23,115.23,0,0,1,24.49,11.57q10.5,6.74,10.5,23.24,0,22.26-15,30.15a70,70,0,0,1-33.11,7.9q-16.86,0-27.81-9t-13.1-29.07l12.74-.18q1.08,11.85,8.34,19.47" transform="translate(-66.07 -453.41)"/><path class="cls-3" d="M591.68,461.42q32.84.18,46.75,20.81t13.9,47.2q-.9,29.6-17.49,45.75t-43.16,16.15H549.33V461.42ZM561.89,580h29.79a47.65,47.65,0,0,0,33.82-12.92q14.28-13.1,14.27-40.2v-3.23q0-24.39-14.53-37.59t-42-13.19l-21.35-.18Z" transform="translate(-66.07 -453.41)"/><path class="cls-3" d="M689.3,475.41H675.13v-14H689.3Zm-1.44,115.92h-11.3V500.89h11.3Z" transform="translate(-66.07 -453.41)"/><path class="cls-3" d="M779.56,500.89h11.31c0,1.44-.06,3.27-.18,5.48s-.3,4.51-.54,6.9v1.08c-.12,2.51-.27,4.91-.45,7.18s-.27,4-.27,5v57.79a58.21,58.21,0,0,1-7,28.62q-7,12.64-32.49,13.73-16.14,0-25.75-6.73t-9.78-16.78v-.45a.61.61,0,0,1,.18-.45v-1.07h11.31q1.08,8.43,7.8,12A34.14,34.14,0,0,0,750,616.82q10.59,0,16.69-4.67a28.52,28.52,0,0,0,8.8-10.41,25.79,25.79,0,0,0,2.06-5.56,21.46,21.46,0,0,0,.63-4.85V575.72A36.71,36.71,0,0,1,766,587.39q-6.91,3.95-17.5,3.94-19,0-28.8-13.54a58.55,58.55,0,0,1-10.86-31.5v-2.06a12.69,12.69,0,0,1,.18-2.07,59.57,59.57,0,0,1,9.15-29.42q8.43-13.46,30.33-14.54a35.23,35.23,0,0,1,16.42,3.59q6.9,3.6,13.19,12a85.08,85.08,0,0,1,1.43-12.74Zm-1.43,42.35q0-14.72-8.26-24.94T750,508.07q-11.66,0-18.3,8.17a42.56,42.56,0,0,0-8.79,18,33.78,33.78,0,0,0-1,5.39,51.94,51.94,0,0,0-.27,5.2,42.65,42.65,0,0,0,8.17,25.3q8.16,11.49,18.75,11.49,12,0,20.82-9.16t9-25.66v-1.61a1.79,1.79,0,0,1-.18-.81v-1.17Z" transform="translate(-66.07 -453.41)"/><path class="cls-3" d="M827.66,475.41H813.48v-14h14.18Zm-1.44,115.92h-11.3V500.89h11.3Z" transform="translate(-66.07 -453.41)"/><path class="cls-3" d="M843.09,500.89h18.3v-18.3l11.31-4.31v22.61h21.17v9.87H872.7v59.4q0,8.43,3.32,11.4a12.59,12.59,0,0,0,8.7,3,35.75,35.75,0,0,0,5.11-.37,49.27,49.27,0,0,0,5.48-1.07v9.69a55,55,0,0,1-6.64,1.34,44.3,44.3,0,0,1-6.1.45q-10.59,0-15.88-5.38t-5.3-14.54V510.76h-18.3Z" transform="translate(-66.07 -453.41)"/><path class="cls-3" d="M921,504.84A46.94,46.94,0,0,1,943,498.38a6.29,6.29,0,0,1,1.53-.18h1.7q12.75,0,21.9,6.55t9.15,24.68q0,31.58.09,42.25a138.08,138.08,0,0,0,1,17.14,8.27,8.27,0,0,0,.09,1.35,6.38,6.38,0,0,0,.26,1.16h-11.3a.48.48,0,0,1-.18-.35A66.49,66.49,0,0,1,966,580.21a21.67,21.67,0,0,1-6.91,7.45,33.41,33.41,0,0,1-9.24,4.39,43.15,43.15,0,0,1-6.37,1.62,33.66,33.66,0,0,1-5.65.54q-16,0-23.6-8.8T906.61,566q1.08-19,15.44-24.31t44-5.3a61.16,61.16,0,0,0-3-19.47q-3-8.88-16.78-8.88-10.59,0-16.6,4.13a13.15,13.15,0,0,0-6,11.48l-12.74-.18q0-12.74,10.05-18.66m45,41.27a8.82,8.82,0,0,1-1.88.18h-1.88a141,141,0,0,0-29.52,2.87Q919.35,552,919.36,566q0,9.33,6.1,13.82a22.72,22.72,0,0,0,13.81,4.49,13.33,13.33,0,0,0,1.71-.1c.54,0,1-.09,1.53-.09a24.93,24.93,0,0,0,7.26-1.79,28.43,28.43,0,0,0,6.37-3.59,24,24,0,0,0,7.36-9.87q2.7-6.27,2.87-16.15c0-1,0-2-.09-3s-.15-2.21-.27-3.41Z" transform="translate(-66.07 -453.41)"/><rect class="cls-3" x="936.73" y="8" width="11.31" height="129.92"/></g></g><path class="cls-6" d="M406.4,571.58q7.26,7.62,19.83,7.62,18.48,0,26.47-7.45t8.16-16.41a23.71,23.71,0,0,0-4.31-13.55,24.28,24.28,0,0,0-11.84-9.24c-1.55-.6-3.14-1.14-4.75-1.62s-3.21-.95-4.76-1.43c-1.07-.36-2.1-.69-3.05-1s-2-.63-3-1A124.17,124.17,0,0,1,401,514.69q-12.83-8-12.83-27.36,0-12.74,11.31-23.33t28.17-10.59q18.13,0,30.51,8.08t13.28,23l-12.56-.18q0-7.18-8.17-13.37t-23.06-6.19q-12,.7-19,7.71t-7,15.44a20.56,20.56,0,0,0,3.5,11.21q3.51,5.48,11.22,9.42,3.4,1.62,6.91,3.05t7.08,2.69c1.56.61,3.08,1.17,4.58,1.71s3,1,4.4,1.52a114.76,114.76,0,0,1,24.49,11.58q10.5,6.74,10.5,23.24,0,22.25-15,30.14a70,70,0,0,1-33.11,7.9q-16.87,0-27.82-9t-13.1-29.06l12.74-.19q1.08,11.85,8.35,19.48" transform="translate(-66.07 -453.41)"/><path class="cls-6" d="M591.68,457.54q32.84.18,46.75,20.81t13.91,47.2q-.9,29.61-17.5,45.76t-43.16,16.15H549.33V457.54ZM561.89,576.15h29.79a47.67,47.67,0,0,0,33.83-12.92q14.26-13.1,14.26-40.19v-3.23q0-24.4-14.53-37.6t-42-13.18l-21.36-.19Z" transform="translate(-66.07 -453.41)"/><path class="cls-6" d="M689.3,471.53H675.13v-14H689.3Zm-1.43,115.93H676.56V497h11.31Z" transform="translate(-66.07 -453.41)"/><path class="cls-6" d="M779.57,497h11.3c0,1.43-.06,3.26-.18,5.47s-.29,4.52-.53,6.91v1.08c-.13,2.51-.27,4.91-.45,7.18s-.27,3.94-.27,5v57.78a58.16,58.16,0,0,1-7,28.62q-7,12.64-32.48,13.73-16.15,0-25.75-6.73t-9.79-16.78v-.45a.58.58,0,0,1,.19-.45v-1.07h11.3q1.08,8.43,7.81,12A34.09,34.09,0,0,0,750,612.94q10.59,0,16.69-4.67a28.54,28.54,0,0,0,8.79-10.4,25.92,25.92,0,0,0,2.07-5.57,22,22,0,0,0,.62-4.84V571.85A36.77,36.77,0,0,1,766,583.51q-6.91,3.94-17.5,4-19,0-28.8-13.55a58.63,58.63,0,0,1-10.86-31.49v-2.07a12.48,12.48,0,0,1,.18-2.06,59.6,59.6,0,0,1,9.15-29.43q8.44-13.46,30.33-14.53a35.08,35.08,0,0,1,16.42,3.59q6.9,3.58,13.19,12a83.5,83.5,0,0,1,1.44-12.74Zm-1.44,42.35q0-14.72-8.25-25T750,504.2q-11.67,0-18.31,8.16a42.88,42.88,0,0,0-8.79,18,33.86,33.86,0,0,0-1,5.38,52,52,0,0,0-.26,5.2,42.64,42.64,0,0,0,8.16,25.3q8.16,11.49,18.75,11.48,12,0,20.82-9.14t9-25.66v-1.62a1.79,1.79,0,0,1-.18-.81v-1.16Z" transform="translate(-66.07 -453.41)"/><path class="cls-6" d="M827.66,471.53H813.48v-14h14.18Zm-1.43,115.93H814.92V497h11.31Z" transform="translate(-66.07 -453.41)"/><path class="cls-6" d="M843.09,497h18.3V478.71l11.31-4.3V497h21.17v9.87H872.7v59.39c0,5.63,1.1,9.42,3.32,11.4a12.61,12.61,0,0,0,8.7,3,37.37,37.37,0,0,0,5.12-.36,51.65,51.65,0,0,0,5.47-1.08v9.69a56.28,56.28,0,0,1-6.64,1.35,44.3,44.3,0,0,1-6.1.45q-10.59,0-15.88-5.38t-5.3-14.54V506.89h-18.3Z" transform="translate(-66.07 -453.41)"/><path class="cls-6" d="M921,501A47,47,0,0,1,943,494.5a6.83,6.83,0,0,1,1.53-.17h1.71q12.74,0,21.89,6.55t9.15,24.67q0,31.58.09,42.26a137.9,137.9,0,0,0,1,17.13,9.46,9.46,0,0,0,.09,1.35,6.69,6.69,0,0,0,.27,1.17H967.45a.52.52,0,0,1-.18-.36A66.49,66.49,0,0,1,966,576.33a21.46,21.46,0,0,1-6.9,7.45,33.47,33.47,0,0,1-9.25,4.39,43.15,43.15,0,0,1-6.37,1.62,33.66,33.66,0,0,1-5.65.54q-16,0-23.6-8.79t-7.62-19.38q1.07-19,15.43-24.32t44-5.29a61.07,61.07,0,0,0-3-19.47q-3-8.88-16.77-8.88-10.6,0-16.6,4.12a13.18,13.18,0,0,0-6,11.49l-12.74-.18q0-12.75,10.05-18.66m45,41.26a8.81,8.81,0,0,1-1.88.19h-1.88a141,141,0,0,0-29.52,2.87q-13.38,2.87-13.37,16.87,0,9.33,6.1,13.81a22.66,22.66,0,0,0,13.82,4.49,15.45,15.45,0,0,0,1.7-.09,13.89,13.89,0,0,1,1.53-.09,25.58,25.58,0,0,0,7.26-1.79,28.83,28.83,0,0,0,6.37-3.59A24.11,24.11,0,0,0,963.5,565q2.7-6.28,2.88-16.15c0-1,0-2-.1-3.06s-.15-2.21-.27-3.4Z" transform="translate(-66.07 -453.41)"/><rect class="cls-6" x="936.73" y="4.13" width="11.31" height="129.92"/></g></g></svg>