<svg width="80" height="72" viewBox="0 0 80 72" fill="none" xmlns="http://www.w3.org/2000/svg">
<path d="M21.111 9.55555C21.111 5.38274 24.4938 2 28.6666 2H49.4444C53.6172 2 56.9999 5.38274 56.9999 9.55555V17.1111H21.111V9.55555Z" stroke="black" stroke-width="3.77778"/>
<path fill-rule="evenodd" clip-rule="evenodd" d="M7.88883 17.1113C4.75922 17.1113 2.22217 19.6484 2.22217 22.778V64.3335C2.22217 67.4632 4.75921 70.0002 7.88882 70.0002H72.1111C75.2407 70.0002 77.7777 67.4632 77.7777 64.3336V22.778C77.7777 19.6484 75.2407 17.1113 72.1111 17.1113H7.88883ZM39.9999 60.5557C49.3888 60.5557 56.9999 52.9445 56.9999 43.5557C56.9999 34.1668 49.3888 26.5557 39.9999 26.5557C30.6111 26.5557 22.9999 34.1668 22.9999 43.5557C22.9999 52.9445 30.6111 60.5557 39.9999 60.5557Z" fill="#FDB913"/>
<path d="M4.11106 22.778C4.11106 20.6916 5.80242 19.0002 7.88883 19.0002V15.2224C3.71602 15.2224 0.333279 18.6052 0.333279 22.778H4.11106ZM4.11106 64.3335V22.778H0.333279V64.3335H4.11106ZM7.88882 68.1113C5.80242 68.1113 4.11106 66.42 4.11106 64.3335H0.333279C0.333279 68.5064 3.716 71.8891 7.88882 71.8891V68.1113ZM72.1111 68.1113H7.88882V71.8891H72.1111V68.1113ZM75.8888 64.3336C75.8888 66.42 74.1975 68.1113 72.1111 68.1113V71.8891C76.2839 71.8891 79.6666 68.5064 79.6666 64.3336H75.8888ZM75.8888 22.778V64.3336H79.6666V22.778H75.8888ZM72.1111 19.0002C74.1975 19.0002 75.8888 20.6916 75.8888 22.778H79.6666C79.6666 18.6052 76.2839 15.2224 72.1111 15.2224V19.0002ZM7.88883 19.0002H72.1111V15.2224H7.88883V19.0002ZM55.1111 43.5557C55.1111 51.9013 48.3456 58.6668 39.9999 58.6668V62.4446C50.432 62.4446 58.8888 53.9877 58.8888 43.5557H55.1111ZM39.9999 28.4446C48.3456 28.4446 55.1111 35.21 55.1111 43.5557H58.8888C58.8888 33.1236 50.432 24.6668 39.9999 24.6668V28.4446ZM24.8888 43.5557C24.8888 35.21 31.6543 28.4446 39.9999 28.4446V24.6668C29.5679 24.6668 21.1111 33.1236 21.1111 43.5557H24.8888ZM39.9999 58.6668C31.6543 58.6668 24.8888 51.9013 24.8888 43.5557H21.1111C21.1111 53.9877 29.5679 62.4446 39.9999 62.4446V58.6668Z" fill="black"/>
<path d="M37.6388 34.1113V41.1947H30.5554V45.9169H37.6388V53.0002H42.361V45.9169H49.4443V41.1947H42.361V34.1113H37.6388Z" fill="black"/>
</svg>
