<svg width="80" height="80" viewBox="0 0 80 80" fill="none" xmlns="http://www.w3.org/2000/svg">
<path d="M2 36.8209C2.37943 34.9238 3.70745 33.7855 5.41489 32.6472C13.0035 27.7145 20.4025 22.7819 27.9911 17.8493C29.8883 16.711 31.5957 16.1418 33.3032 17.4699C34.8209 15.7624 36.1489 14.2447 37.6667 12.727C37.477 12.727 37.2872 12.727 37.0975 12.727C34.4415 12.727 31.5957 12.727 28.9397 12.727C28.1809 12.727 27.6117 12.5372 27.2323 11.7784C26.8528 11.0195 27.2323 10.4504 27.8014 9.88121C31.7855 6.2766 36.1489 4.18972 41.6507 4.56915C44.8759 4.75887 47.5319 5.89716 50.188 7.60461C50.3777 7.79433 50.5674 7.79433 50.9468 7.98404C50.9468 7.03546 50.9468 6.46631 50.9468 5.70745C50.9468 4.56915 51.516 4 52.4645 4C53.4131 4 53.9823 4.56915 53.9823 5.70745C53.9823 6.46631 53.9823 7.03546 53.9823 7.79433C53.9823 7.79433 53.9823 7.79433 53.9823 7.98404C54.3617 7.79433 54.5514 7.60461 54.7411 7.60461C58.156 5.32801 61.7606 4.18972 65.9344 4.56915C70.4876 4.94858 74.2819 7.03546 77.5071 10.2606C78.0762 10.6401 78.0763 11.3989 77.8865 11.9681C77.5071 12.5372 77.1277 12.9167 76.3688 12.9167C73.5231 12.9167 70.867 12.9167 68.0213 12.9167C67.8316 12.9167 67.4521 12.9167 67.2624 12.9167C68.211 13.8653 69.1596 14.8138 70.1082 15.7624C72.195 18.039 73.5231 20.8848 74.2819 23.9202C74.4716 24.6791 74.4716 25.2482 73.7128 25.8174C73.1436 26.1968 72.3848 26.1968 71.8156 25.6277C67.0727 22.5922 62.5195 19.7465 57.7766 16.9007C57.5869 16.711 57.3972 16.711 57.0177 16.5213C57.0177 16.9007 57.0177 17.0904 57.0177 17.2801C57.0177 22.4025 57.0177 27.5248 57.0177 32.6472C57.0177 33.2163 57.2075 33.406 57.5869 33.7855C60.8121 36.0621 60.8121 40.2358 57.5869 42.5124C57.2075 42.8918 57.0177 43.0816 57.0177 43.6507C57.0177 52.5674 57.3972 61.4841 57.9663 70.4007C58.156 72.4876 58.156 74.5745 58.3458 76.6614C57.3972 76.6614 56.4486 76.6614 55.3103 76.6614C55.3103 75.5231 55.1206 74.5745 55.1206 73.4362C53.4131 73.4362 51.7057 73.4362 50.188 73.4362C50.188 74.5745 49.9982 75.5231 49.9982 76.6614C49.0497 76.6614 48.1011 76.6614 46.9628 76.6614C46.9628 75.5231 47.1525 74.1951 47.1525 73.0568C47.5319 65.2784 47.9114 57.5 48.1011 49.7216C48.1011 49.5319 48.1011 49.1525 48.1011 48.7731C47.9114 48.9628 47.7216 48.9628 47.5319 49.1525C43.7376 51.6188 39.7536 54.2748 35.9592 56.7411C35.5798 56.9309 35.5798 57.3103 35.5798 57.6897C35.5798 61.8635 35.5798 65.8475 35.5798 70.0213C35.5798 72.2979 35.5798 74.3848 35.5798 76.6614C34.6312 76.6614 33.6826 76.6614 32.5443 76.6614C32.5443 76.2819 32.5443 75.9025 32.5443 75.7128C32.5443 70.4007 32.5443 65.2784 32.5443 59.9663C32.5443 59.7766 32.5443 59.3972 32.5443 59.2075C31.406 59.2075 30.4575 59.2075 29.5089 59.2075C29.5089 59.3972 29.5089 59.7766 29.5089 59.9663C29.5089 65.2784 29.5089 70.5904 29.5089 75.9025C29.5089 76.2819 29.5089 76.4716 29.5089 76.8511C28.5603 76.8511 27.6117 76.8511 26.4734 76.8511V76.6614C26.4734 70.211 26.4734 63.9504 26.4734 57.5C26.4734 57.3103 26.2837 56.9309 25.9043 56.7411C24.5762 55.7926 23.0585 54.844 21.7305 53.8954C21.3511 53.7057 20.9716 53.3262 20.9716 52.7571C20.7819 52.188 20.9716 51.6188 21.5408 51.2394C22.1099 50.8599 22.6791 50.8599 23.2482 51.4291C25.5248 52.9468 27.8014 54.4646 30.078 55.9823C30.8369 56.3617 31.2163 56.3617 31.9752 55.9823C39.9433 50.6702 47.7216 45.5479 55.6897 40.4255C57.3972 39.2872 57.3972 37.5798 55.6897 36.4415C52.844 34.5443 49.9982 32.6472 47.1525 30.9397C46.9628 30.75 46.7731 30.75 46.5833 30.5603C46.2039 31.5089 46.0142 32.4575 45.6348 33.406C47.5319 34.5443 49.2394 35.8723 51.1365 37.0106C52.2748 37.7695 52.2748 38.9078 51.1365 39.6667C44.6862 43.8404 38.2358 48.2039 31.7855 52.3777C31.2163 52.7571 30.4575 52.7571 29.8883 52.3777C23.6277 47.445 17.1773 43.2713 10.727 38.9078C9.58865 38.1489 9.58865 37.0106 10.727 36.0621C11.8652 35.3032 13.0035 34.5443 14.1418 33.7855C14.9007 33.2163 15.6596 32.8369 16.2287 32.4575C15.8493 31.5089 15.6596 30.5603 15.2801 29.6117C12.2447 31.5089 9.39894 33.5958 6.36348 35.4929C4.46631 36.6312 4.46631 38.3387 6.36348 39.477C8.07092 40.6153 9.96809 41.7536 11.6755 42.8919C12.055 43.0816 12.4344 43.461 12.6241 43.8404C12.8138 44.4096 12.6241 44.9787 12.2447 45.3582C11.6755 45.9273 10.9167 45.7376 10.3475 45.3582C8.64007 44.2199 7.12234 43.0816 5.41489 42.133C3.70745 41.1844 2.56915 39.8564 2.18972 37.9592C2 37.9592 2 37.3901 2 36.8209ZM14.1418 37.5798C14.3316 37.7695 14.3316 37.7695 14.5213 37.7695C19.8333 41.3741 25.1454 44.789 30.4575 48.3936C30.8369 48.5833 31.2163 48.5833 31.5957 48.3936C36.9078 44.9787 42.0301 41.5638 47.3422 37.9592C47.5319 37.7695 47.7216 37.7695 47.9114 37.5798C46.5833 36.6312 45.2553 35.8723 43.9273 34.9238C43.5479 34.734 43.3582 34.734 42.9787 34.9238C41.8404 35.4929 40.7021 35.6826 39.5638 35.4929C38.0461 35.3032 36.7181 34.5443 35.7695 33.406C33.3032 36.0621 29.3192 36.4415 26.2837 33.406C23.6277 35.6826 22.2996 35.8723 18.695 34.734C18.5053 34.734 18.3156 34.734 18.1259 34.734C16.7979 35.8723 15.4699 36.6312 14.1418 37.5798ZM48.1011 27.1454C48.1011 23.3511 48.1011 19.7465 48.1011 15.9521C45.2553 17.8493 42.4096 19.5567 39.3741 21.4539C42.4096 23.3511 45.2553 25.2482 48.1011 27.1454ZM26.2837 25.2482C27.6117 23.9202 29.1294 23.1614 31.0266 23.1614C32.9238 23.1614 34.4415 23.9202 35.5798 25.2482C36.3387 24.6791 36.9078 24.2996 37.477 23.7305C35.3901 22.4025 33.4929 21.0745 31.406 19.7465C31.2163 19.5567 30.6472 19.5567 30.2677 19.7465C28.1809 21.0745 26.094 22.4025 24.1968 23.7305C24.9557 24.2996 25.7145 24.6791 26.2837 25.2482ZM43.5479 29.422C43.5479 27.7145 42.2199 26.1968 40.3227 26.1968C38.6153 26.1968 37.0975 27.5248 37.0975 29.422C37.0975 31.1294 38.6153 32.6472 40.3227 32.4575C42.0301 32.4575 43.5479 31.1294 43.5479 29.422ZM21.7305 26.1968C20.0231 26.1968 18.5053 27.5248 18.5053 29.2323C18.5053 30.9397 19.8333 32.4575 21.7305 32.4575C23.4379 32.4575 24.9557 31.1294 24.9557 29.2323C24.766 27.5248 23.4379 26.1968 21.7305 26.1968ZM34.0621 29.422C34.0621 27.7145 32.734 26.1968 31.0266 26.1968C29.3192 26.1968 27.8014 27.5248 27.8014 29.2323C27.8014 30.9397 29.1294 32.4575 31.0266 32.4575C32.734 32.6472 34.0621 31.1294 34.0621 29.422ZM54.5514 64.1401C53.2234 64.1401 51.8954 64.1401 50.5674 64.1401C50.3777 66.0372 50.3777 67.9344 50.188 69.8316C51.7057 69.8316 53.2234 69.8316 54.7411 69.8316C54.7411 67.9344 54.5514 66.0372 54.5514 64.1401ZM57.3972 12.727C61.5709 15.383 65.555 17.8493 69.7287 20.5053C67.8316 15.9521 62.3298 12.3475 57.3972 12.727ZM47.9114 9.50177C43.5479 6.46631 37.477 6.65603 33.3032 9.50177C38.0461 9.50177 42.789 9.50177 47.9114 9.50177ZM72.0053 9.50177C67.6419 6.65603 59.8635 6.65603 57.3972 9.50177C62.1401 9.50177 66.883 9.50177 72.0053 9.50177ZM47.7216 12.727C43.1684 12.5372 38.2358 15.0035 36.1489 19.1773C36.5284 19.5567 36.9078 19.5567 37.477 19.367C40.7021 17.0904 43.9273 15.1933 47.1525 13.1064C47.3422 12.9167 47.5319 12.9167 47.7216 12.727ZM53.7926 21.8333C53.7926 19.367 53.7926 16.9007 53.7926 14.4344C53.7926 14.2447 53.6028 14.055 53.6028 14.055C52.844 13.2961 52.4645 13.2961 51.7057 13.8653C51.3262 14.055 51.3262 14.4344 51.3262 15.0035C51.3262 15.5727 51.3262 16.3316 51.3262 16.9007C51.3262 18.6082 51.3262 20.3156 51.3262 22.0231C52.0851 21.8333 52.844 21.8333 53.7926 21.8333ZM54.3617 61.1046C54.3617 59.0177 54.172 57.1206 54.172 55.2234C53.0337 55.2234 52.0851 55.2234 51.1365 55.2234C51.1365 57.3103 50.9468 59.2075 50.9468 61.1046C52.0851 61.1046 53.0337 61.1046 54.3617 61.1046ZM53.9823 51.9982C53.9823 49.3422 53.9823 46.8759 53.9823 44.2199C53.2234 44.789 52.4645 45.1684 51.7057 45.7376C51.3262 45.9273 51.1365 46.3067 51.1365 46.6862C51.1365 48.0142 51.1365 49.3422 51.1365 50.6702C51.1365 51.0497 51.1365 51.6188 51.1365 51.9982C52.0851 51.9982 53.0337 51.9982 53.9823 51.9982ZM51.1365 24.8688C51.1365 26.1968 51.1365 27.5248 51.1365 28.8528C51.1365 29.0426 51.1365 29.2323 51.3262 29.2323C52.0851 29.8014 53.0337 30.3706 53.7926 30.9397C53.7926 28.8528 53.7926 26.9557 53.7926 24.8688C52.844 24.8688 52.0851 24.8688 51.1365 24.8688ZM69.9184 76.0922C69.9184 75.9025 69.9184 75.9025 69.9184 75.7128C69.9184 70.211 69.9184 64.8989 69.9184 59.3972C69.9184 59.2075 69.9184 59.0177 69.9184 58.6383C70.6773 59.2075 71.2465 59.5869 71.6259 60.156C72.0053 60.7252 72.195 61.6738 72.5745 62.4326C72.7642 63.1915 73.5231 63.7607 74.2819 63.5709C75.0408 63.3812 75.6099 62.8121 75.6099 61.8635C75.6099 61.4841 75.4202 61.2943 75.4202 60.9149C75.0408 59.5869 74.4716 58.4486 73.5231 57.3103C74.2819 57.5 75.0408 57.6897 75.7997 58.0692C76.3688 58.2589 76.938 58.2589 77.3174 57.8794C77.6968 57.5 77.8865 56.9309 77.6968 56.5514C77.5071 56.172 77.1277 55.6028 76.7482 55.4131C74.6614 54.4646 72.5745 54.0851 70.4876 54.6543C70.2979 54.6543 69.9184 54.6543 69.7287 54.6543C68.5904 53.7057 68.0213 53.7057 67.0727 54.844C64.0372 54.2748 62.3298 54.4646 60.2429 55.4131C59.2943 55.9823 58.9149 56.7411 59.2943 57.5C59.6738 58.4486 60.4326 58.6383 61.5709 58.2589C62.1401 58.0692 62.8989 57.8794 63.4681 57.5C63.4681 57.8794 63.2784 58.0692 63.0887 58.2589C62.1401 59.3972 61.5709 60.7252 61.3812 62.0532C61.1915 62.8121 61.7606 63.5709 62.5195 63.7607C63.2784 63.9504 64.0372 63.3812 64.227 62.6224C64.227 62.4326 64.227 62.0532 64.4167 61.8635C64.7961 60.5355 65.555 59.5869 66.883 59.0177C66.883 59.3972 66.883 59.5869 66.883 59.7766C66.883 65.0887 66.883 70.4007 66.883 75.7128C66.883 75.9025 66.883 76.0922 66.883 76.2819C67.8316 76.0922 68.9699 76.0922 69.9184 76.0922ZM18.3156 48.3936C18.3156 47.6348 17.5567 46.8759 16.7979 46.8759C16.039 46.8759 15.2801 47.6348 15.2801 48.3936C15.2801 49.1525 15.8493 49.9114 16.7979 49.9114C17.7465 49.9114 18.3156 49.1525 18.3156 48.3936ZM25.7145 37.5798C24.5762 37.5798 23.8174 38.1489 24.0071 39.0975C24.0071 40.0461 24.766 40.6153 25.7145 40.6153C29.3192 40.6153 32.9238 40.6153 36.5284 40.6153C37.6667 40.6153 38.4255 40.0461 38.4255 39.0975C38.4255 38.1489 37.6667 37.5798 36.7181 37.5798C34.8209 37.5798 33.1135 37.5798 31.2163 37.5798C29.3192 37.5798 27.6117 37.5798 25.7145 37.5798ZM29.5089 42.3227C28.75 42.3227 28.1809 42.8918 27.9911 43.6507C27.9911 44.4096 28.5603 45.1684 29.3192 45.1684C30.2677 45.1684 31.406 45.1684 32.3546 45.1684C33.1135 45.1684 33.6826 44.4096 33.6826 43.6507C33.6826 42.8918 33.1135 42.3227 32.1649 42.3227C31.7855 42.3227 31.2163 42.3227 30.8369 42.3227C30.4575 42.3227 29.8883 42.3227 29.5089 42.3227Z" fill="#FDB913"/>
</svg>
