<svg width="1089" height="757" viewBox="0 0 1089 757" fill="none" xmlns="http://www.w3.org/2000/svg">
<path d="M980.406 480.638H874.375C874.375 483.685 765.097 486.159 765.097 486.159C763.381 487.451 761.818 488.932 760.437 490.576C756.286 495.527 754.018 501.784 754.031 508.244V512.661C754.034 519.982 756.943 527.003 762.12 532.179C767.297 537.356 774.317 540.265 781.638 540.268H980.406C987.726 540.262 994.744 537.351 999.92 532.175C1005.1 527 1008.01 519.981 1008.01 512.661V508.244C1008 500.926 1005.09 493.91 999.916 488.735C994.741 483.56 987.725 480.648 980.406 480.638V480.638Z" fill="#3F3D56"/>
<path d="M896.481 539.172H867.77V724.689H896.481V539.172Z" fill="#3F3D56"/>
<path d="M978.195 723.68C978.195 726.782 934.688 724.88 881.019 724.88C827.351 724.88 783.844 726.782 783.844 723.68C783.844 720.578 827.351 695.978 881.019 695.978C934.688 695.978 978.195 720.578 978.195 723.68Z" fill="#3F3D56"/>
<path d="M737.439 699.278L710.363 699.276L697.48 594.839L737.444 594.841L737.439 699.278Z" fill="#A0616A"/>
<path d="M691.027 691.54H743.245V724.418H658.148C658.148 715.698 661.612 707.336 667.778 701.17C673.944 695.004 682.307 691.54 691.027 691.54V691.54Z" fill="#2F2E41"/>
<path d="M695.173 684.165L669.34 676.058L688.316 572.555L726.444 584.521L695.173 684.165Z" fill="#A0616A"/>
<path d="M653.206 662.888L703.028 678.523L693.184 709.893L611.992 684.414C613.284 680.294 615.376 676.47 618.147 673.158C620.918 669.847 624.313 667.114 628.141 665.115C631.968 663.116 636.151 661.891 640.452 661.509C644.752 661.127 649.086 661.595 653.206 662.888V662.888Z" fill="#2F2E41"/>
<path d="M907.899 462.535C907.274 457.272 906.15 452.081 904.542 447.031L899.485 440.67L886.322 424.15L885.748 424.172C884.776 424.217 880.734 424.438 874.484 424.923H874.418C870.553 425.233 865.826 425.63 860.46 426.138C859.046 426.293 857.567 426.425 856.043 426.58V449.637H883.65C884.991 449.639 886.286 450.128 887.294 451.014C888.302 451.899 888.953 453.121 889.127 454.452C889.148 454.695 889.171 454.915 889.171 455.158C889.17 456.622 888.589 458.026 887.553 459.062C886.518 460.097 885.114 460.679 883.65 460.68H723.31C721.267 462.036 719.305 463.511 717.435 465.097C711.786 469.469 707.716 475.563 705.84 482.456C696.476 523.623 679.404 600.392 674.368 622.941C674.003 624.64 674.086 626.404 674.609 628.061C675.132 629.719 676.076 631.211 677.35 632.393C678.29 633.27 679.393 633.953 680.597 634.403L700.518 641.868C701.337 642.171 702.19 642.371 703.057 642.464C703.167 642.464 703.256 642.486 703.367 642.486C703.573 642.505 703.779 642.512 703.985 642.509C705.999 642.5 707.964 641.885 709.623 640.742C711.282 639.6 712.557 637.983 713.283 636.104L729.008 594.848L753.236 531.242L762.821 506.087C773.929 508.693 867.13 529.321 898.336 496.083C901.415 492.808 903.843 488.978 905.492 484.797C908.119 477.688 908.945 470.04 907.899 462.535Z" fill="#2F2E41"/>
<path d="M934.928 468.541C934.443 466.576 933.891 464.544 933.25 462.49L915.03 439.609L914.456 439.631C913.307 439.698 907.852 439.985 899.482 440.669C889.985 441.465 876.712 442.745 861.804 444.755C861.363 444.799 860.899 444.866 860.457 444.932C858.999 445.131 857.52 445.329 856.04 445.55V449.636H883.647C884.988 449.638 886.284 450.127 887.291 451.013C888.299 451.899 888.95 453.12 889.124 454.451C889.146 454.694 889.168 454.914 889.168 455.157C889.167 456.622 888.586 458.026 887.55 459.061C886.515 460.096 885.111 460.678 883.647 460.679H786.073C781.812 462.07 777.703 463.528 773.772 465.096C753.145 473.267 737.707 483.979 734.548 497.915C733.488 502.597 732.318 507.743 731.081 513.22C726.487 533.583 720.9 558.517 715.842 581.177V581.199C714.804 585.881 713.766 590.43 712.772 594.847C708.553 613.841 704.976 629.941 703.076 638.4C703.032 638.643 702.989 638.863 702.944 639.106V639.151C702.724 640.862 702.936 642.601 703.563 644.208L703.584 644.23V644.252C704.192 645.792 705.18 647.152 706.456 648.205C707.309 648.909 708.271 649.469 709.305 649.862L729.226 657.327C730.335 657.741 731.509 657.958 732.693 657.967C734.353 657.971 735.987 657.553 737.441 656.753C739.529 655.621 741.143 653.78 741.991 651.562L784.88 539.015L791.529 521.546C802.637 524.152 895.838 544.758 927.044 511.541C933.209 504.868 936.727 496.175 936.938 487.093C937.156 480.845 936.48 474.598 934.928 468.541V468.541Z" fill="#2F2E41"/>
<path d="M932.481 273.704C932.129 273.285 931.752 272.865 931.355 272.468C925.473 266.283 918.209 261.58 910.159 258.744C902.109 255.907 893.502 255.017 885.042 256.146C877.662 257.116 870.352 258.554 863.155 260.453C853.861 262.843 845.35 267.616 838.464 274.3C833.101 279.501 828.876 285.759 826.059 292.679C823.242 299.598 821.893 307.028 822.099 314.496C822.187 317.522 822.209 320.613 822.166 323.75C822.166 325.207 822.143 326.687 822.121 328.167H843.897C844.842 328.164 845.784 328.275 846.702 328.498C849.359 329.133 851.726 330.644 853.42 332.787C855.115 334.93 856.039 337.581 856.044 340.314V443.055C857.524 443.474 859.003 443.894 860.461 444.336C860.925 444.49 861.367 444.623 861.808 444.755C862.316 444.91 862.824 445.064 863.31 445.219C867.793 446.61 872.173 448.083 876.45 449.636H883.651C884.992 449.638 886.288 450.127 887.295 451.013C888.303 451.899 888.954 453.12 889.128 454.451C890.63 455.047 892.087 455.643 893.522 456.24C898.624 458.36 903.461 460.48 907.901 462.534C913.886 465.272 919.209 467.879 923.67 470.153C925.073 470.868 926.623 471.246 928.197 471.258C930.264 471.251 932.276 470.586 933.939 469.358C934.284 469.104 934.616 468.831 934.932 468.541C936.114 467.433 937.008 466.053 937.535 464.521C938.063 462.989 938.208 461.352 937.958 459.751C935.679 442.403 935.013 424.88 935.971 407.409C936.589 392.722 937.914 377.66 939.637 363.106C940.565 355.221 941.602 347.491 942.685 340.048C943.724 332.937 944.828 326.113 945.91 319.664C947.329 311.486 946.857 303.092 944.53 295.125C942.202 287.159 938.08 279.831 932.481 273.704Z" fill="#6C63FF"/>
<path d="M841.95 275.515C840.816 275.028 839.65 274.623 838.46 274.3C832.574 272.715 826.315 273.3 820.825 275.948C815.335 278.596 810.98 283.13 808.556 288.722L793.383 323.749L791.484 328.167H843.893C844.838 328.164 845.78 328.275 846.698 328.498L848.464 324.412L855.178 308.908C857.845 302.725 857.95 295.736 855.47 289.476C852.99 283.215 848.127 278.194 841.95 275.515V275.515Z" fill="#6C63FF"/>
<path d="M889.068 238.902C919.026 238.902 943.312 214.616 943.312 184.658C943.312 154.7 919.026 130.414 889.068 130.414C859.11 130.414 834.824 154.7 834.824 184.658C834.824 214.616 859.11 238.902 889.068 238.902Z" fill="#A0616A"/>
<path d="M942.68 340.048L911.716 340.888L909.464 362.642L908.956 367.677L860.456 389.453L856.039 391.441V430.157L860.456 428.898L874.414 424.923H874.481L935.966 407.409L936.672 407.21C941.64 405.775 946.013 402.776 949.141 398.658C952.268 394.54 953.984 389.523 954.032 384.352L954.186 358.666L954.319 339.739L942.68 340.048Z" fill="#A0616A"/>
<path d="M952.76 297.025C952.555 293.696 951.697 290.439 950.234 287.441C948.771 284.444 946.732 281.763 944.233 279.553C939.186 275.091 932.573 272.816 925.849 273.228C919.124 273.641 912.84 276.709 908.377 281.755C903.914 286.802 901.639 293.415 902.052 300.139L905.43 355.265C905.522 356.715 905.931 358.128 906.63 359.403C907.328 360.678 908.299 361.783 909.472 362.641C911.339 364.033 913.641 364.714 915.965 364.563L939.641 363.105L946.819 362.663C948.126 362.599 949.407 362.27 950.584 361.697C951.76 361.124 952.809 360.318 953.665 359.328C953.855 359.118 954.032 358.897 954.195 358.666C955.599 356.787 956.288 354.469 956.138 352.128L952.76 297.025Z" fill="#6C63FF"/>
<path d="M877.495 163.139C864.896 174.394 848.003 186.475 832.575 178.229C822.445 172.815 817.935 160.941 820.301 149.7C824.555 129.487 842.029 118.566 858.948 109.737C880.943 98.2601 905.214 88.2512 929.843 91.235C954.472 94.2188 978.535 114.57 977.372 139.352C976.437 159.28 960.163 177.872 965.315 197.146C970.499 216.544 994.044 224.056 1014.1 225.043C1034.15 226.03 1056.23 224.32 1072.14 236.57C1092.43 252.198 1092.11 284.875 1077.66 306.026C1063.21 327.178 1038.82 339.079 1014.85 348.127C983.104 360.114 948.206 368.775 915.432 359.962C882.659 351.149 853.968 319.707 858.775 286.112C860.805 271.921 868.271 259.183 875.476 246.789C882.681 234.396 889.928 221.474 891.441 207.219C892.701 195.34 888.928 182.226 880.166 174.574C878.58 173.242 877.458 171.441 876.959 169.43C876.461 167.42 876.612 165.303 877.392 163.384L877.495 163.139Z" fill="black"/>
<rect x="638.098" y="468.127" width="16.6162" height="211.263" fill="#555271"/>
<path d="M992.942 444.069C992.942 423.225 838.053 406.328 646.987 406.328C455.921 406.328 301.031 423.225 301.031 444.069C301.031 452.147 324.31 459.632 363.932 465.771V723.978H382.803V468.433C446.263 476.614 541.055 481.809 646.987 481.809C753.794 481.809 849.283 476.528 912.744 468.23V723.978H931.614V465.523C970.274 459.431 992.942 452.039 992.942 444.069Z" fill="#555271"/>
<path fill-rule="evenodd" clip-rule="evenodd" d="M621.363 287.724C617.497 287.724 614.363 290.858 614.363 294.724V427.895C614.363 431.761 617.497 434.895 621.363 434.895H840.934C840.953 434.896 840.973 434.896 840.992 434.896H888.588C890.521 434.896 892.088 433.329 892.088 431.396V421.78C892.088 419.847 890.521 418.28 888.588 418.28H856.485V294.724C856.485 290.858 853.351 287.724 849.485 287.724H621.363Z" fill="#765F5F"/>
<path d="M861.919 415.904H858.857V415.596C857.29 415.809 855.7 416.023 854.11 416.261V420.652H876.042C871.437 418.99 866.73 417.408 861.919 415.904ZM861.919 415.904H858.857V415.596C857.29 415.809 855.7 416.023 854.11 416.261V420.652H876.042C871.437 418.99 866.73 417.408 861.919 415.904ZM883.781 415.904H858.857V303.152C858.848 299.292 857.587 295.539 855.263 292.457C852.938 289.375 849.676 287.13 845.967 286.061C844.374 285.581 842.718 285.341 841.054 285.349H629.791C625.071 285.355 620.546 287.232 617.209 290.569C613.871 293.907 611.994 298.432 611.988 303.152V419.465C611.99 424.186 613.866 428.714 617.205 432.052C620.543 435.39 625.07 437.266 629.791 437.268H883.781C886.411 437.264 888.946 436.29 890.904 434.534C892.861 432.779 894.103 430.363 894.391 427.749C894.44 427.364 894.464 426.975 894.463 426.586C894.459 423.755 893.332 421.04 891.33 419.038C889.327 417.035 886.613 415.909 883.781 415.904H883.781ZM889.716 426.586C889.715 428.16 889.09 429.669 887.977 430.782C886.864 431.895 885.355 432.52 883.781 432.521H629.791C626.329 432.519 623.01 431.142 620.562 428.694C618.114 426.246 616.738 422.927 616.736 419.465V303.152C616.738 299.69 618.114 296.37 620.562 293.922C623.01 291.475 626.329 290.098 629.791 290.096H841.054C842.07 290.093 843.082 290.213 844.069 290.452C846.925 291.135 849.468 292.759 851.29 295.062C853.111 297.366 854.104 300.215 854.11 303.152V420.652H883.781C885.223 420.654 886.615 421.18 887.698 422.132C888.781 423.084 889.481 424.397 889.668 425.827C889.691 426.088 889.716 426.325 889.716 426.586H889.716ZM861.919 415.904H858.857V415.596C857.29 415.809 855.7 416.023 854.11 416.261V420.652H876.042C871.437 418.99 866.73 417.408 861.919 415.904Z" fill="#3F3D56"/>
<path d="M735.41 375.556C743.276 375.556 749.653 369.18 749.653 361.314C749.653 353.448 743.276 347.071 735.41 347.071C727.545 347.071 721.168 353.448 721.168 361.314C721.168 369.18 727.545 375.556 735.41 375.556Z" fill="#3F3D56"/>
<path d="M516.162 32.3335C522.432 32.3335 527.515 27.2505 527.515 20.9802C527.515 14.71 522.432 9.62695 516.162 9.62695C509.892 9.62695 504.809 14.71 504.809 20.9802C504.809 27.2505 509.892 32.3335 516.162 32.3335Z" fill="#575252"/>
<path d="M516.162 77.5806C522.432 77.5806 527.515 72.4975 527.515 66.2273C527.515 59.9571 522.432 54.874 516.162 54.874C509.892 54.874 504.809 59.9571 504.809 66.2273C504.809 72.4975 509.892 77.5806 516.162 77.5806Z" fill="#575252"/>
<path d="M563.564 32.3335C569.834 32.3335 574.917 27.2505 574.917 20.9802C574.917 14.71 569.834 9.62695 563.564 9.62695C557.294 9.62695 552.211 14.71 552.211 20.9802C552.211 27.2505 557.294 32.3335 563.564 32.3335Z" fill="#575252"/>
<path d="M563.564 77.5806C569.834 77.5806 574.917 72.4975 574.917 66.2273C574.917 59.9571 569.834 54.874 563.564 54.874C557.294 54.874 552.211 59.9571 552.211 66.2273C552.211 72.4975 557.294 77.5806 563.564 77.5806Z" fill="#575252"/>
<path d="M480.76 187.849H336.8C332.611 187.844 328.595 186.178 325.633 183.216C322.671 180.254 321.005 176.238 321 172.049V15.8004C321.005 11.6113 322.671 7.59526 325.633 4.63315C328.595 1.67104 332.611 0.00478593 336.8 0H480.76C484.949 0.00479057 488.965 1.67104 491.927 4.63315C494.889 7.59526 496.555 11.6113 496.56 15.8004V172.049C496.555 176.238 494.889 180.254 491.927 183.216C488.965 186.178 484.949 187.844 480.76 187.849V187.849ZM336.8 3.5112C333.542 3.51485 330.419 4.81078 328.115 7.11466C325.811 9.41854 324.515 12.5422 324.511 15.8004V172.049C324.515 175.307 325.811 178.431 328.115 180.734C330.419 183.038 333.542 184.334 336.8 184.338H480.76C484.018 184.334 487.141 183.038 489.445 180.734C491.749 178.431 493.045 175.307 493.049 172.049V15.8004C493.045 12.5422 491.749 9.41854 489.445 7.11466C487.141 4.81078 484.018 3.51485 480.76 3.5112H336.8Z" fill="#4A485F"/>
<path d="M367.004 62.2036H352.959C350.864 62.2013 348.856 61.3682 347.375 59.8871C345.894 58.406 345.061 56.3979 345.059 54.3034V40.2586C345.061 38.164 345.894 36.156 347.375 34.6749C348.856 33.1938 350.864 32.3607 352.959 32.3584H367.004C369.098 32.3607 371.106 33.1938 372.587 34.6749C374.068 36.156 374.901 38.164 374.904 40.2586V54.3034C374.901 56.3979 374.068 58.406 372.587 59.8871C371.106 61.3682 369.098 62.2013 367.004 62.2036V62.2036Z" fill="#575252"/>
<path d="M469.65 53.6666H404.079C402.683 53.6651 401.344 53.1097 400.357 52.1223C399.369 51.1349 398.814 49.7962 398.812 48.3998V46.1633C398.814 44.7669 399.369 43.4282 400.357 42.4408C401.344 41.4534 402.683 40.898 404.079 40.8965H469.65C471.046 40.898 472.385 41.4534 473.372 42.4408C474.36 43.4282 474.915 44.7669 474.917 46.1633V48.3998C474.915 49.7962 474.36 51.1349 473.372 52.1223C472.385 53.1097 471.046 53.6651 469.65 53.6666Z" fill="#575252"/>
<path d="M469.653 95.8013H347.904C346.507 95.7998 345.168 95.2444 344.181 94.2571C343.194 93.2697 342.638 91.9309 342.637 90.5346V88.298C342.638 86.9017 343.194 85.5629 344.181 84.5755C345.168 83.5882 346.507 83.0328 347.904 83.0312H469.653C471.05 83.0328 472.388 83.5882 473.376 84.5755C474.363 85.5629 474.918 86.9017 474.92 88.298V90.5346C474.918 91.9309 474.363 93.2697 473.376 94.2571C472.388 95.2444 471.05 95.7998 469.653 95.8013V95.8013Z" fill="#575252"/>
<path d="M469.653 125.647H347.904C346.507 125.646 345.168 125.09 344.181 124.103C343.194 123.115 342.638 121.777 342.637 120.38V118.144C342.638 116.747 343.194 115.409 344.181 114.421C345.168 113.434 346.507 112.878 347.904 112.877H469.653C471.05 112.878 472.388 113.434 473.376 114.421C474.363 115.409 474.918 116.747 474.92 118.144V120.38C474.918 121.777 474.363 123.115 473.376 124.103C472.388 125.09 471.05 125.646 469.653 125.647V125.647Z" fill="#575252"/>
<path d="M469.653 155.491H347.904C346.507 155.489 345.168 154.934 344.181 153.947C343.194 152.959 342.638 151.62 342.637 150.224V147.988C342.638 146.591 343.194 145.252 344.181 144.265C345.168 143.278 346.507 142.722 347.904 142.721H469.653C471.05 142.722 472.388 143.278 473.376 144.265C474.363 145.252 474.918 146.591 474.92 147.988V150.224C474.918 151.62 474.363 152.959 473.376 153.947C472.388 154.934 471.05 155.489 469.653 155.491V155.491Z" fill="#575252"/>
<path d="M744.099 187.849H600.14C595.951 187.844 591.935 186.178 588.973 183.216C586.011 180.254 584.345 176.238 584.34 172.049V15.8004C584.345 11.6113 586.011 7.59526 588.973 4.63315C591.935 1.67104 595.951 0.00478593 600.14 0H744.099C748.288 0.00479057 752.304 1.67104 755.267 4.63315C758.229 7.59526 759.895 11.6113 759.9 15.8004V172.049C759.895 176.238 758.229 180.254 755.267 183.216C752.304 186.178 748.288 187.844 744.099 187.849V187.849ZM600.14 3.5112C596.882 3.51485 593.758 4.81078 591.455 7.11466C589.151 9.41854 587.855 12.5422 587.851 15.8004V172.049C587.855 175.307 589.151 178.431 591.455 180.734C593.758 183.038 596.882 184.334 600.14 184.338H744.099C747.358 184.334 750.481 183.038 752.785 180.734C755.089 178.431 756.385 175.307 756.389 172.049V15.8004C756.385 12.5422 755.089 9.41854 752.785 7.11466C750.481 4.81078 747.358 3.51485 744.099 3.5112H600.14Z" fill="#4A485F"/>
<path d="M732.994 53.6666H667.423C666.027 53.6651 664.688 53.1097 663.701 52.1223C662.713 51.1349 662.158 49.7962 662.156 48.3998V46.1633C662.158 44.7669 662.713 43.4282 663.701 42.4408C664.688 41.4534 666.027 40.898 667.423 40.8965H732.994C734.39 40.898 735.729 41.4534 736.716 42.4408C737.703 43.4282 738.259 44.7669 738.26 46.1633V48.3998C738.259 49.7962 737.703 51.1349 736.716 52.1223C735.729 53.1097 734.39 53.6651 732.994 53.6666V53.6666Z" fill="#575252"/>
<path d="M732.993 95.8013H611.243C609.847 95.7998 608.508 95.2444 607.521 94.2571C606.533 93.2697 605.978 91.9309 605.977 90.5346V88.298C605.978 86.9017 606.533 85.5629 607.521 84.5755C608.508 83.5882 609.847 83.0328 611.243 83.0312H732.993C734.389 83.0328 735.728 83.5882 736.716 84.5755C737.703 85.5629 738.258 86.9017 738.26 88.298V90.5346C738.258 91.9309 737.703 93.2697 736.716 94.2571C735.728 95.2444 734.389 95.7998 732.993 95.8013Z" fill="#575252"/>
<path d="M732.993 125.647H611.243C609.847 125.646 608.508 125.09 607.521 124.103C606.533 123.115 605.978 121.777 605.977 120.38V118.144C605.978 116.747 606.533 115.409 607.521 114.421C608.508 113.434 609.847 112.878 611.243 112.877H732.993C734.389 112.878 735.728 113.434 736.716 114.421C737.703 115.409 738.258 116.747 738.26 118.144V120.38C738.258 121.777 737.703 123.115 736.716 124.103C735.728 125.09 734.389 125.646 732.993 125.647Z" fill="#575252"/>
<path d="M732.993 155.491H611.243C609.847 155.489 608.508 154.934 607.521 153.947C606.533 152.959 605.978 151.62 605.977 150.224V147.988C605.978 146.591 606.533 145.252 607.521 144.265C608.508 143.278 609.847 142.722 611.243 142.721H732.993C734.389 142.722 735.728 143.278 736.716 144.265C737.703 145.252 738.258 146.591 738.26 147.988V150.224C738.258 151.62 737.703 152.959 736.716 153.947C735.728 154.934 734.389 155.489 732.993 155.491Z" fill="#575252"/>
<path d="M638.759 45.6462C638.759 45.6057 638.765 45.5666 638.765 45.526C638.765 43.451 638.357 41.3964 637.563 39.4794C636.769 37.5624 635.605 35.8206 634.138 34.3534C632.67 32.8862 630.929 31.7223 629.012 30.9283C627.095 30.1342 625.04 29.7256 622.965 29.7256V45.6462H638.759Z" fill="#6C63FF"/>
<path d="M621.208 47.4021V31.4814C618.088 31.4804 615.037 32.4031 612.441 34.1333C609.845 35.8635 607.818 38.3237 606.618 41.2037C605.418 44.0838 605.097 47.2547 605.697 50.3167C606.296 53.3788 607.788 56.1948 609.986 58.4099C612.183 60.6249 614.987 62.1397 618.044 62.7634C621.102 63.3871 624.275 63.0916 627.165 61.9143C630.054 60.737 632.53 58.7305 634.281 56.1479C636.032 53.5653 636.979 50.5221 637.003 47.4021H621.208Z" fill="#575252"/>
<path d="M0 522.149V526.897C0.00683253 534.764 3.13513 542.307 8.69818 547.87C14.2612 553.433 21.8044 556.562 29.6717 556.568H243.308C251.177 556.566 258.722 553.439 264.286 547.875C269.85 542.311 272.977 534.765 272.98 526.897V522.149C272.995 515.206 270.556 508.48 266.095 503.159C264.611 501.393 262.93 499.8 261.087 498.412C261.087 498.412 143.634 495.753 143.634 492.478H29.6717C21.8056 492.488 14.2648 495.618 8.70267 501.18C3.1405 506.742 0.0108892 514.283 0 522.149V522.149Z" fill="#3F3D56"/>
<path d="M119.884 754.783H150.742L150.742 555.389H119.884L119.884 754.783Z" fill="#3F3D56"/>
<path d="M32.0547 753.698C32.0547 757.033 78.8161 754.988 136.499 754.988C194.182 754.988 240.944 757.033 240.944 753.698C240.944 750.364 194.182 723.924 136.499 723.924C78.8161 723.924 32.0547 750.364 32.0547 753.698Z" fill="#3F3D56"/>
<path d="M292.208 729.281H321.31L335.154 617.031L292.203 617.034L292.208 729.281Z" fill="#A0616A"/>
<path d="M377.434 756.301L285.972 756.305L285.97 720.967L342.094 720.965C351.467 720.964 360.455 724.687 367.082 731.314C373.71 737.941 377.433 746.929 377.434 756.301L377.434 756.301Z" fill="#2F2E41"/>
<path d="M337.637 713.038L365.403 704.324L345.008 593.079L304.027 605.94L337.637 713.038Z" fill="#A0616A"/>
<path d="M427.043 713.303L339.777 740.688L329.197 706.972L382.746 690.167C391.688 687.361 401.379 688.222 409.686 692.561C417.993 696.899 424.237 704.361 427.043 713.303L427.043 713.303Z" fill="#2F2E41"/>
<path d="M318.161 661.374L264.925 521.63C252.981 524.434 152.821 546.598 119.275 510.881C107.778 498.639 105.536 480.903 112.61 458.165L132.188 433.562L132.796 433.595C140.199 433.984 314.234 443.739 326.164 496.235C336.223 540.492 354.593 623.005 359.983 647.241C360.53 649.752 360.156 652.376 358.93 654.634C357.704 656.893 355.707 658.635 353.304 659.545L331.894 667.573C330.701 668.022 329.437 668.252 328.163 668.252C325.996 668.252 323.879 667.594 322.094 666.366C320.308 665.138 318.937 663.398 318.161 661.374V661.374Z" fill="#2F2E41"/>
<path d="M287.302 677.99L234.065 538.246C222.121 541.051 121.962 563.212 88.4155 527.497C76.9188 515.255 74.6767 497.519 81.7509 474.781L101.328 450.179L101.937 450.211C109.339 450.601 283.374 460.355 295.305 512.851C305.363 557.108 323.734 639.621 329.124 663.857C329.67 666.368 329.296 668.992 328.07 671.25C326.844 673.509 324.848 675.252 322.444 676.161L301.035 684.189C299.842 684.638 298.578 684.868 297.303 684.868C295.136 684.868 293.02 684.21 291.235 682.982C289.449 681.754 288.078 680.014 287.302 677.99V677.99Z" fill="#2F2E41"/>
<path d="M239.42 406.868C231.53 406.865 223.776 404.814 216.916 400.914C210.057 397.015 204.328 391.401 200.29 384.623L183.383 355.981L223.569 334.017L240.632 357.413L356.408 345.215C356.971 344.196 357.605 343.217 358.305 342.286C360.526 339.363 363.339 336.94 366.559 335.176C369.779 333.411 373.334 332.345 376.994 332.046C380.67 331.73 384.37 332.205 387.847 333.439C391.325 334.672 394.497 336.635 397.153 339.196C401.411 343.279 404.164 348.681 404.965 354.526C405.766 360.37 404.569 366.314 401.568 371.392C399.69 374.557 397.165 377.288 394.158 379.409C391.151 381.529 387.73 382.99 384.118 383.697C380.507 384.403 376.788 384.338 373.203 383.506C369.619 382.675 366.25 381.096 363.319 378.872C362.64 378.352 361.988 377.797 361.366 377.21L250.478 405.482C246.864 406.404 243.149 406.869 239.42 406.868V406.868Z" fill="#A0616A"/>
<path d="M81.0016 482.161C79.3995 481.006 78.1481 479.431 77.3862 477.609C76.6243 475.787 76.3815 473.79 76.6848 471.838C83.2897 428.297 75.6903 365.924 68.1518 321.266C66.6087 312.205 67.2092 302.908 69.9051 294.121C72.601 285.334 77.3175 277.3 83.6767 270.663C90.0358 264.027 97.861 258.972 106.525 255.903C115.189 252.835 124.452 251.838 133.571 252.993C141.504 254.041 149.363 255.59 157.101 257.631V257.631C169.954 260.868 181.323 268.382 189.339 278.937C197.356 289.493 201.542 302.461 201.21 315.712C200.083 358.805 208.833 412.574 212.647 433.689C212.908 435.14 212.866 436.628 212.526 438.062C212.185 439.496 211.553 440.844 210.668 442.023C209.801 443.189 208.699 444.161 207.433 444.877C206.168 445.592 204.767 446.035 203.32 446.177C161.049 450.491 115.463 471.106 92.0526 483.009C90.548 483.785 88.8805 484.193 87.1875 484.198C84.9619 484.191 82.7959 483.478 81.0016 482.161Z" fill="#3F457D"/>
<path d="M195.111 369.854C193.805 369.341 192.613 368.574 191.605 367.597C190.597 366.62 189.793 365.453 189.24 364.163L165.665 309.704C164.238 306.414 163.473 302.874 163.414 299.288C163.355 295.702 164.003 292.139 165.322 288.804C166.641 285.468 168.604 282.426 171.099 279.849C173.594 277.273 176.573 275.214 179.865 273.789C183.156 272.364 186.696 271.602 190.282 271.546C193.869 271.49 197.431 272.142 200.765 273.463C204.099 274.785 207.141 276.75 209.715 279.248C212.289 281.745 214.346 284.726 215.768 288.018L239.343 342.478C240.465 345.078 240.509 348.016 239.467 350.649C238.425 353.282 236.381 355.395 233.784 356.523L203.286 369.725C202 370.286 200.615 370.586 199.212 370.609C197.809 370.631 196.415 370.375 195.112 369.854H195.111Z" fill="#3F457D"/>
<path d="M129.239 234.465C161.438 234.465 187.54 208.363 187.54 176.164C187.54 143.965 161.438 117.862 129.239 117.862C97.0399 117.862 70.9375 143.965 70.9375 176.164C70.9375 208.363 97.0399 234.465 129.239 234.465Z" fill="#A0616A"/>
<path d="M93.9977 227.96C93.1718 228.913 92.1632 229.692 91.0313 230.248C89.8995 230.805 88.6675 231.129 87.4082 231.202C86.1489 231.274 84.8879 231.093 83.6998 230.67C82.5116 230.246 81.4204 229.589 80.4908 228.736C67.4906 218.213 57.1799 204.748 50.4101 189.454C42.8306 171.387 41.7198 149.34 50.346 132.405C57.6381 118.09 70.7284 108.977 83.7966 101.53C88.8064 98.373 94.2964 96.0526 100.052 94.6594C102.958 93.9996 105.971 93.9559 108.896 94.531C111.821 95.1062 114.593 96.2874 117.033 97.9987C119.623 99.968 121.627 102.606 122.831 105.628C124.034 108.651 124.392 111.944 123.865 115.154C129.843 107.28 137.901 101.231 147.132 97.6918C152.796 95.254 159.125 94.8302 165.063 96.4908C173.456 99.292 179.668 107.767 183.124 116.872C185.92 123.843 186.944 131.398 186.105 138.862C185.738 142.425 184.651 145.877 182.909 149.008C181.167 152.139 178.806 154.882 175.971 157.071C169.125 161.795 160.306 161.315 152.345 159.225C144.383 157.134 136.657 153.59 128.557 152.601C120.457 151.613 111.48 153.756 106.654 160.98C103.255 166.068 102.454 172.77 101.76 179.159L98.1534 212.388C97.8986 217.142 96.8744 221.824 95.1207 226.25C94.8239 226.867 94.4463 227.442 93.9977 227.96V227.96Z" fill="black"/>
<path d="M262.762 415.526C261.779 414.282 261.092 412.83 260.755 411.281C260.417 409.732 260.438 408.126 260.814 406.586C269.813 368.894 269.813 329.612 260.814 291.92C260.437 290.38 260.417 288.775 260.755 287.225C261.093 285.676 261.779 284.225 262.762 282.981C263.725 281.755 264.954 280.764 266.357 280.084C267.76 279.405 269.299 279.054 270.858 279.059H367.059C369.517 279.063 371.894 279.94 373.766 281.533C375.638 283.127 376.884 285.332 377.282 287.758C383.557 328.515 383.557 369.992 377.282 410.748C376.884 413.174 375.638 415.38 373.766 416.973C371.894 418.566 369.517 419.443 367.059 419.448H270.858C269.299 419.453 267.759 419.102 266.357 418.422C264.954 417.743 263.724 416.752 262.762 415.526Z" fill="#765F5F"/>
<path d="M348.498 330.858H297.82C295.932 330.856 294.122 330.105 292.787 328.77C291.452 327.435 290.701 325.625 290.699 323.737V320.713C290.701 318.825 291.452 317.015 292.787 315.68C294.122 314.345 295.932 313.594 297.82 313.592H348.498C350.386 313.594 352.196 314.345 353.531 315.68C354.866 317.015 355.617 318.825 355.619 320.713V323.737C355.617 325.625 354.866 327.435 353.531 328.77C352.196 330.105 350.386 330.856 348.498 330.858V330.858Z" fill="#575252"/>
<path d="M348.498 360.643H297.82C295.932 360.641 294.122 359.891 292.787 358.555C291.452 357.22 290.701 355.41 290.699 353.522V350.498C290.701 348.61 291.452 346.8 292.787 345.465C294.122 344.13 295.932 343.379 297.82 343.377H348.498C350.386 343.379 352.196 344.13 353.531 345.465C354.866 346.8 355.617 348.61 355.619 350.498V353.522C355.617 355.41 354.866 357.22 353.531 358.555C352.196 359.891 350.386 360.641 348.498 360.643V360.643Z" fill="#575252"/>
<path d="M218.63 467.743C215.163 466.532 211.991 464.604 209.319 462.086C206.646 459.568 204.534 456.515 203.12 453.126C202.793 452.335 202.509 451.528 202.267 450.707L78.0687 415.355C72.7316 413.814 68.0337 410.593 64.6722 406.17C61.3107 401.748 59.4648 396.359 59.4086 390.804L59.1055 342.851L104.885 344.076L107.869 372.879L214.071 420.56C215.071 419.963 216.111 419.436 217.184 418.983H217.185C221.097 417.343 225.349 416.679 229.575 417.05C233.801 417.421 237.873 418.815 241.439 421.111C245.006 423.408 247.96 426.538 250.046 430.231C252.132 433.925 253.288 438.071 253.414 442.311C253.54 446.551 252.631 450.758 250.767 454.568C248.903 458.379 246.14 461.679 242.716 464.182C239.291 466.686 235.309 468.318 231.113 468.939C226.916 469.559 222.632 469.149 218.63 467.743V467.743Z" fill="#A0616A"/>
<path d="M59.817 363.903C58.8845 362.854 58.1695 361.631 57.7132 360.303C57.2569 358.976 57.0684 357.571 57.1587 356.171L60.8 296.94C61.0143 293.357 61.9329 289.853 63.5031 286.626C65.0734 283.399 67.2644 280.513 69.9509 278.134C72.6375 275.755 75.7669 273.929 79.1599 272.76C82.5529 271.592 86.1431 271.104 89.7249 271.324C93.3068 271.544 96.81 272.469 100.034 274.044C103.258 275.62 106.14 277.816 108.515 280.507C110.89 283.197 112.71 286.33 113.873 289.725C115.036 293.12 115.518 296.711 115.292 300.292L111.651 359.523C111.473 362.35 110.182 364.99 108.061 366.866C105.939 368.741 103.161 369.699 100.334 369.529L67.1645 367.489C65.7635 367.408 64.3926 367.048 63.1314 366.433C61.8701 365.817 60.7436 364.958 59.8171 363.903H59.817Z" fill="#3F457D"/>
</svg>
