<svg width="40" height="40" viewBox="0 0 40 40" fill="none" xmlns="http://www.w3.org/2000/svg">
<path d="M30.7605 37.9014C30.3052 37.1549 29.8235 36.4149 29.3682 35.6684C29.1834 35.3698 29.124 35.0713 29.1834 34.6948C29.2296 34.4221 29.025 34.0651 28.8468 33.812C28.7809 33.7146 28.4509 33.799 28.2463 33.7925C28.154 33.786 28.0154 33.7795 27.9758 33.7276C27.5667 33.0915 27.1971 32.4359 26.7682 31.8127C26.2667 31.0857 25.7586 30.3587 25.1911 29.6772C24.4982 28.8463 23.7327 28.0804 23.0266 27.2625C22.6703 26.8536 22.3535 26.4187 21.8454 26.1785C21.753 26.133 21.6936 26.0032 21.6276 25.9124C21.4957 25.7306 21.3571 25.5489 21.2317 25.3671C21.1591 25.2632 21.0865 25.1529 21.0601 25.0361C20.9612 24.5298 20.8556 24.0235 20.8028 23.5171C20.7698 23.2186 20.8292 22.907 20.8622 22.6084C20.9216 22.0112 21.0205 21.4205 21.0337 20.8234C21.0469 20.1807 20.9876 19.5381 20.9612 18.8955C20.9612 18.876 21.0008 18.8501 21.1129 18.7332C21.1327 18.8111 21.1393 18.889 21.1789 18.9345C21.4429 19.2395 21.6672 19.59 21.984 19.8172C22.9276 20.4988 23.9241 21.1025 25.0195 21.5374C25.3098 21.6542 25.686 21.7256 25.7652 22.141C25.7784 22.2189 25.9103 22.3098 26.0093 22.3358C26.3657 22.4461 26.7286 22.537 27.0915 22.6279C27.3555 22.6993 27.8306 22.5565 27.9098 22.3293C28.0682 21.8749 28.4245 21.81 28.8336 21.81C29.2164 21.81 29.6057 21.8165 29.9884 21.81C30.094 21.81 30.1996 21.771 30.3382 21.7451C30.061 21.3426 29.5001 21.3297 29.3154 20.8688C29.7377 20.7714 30.1666 20.8688 30.49 20.5832C30.4108 20.4663 30.3118 20.382 30.3184 20.3106C30.3448 19.8951 30.1732 20.0704 29.9884 20.1807C29.8235 20.2781 29.6453 20.369 29.4671 20.4144C29.3352 20.4469 29.2296 20.382 29.2956 20.2067C29.3286 20.1093 29.322 19.9925 29.3352 19.8886C29.2164 19.9535 29.0976 20.012 28.992 20.0769C28.8732 20.1483 28.7545 20.3041 28.6423 20.3041C28.2331 20.2911 27.9626 20.4988 27.7052 20.7584C27.5139 20.9532 27.3291 21.1609 27.0189 20.9272C26.9662 20.8883 26.8672 20.9077 26.7946 20.9012C26.2865 20.8623 25.8509 20.6806 25.455 20.3625C24.7225 19.7653 23.9769 19.1941 23.2378 18.6099C23.0266 18.4411 22.7693 18.3113 22.6175 18.0971C22.2149 17.5454 21.8454 16.9741 21.5023 16.3835C21.3505 16.1238 21.3043 15.7993 21.2317 15.5007C21.1921 15.3449 21.2053 15.1761 21.1657 15.0268C21.0667 14.6633 20.7632 14.3453 20.9744 13.9233C20.9942 13.8779 20.9612 13.787 20.9216 13.7416C20.6642 13.4235 20.4266 13.112 20.618 12.6641C20.6444 12.6121 20.5718 12.5213 20.5718 12.4499C20.5718 12.2876 20.552 12.1123 20.618 11.976C20.7038 11.7943 20.8688 11.6515 21.0205 11.4567C21.0667 11.4697 21.1723 11.4697 21.2515 11.5152C21.4693 11.6515 21.5881 11.5346 21.654 11.3529C21.7266 11.1452 21.7596 10.918 21.8256 10.7103C21.885 10.509 21.9114 10.2689 22.0434 10.1131C22.5251 9.5224 22.6241 8.84733 22.6043 8.12682C22.5977 7.78279 22.4789 7.69192 22.1226 7.65297C21.9708 7.6335 21.7926 7.58157 21.6936 7.47771C21.2581 7.02983 20.7698 6.71177 20.1363 6.56896C19.2388 6.36774 18.7307 6.51703 18.1302 7.25053C17.9983 7.4128 17.7871 7.52315 17.5891 7.61403C17.3648 7.71139 17.1602 7.78928 17.1866 8.08787C17.2196 8.44488 17.1074 8.73698 16.7907 8.95119C16.6125 9.07452 16.5927 9.2303 16.8039 9.36012C16.8962 9.41854 16.982 9.48345 17.0744 9.54836C17.7079 10.0092 17.7541 10.4182 17.2394 10.9764C16.9688 11.2685 16.6653 11.2425 16.4145 10.9439C16.3221 10.8271 16.1638 10.7622 16.0318 10.6778C15.8734 10.5804 15.6952 10.5155 15.5567 10.3987C15.3521 10.2299 15.1937 9.98976 14.976 9.84046C14.2237 9.32767 13.5836 8.73049 13.2009 7.89963C12.8775 7.19211 12.5674 6.48458 12.2506 5.77056C11.9471 5.08251 11.5313 4.43989 11.4587 3.66745C11.4456 3.54412 11.34 3.4143 11.2608 3.30395C10.977 2.93396 10.9572 2.53152 11.2806 2.19398C11.4785 1.98627 11.7557 1.86294 11.9999 1.70066C12.0988 1.63575 12.1978 1.57084 12.2902 1.50593C12.277 1.47996 12.2638 1.454 12.2572 1.42804C12.1054 1.42804 11.9537 1.42804 11.6897 1.42804C11.9207 1.01261 12.112 0.662089 12.3034 0.318062C12.2836 0.292098 12.2572 0.259643 12.2374 0.233679C12.0922 0.331045 11.9471 0.42192 11.7227 0.564723C11.8481 0.350518 11.9339 0.207714 12.0461 0.0194732C11.5181 -0.0324554 11.3994 0.389464 11.0892 0.688053C11.0364 0.493321 11.0166 0.350518 10.9638 0.220696C10.9374 0.142804 10.8714 0.0714018 10.8253 0C10.7659 0.0649107 10.6735 0.12333 10.6405 0.201223C10.5151 0.493321 10.4359 0.817875 10.2775 1.0905C10.0004 1.57084 9.9872 2.07065 10.106 2.58994C10.205 3.00537 10.2973 3.4143 10.0202 3.80377C9.9806 3.8557 10.007 3.97254 10.0334 4.05043C10.1324 4.33604 10.2841 4.60217 10.3567 4.89427C10.6933 6.22494 11.1618 7.50368 11.9009 8.67856C12.1978 9.15241 12.4288 9.6652 12.7455 10.1261C13.0359 10.5545 13.4054 10.931 13.7222 11.3399C13.9333 11.619 13.9135 11.9306 13.7618 12.2292C13.6892 12.372 13.577 12.4953 13.4912 12.6316C13.1217 13.2418 12.9237 13.8714 13.0425 14.6049C13.1019 14.9684 13.2668 15.3384 13.0491 15.7344C12.6861 16.4094 12.4684 17.1234 12.6663 17.9024C12.6927 17.9997 12.6729 18.1231 12.6466 18.2204C12.574 18.519 12.475 18.8111 12.4024 19.1097C12.3628 19.2525 12.3694 19.4148 12.3166 19.5511C11.9933 20.343 11.6633 21.1414 11.3136 21.9203C11.1354 22.3098 10.911 22.6863 10.6999 23.0628C10.5481 23.3419 10.4821 23.595 10.8648 23.7508C10.8978 23.7638 10.9242 23.8092 10.944 23.8482C11.0958 24.0689 11.2212 24.3091 11.3928 24.5038C11.7359 24.8997 11.9273 25.2957 11.8217 25.8539C11.7029 26.516 11.6633 27.1976 11.6369 27.8662C11.6105 28.6905 11.6897 29.5149 11.7821 30.3393C11.8679 31.1701 11.9537 32.001 12.1186 32.8253C12.2902 33.6887 12.3232 34.5585 12.0724 35.4218C12.0065 35.6554 11.8943 35.8761 11.8019 36.1293C12.0263 36.2202 12.211 36.3175 12.4024 36.376C12.7323 36.4733 13.0821 36.5188 13.3988 36.6421C13.6958 36.7589 13.9729 36.8044 14.2897 36.72C14.3623 36.7005 14.4942 36.7914 14.5602 36.8628C14.7186 37.0316 14.8836 37.0121 15.0947 36.9731C15.5699 36.8888 16.0516 36.8498 16.5333 36.7914C16.5597 36.8238 16.5861 36.8628 16.6125 36.8952C16.2561 36.9926 16.3287 37.1549 16.4673 37.3431C16.5927 37.5184 16.7115 37.7001 16.7973 37.8949C16.8303 37.9728 16.8171 38.135 16.7643 38.187C16.3749 38.5375 16.0516 38.9659 15.4907 39.1022C15.3389 39.1412 15.1937 39.284 15.0947 39.4138C14.8704 39.7059 14.9694 39.9266 15.3521 39.9331C15.6754 39.9396 16.012 39.9071 16.3221 39.8162C16.8566 39.6604 17.3582 39.4268 17.8927 39.2645C18.2094 39.1671 18.5658 39.1736 18.8891 39.0957C19.0277 39.0568 19.2388 38.9269 19.252 38.8166C19.2916 38.4726 19.3576 38.1026 19.1003 37.791C18.7835 37.4145 19.384 37.1289 19.2125 36.7589C19.1927 36.72 19.2257 36.6161 19.2718 36.5902C19.3576 36.5253 19.4632 36.4798 19.5622 36.4409C19.78 36.3695 20.0307 36.35 20.2089 36.2332C20.8226 35.8242 21.5221 35.5711 22.1028 35.0907C22.4327 34.8181 22.7825 34.6039 22.9738 34.2079C23.0068 34.1365 23.1256 34.0976 23.2114 34.0586C23.5941 33.8899 24.0033 33.7536 24.3662 33.5523C24.6169 33.4095 24.7621 33.416 24.9931 33.6108C25.389 33.9418 25.8311 34.2274 26.2799 34.4741C26.4712 34.5779 26.7418 34.5455 26.9794 34.5714C26.8606 34.7013 26.7418 34.8051 26.656 34.9349C26.6032 35.0128 26.5438 35.1751 26.5768 35.2141C26.8672 35.4997 27.0255 35.9475 27.5337 35.9735C27.6458 35.98 27.7976 36.0709 27.8438 36.1682C28.1935 36.8109 28.5235 37.4665 28.8468 38.1221C29.058 38.544 29.2098 38.9984 29.4605 39.3943C29.7047 39.7838 30.0346 40.1473 30.6021 39.9396C30.7077 39.9006 30.8463 39.7968 30.8727 39.6994C30.9255 39.4722 30.8661 39.219 30.9387 39.0048C31.0773 38.5894 30.9651 38.2389 30.7605 37.9014ZM19.714 10.892C19.7404 10.9569 19.78 11.0089 19.7734 11.0543C19.7272 11.3594 19.6612 11.658 19.6282 11.963C19.6018 12.1967 19.6216 12.4304 19.6216 12.6706C19.0475 12.2941 19.0673 11.5606 19.714 10.892ZM20.3211 23.2835C20.2815 23.2965 20.2419 23.3094 20.2089 23.3289C20.0043 22.9459 19.7998 22.5565 19.5886 22.1735C19.4962 22.0047 19.4434 21.797 19.3114 21.6672C19.0079 21.3686 18.9023 21.0181 18.8099 20.6156C18.7241 20.2392 18.5064 19.8886 18.2952 19.5511C18.1434 19.3044 18.1038 19.0773 18.2028 18.8306C18.3018 18.5774 18.2424 18.4736 17.9587 18.4671C17.6221 18.4541 17.2988 18.2075 17.2196 17.9348C17.2922 17.9218 17.3648 17.8959 17.4373 17.8959C18.2754 17.9348 18.9023 17.4545 19.5622 17.0715C19.7074 16.9871 19.78 16.9352 19.9053 17.104C20.2815 17.6168 20.3475 18.162 20.2485 18.7852C20.1759 19.2395 20.2551 19.7199 20.2617 20.1872C20.2683 20.5767 20.2485 20.9662 20.2617 21.3556C20.2749 21.9009 20.3079 22.4396 20.3343 22.9849C20.3277 23.0758 20.3211 23.1796 20.3211 23.2835Z" fill="#FDB913"/>
</svg>
