<svg width="80" height="72" viewBox="0 0 80 72" fill="none" xmlns="http://www.w3.org/2000/svg">
<path fill-rule="evenodd" clip-rule="evenodd" d="M36.9996 2.95765C37.9864 -0.0796441 42.2834 -0.0796248 43.2703 2.95766L46.3611 12.4703C46.5082 12.9231 46.9302 13.2297 47.4062 13.2297H57.4085C60.6021 13.2297 61.9299 17.3163 59.3462 19.1935L51.2542 25.0726C50.8691 25.3524 50.7079 25.8485 50.855 26.3012L53.9459 35.8139C54.9328 38.8512 51.4565 41.3769 48.8728 39.4997L40.7808 33.6206C40.3957 33.3407 39.8741 33.3407 39.489 33.6206L31.397 39.4997C28.8133 41.3769 25.337 38.8512 26.3239 35.8139L29.4148 26.3012C29.5619 25.8484 29.4007 25.3524 29.0156 25.0726L20.9236 19.1934C18.3399 17.3163 19.6678 13.2297 22.8614 13.2297H32.8636C33.3397 13.2297 33.7616 12.9231 33.9087 12.4703L36.9996 2.95765ZM41.18 3.63681C40.8511 2.62438 39.4188 2.62439 39.0898 3.63681L35.9989 13.1495C35.5576 14.5078 34.2918 15.4275 32.8636 15.4275H22.8614C21.7968 15.4275 21.3542 16.7897 22.2154 17.4154L30.3074 23.2946C31.4629 24.134 31.9464 25.6221 31.505 26.9804L28.4142 36.4931C28.0852 37.5055 29.244 38.3474 30.1052 37.7217L38.1972 31.8425C39.3526 31.003 40.9172 31.003 42.0727 31.8425L50.1646 37.7217C51.0259 38.3474 52.1846 37.5055 51.8557 36.4931L48.7648 26.9804C48.3235 25.6221 48.807 24.134 49.9624 23.2946L58.0544 17.4154C58.9156 16.7897 58.473 15.4275 57.4085 15.4275H47.4062C45.978 15.4275 44.7122 14.5078 44.2709 13.1495L41.18 3.63681Z" fill="#FECA04"/>
<path d="M10.7906 22.429C11.1989 21.163 12.9769 21.163 13.3853 22.429L15.3037 28.3765C15.4863 28.9426 16.01 29.3259 16.601 29.3259H22.8091C24.1305 29.3259 24.68 31.0293 23.6109 31.8117L18.5885 35.4875C18.1103 35.8374 17.9103 36.4576 18.0929 37.0238L20.0113 42.9712C20.4197 44.2372 18.9812 45.2899 17.9122 44.5075L12.8897 40.8318C12.4116 40.4819 11.7642 40.4819 11.2861 40.8318L6.26366 44.5075C5.19459 45.29 3.75616 44.2372 4.16451 42.9712L6.08291 37.0238C6.26553 36.4576 6.06547 35.8374 5.58737 35.4875L0.56492 31.8117C-0.504152 31.0293 0.0452818 29.3259 1.36673 29.3259H7.57482C8.16578 29.3259 8.68954 28.9426 8.87216 28.3765L10.7906 22.429Z" fill="black"/>
<path d="M66.6147 22.429C67.0231 21.163 68.8011 21.163 69.2094 22.429L71.1278 28.3765C71.3105 28.9426 71.8342 29.3259 72.4252 29.3259H78.6333C79.9547 29.3259 80.5041 31.0293 79.4351 31.8117L74.4126 35.4875C73.9345 35.8374 73.7345 36.4576 73.9171 37.0238L75.8355 42.9712C76.2438 44.2372 74.8054 45.2899 73.7363 44.5075L68.7139 40.8318C68.2358 40.4819 67.5884 40.4819 67.1103 40.8318L62.0878 44.5075C61.0188 45.29 59.5803 44.2372 59.9887 42.9712L61.9071 37.0238C62.0897 36.4576 61.8896 35.8374 61.4115 35.4875L56.3891 31.8117C55.32 31.0293 55.8695 29.3259 57.1909 29.3259H63.399C63.99 29.3259 64.5137 28.9426 64.6963 28.3765L66.6147 22.429Z" fill="black"/>
<path d="M24.3428 53.0373C24.6818 51.9863 26.1579 51.9863 26.4969 53.0373L28.0895 57.9748C28.2411 58.4448 28.676 58.7631 29.1666 58.7631H34.3205C35.4175 58.7631 35.8736 60.1772 34.9861 60.8267L30.8165 63.8783C30.4196 64.1688 30.2535 64.6837 30.4051 65.1537L31.9978 70.0912C32.3368 71.1422 31.1426 72.0162 30.2551 71.3666L26.0855 68.3151C25.6886 68.0246 25.1511 68.0246 24.7542 68.3151L20.5846 71.3666C19.6971 72.0162 18.5029 71.1422 18.8419 70.0912L20.4346 65.1537C20.5862 64.6837 20.4201 64.1688 20.0232 63.8783L15.8536 60.8267C14.9661 60.1772 15.4222 58.7631 16.5193 58.7631H21.6731C22.1638 58.7631 22.5986 58.4448 22.7502 57.9748L24.3428 53.0373Z" fill="#FECA04"/>
<path d="M53.5363 53.0373C53.8753 51.9863 55.3513 51.9863 55.6904 53.0373L57.283 57.9748C57.4346 58.4448 57.8694 58.7631 58.36 58.7631H63.5139C64.611 58.7631 65.0671 60.1772 64.1796 60.8267L60.01 63.8783C59.6131 64.1688 59.447 64.6837 59.5986 65.1537L61.1912 70.0912C61.5302 71.1422 60.3361 72.0162 59.4485 71.3666L55.279 68.3151C54.882 68.0246 54.3446 68.0246 53.9477 68.3151L49.7781 71.3666C48.8905 72.0162 47.6964 71.1422 48.0354 70.0912L49.628 65.1537C49.7796 64.6837 49.6136 64.1688 49.2166 63.8783L45.0471 60.8267C44.1595 60.1772 44.6157 58.7631 45.7127 58.7631H50.8666C51.3572 58.7631 51.792 58.4448 51.9436 57.9748L53.5363 53.0373Z" fill="#FECA04"/>
</svg>
