<svg width="81" height="67" viewBox="0 0 81 67" fill="none" xmlns="http://www.w3.org/2000/svg">
<path d="M47.638 3.1395C49.3679 3.21932 51.2042 3.45877 53.0406 3.72483C56.1011 4.20374 58.9487 4.31016 61.5835 1.86242C64.3779 -0.771566 66.9594 -0.718355 70.1796 2.76702C72.7611 5.56064 75.316 8.40747 77.9507 11.1479C79.4411 12.7176 80.2661 14.447 79.9467 16.6553C79.7072 18.3847 78.6161 19.582 77.4983 20.6728C75.8749 22.2425 75.2095 24.2114 74.5176 26.2068C74.145 27.2977 73.799 28.3885 73.3998 29.4794C72.495 31.9537 70.3393 32.539 68.3699 30.783C66.2674 28.894 64.2448 26.872 62.1956 24.9031C59.8802 22.6948 57.6447 20.4333 55.2495 18.3049C54.1317 17.3205 52.7212 16.7883 51.1776 17.0544C48.9421 17.4269 46.7332 17.2672 44.6307 16.4957C42.9807 15.9103 41.5169 16.203 40.0532 17.0012C36.833 18.7838 33.7458 20.7792 30.6054 22.6948C29.3546 23.4664 28.0505 24.1316 26.5602 24.2912C24.7239 24.504 22.5416 23.3866 21.8496 21.8967C21.131 20.3003 21.6101 18.5709 23.34 17.214C28.1836 13.436 33.0539 9.65795 37.9773 5.95973C40.7984 3.93768 44.0452 3.1395 47.638 3.1395Z" fill="#FECA04"/>
<path d="M49.5542 66.5688C48.3034 66.6486 47.0525 66.2495 45.8283 65.7174C45.1896 65.4513 44.9235 65.0256 45.2961 64.3605C45.3759 64.2009 45.4557 64.0412 45.5356 63.8816C45.9082 63.0834 46.1211 62.0192 46.7332 61.5669C47.4784 61.0081 48.1703 62.1522 48.9687 62.3118C50.0599 62.5247 51.1244 62.6311 51.7631 61.4604C52.3486 60.4228 52.0825 59.5448 50.8849 58.6402C49.6607 57.6824 48.2768 56.964 47.1856 55.82C46.1477 54.7291 46.0146 53.3989 46.8663 52.4943C47.638 51.6695 48.7292 51.7227 49.9534 52.6805C51.6567 54.0374 53.2269 55.5273 55.0366 56.7512C55.6753 57.1769 56.314 57.5494 57.0858 57.6292C57.9108 57.709 58.7092 57.6824 59.135 56.8044C59.5342 55.9264 59.348 55.1282 58.6294 54.5163C57.8842 53.8778 57.0858 53.319 56.314 52.7071C55.1696 51.8025 53.9454 50.9777 52.8543 50.0199C51.7099 49.0089 51.5236 47.5988 52.2954 46.7208C53.0672 45.8428 54.5309 45.7896 55.6753 46.6942C57.4052 48.0777 59.1084 49.5144 60.8117 50.9245C61.5036 51.5098 62.2754 51.9089 63.1005 52.2814C64.0053 52.7071 64.8835 52.7071 65.469 51.8291C66.1078 50.9245 66.0013 49.9933 65.1497 49.1951C63.2069 47.3859 60.998 45.8694 58.9221 44.2198C58.2036 43.6345 57.4318 43.0758 56.7931 42.4106C55.9414 41.4794 55.9414 40.3886 56.6866 39.5106C57.4584 38.606 58.3366 38.5528 59.5076 39.3775C61.5835 40.8143 63.6327 42.3042 65.682 43.7675C67.0659 44.7519 67.9973 44.8051 68.7159 43.8739C69.4877 42.9161 69.328 41.506 68.2901 40.5216C62.9408 35.5995 57.5915 30.6774 52.2422 25.7553C50.8583 24.5048 49.4744 23.2544 48.1171 21.9773C47.7445 21.6314 47.2388 21.2589 47.4518 20.647C47.6647 20.0616 48.2502 19.9286 48.7558 19.8754C50.1397 19.769 51.5502 19.3965 52.7744 20.5672C58.3633 26.0214 64.4844 30.8902 70.153 36.238C71.1643 37.1959 72.0958 38.1803 72.7345 39.4307C74.3579 42.4904 73.666 45.9226 70.8716 47.9712C70.0998 48.5566 69.8336 49.1419 69.8603 50.0731C69.9135 54.2768 68.6627 55.82 64.5642 56.698C63.8722 56.8576 63.4997 57.1769 63.2867 57.842C62.3819 60.5824 60.5988 62.1788 57.5649 61.9926C56.7931 61.9394 56.2076 62.232 55.835 62.977C54.5842 65.5844 52.4551 66.6752 49.5542 66.5688Z" fill="black"/>
<path d="M38.35 65.4509C35.5556 65.4509 33.666 63.961 33.0805 61.4068C32.8676 60.5022 32.5482 60.3426 31.6966 60.7417C28.2369 62.3114 24.644 60.5288 23.8456 56.7774C23.6327 55.8462 23.3932 55.7132 22.5682 56.0857C20.5722 56.9637 18.523 56.9903 16.7931 55.5535C14.9035 53.9838 14.2116 51.8819 15.01 49.4608C15.3027 48.5296 14.7705 48.3699 14.1051 48.2635C12.9341 48.0507 11.9228 47.625 11.0446 46.7736C8.96873 44.7249 8.80905 42.1974 10.5389 39.8561C11.3373 38.7652 12.2954 37.8606 13.4664 37.1955C15.4092 36.0514 17.2455 36.2909 19.0818 37.4615C20.8916 38.6056 21.3972 40.335 21.2375 42.2772C21.1577 43.2882 21.3972 43.6075 22.4085 43.6607C25.2828 43.7671 27.0393 45.2038 27.678 47.9975C27.9175 49.0085 28.3167 49.3012 29.328 49.1415C32.5482 48.636 35.0765 50.3122 35.9015 53.5049C36.1943 54.7022 36.6467 55.0746 37.9242 54.8086C40 54.3297 42.1823 55.6068 43.2468 57.7086C44.1251 59.3848 43.6993 62.205 42.3952 63.5619C41.2508 64.706 39.9202 65.6106 38.35 65.4509Z" fill="#FECA04"/>
<path d="M27.0925 9.12615C24.298 8.83348 21.7698 7.82246 19.5875 6.06647C17.3786 4.31048 16.2874 4.33709 14.3978 6.43895C11.4171 9.71148 8.46305 13.0106 5.48235 16.3097C4.41781 17.4804 4.33797 18.4382 5.1896 19.7951C6.25414 21.4713 8.01062 22.4557 9.20823 24.0255C9.84695 24.8502 10.3526 25.7016 10.5123 26.7393C10.805 28.8411 11.0978 30.9696 11.8696 32.965C12.3486 34.1889 11.4171 34.6412 10.805 35.2532C9.26145 36.7963 8.86225 36.7165 8.01062 34.6678C7.29206 32.9118 6.73318 31.076 6.60011 29.1604C6.49366 27.5374 5.80171 26.2071 4.47104 25.1961C3.19359 24.2383 2.07583 23.0943 1.19758 21.7374C-0.532292 19.13 -0.399225 16.496 1.70324 14.1813C5.24283 10.1904 8.83564 6.25271 12.4817 2.39485C14.1583 0.612257 16.2608 0.000321001 18.6826 0.745287C19.8004 1.09116 20.9448 1.43704 21.7432 2.28843C24.5376 5.21508 27.8376 5.13526 31.324 3.99121C32.6813 3.53891 34.0652 3.24624 35.4757 3.13982C35.8217 3.11321 36.2741 3.06 36.3806 3.4857C36.4604 3.83157 36.1144 4.04442 35.8483 4.17745C33.9321 5.21508 32.2555 6.62519 30.5788 7.9821C29.5941 8.75367 28.3965 9.15275 27.0925 9.12615Z" fill="black"/>
</svg>
