<svg width="50" height="49" viewBox="0 0 50 49" fill="none" xmlns="http://www.w3.org/2000/svg">
<path fill-rule="evenodd" clip-rule="evenodd" d="M32.9206 1.48591C32.0531 0.304164 30.4814 -0.116954 29.1392 0.47271L26.5789 1.59756C25.7365 1.96766 24.7739 1.94827 23.9471 1.54456L21.4341 0.317521C20.1168 -0.325709 18.5295 0.0317838 17.6151 1.17764L15.8708 3.3635C15.2968 4.08269 14.4355 4.51285 13.5158 4.53962L10.7204 4.62097C9.25506 4.66362 8.0157 5.71783 7.73854 7.15738L7.20983 9.90349C7.03588 10.807 6.47312 11.5882 5.67119 12.0393L3.23382 13.4104C1.95612 14.1292 1.34863 15.6386 1.77222 17.042L2.58025 19.7193C2.84611 20.6002 2.71084 21.5534 2.21041 22.3255L0.68941 24.6722C-0.107918 25.9024 0.0556389 27.5213 1.08293 28.5671L3.04259 30.5622C3.68735 31.2186 4.01056 32.1255 3.92627 33.0418L3.67009 35.8266C3.53579 37.2864 4.43293 38.6438 5.82857 39.0924L8.49094 39.9483C9.3669 40.2299 10.0745 40.8827 10.4257 41.7332L11.493 44.318C12.0525 45.6731 13.4777 46.4581 14.922 46.2067L17.6771 45.7273C18.5836 45.5695 19.5136 45.8187 20.2198 46.4086L22.3661 48.2014C23.4912 49.1412 25.1179 49.1739 26.28 48.2802L28.4967 46.5753C29.2261 46.0144 30.1653 45.8028 31.0647 45.9969L33.7983 46.5869C35.2313 46.8962 36.687 46.1692 37.3006 44.8378L38.4711 42.298C38.8562 41.4624 39.5896 40.8386 40.4762 40.5925L43.1708 39.8446C44.5834 39.4525 45.5345 38.1323 45.4591 36.6682L45.3152 33.8754C45.2679 32.9565 45.6274 32.0634 46.298 31.4334L48.3365 29.5189C49.405 28.5152 49.6336 26.9043 48.8865 25.643L47.4612 23.2369C46.9923 22.4453 46.8955 21.4874 47.1966 20.6179L48.1118 17.9754C48.5915 16.5901 48.0453 15.0574 46.7976 14.2878L44.4174 12.8197C43.6343 12.3366 43.1035 11.5334 42.966 10.6237L42.5483 7.85849C42.3294 6.40894 41.1334 5.30569 39.671 5.20407L36.8812 5.01022C35.9633 4.94645 35.12 4.48195 34.5755 3.74024L32.9206 1.48591Z" fill="black"/>
<path d="M39.1015 24.3122C39.1015 32.3779 32.5632 38.9164 24.4978 38.9164C16.4324 38.9164 9.8941 32.3779 9.8941 24.3122C9.8941 16.2465 16.4324 9.70801 24.4978 9.70801C32.5632 9.70801 39.1015 16.2465 39.1015 24.3122Z" fill="#FDB913"/>
<path fill-rule="evenodd" clip-rule="evenodd" d="M41.0431 24.3124C41.0431 33.4504 33.6355 40.8582 24.4978 40.8582C15.36 40.8582 7.95245 33.4504 7.95245 24.3124C7.95245 15.1745 15.36 7.7666 24.4978 7.7666C33.6355 7.7666 41.0431 15.1745 41.0431 24.3124ZM24.4978 38.9166C32.5632 38.9166 39.1015 32.3781 39.1015 24.3124C39.1015 16.2467 32.5632 9.70822 24.4978 9.70822C16.4324 9.70822 9.89407 16.2467 9.89407 24.3124C9.89407 32.3781 16.4324 38.9166 24.4978 38.9166Z" fill="white"/>
<path fill-rule="evenodd" clip-rule="evenodd" d="M33.6468 19.257C32.7204 20.072 22.7523 32.3603 22.7523 32.3603C22.7523 32.3603 16.7525 25.4941 15.9151 24.2129C15.0777 22.9318 17.1189 21.5848 18.3226 22.5486C19.5264 23.5124 22.7523 26.5236 22.7523 26.5236C22.7523 26.5236 30.5005 18.2504 31.2091 17.627C31.9176 17.0036 34.5732 18.442 33.6468 19.257Z" fill="black"/>
</svg>
