<svg width="80" height="65" viewBox="0 0 80 65" fill="none" xmlns="http://www.w3.org/2000/svg">
<path fill-rule="evenodd" clip-rule="evenodd" d="M67.3641 24.5593C69.1756 24.3451 70.8177 25.6401 71.0319 27.4516C71.1751 28.6632 71.2486 29.8948 71.2486 31.1423C71.2486 48.3414 57.306 62.2841 40.1068 62.2841H3.30292C1.47877 62.2841 0 60.8053 0 58.9811C0 57.157 1.47877 55.6782 3.30292 55.6782H40.1068C53.6577 55.6782 64.6428 44.6931 64.6428 31.1423C64.6428 30.1546 64.5846 29.1818 64.4717 28.2271C64.2576 26.4156 65.5525 24.7734 67.3641 24.5593Z" fill="#FECA04"/>
<path fill-rule="evenodd" clip-rule="evenodd" d="M40.1068 6.60583C26.556 6.60583 15.5709 17.5909 15.5709 31.1418C15.5709 31.8441 15.6003 32.5388 15.6579 33.2248C15.8104 35.0426 14.4605 36.6398 12.6427 36.7923C10.825 36.9449 9.22773 35.595 9.07518 33.7772C9.00222 32.9077 8.96506 32.0287 8.96506 31.1418C8.96506 13.9426 22.9077 0 40.1068 0C50.9704 0 60.5326 5.56533 66.1001 13.9851C67.1062 15.5066 66.6883 17.5558 65.1667 18.5619C63.6451 19.568 61.596 19.1502 60.5899 17.6286C56.1936 10.9799 48.6602 6.60583 40.1068 6.60583Z" fill="#FECA04"/>
<path d="M63.4631 55.6777H72.6641V62.2836H53.7903C58.0725 59.8352 60.277 58.4061 63.4631 55.6777Z" fill="black"/>
<path d="M79.6029 58.2111C80.1323 58.5873 80.1323 59.3734 79.6029 59.7496L72.9748 64.4595C72.35 64.9034 71.4845 64.4567 71.4845 63.6902L71.4845 54.2705C71.4845 53.504 72.35 53.0573 72.9748 53.5013L79.6029 58.2111Z" fill="black"/>
<path d="M67.1695 22.5738C67.5457 22.0444 68.3318 22.0444 68.708 22.5738L73.4178 29.2019C73.8618 29.8268 73.4151 30.6922 72.6485 30.6922H63.2289C62.4624 30.6922 62.0156 29.8268 62.4596 29.2019L67.1695 22.5738Z" fill="#FECA04"/>
<path d="M11.4918 39.2602C11.868 39.7896 12.6541 39.7896 13.0303 39.2602L17.7401 32.6321C18.1841 32.0072 17.7374 31.1417 16.9708 31.1417H7.55118C6.78467 31.1417 6.33793 32.0072 6.78193 32.6321L11.4918 39.2602Z" fill="#FECA04"/>
<path fill-rule="evenodd" clip-rule="evenodd" d="M18.7324 43.1991C17.8345 41.6113 15.8194 41.052 14.2316 41.9499C12.6437 42.8478 12.0844 44.863 12.9823 46.4508C14.304 48.7879 15.9183 50.9363 17.7754 52.8467H27.8736C22.2916 48.4929 21.0988 47.3837 18.7324 43.1991Z" fill="black"/>
<circle cx="39.8709" cy="30.9051" r="14.8631" fill="black"/>
<path fill-rule="evenodd" clip-rule="evenodd" d="M48.5744 24.7698C49.2268 25.4072 49.2391 26.4527 48.6018 27.1052L37.5255 38.4453L30.9177 31.8375C30.2728 31.1925 30.2728 30.1469 30.9177 29.502C31.5626 28.857 32.6083 28.857 33.2532 29.502L37.4978 33.7466L46.239 24.7973C46.8763 24.1448 47.9219 24.1325 48.5744 24.7698Z" fill="#FECA04"/>
</svg>
