<svg width="19" height="16" viewBox="0 0 19 16" fill="none" xmlns="http://www.w3.org/2000/svg">
<path fill-rule="evenodd" clip-rule="evenodd" d="M18.7071 7.2926L12.3431 0.928635C11.9526 0.538111 11.3195 0.538111 10.9289 0.928636C10.5384 1.31916 10.5384 1.95232 10.9289 2.34285L15.5858 6.9997L1 6.9997C0.447715 6.9997 0 7.44742 0 7.9997C0 8.55199 0.447715 8.9997 1 8.9997L15.5858 8.9997L10.9289 13.6566C10.5384 14.0471 10.5384 14.6802 10.9289 15.0708C11.3195 15.4613 11.9526 15.4613 12.3431 15.0708L18.7071 8.70681C18.9 8.5139 18.9976 8.26177 19 8.00893M18.7071 7.2926C18.803 7.38847 18.8753 7.49897 18.9241 7.61692ZM18.9241 7.61692C18.9719 7.73215 18.9988 7.85824 19 7.99047Z" fill="#222222"/>
</svg>
