<svg width="79" height="108" viewBox="0 0 79 108" fill="none" xmlns="http://www.w3.org/2000/svg">
<path d="M17.7143 19.4287C17.7143 15.9572 20.5285 13.143 24 13.143H54.8571C58.3287 13.143 61.1429 15.9572 61.1429 19.4287V42.2859C61.1429 43.2326 60.3754 44.0001 59.4286 44.0001H19.4286C18.4818 44.0001 17.7143 43.2326 17.7143 42.2859V19.4287Z" stroke="black" stroke-width="3.42857"/>
<path d="M11.4286 25.1431C11.4286 23.8808 12.4519 22.8574 13.7143 22.8574H16.0844V36.8249H13.7565C12.4708 36.8249 11.4286 35.7826 11.4286 34.497V25.1431Z" fill="#FDB913"/>
<rect x="48" y="32" width="5.71429" height="16" rx="2.28571" transform="rotate(90 48 32)" fill="#FDB913"/>
<path d="M67.513 25.1431C67.513 23.8808 66.4897 22.8574 65.2273 22.8574H62.8572V36.8249H65.1851C66.4708 36.8249 67.513 35.7826 67.513 34.497V25.1431Z" fill="#FDB913"/>
<rect x="37.7143" y="6.85742" width="3.42857" height="4.57143" fill="black"/>
<path fill-rule="evenodd" clip-rule="evenodd" d="M39.4286 8C41.6377 8 43.4286 6.20914 43.4286 4C43.4286 1.79086 41.6377 0 39.4286 0C37.2194 0 35.4286 1.79086 35.4286 4C35.4286 6.20914 37.2194 8 39.4286 8ZM39.4286 2.28613C40.3754 2.28613 41.1429 3.05364 41.1429 4.00042C41.1429 4.94719 40.3754 5.7147 39.4286 5.7147C38.4818 5.7147 37.7143 4.94719 37.7143 4.00042C37.7143 3.05364 38.4818 2.28613 39.4286 2.28613Z" fill="#FDB913"/>
<circle cx="29.7143" cy="24.0001" r="4.57143" fill="#FDB913"/>
<circle cx="49.1428" cy="24.0001" r="4.57143" fill="#FDB913"/>
<rect x="16" y="49.1426" width="48" height="33.1429" rx="3.42857" fill="#FDB913"/>
<rect x="24" y="54.8574" width="4.57143" height="4.57143" fill="black"/>
<rect x="51.4286" y="54.8574" width="4.57143" height="4.57143" fill="black"/>
<path d="M51.4286 69.7147C51.4286 68.2139 51.1329 66.7278 50.5586 65.3412C49.9843 63.9546 49.1424 62.6947 48.0812 61.6335C47.02 60.5722 45.7601 59.7304 44.3735 59.1561C42.9869 58.5817 41.5008 58.2861 40 58.2861C38.4992 58.2861 37.013 58.5817 35.6265 59.1561C34.2399 59.7304 32.98 60.5722 31.9188 61.6335C30.8575 62.6947 30.0157 63.9546 29.4414 65.3412C28.867 66.7278 28.5714 68.2139 28.5714 69.7147L40 69.7147H51.4286Z" fill="black"/>
<rect x="48" y="77.7148" width="6.85714" height="19.4286" stroke="black" stroke-width="2.28571"/>
<rect width="13.7143" height="9.14286" transform="matrix(1 0 0 -1 44.5714 106.286)" stroke="black" stroke-width="2.28571"/>
<rect x="24" y="77.7139" width="6.85714" height="19.4286" stroke="black" stroke-width="2.28571"/>
<rect width="13.7143" height="9.14286" transform="matrix(1 0 0 -1 20.5714 106.285)" stroke="black" stroke-width="2.28571"/>
<path d="M67.4286 54.2854C67.4286 52.0763 69.2194 50.2854 71.4286 50.2854C73.6377 50.2854 75.4286 52.0763 75.4286 54.2854V86.4588C75.2717 86.4146 75.1072 86.3693 74.9373 86.324C73.8748 86.0407 72.4544 85.714 71.4286 85.714C70.4027 85.714 68.9823 86.0407 67.9198 86.324C67.7499 86.3693 67.5854 86.4146 67.4286 86.4588V54.2854Z" stroke="black" stroke-width="2.28571"/>
<path d="M76.3031 100.193C77.8132 99.1491 78.9482 97.6478 79.5409 95.9102C80.1337 94.1727 80.1529 92.2907 79.5957 90.5414C79.0386 88.7921 77.9345 87.268 76.446 86.1933C74.9575 85.1186 73.1634 84.5503 71.3276 84.5719C69.4919 84.5935 67.7116 85.204 66.2488 86.3134C64.7861 87.4228 63.7182 88.9725 63.2024 90.7345C62.6866 92.4964 62.7501 94.3774 63.3836 96.1005C64.0171 97.8236 65.1871 99.2977 66.7214 100.306L68.1578 98.1201C67.0917 97.4195 66.2787 96.3952 65.8385 95.1979C65.3983 94.0006 65.3542 92.6936 65.7126 91.4693C66.071 90.2451 66.813 89.1682 67.8294 88.3974C68.8458 87.6265 70.0829 87.2023 71.3584 87.1873C72.634 87.1723 73.8807 87.5672 74.9149 88.3139C75.9492 89.0607 76.7163 90.1197 77.1035 91.3352C77.4906 92.5507 77.4773 93.8584 77.0654 95.0657C76.6535 96.273 75.8649 97.3162 74.8156 98.0417L76.3031 100.193Z" fill="black"/>
<path d="M4.57145 54.2854C4.57145 52.0763 6.36231 50.2854 8.57145 50.2854C10.7806 50.2854 12.5714 52.0763 12.5714 54.2854V86.4588C12.4146 86.4146 12.2501 86.3693 12.0802 86.324C11.0177 86.0407 9.5973 85.714 8.57145 85.714C7.54559 85.714 6.12522 86.0407 5.06269 86.324C4.8928 86.3693 4.72827 86.4146 4.57145 86.4588V54.2854Z" stroke="black" stroke-width="2.28571"/>
<path d="M13.446 100.193C14.9561 99.1491 16.091 97.6478 16.6838 95.9102C17.2765 94.1727 17.2958 92.2907 16.7386 90.5414C16.1814 88.7921 15.0774 87.268 13.5889 86.1933C12.1004 85.1186 10.3062 84.5503 8.4705 84.5719C6.63476 84.5935 4.85446 85.204 3.39172 86.3134C1.92897 87.4228 0.861083 88.9725 0.345271 90.7345C-0.170542 92.4964 -0.10702 94.3774 0.526484 96.1005C1.15999 97.8236 2.33 99.2977 3.86426 100.306L5.30066 98.1201C4.23458 97.4195 3.4216 96.3952 2.98141 95.1979C2.54122 94.0006 2.49708 92.6936 2.85549 91.4693C3.21391 90.2451 3.95593 89.1682 4.97231 88.3974C5.9887 87.6265 7.22574 87.2023 8.5013 87.1873C9.77687 87.1723 11.0235 87.5672 12.0578 88.3139C13.0921 89.0607 13.8592 90.1197 14.2464 91.3352C14.6335 92.5507 14.6202 93.8584 14.2083 95.0657C13.7964 96.273 13.0078 97.3162 11.9585 98.0417L13.446 100.193Z" fill="black"/>
<rect x="27.4286" y="45.7139" width="3.42857" height="3.42857" fill="black"/>
<rect x="49.1429" y="45.7139" width="3.42857" height="3.42857" fill="black"/>
</svg>
