<svg width="272" height="272" viewBox="0 0 272 272" fill="none" xmlns="http://www.w3.org/2000/svg">
<path d="M178.301 0.0533614C198.419 0.0533614 218.536 0.0533614 238.653 0.0533614C257.341 0.0533614 271.052 13.7595 271.052 32.3871C271.052 71.9708 271.052 111.554 271.052 151.138C271.052 169.289 257.764 183.101 239.553 183.26C209.589 183.472 179.572 183.313 149.608 183.313C144.684 183.313 141.296 180.561 140.502 176.169C139.814 172.518 142.09 168.337 145.796 167.12C147.49 166.538 149.449 166.432 151.249 166.432C180.207 166.379 209.112 166.432 238.071 166.432C246.594 166.432 252.259 162.251 253.9 154.631C254.164 153.519 254.164 152.355 254.164 151.244C254.164 111.66 254.164 72.0766 254.164 32.4929C254.164 23.1262 247.97 16.9876 238.547 16.9876C198.524 16.9876 158.449 16.9876 118.426 16.9876C110.22 16.9876 105.085 21.3269 104.873 29.5294C104.503 44.3469 104.662 59.1643 104.609 73.9817C104.556 89.6987 104.609 105.363 104.609 121.08C104.609 124.096 104.026 126.901 101.538 128.912C98.8383 131.082 95.7678 131.558 92.5914 130.076C89.415 128.647 87.7209 126.054 87.7209 122.562C87.668 116.211 87.668 109.861 87.668 103.511C87.668 80.0674 87.668 56.6241 87.668 33.128C87.668 27.7302 88.1974 22.3853 90.5267 17.4109C95.609 6.29784 104.291 0.317958 116.414 0.212119C137.008 -0.105397 157.655 0.0533614 178.301 0.0533614Z" fill="#FDB913"/>
<path d="M206.255 52.125C205.302 52.125 204.402 52.125 203.449 52.125C194.555 52.125 185.608 52.1779 176.715 52.0721C172.85 52.0192 169.885 49.6378 168.879 46.1451C167.874 42.6525 168.879 39.0539 171.95 37.043C173.538 35.9846 175.709 35.2967 177.615 35.2967C194.026 35.1908 210.437 35.1908 226.849 35.2437C232.513 35.2437 236.06 38.7364 236.06 44.24C236.113 60.645 236.113 77.05 236.06 93.455C236.06 98.0061 233.149 101.552 229.178 102.24C224.731 102.981 220.919 100.811 219.596 96.6831C219.225 95.5189 219.172 94.2488 219.172 93.0317C219.12 84.4588 219.172 75.9387 219.12 67.3658C219.12 66.5191 219.12 65.6724 219.12 64.8257C218.696 64.5082 218.325 64.2436 217.902 63.926C217.425 64.8786 217.108 65.9899 216.42 66.6778C161.203 121.873 105.987 177.015 50.8232 232.21C48.4409 234.591 45.9527 236.231 42.4586 235.649C39.2293 235.12 36.9529 233.321 35.8411 230.252C34.7823 227.235 35.2058 224.325 37.3234 221.837C37.9587 221.097 38.6469 220.461 39.3352 219.774C94.3399 164.79 149.345 109.807 204.349 54.8239C205.09 54.083 206.043 53.6068 206.837 53.0246C206.679 52.7601 206.467 52.4425 206.255 52.125Z" fill="black"/>
<path d="M65.4339 270.947C52.3577 270.947 39.3344 270.947 26.2583 270.947C10.8527 270.947 0 260.098 0 244.646C0 218.663 0 192.626 0 166.643C0 151.561 11.2762 140.289 26.4171 140.289C42.2991 140.289 58.1811 140.289 74.0631 140.289C77.7689 140.289 80.5218 141.982 82.0041 145.369C83.3805 148.492 82.957 151.614 80.6806 154.26C78.8277 156.377 76.4983 157.223 73.6396 157.223C58.1282 157.17 42.6167 157.17 27.0524 157.223C20.3819 157.223 16.8879 160.663 16.8879 167.278C16.8879 192.997 16.8879 218.768 16.8879 244.487C16.8879 250.785 20.1702 254.066 26.523 254.066C52.3577 254.066 78.1924 254.066 104.027 254.066C110.698 254.066 113.927 250.891 113.927 244.223C113.927 229.035 113.927 213.9 113.98 198.712C113.98 197.072 114.139 195.325 114.668 193.791C115.886 190.245 119.909 187.969 123.509 188.499C127.48 189.081 130.603 192.15 130.762 196.066C130.974 200.617 130.868 205.221 130.868 209.825C130.868 221.467 130.656 233.11 130.921 244.752C131.238 260.151 119.009 271.212 104.557 271C91.5333 270.788 78.4571 270.947 65.4339 270.947Z" fill="#FDB913"/>
</svg>
