<svg width="75" height="69" viewBox="0 0 75 69" fill="none" xmlns="http://www.w3.org/2000/svg">
<line x1="26.2443" y1="24.6549" x2="13.2443" y2="9.65537" stroke="#FDB913" stroke-width="2"/>
<line x1="25.7575" y1="27.9701" x2="9.75747" y2="23.9701" stroke="#FDB913" stroke-width="2"/>
<line x1="25.669" y1="30.7433" x2="15.669" y2="39.7433" stroke="#FDB913" stroke-width="2"/>
<line x1="30.9417" y1="31.6637" x2="40.9417" y2="59.6637" stroke="#FDB913" stroke-width="2"/>
<line x1="44.8211" y1="30.9839" x2="33.8211" y2="28.9839" stroke="#FDB913" stroke-width="2"/>
<line x1="30.0338" y1="23.7423" x2="34.0338" y2="8.74234" stroke="#FDB913" stroke-width="2"/>
<line x1="32.5114" y1="25.1275" x2="57.5114" y2="11.1275" stroke="#FDB913" stroke-width="2"/>
<circle cx="49" cy="32" r="4" fill="black" stroke="#FDB913" stroke-width="2"/>
<circle cx="29" cy="28" r="4" fill="black" stroke="#FDB913" stroke-width="2"/>
<circle cx="11" cy="7" r="4" fill="black" stroke="#FDB913" stroke-width="2"/>
<circle cx="35" cy="5" r="4" fill="black" stroke="#FDB913" stroke-width="2"/>
<circle cx="61" cy="9" r="4" fill="black" stroke="#FDB913" stroke-width="2"/>
<circle cx="5" cy="23" r="4" fill="black" stroke="#FDB913" stroke-width="2"/>
<circle cx="13" cy="43" r="4" fill="black" stroke="#FDB913" stroke-width="2"/>
<circle cx="43" cy="64" r="4" fill="black" stroke="#FDB913" stroke-width="2"/>
<circle cx="60" cy="41" r="4" fill="#FDB913" stroke="black" stroke-width="2"/>
<circle cx="21" cy="60" r="4" fill="#FDB913" stroke="black" stroke-width="2"/>
<circle cx="70" cy="58" r="4" fill="#FDB913" stroke="black" stroke-width="2"/>
<circle cx="66" cy="25" r="4" fill="#FDB913" stroke="black" stroke-width="2"/>
<line x1="55.4586" y1="42.8886" x2="24.4586" y2="58.8886" stroke="black" stroke-width="2"/>
<line x1="64.9363" y1="29.3511" x2="61.9363" y2="37.3511" stroke="black" stroke-width="2"/>
<line x1="61.8575" y1="44.4855" x2="67.8575" y2="54.4855" stroke="black" stroke-width="2"/>
</svg>
