<svg xmlns="http://www.w3.org/2000/svg" width="780" height="540" fill="none" xmlns:v="https://vecta.io/nano"><path d="M60.414 174.5C57.238 108.121 100.377 63.835 194 72.5s165.78 3.167 270.961-36.385 187.118-5.877 246.329 65.254 39.425 85.87 29.74 237.053S726.5 485.5 525.001 480.5c-113.032 5.336-320.001 2-424.001 2-87.435-5.067-66-2-40.586-106.929s3.176-134.693 0-201.071z" fill="#fbfcfd"/><path d="M198.196 186.729c1.966 0 3.561 2.678 3.561 5.981s-1.595 5.981-3.561 5.981-3.56-2.677-3.56-5.981 1.594-5.981 3.56-5.981zm-15.582 7.977c0 3.302 1.595 5.981 3.561 5.981s3.56-2.677 3.56-5.981-1.595-5.981-3.56-5.981-3.561 2.679-3.561 5.981z" fill="#cce4ee"/><path d="M196.53 186.729a2.24 2.24 0 0 1 .834.172c-1.563.631-2.727 2.989-2.727 5.808s1.164 5.177 2.727 5.808a2.2 2.2 0 0 1-.834.171c-1.706 0-3.129-2.016-3.476-4.707l-3.191.649-.256-1.265 3.364-.684c.008-3.288 1.598-5.952 3.559-5.952zm-24.479 2.869l8.914 5.645c.161 3.052 1.685 5.444 3.544 5.444a2.24 2.24 0 0 0 .833-.171c-1.563-.631-2.726-2.989-2.726-5.808s1.163-5.177 2.726-5.808a2.22 2.22 0 0 0-.833-.172c-1.769 0-3.233 2.17-3.51 5.012l-8.257-5.23-.691 1.088z" fill="#01b3c9"/><path d="M287.106 150.234c-6.688 0-12.11 5.422-12.11 12.11s5.422 12.109 12.11 12.109 12.11-5.422 12.11-12.109-5.422-12.11-12.11-12.11zm0 22.528c-5.754 0-10.42-4.666-10.42-10.42s4.666-10.42 10.42-10.42 10.42 4.666 10.42 10.42-4.666 10.42-10.42 10.42zm17.093-21.926l5.031-6.74-5.313-5.037-6.358 5.492c-1.807-1.069-3.789-1.867-5.896-2.344l-.986-8.354h-7.322l-.837 8.359a20.44 20.44 0 0 0-5.894 2.354l-6.396-5.557-5.328 5.022 5.082 6.849a20.43 20.43 0 0 0-2.882 6.667l-8.364.79-.039 7.321 8.348 1.03c.555 2.515 1.568 4.857 2.952 6.933l-5.144 6.642 5.312 5.036 6.463-5.382c1.805 1.072 3.787 1.873 5.893 2.353l.837 8.36h7.322l.986-8.354c2.065-.468 4.012-1.245 5.79-2.283l6.392 5.357 5.328-5.022-5.053-6.562a20.44 20.44 0 0 0 2.996-6.861l8.36-.942.04-7.321-8.355-.882c-.564-2.509-1.578-4.849-2.965-6.924zm-17.093 26.262c-8.205 0-14.855-6.651-14.855-14.856s6.65-14.855 14.855-14.855 14.856 6.65 14.856 14.855a14.86 14.86 0 0 1-14.856 14.856zm99.659 114.201c-3.546-9.797-13.041-16.689-24.029-16.417-13.748.34-24.619 11.76-24.28 25.509s11.761 24.619 25.509 24.28c9.464-.234 17.565-5.718 21.583-13.598-.008 7.978.622 14.714 1.623 19.333l.903 3.992-6.65-5.3c-2.936 1.814-6.166 3.198-9.607 4.068l-1.307 14.041-12.269.303-1.747-13.977a34.26 34.26 0 0 1-9.972-3.699l-10.608 9.289-9.111-8.222 8.346-11.343a34.27 34.27 0 0 1-5.233-11.495l-14.033-1.382-.237-12.271 13.986-1.672c.846-4.069 2.406-7.88 4.555-11.292l-8.8-11.269 8.721-8.636 10.948 9.048c2.98-1.872 6.27-3.296 9.78-4.19l1.054-14.045 12.27-.303 1.997 13.959c3.55.713 6.907 1.969 9.977 3.686l10.428-9.467 2.339 2.11c-3.056 9.716-5.018 19.641-6.136 28.96zm-23.912-11.649c-11.207.276-20.07 9.587-19.793 20.795s9.588 20.068 20.795 19.792 20.07-9.586 19.793-20.795-9.586-20.068-20.795-19.792zm.932 37.755a17.47 17.47 0 0 1-17.892-17.03 17.47 17.47 0 0 1 17.03-17.893 17.47 17.47 0 0 1 17.892 17.03 17.47 17.47 0 0 1-17.03 17.893zm74.625 71.045v56.019H434v-57.412c1.482.498 2.956.968 4.41 1.393z" fill="#d0d0d0"/><path d="M525.917 444.468H309.173v13.03h216.744v-13.03z" fill="#788f9c"/><path d="M176.432 257.254h61.958v43.026h-42.844-19.114-2.4l-1.354-3.301c2.275 1.423 7.156 3.83 8.57 3.198 1.687-.755 6.808-1.163 8.16-1.43s3.88-1.736 3.077-2.813-4.401-2.56-5.296-2.682-7.234-3.663-7.234-3.663.498-.384 1.626-.291 2.807.725 3.8-.033 2.67-2.867 2.221-3.529-1.693.296-3.671.208-4.625-1.559-7.303-2.068-5.258 1.365-5.258 1.365l-4.422-2.239-1.737-4.236h11.221v-21.512h0zm402.198-37.707c.075.58.069 1.416.443 2.407.622 1.649 2.599 3.48 3.769 5.606.593 1.075.921 2.308 1.1 3.267l24.286 20.048 3.386-4.102-32.984-27.226zm10.951-55.465l-5.483.101-12.918 55.912.44.562 5.324 4.394c-.023-.064-.029-.114-.059-.181-.39-.927-1.39-2.173-1.023-3.223.304-.869 1.259-2.377 1.967-2.761l-.763-.631 12.515-54.173z" fill="#673280"/><path d="M346.061 354.807a3.01 3.01 0 0 1-3.007 3.009 3.01 3.01 0 0 1-3.007-3.009 3.01 3.01 0 0 1 3.007-3.007 3.01 3.01 0 0 1 3.007 3.007zm-29.533-114.783l11.337 1.197-.054 9.933-11.342 1.277a27.75 27.75 0 0 1-4.065 9.309l6.855 8.904-7.23 6.813-8.673-7.27c-2.412 1.41-5.053 2.464-7.854 3.1l-1.338 11.334h-9.934l-1.135-11.345c-2.856-.651-5.547-1.737-7.994-3.193l-8.769 7.304-7.208-6.834 6.98-9.012a27.7 27.7 0 0 1-4.005-9.405l-11.326-1.399.053-9.934 11.349-1.074c.765-3.275 2.105-6.328 3.911-9.046l-6.895-9.294 7.229-6.813 8.678 7.54c2.449-1.456 5.14-2.542 7.997-3.194l1.135-11.344h9.934l1.338 11.334a27.7 27.7 0 0 1 7.999 3.181l8.627-7.451 7.208 6.834-6.826 9.144a27.76 27.76 0 0 1 4.018 9.404zm-7.054 6.075c0-11.131-9.023-20.154-20.155-20.154s-20.154 9.023-20.154 20.154 9.023 20.155 20.154 20.155 20.155-9.023 20.155-20.155zm-20.155-9.762a9.9 9.9 0 0 0-9.897 9.898 9.9 9.9 0 0 0 9.897 9.898 9.9 9.9 0 0 0 9.898-9.898 9.9 9.9 0 0 0-9.898-9.898zm269.288 55.704c-.861-7.744-26.961-32.697-32.564-42.735s-.133-17.782-.133-17.782c4.589-129.639-111.856-123.903-111.856-123.903s12.045 95.509-8.605 127.344c-2.613 4.029-4.898 8.301-6.921 12.708h32.794v-17.868h22.331v-21.067h20.027c.564-1.493 1.996-2.561 3.687-2.561 2.184 0 3.953 1.771 3.953 3.953s-1.769 3.953-3.953 3.953c-1.766 0-3.243-1.165-3.75-2.764h-17.382v18.484h39.833c.514-1.585 1.986-2.74 3.743-2.74 2.184 0 3.953 1.769 3.953 3.953a3.95 3.95 0 0 1-3.953 3.952c-1.698 0-3.136-1.078-3.694-2.583h-62.213v17.868h-36.535c-2.188 5.1-4.024 10.365-5.539 15.664h76.539c.537-1.545 1.991-2.662 3.72-2.662 2.183 0 3.952 1.769 3.952 3.952s-1.769 3.953-3.952 3.953c-1.729 0-3.182-1.117-3.72-2.662h-77.233c-1.445 5.414-2.593 10.84-3.439 16.139h45.798v50.892h22.003v-25.446h29.362c.537-1.546 1.992-2.663 3.719-2.663 2.183 0 3.952 1.769 3.952 3.953a3.95 3.95 0 0 1-3.952 3.952c-1.729 0-3.183-1.117-3.72-2.662h-26.78v22.865h50.944c.559-1.505 1.996-2.582 3.694-2.582 2.184 0 3.953 1.77 3.953 3.953s-1.769 3.952-3.953 3.952c-1.758 0-3.23-1.156-3.743-2.741h-78.06v-50.892h-43.605c-2.609 18.108-2.036 34.427-.139 43.184 3.664 16.906 9.476 35.809 28.171 47.891v66.171h4.41V380.91c18.553 10.147 38.208 10.9 47.936 14.953 10.326 4.301 12.906 6.883 24.093 10.038s24.953.574 29.254-9.178 2.294-25.813 3.729-30.115 12.045-8.891 12.333-12.333-5.162-8.605-5.162-8.605 7.17-5.45 7.744-10.326-5.45-8.03-5.45-8.03.574-9.465.861-10.326c.286-.854 24.379-17.203 23.518-24.947zm-160.881-42.607l.802-1.761h-.022l-.78 1.761zm-.363.821h.005l.057-.139-.062.139zM351.322 352.92l3.445.364-.016 3.019-3.447.388c-.239 1.026-.661 1.982-1.235 2.828l2.084 2.706-2.197 2.07-2.636-2.209a8.38 8.38 0 0 1-2.386.941l-.406 3.444h-3.019l-.344-3.447a8.45 8.45 0 0 1-2.43-.969l-2.664 2.219-2.191-2.076 2.121-2.739c-.57-.856-.987-1.821-1.217-2.857l-3.441-.426.016-3.018 3.449-.327c.232-.995.64-1.923 1.188-2.749l-2.095-2.823 2.197-2.071 2.637 2.291a8.48 8.48 0 0 1 2.43-.971l.344-3.446h3.019l.406 3.443a8.45 8.45 0 0 1 2.431.967l2.622-2.264 2.191 2.076-2.075 2.779a8.46 8.46 0 0 1 1.219 2.857zm-2.144 1.847c0-3.383-2.741-6.124-6.124-6.124s-6.124 2.741-6.124 6.124 2.742 6.124 6.124 6.124 6.124-2.741 6.124-6.124zm41.933-86.266h.024l.693-2.581-.717 2.581zM95.377 482.523h31.417l13.328-48.553H83l12.377 48.553z" fill="#cce4ee"/><path d="M91.193 406.836c8.49 5.922 15.345 2.458 16.967 1.469-4.246-6.849-14.349-15.63-14.349-15.63 6.297 3.398 12.072 10.253 15.001 14.105 2.906-14.706-10.487-16.974-15.358-19.758-4.166-2.38-5.712-7.359-5.712-7.359s-6.783 20.033 3.451 27.173zm20.122-14.505l.702-24.885.815 25.038c2.975-.74 12.269-4.057 13.467-16.827 1.427-15.233-15.114-27.014-15.114-27.014s2.973 5.848-3.451 13.566c-7.819 9.393-6.445 24.272 3.581 30.122zm13.635 8.594c-5.551 2.668-7.987 8.804-8.926 12.096 7.539-5.417 15.274-4.163 15.274-4.163-7.942.612-12.706 3.854-15.335 6.529 1.592.607 7.426 2.481 15.514.968 13.631-2.551 13.309-19.794 13.309-19.794-4.445 5.633-11.584.396-19.836 4.364z" fill="#dbffd8"/><path d="M398.505 247.672h32.816v-17.868h22.331v-21.066h20.027c.563-1.493 1.995-2.561 3.687-2.561 2.183 0 3.952 1.77 3.952 3.952s-1.769 3.953-3.952 3.953c-1.766 0-3.243-1.165-3.75-2.763h-17.382v18.485h39.832c.515-1.586 1.987-2.74 3.744-2.74a3.95 3.95 0 1 1 0 7.905c-1.699 0-3.137-1.078-3.695-2.583h-62.212v17.868h-36.539l1.141-2.582zm-.232 196.796h4.411v-77.413c-1.632-1.985-3.092-4.048-4.408-6.165h-.004v83.578h.001zm73.813-173.307c2.183 0 3.952-1.769 3.952-3.953s-1.769-3.952-3.952-3.952c-1.729 0-3.182 1.117-3.72 2.662h-76.539l-.717 2.582h77.254c.539 1.545 1.993 2.661 3.722 2.661zm-14.009 41.506h26.78c.537 1.545 1.992 2.662 3.72 2.662 2.184 0 3.953-1.769 3.953-3.953s-1.769-3.952-3.953-3.952c-1.728 0-3.181 1.116-3.718 2.662h-29.362v25.447h-22.003v-50.892h-45.798l-.387 2.582h43.605v50.892h78.06c.513 1.587 1.985 2.741 3.744 2.741 2.183 0 3.952-1.769 3.952-3.952s-1.769-3.953-3.952-3.953c-1.699 0-3.136 1.079-3.695 2.582h-50.944v-22.866h-.002zM341.105 210.909l-12.439 16.059 12.846 12.18 15.625-13.018c4.363 2.593 9.157 4.529 14.249 5.69l2.021 20.216h17.703l2.383-20.199c4.994-1.132 9.701-3.012 13.998-5.523l1.685 1.412c3.593-8.661 5.774-19.841 7.002-31.896-5.061 13.706-18.24 23.48-33.704 23.48-19.837 0-35.921-16.082-35.921-35.921s16.082-35.92 35.921-35.92c16.999 0 31.229 11.811 34.956 27.672.378-15.036-.24-29.987-1.047-41.988l-8.636 7.458c-4.365-2.585-9.162-4.516-14.255-5.669l-2.384-20.2h-17.703l-2.021 20.216a49.42 49.42 0 0 0-14.251 5.692l-15.466-13.437-12.882 12.141 12.289 16.563c-3.221 4.843-5.605 10.284-6.97 16.12l-20.227 1.912-.095 17.703 20.185 2.493a49.4 49.4 0 0 0 7.138 16.764zm174.338 246.588H318.596L307 482.522h221.091l-12.648-25.025zM364.835 183.631c0 9.743 7.898 17.639 17.639 17.639s17.638-7.898 17.638-17.639-7.897-17.639-17.638-17.639-17.639 7.898-17.639 17.639zM302.19 325.03l3.481 4.522-3.671 3.46-4.404-3.691a14.02 14.02 0 0 1-3.99 1.573l-.679 5.756h-5.044l-.576-5.761c-1.451-.332-2.817-.883-4.06-1.622l-4.453 3.71-3.66-3.471 3.545-4.576a14.09 14.09 0 0 1-2.034-4.777l-5.753-.71.027-5.045 5.764-.544a14.08 14.08 0 0 1 1.987-4.594l-3.502-4.719 3.671-3.46 4.407 3.828a14.13 14.13 0 0 1 4.061-1.623l.576-5.761h5.044l.679 5.757a14.08 14.08 0 0 1 4.063 1.615l4.382-3.784 3.66 3.471-3.466 4.643c.956 1.429 1.656 3.043 2.04 4.775l5.758.607-.027 5.044-5.76.649c-.399 1.716-1.106 3.314-2.066 4.728zm-1.487-7.942a10.24 10.24 0 0 0-10.237-10.237 10.24 10.24 0 0 0-10.236 10.237 10.24 10.24 0 0 0 10.236 10.236 10.24 10.24 0 0 0 10.237-10.236zm-1.893.068c0 4.609-3.736 8.344-8.344 8.344a8.35 8.35 0 0 1-8.345-8.344c0-4.609 3.737-8.343 8.345-8.343s8.344 3.736 8.344 8.343zm-1.163 0c0-3.964-3.215-7.18-7.179-7.18a7.18 7.18 0 1 0 0 14.36 7.18 7.18 0 0 0 7.179-7.18zm-184.442 97.89l-1.546-47.602-1.19 42.128s-7.974-12.02-17.019-16.899c0 0 14.519 12.614 16.065 19.397l-.104 21.897h3.437v-14.875s4.165-9.163 18.089-10.234c0 0-9.521-1.547-17.732 6.188z" fill="#5a6670"/><path d="M634.137 463.243l1.912 6.515h-1.039-.918v3.545l-17.101 6.591c-.766.355-.849 1.365-.816 2.024h-87.133-1.256l-12.344-24.422h10.475v-13.03h-19.719c-.557-1.705-.652-3.532 1.078-4.233 3.583-1.451 7.293 3.579 7.293 3.579s-.639-8.028 2.943-9.188 6.397 4.158 6.397 4.158 2.303-12.96 5.886-14.023 6.78 4.641 6.78 4.641 15.609-23.211 28.148-20.697.257 27.467.257 27.467 3.326-3.869 7.677-3.288 1.508 6.576 1.508 6.576 6.168-5.513 10.518-5.224.768 6.77.768 6.77 1.92-1.643 6.909 0 1.023 11.606 1.023 11.606 5.885-7.93 11.259-6.673.897 9.382.897 9.382 8.956-5.899 12.794-4.836 1.92 9.188 1.92 9.188 2.55-5.601 8.16-5.916l2.914 9.485h2.81v.003zm68.763 16.548c-7.548-.966-9.339-.871-12.794-2.32-2.558-1.074-4.907-3.203-7.875-4.317v8.766h40.244c0-.002-12.026-1.162-19.575-2.129zm-35.313-13.347c-5.502-.774-8.188 2.515-8.188 2.515s2.174-8.414-1.535-9.576-7.548 3.869-7.548 3.869 1.151-9.865-4.99-10.833c-1.236-.195-2.386.143-3.439.785l1.381 10.039h-2.231l.665 6.515h2.403v12.16h10.2c-.032-.659.051-1.669.816-2.024 1.168-.543 17.102-6.591 17.102-6.591v-3.087c-.74-1.721-2.099-3.416-4.636-3.772zm-289.905-21.976c-.441-4.585-2.349-10.681-9.32-11.301-11.303-1.006-16.401 10.219-16.401 10.219s3.325-14.072-3.324-15.916-22.163 8.377-22.163 8.377 7.758-14.073-1.551-16.25-19.503 11.559-19.503 11.559 6.87-17.255-1.774-20.104-11.967 0-11.967 0 6.206-11.225-1.331-11.728-18.22 9.046-18.22 9.046 4.923-10.387-2.612-11.392-13.297 5.696-13.297 5.696 21.277-43.224-.443-47.579-48.758 35.851-48.758 35.851-.359-.638-.991-1.557l-8.193 79.113h-2.424l-.7 6.897h.273.512v1.978l9.54 3.676c.331.154.432.53.453.862h101.79l11.316-24.422h-9.423v-13.03h68.511v.005zm-210.165 24.037l-5.284-58.321c-1.856-.898-3.922-1.299-5.968-.472-6.206 2.514 1.108 13.403 1.108 13.403s-10.194-5.193-15.735-2.849 5.541 18.094 5.541 18.094-4.958-3.636-8.132-1.79l-2.219 8.083c.821 4.331 3.479 8.115 3.479 8.115s-2.192-1.306-5.016-2.519l-8.694 31.669h43.844v-6.516h.389l-.7-6.897h-2.613 0zm235.166-24.037h1.449c-.126-2.242-.509-4.88-1.449-7.262v7.262zm-216.037 24.037l-1.387-62.263-.182.957s-1.836-3.454-4.682-5.671l-1.69 66.977h-2.765l-.7 6.897h.273.512v1.978l9.54 3.676c.332.154.432.53.453.862h3.891v-6.516h.39l-.7-6.897h-2.953zm228.693-24.037v-1.856c-2.024-.061-4 .749-5.726 1.856h5.726zm-35.488 0h18.422v-12.641c-.844-.464-1.777-.834-2.873-1.007-7.146-1.124-12.678 7.715-15.549 13.648zM89.557 470.023s-3.99-5.529-11.303-3.852-8.866 15.747-8.866 15.747h25.474l-5.056-19.837c-2.07 3.259-.249 7.942-.249 7.942z" fill="#dbffd8"/><path d="M189.603 468.505h5.808l-.7 6.899h-4.41l-.698-6.899zm2.884-172.573c-.802-1.077-4.401-2.559-5.296-2.682s-7.236-3.663-7.236-3.663.499-.383 1.626-.291 2.807.725 3.801-.032 2.669-2.867 2.22-3.529-1.692.295-3.67.207-4.625-1.559-7.304-2.067-5.258 1.365-5.258 1.365l-11.319-5.731-3.523 6.958 11.319 5.73 3.842 4.095c1.244 1.065 7.873 4.637 9.56 3.882s6.807-1.163 8.16-1.43 3.881-1.735 3.078-2.812zm-7.979-107.206a2.24 2.24 0 0 1 .833.172c.269-.109.546-.172.834-.172 1.69 0 3.102 1.981 3.466 4.636l3.331-.677c.009-3.204 1.517-5.805 3.405-5.941.075-.898.178-1.778.271-2.647-1.755-.111-3.949-2.437-3.949-2.437s-.161 3.63-3.711 5.324c-3.404 1.625-10.575 1.991-13.224 3.44l5.234 3.314c.277-2.841 1.741-5.012 3.51-5.012zm8.544 5.258l-3.19.649-.177-.871c.028.309.049.622.049.944 0 3.302-1.595 5.981-3.56 5.981-.288 0-.566-.064-.834-.172-.269.109-.546.172-.834.172-1.858 0-3.381-2.393-3.544-5.444l-6.279-3.977c-1.374 1.525-.701 3.3-.701 3.3s-1.454-.767-1.578-4.743l-.354-.224.346-.546c.002-.007.857-3.657-2.796-4.624s-5.056 6.132-2.689 9.251 3.979 3.872 4.84 4.947 1.657 12.612 1.657 12.612.55 4.183-.33 6.933c-.325 1.014-1.398 2.222-2.622 3.344.001.003 2.072 4.215 8.739 4.539s10.539-3.441 10.539-3.441c-1.093-.852-2.039-1.811-2.46-2.792-1.32-3.082-1.73-7.1.03-8.201s4.252-2.404 6.454-4.276c1.468-1.247 2.852-4.753 3.223-8.71a2.13 2.13 0 0 1-.452.053c-1.705.002-3.129-2.013-3.477-4.704zm-22.22 281.418h4.41l.7-6.898h-5.808l.698 6.898zm442.229-185.366l.061.121-1.802 1.721s-3.045-1.059-5.491.218-4.578 3.475-6.468 4.139-3.375.101-3.615.874 2 2.322 3.184 2.767 2.625-.661 3.69-1.08 1.659-.194 1.659-.194-5.103 5.284-5.933 5.665-3.881 2.87-4.344 4.146 2.415 1.96 3.802 1.823 6.467-1.241 8.321-1.004 7.227-5.162 8.12-6.558 2.522-5.089 2.522-5.089l.099-.094.049.095 25.906-20.884c.164-1.772.249-3.375.225-4.718-.068-3.785-.848-7.588-1.871-11.114l-28.114 29.166zm60.303 173.207l.813 6.515h5.652v-6.515h-6.465zm-35.905-206.362l-11.013-11.93-11.41 12.672-22.609-18.434-8.276-6.752s-.14-2.754-1.311-4.877-3.147-3.957-3.769-5.606-.157-2.966-.842-3.162-2.003 1.805-2.37 2.855.634 2.296 1.024 3.223.204 1.456.204 1.456-4.748-4.382-5.1-5.105-2.599-3.356-3.733-3.738-1.676 2.163-1.527 3.38 1.22 5.661 1.047 7.298 4.683 6.252 5.929 7.01 4.264 2.168 4.265 2.168l39.117 37.84 20.374-18.298zm17.933-65.525c.444-1.663 1.552-1.331 2.884-4.618s-.332-5.034-2.552-4.368-1.715 2.772-1.715 2.772-10.376-.222-13.039-2.995c-2.274-2.368-2.561-4.136-2.597-4.604l-.053.421-.079.965a32.25 32.25 0 0 0 .027 4.589s-1.814 5.352-1.872 6.351c-.042.71 1.804 1.538 1.872 2.139s.635 7.487 3.275 8.825c3.674 1.86 5.082 1.738 6.151 2.474.707.487.683 4.262.586 6.772l13.117-3.961c.091-1.678.302-4.523.757-7.035l-.001.003s-7.206-6.066-6.761-7.73zm-21.254 271.887l1.912 6.515h5.651l-.665-6.515h-6.898z" fill="#ffd2bb"/><path d="M167.518 468.505h11.187l2.776-109.958h2.716l2.449 109.958h11.188l14.437-139.404h-57.384l12.631 139.404zm489.724-73.859l13.048 68.597h11.941l-.213-150.137h-46.247l-27.426 75.37 22.978 74.767h11.943l-10.1-73.438 18.312-38.483 3.071-1.365 2.693 44.689z" fill="#2b4161"/><path d="M634.095 473.295v-3.545h.917 9.094v12.764h-27.863s-.418-2.085.75-2.628 17.102-6.591 17.102-6.591zm38.129 0v-3.545h.917 9.094v12.764h-27.863s-.418-2.085.75-2.628 17.102-6.591 17.102-6.591zm-466.762 9.226s.233-1.163-.419-1.466-9.54-3.677-9.54-3.677V475.4h-.512-5.072v7.121h15.543zm-29.428-7.121v1.978l9.54 3.677c.652.303.419 1.466.419 1.466H170.45V475.4h5.073.511z" fill="#333"/><path d="M176.432 257.254h48.395c-4.725-10.259-10.421-21.59-12.502-23.669-3.657-3.657-22.59-10.97-22.59-10.97s-3.871 3.763-10.539 3.44-8.739-4.539-8.739-4.539c-28.531 11.596-41.171 50.146-38.159 54.342s21.728 10.863 21.728 10.863v42.38h57.87l-.463-28.823h-15.887-19.114-2.4l-1.354-3.3c-.437-.273-.788-.513-.988-.685-1.244-1.065-3.842-4.094-3.842-4.094l-11.319-5.731 3.523-6.957 6.897 3.491-1.736-4.236h11.22v-21.512h-.001zm-19.133 12.472l-.77 2.367-5.086-4.518 5.856-12.907v15.058zm478.471 43.383s7.483-29.731 7.276-41.125c-.108-5.906-1.941-11.866-3.739-16.73l-1.848 1.627-13.259-14.362 20.686-25.849 1.598-6.048 16.309-4.927s2.812 1.557 5.828 4.254c0 0 9.838 13.637 8.136 35.844-.808 10.545-.265 19.984-.631 26.555-.622 11.187 5.771 40.759 5.771 40.759H635.77v.002z" fill="#fbc02d"/><path d="M220.773 161.78c-.161.597-2.258 3.662-5.727 5.034s-4.518 1.856-4.114 2.501 2.34.081 2.582.485-1.855 4.599-5.083 7.583-9.544 6.373-11.348 6.696-4.385-2.421-4.385-2.421-.161 3.63-3.71 5.325c-3.404 1.624-10.575 1.991-13.224 3.439l-3.024-1.915-.344.544c.001-.007.856-3.657-2.797-4.623s-5.056 6.131-2.689 9.25 3.979 3.872 4.84 4.947 1.657 12.613 1.657 12.613-8.864-4.761-13.166-10.247-6.884-16.135-2.367-26.891 20.33-13.015 26.139-12.154 36.921-.762 36.76-.166zm-48.368 28.042c.124 3.977 1.578 4.743 1.578 4.743s-.671-1.775.701-3.299l-2.279-1.444zm529.244 2.311c-5.325-8.653-.887-23.962-9.984-35.276s-22.852 5.791-22.852 5.791-6.758-3.129-14.804-3.241-13.4 4.819-15.284 9.7c-1.295 3.356-.532 10.396-.532 10.396l.173-2.092s-.059 1.965 2.604 4.738 13.039 2.994 13.039 2.994-.503-2.107 1.715-2.772 3.882 1.081 2.552 4.368-2.44 2.954-2.885 4.618 6.761 7.732 6.761 7.732 2.336-4.07 7.106-6.844 6.434-11.87 5.657-16.752-2.779-9.096-2.779-9.096 7.105-1.562 10.211 8.759-.444 14.759 8.653 22.079 27.954 6.435 27.954 6.435-11.98-2.885-17.305-11.537z" fill="#333"/></svg>