<svg width="40" height="40" viewBox="0 0 40 40" fill="none" xmlns="http://www.w3.org/2000/svg">
<path d="M26.8415 39.2901C26.3789 39.0653 26.1773 38.8286 26.3315 38.2843C26.4856 37.7756 26.2484 37.4443 25.7029 37.3733C25.3708 37.3378 25.0387 37.2904 24.7066 37.2786C24.2441 37.2668 23.7697 37.2786 23.2834 37.2786C23.236 36.7698 23.1055 36.2847 23.1767 35.8351C23.2953 35.0423 23.6036 34.2733 23.7222 33.4805C23.8408 32.6404 23.485 31.753 23.9713 30.9484C23.995 30.9011 23.995 30.8301 23.9832 30.7709C23.8052 30.132 23.995 29.5522 24.1255 28.937C24.2085 28.511 24.3271 28.085 24.4101 27.6709C24.4931 27.2686 24.422 26.7835 24.2559 26.3931C23.9832 25.7423 24.1018 25.3992 24.8015 25.2453C25.3945 25.1152 25.7266 24.7484 25.6317 24.2988C25.442 23.4587 25.2759 22.6186 25.0387 21.7904C24.932 21.3999 24.9557 21.2106 25.3827 21.0331C25.9519 20.7965 26.4382 20.3587 26.367 19.6961C26.3077 19.2583 26.4382 19.0453 26.7347 18.8323C27.4938 18.2999 27.6479 17.6018 27.3633 16.7617C27.2566 16.4422 27.1735 16.1228 27.0787 15.8033C26.6873 14.4189 26.1654 13.0583 25.9401 11.6502C25.6554 9.88724 25.0743 8.21891 24.4694 6.56241C24.339 6.20745 23.9832 5.92348 23.6985 5.66317C23.3546 5.34371 22.9395 5.0834 22.5718 4.7876C22.2634 4.53912 21.9669 4.25515 21.6704 3.99484C21.5874 4.01851 21.4925 4.054 21.4095 4.07767C21.4688 3.61622 21.5281 3.14293 21.5993 2.68148C21.8009 1.40361 21.2434 -0.193728 19.4288 0.0192499C18.4444 0.137571 17.5431 0.350549 17.1754 1.42727C16.9263 2.16086 17.0094 2.90629 17.1517 3.66354C17.3296 4.52729 17.638 5.29638 18.4919 5.92348C18.1954 6.16012 18.0056 6.39676 17.7684 6.49142C16.6536 6.91738 16.1554 7.81662 15.7878 8.84601C15.2541 10.3605 14.6729 11.8632 14.0918 13.3541C13.8901 13.8747 13.8783 14.3125 14.3052 14.7621C14.839 15.33 14.8983 16.0873 14.6136 16.7262C14.3883 17.235 14.3883 17.6964 14.4001 18.2052C14.4001 18.2052 14.4001 18.2052 14.412 18.2052C14.3171 18.4419 14.0918 18.7732 14.1629 18.8678C14.495 19.2819 14.1036 19.5896 14.1036 19.9327C14.1036 20.5362 14.2104 21.1159 14.7322 21.5419C15.4794 22.1335 15.4913 22.1572 15.1829 23.0446C15.0524 23.4114 14.8271 23.7427 14.6492 24.0976C14.3408 24.7366 14.578 25.1152 15.2659 25.127C15.5624 25.1388 15.8589 25.2217 16.1436 25.1862C16.6298 25.1152 16.6891 25.3637 16.7247 25.766C16.784 26.5705 16.784 27.3988 16.9975 28.1679C17.1517 28.7358 17.1754 29.2328 17.0212 29.777C16.7959 30.5343 16.7484 31.2679 17.1398 32.0015C17.3296 32.3564 17.4126 32.7587 17.5312 33.1374C17.5668 33.2675 17.5549 33.4095 17.5668 33.5397C17.6142 34.1431 17.6498 34.7584 17.6973 35.3618C17.638 35.563 17.4482 35.8233 17.1991 36.0007C16.9619 36.1782 16.784 36.5568 16.3571 36.3675C16.3096 36.3439 16.1792 36.4977 16.0843 36.5569C15.8115 36.7225 15.5624 37.0065 15.2778 37.042C14.2578 37.1721 13.2378 37.2431 12.2179 37.2668C11.5062 37.2904 11.4351 37.2904 11.613 37.9649C11.7316 38.45 11.6248 38.7695 11.1623 39.0416C10.7353 39.3019 10.3795 39.6805 10 40C15.9301 40 21.8602 40 27.7903 40C27.4582 39.7634 27.1854 39.4557 26.8415 39.2901ZM22.726 23.9083C23.0462 23.6125 23.3664 23.3167 23.7815 22.9381C23.7341 23.9556 23.3664 24.2041 22.726 23.9083ZM23.9357 21.0213C24.1848 20.3942 24.3864 19.8736 24.5762 19.3884C24.8845 19.7197 24.7778 20.1102 23.9357 21.0213ZM24.8134 13.851C24.8727 13.2712 24.8964 12.6796 24.932 12.088C25.0031 12.088 25.0743 12.088 25.1336 12.088C25.3945 13.2831 25.691 14.4781 25.8926 15.6731C25.9994 16.2648 25.3115 16.667 24.7659 16.3712C24.6592 16.3121 24.5643 16.0991 24.5762 15.969C24.6355 15.2709 24.7422 14.5609 24.8134 13.851ZM25.5606 17.9449C25.8926 17.7083 26.2959 18.1224 26.2959 18.7613C25.3589 18.5365 24.4576 18.3117 23.4613 18.0632C23.4969 17.7556 23.5206 17.519 23.5443 17.2705C23.5799 17.2705 23.6155 17.2705 23.6511 17.2705C23.6511 17.4361 23.6511 17.6018 23.6511 17.8029C24.2797 18.0277 24.8371 18.4655 25.5606 17.9449ZM24.1136 8.92884C24.1966 9.03533 24.3508 9.14182 24.339 9.23647C24.3034 9.66243 24.3271 10.1357 24.1255 10.4907C23.4494 11.7331 23.1411 13.0464 23.0343 14.4426C23.0225 14.5964 22.975 14.7502 22.9395 14.9041C22.5955 16.1701 22.0974 16.4186 20.769 15.9216C21.0181 15.5548 21.3146 15.2354 21.4925 14.8449C22.0855 13.5552 22.643 12.2537 23.2004 10.9521C23.4494 10.3724 23.6273 9.78075 23.8645 9.18915C23.8883 9.07083 24.0187 9.01166 24.1136 8.92884ZM21.5874 34.6874C20.1879 34.5927 19.0849 32.7942 19.6779 31.5755C19.7491 31.4217 19.7728 31.1851 19.7016 31.0431C19.5356 30.6881 19.5712 30.416 19.927 30.1793C20.1049 30.6763 20.3065 31.1022 20.4014 31.5637C20.5437 32.2736 20.9825 32.5458 21.6467 32.5813C21.7772 32.5931 21.9076 32.6404 22.0618 32.6759C21.4095 33.2084 20.7097 33.0072 19.9863 32.1198C20.0337 33.0545 20.52 33.8355 21.5874 34.6874ZM19.8321 29.1263C20.7572 29.7179 20.8165 31.2087 22.382 30.9721C21.4569 31.5045 20.0693 30.4278 19.8321 29.1263ZM17.5194 24.4053C17.7447 23.8965 18.0531 23.5652 18.6461 23.5415C18.8951 23.5297 19.1205 23.3522 19.3695 23.3049C19.6067 23.2575 19.8914 23.2102 20.1049 23.2812C21.03 23.6125 21.7653 23.3167 22.1567 22.4175C22.2278 22.24 22.2871 22.0625 22.3702 21.8377C22.6667 23.1629 22.2278 23.8373 21.0181 24.1804C19.8677 24.5236 18.741 24.7011 17.5194 24.4053ZM19.9625 6.82272C20.1405 6.55058 20.4132 6.32577 20.6742 6.12463C20.9232 5.93531 21.196 5.76966 21.4688 5.62768C21.6111 5.55668 21.789 5.56852 21.8839 5.55668C21.6704 5.95898 21.4807 6.26661 21.3383 6.58608C21.1248 7.0712 20.8876 7.55631 20.7335 8.05326C20.5556 8.60937 20.437 9.18915 20.3065 9.75709C20.2116 10.1712 20.2235 10.6563 20.01 11.0113C19.2509 12.2418 19.4407 13.638 19.2154 14.9632C19.1916 15.117 19.2154 15.2709 19.2154 15.4483C19.6779 15.6022 19.8677 15.472 20.0693 15.0342C20.8283 13.425 20.9469 11.7567 20.7928 10.0174C20.7453 9.49678 20.9588 8.9525 21.1248 8.43189C21.279 7.92311 21.4925 7.43799 21.7416 6.96471C21.9551 6.57425 22.2041 6.18379 22.5125 5.87615C22.892 5.50936 23.3546 5.59218 23.7341 5.93531C23.9832 6.16012 24.1255 6.38493 23.6748 6.59791C23.5443 6.65707 23.4494 6.97654 23.485 7.14219C23.5562 7.46166 23.5206 7.57998 23.2004 7.75746C22.8327 7.97044 22.4413 8.37273 22.3227 8.76319C21.872 10.2185 21.5281 11.7212 21.1248 13.1884C20.9114 13.9693 20.686 14.7384 20.437 15.5075C20.3777 15.6731 20.176 15.8625 19.9981 15.9098C19.6898 16.0044 19.3577 15.9926 18.9782 16.0281C18.99 13.2121 18.9663 10.396 19.666 7.62731C19.7609 7.37883 19.8084 7.05936 19.9625 6.82272ZM19.0256 19.4831C18.9782 19.4358 18.9307 19.4003 18.8833 19.3529C19.1916 19.0335 19.4881 18.7258 19.8677 18.3235C19.9032 19.0926 19.7016 19.3293 19.0256 19.4831ZM17.4363 2.08987C17.128 1.09597 18.0056 0.291389 19.4526 0.338717C19.0968 0.563528 18.6461 0.693681 18.48 0.977652C18.3377 1.21429 18.5393 1.65208 18.5868 2.03071C18.2903 2.04254 17.8633 2.06621 17.4363 2.08987ZM18.8003 6.42043C18.9544 6.64524 19.1679 6.82272 19.3221 7.0002C19.2628 7.01203 19.0612 7.05936 18.8477 7.08303C18.3496 7.15402 18.0531 7.41433 17.8989 7.91128C17.7684 8.34907 17.5431 8.77502 17.3652 9.20098C17.3177 9.17731 17.2584 9.15365 17.211 9.12999C17.6142 8.21891 18.0175 7.31967 18.4207 6.38493C18.3733 6.38493 18.2665 6.36127 18.1124 6.34944C18.4563 5.92348 18.6105 6.13646 18.8003 6.42043ZM14.1155 14.0048C14.1511 13.8392 14.1866 13.638 14.2459 13.4605C14.8271 11.9224 15.432 10.396 15.9775 8.84601C16.2859 7.98227 16.6891 7.22501 17.5194 6.76356C17.6142 6.7044 17.7328 6.68074 17.9463 6.59791C17.5194 7.62731 17.128 8.55021 16.7484 9.48495C16.7129 9.47312 16.6654 9.46128 16.6298 9.46128C16.6298 9.22464 16.6298 8.97617 16.6298 8.73953C16.274 10.5143 15.3727 12.2063 15.764 14.1468C15.2303 14.0876 14.7204 14.0521 14.1155 14.0048ZM14.412 18.2052C14.8152 18.1461 15.2303 18.0869 15.6454 18.0277C15.7759 18.4419 15.4201 18.6548 14.3171 18.6903C14.3527 18.5129 14.3883 18.359 14.412 18.2052ZM16.8908 24.3579C16.5943 24.4171 16.274 24.3461 15.9657 24.3698C15.681 24.3934 15.3964 24.4644 15.0287 24.5354C15.1473 24.2988 15.2185 24.1331 15.3015 23.9911C15.9419 22.9499 15.9894 21.8259 15.8945 20.6545C15.8471 20.0747 15.8589 19.4831 15.8352 18.8915C15.6217 19.2701 15.4082 19.6487 15.2185 20.0155C15.1829 19.8499 15.1117 19.5778 15.0406 19.2701C14.8745 19.4713 14.7322 19.6487 14.578 19.8262C14.5306 19.8026 14.4713 19.7671 14.4238 19.7434C14.5662 19.4713 14.6492 19.0808 14.8745 18.9506C15.1117 18.8087 15.5031 18.9152 15.8233 18.9152C15.8945 18.5247 15.9657 18.1461 16.0487 17.7556C16.1199 17.3888 16.3452 17.2113 16.7247 17.306C17.1635 17.4125 17.6735 17.3533 17.9938 17.8858C17.7566 17.9804 17.5075 18.0277 17.3533 18.1697C17.211 18.2999 17.1754 18.5247 17.0924 18.714C17.2703 18.7613 17.4482 18.8678 17.6142 18.8442C17.9226 18.785 18.2191 18.6785 18.5037 18.5365C18.7765 18.3945 19.0137 18.1816 19.2865 17.9922C19.3458 18.8087 18.7647 19.4121 17.97 19.4713C17.5787 19.5068 17.1517 19.6132 16.8196 19.8144C16.6061 19.9445 16.5587 20.3232 16.4282 20.5835C16.5112 20.6308 16.5824 20.6781 16.6654 20.7373C16.784 20.5362 16.9026 20.335 17.0212 20.1457C17.0568 20.2285 17.0924 20.3113 17.128 20.3942C17.4601 20.406 17.8514 20.5243 18.1361 20.406C19.0493 20.0155 19.927 19.5541 20.8165 19.1045C20.2591 20.051 19.6779 21.0213 18.4919 21.4354C18.2903 21.5064 18.0649 21.5419 17.8633 21.6129C17.4482 21.7667 17.3177 22.1217 17.4956 22.4648C17.5787 22.6304 18.0531 22.7724 18.2072 22.6778C18.7884 22.3346 19.334 21.9205 19.8321 21.4591C20.1879 21.1396 20.4844 20.8438 20.8758 21.0331C20.4251 21.5774 19.9981 22.169 19.4881 22.6541C19.2865 22.8552 18.8714 22.8671 18.5393 22.9026C17.7684 22.9854 17.4719 23.2102 17.2228 23.9556C17.1635 24.1213 17.0212 24.3343 16.8908 24.3579ZM17.721 27.0675C17.6617 27.6828 17.6142 28.2744 17.5549 28.866C17.5075 28.866 17.4601 28.8541 17.4008 28.8541C17.1873 27.8366 17.2822 27.1503 17.721 27.0675ZM17.5075 32.3091C17.4126 31.0904 17.5075 30.0728 17.9463 29.0671C18.1717 28.5583 18.1717 27.9431 18.2665 27.387C18.3851 27.9312 18.8833 28.44 18.4207 29.1026C18.3496 29.1973 18.5512 29.4931 18.6698 29.7889C18.6105 29.8007 18.3851 29.8599 18.0649 29.9309C18.1717 30.203 18.2784 30.4633 18.4089 30.7946C18.231 30.7473 18.0768 30.6999 17.9345 30.6645C17.887 30.6999 17.8396 30.7236 17.7921 30.7591C17.9582 31.0076 18.1124 31.2561 18.3021 31.5282C18.1598 31.5282 17.9582 31.5282 17.7566 31.5282C17.6735 31.7412 17.6142 31.9542 17.5075 32.3091ZM16.8908 36.5332C17.3533 36.261 17.6735 36.0599 18.0175 35.8588C17.8277 35.4565 18.2784 35.2317 18.5512 35.0068C18.8596 34.7465 19.1916 34.9832 19.5949 35.6931C18.8596 36.2729 18.2547 37.2549 16.8908 36.5332ZM21.9906 36.7698C21.9669 36.8645 21.5874 36.9 21.3739 36.9C20.9707 36.9 20.5793 36.8645 20.176 36.829C20.2116 36.1191 20.7453 36.403 21.113 36.261C20.7928 36.2374 20.52 36.2256 20.3184 36.2137C20.3184 35.6694 20.3184 35.137 20.3184 34.5099C20.8995 34.9832 21.4925 35.3736 21.9669 35.8824C22.133 36.0481 22.0618 36.4859 21.9906 36.7698ZM21.1723 33.3503C21.6348 33.4095 22.1092 33.4568 22.6192 33.516C22.1092 34.0011 21.706 33.9538 21.1723 33.3503ZM20.2828 28.369C20.9469 29.3156 22.0974 29.2919 23.0936 29.7297C21.5518 30.1083 20.5318 29.6114 20.2828 28.369Z" fill="#FDB913"/>
</svg>
