<svg width="212" height="299" viewBox="0 0 212 299" fill="none" xmlns="http://www.w3.org/2000/svg">
<path d="M57.7853 247.493C57.7853 240.427 57.7853 233.175 57.7853 226.109C57.7853 221.088 58.1569 216.44 51.6538 214.394C47.9378 213.279 47.752 208.816 51.6538 207.514C62.9877 203.424 56.2989 200.077 51.2822 197.102C29.3576 183.528 13.7502 164.747 5.94654 140.202C-7.0596 98.9224 1.67309 61.9193 31.9588 31.6102C62.6161 0.929254 100.52 -7.62423 141.396 6.8795C181.529 21.0113 205.312 50.7626 210.886 93.1581C216.646 137.413 198.809 171.441 162.392 196.358C157.375 199.705 149.2 202.308 161.463 207.886C165.922 209.932 163.321 213.093 159.791 215.324C152.916 219.415 152.916 225.179 159.976 229.456C164.993 232.617 165.179 234.848 159.791 237.824C153.102 241.357 153.102 246.005 159.976 250.468C165.179 254.001 165.736 257.348 159.791 259.579C154.588 261.625 154.96 265.529 155.145 269.434C155.517 278.174 152.358 283.194 142.883 282.264C136.194 281.521 132.292 283.752 132.478 291.376C132.663 296.024 129.691 298.814 124.86 299C112.783 299 100.706 299 88.6284 299C83.2401 299 80.4531 295.838 80.6389 290.818C80.6389 284.496 77.8519 282.264 71.7204 282.264C59.0859 282.079 58.3427 280.963 58.3427 268.133C57.7853 261.067 57.7853 254.373 57.7853 247.493ZM105.908 206.771C116.499 206.771 126.904 206.771 137.494 206.771C140.653 206.771 144.555 206.957 144.555 202.68C144.555 195.242 149.943 193.011 154.96 190.036C195.465 166.049 213.116 116.959 196.765 73.262C180.415 29.1929 135.265 3.34654 89.1858 11.3422C49.61 18.2222 18.9527 49.6469 11.149 91.1127C3.90272 128.674 23.0403 169.396 57.5995 190.036C62.8019 193.011 68.0044 195.428 68.0044 202.866C68.0044 207.143 72.092 206.771 75.0649 206.771C85.4698 206.771 95.6889 206.771 105.908 206.771ZM105.908 272.037C116.499 272.037 126.904 272.037 137.494 272.037C141.768 272.037 144.741 271.108 144.741 265.901C144.741 260.695 141.582 259.951 137.494 259.951C125.789 259.951 113.897 259.951 102.192 259.951C98.6617 259.951 93.645 260.695 93.4592 255.488C93.0876 249.724 98.4759 250.096 102.378 250.096C114.083 249.91 125.975 249.91 137.68 249.91C141.954 249.91 144.926 248.794 144.926 243.774C144.926 238.381 141.582 237.824 137.494 237.824C125.417 237.824 113.34 237.824 101.263 237.824C98.1043 237.824 93.4592 238.567 93.645 233.547C93.645 228.712 98.1043 229.27 101.449 229.27C113.526 229.084 125.603 229.084 137.68 229.27C142.697 229.27 145.112 227.597 145.112 222.204C145.112 216.626 142.325 215.324 137.494 215.51C117.056 215.696 96.6179 215.696 76.1797 215.51C70.234 215.51 67.8186 217.37 67.8186 223.506C68.0044 236.894 68.1902 250.096 67.8186 263.484C67.6328 269.806 69.8624 272.595 76.3655 272.223C86.213 271.852 96.0605 272.223 105.908 272.037Z" fill="black"/>
<path d="M127.831 148.757C127.831 143.736 127.831 138.901 127.831 133.881C127.831 132.951 127.831 132.022 127.831 131.092C128.202 119.191 139.908 108.778 131.175 95.3903C129.317 92.6011 134.705 87.2087 139.908 86.279C144.739 85.3492 149.198 86.4649 152.171 90.7417C155.144 95.0184 156.073 99.667 152.728 103.758C147.711 109.894 146.225 118.448 139.35 123.468C136.378 125.699 136.378 129.418 136.378 132.951C136.378 141.691 136.192 150.244 136.563 158.984C136.563 161.773 134.705 166.421 139.165 166.607C143.252 166.793 148.083 164.934 148.64 159.541C149.012 155.823 149.198 152.104 148.826 148.385C147.897 138.901 151.242 131.836 158.302 125.513C163.505 120.865 170.379 116.96 171.866 109.522C173.166 103.386 173.538 97.0638 167.964 91.2995C162.947 86.279 163.505 79.7709 169.079 74.7504C174.281 70.1017 180.041 70.2877 184.872 74.9363C190.074 79.9568 190.074 86.093 185.615 91.6714C182.642 95.2043 180.413 98.7373 181.156 103.2C182.828 113.241 178.555 120.679 170.751 126.443C161.089 133.695 156.444 143.178 158.488 155.265C160.16 165.492 155.515 170.884 146.039 174.603C127.273 182.041 127.459 182.599 127.459 162.331C127.831 158.054 127.831 153.405 127.831 148.757Z" fill="#FDB913"/>
<path d="M77.8509 143.736C83.6108 128.86 70.0473 118.819 62.9868 106.547C59.0849 100.038 57.9701 94.4601 63.5442 89.0677C68.1892 84.791 73.9491 84.605 78.7799 88.5099C84.7256 93.3445 85.0972 100.038 80.2664 105.803C76.7361 110.08 77.4793 112.869 81.0096 115.844C85.8404 119.749 86.7694 124.955 86.5836 130.719C86.3978 144.108 86.5836 157.31 86.3978 170.698C86.212 179.995 84.1682 181.297 75.8071 178.136C74.6923 177.764 73.5775 177.02 72.4627 176.648C59.2707 173.115 52.5819 165.305 55.5547 150.987C57.2269 142.248 53.5109 135.554 46.822 129.976C37.3461 121.98 29.1708 113.241 31.772 99.2947C32.3295 95.9477 29.914 93.7164 27.8702 91.1131C23.411 85.1629 23.9684 79.3986 29.3566 74.564C34.1875 70.1013 39.5757 70.1013 44.4066 74.378C49.7948 79.0267 50.538 84.791 46.4504 90.9272C39.0183 102.084 39.2041 110.08 49.0516 118.447C60.5713 128.302 66.8886 139.459 64.2874 154.706C63.9158 156.566 64.1016 158.611 64.659 160.285C66.3312 165.119 70.9763 166.793 75.0639 166.607C79.5232 166.421 77.6651 161.772 77.8509 159.169C78.0367 154.706 77.8509 150.43 77.8509 143.736Z" fill="#FDB913"/>
<path d="M102.191 166.422C102.191 158.985 102.191 151.547 102.191 144.109C102.191 137.973 102.191 132.208 97.3606 127.002C92.9014 122.353 94.3878 116.403 99.0328 112.126C103.678 107.664 109.066 107.106 114.083 111.197C119.285 115.287 121.701 121.238 117.241 126.63C112.225 132.58 112.225 138.902 112.225 145.596C112.225 161.03 112.411 176.463 112.225 191.897C112.225 195.988 113.154 202.124 107.394 202.31C101.077 202.496 102.563 196.36 102.377 192.455C102.006 183.901 102.191 175.162 102.191 166.422Z" fill="#FDB913"/>
</svg>
