<svg width="327" height="306" viewBox="0 0 327 306" fill="none" xmlns="http://www.w3.org/2000/svg">
<path d="M40.6613 42.3546C43.7477 51.5784 49.3033 58.035 58.4082 58.035C67.3588 58.035 72.9144 51.5784 76.1551 42.3546C78.9329 42.5083 80.7847 39.4337 82.1736 35.4368C84.0255 29.1338 82.0193 26.9816 79.2415 26.213V26.0592C79.2415 26.0592 80.4761 16.9892 78.6243 12.2235C77.6983 9.61014 76.1551 8.84149 74.7662 8.68776C75.3835 -2.99571 61.0317 1.30873 47.9144 3.76841C28.9329 7.45792 37.7292 25.9055 37.7292 25.9055V26.0592C34.9514 26.8279 32.9452 29.1338 34.7971 35.283C36.0317 39.5875 37.8835 42.6621 40.6613 42.3546Z" fill="black"/>
<path d="M2.85245 170.258C3.77837 170.258 4.39566 171.027 4.39566 171.795V174.716C4.39566 176.1 5.32158 177.33 6.55615 177.33H15.8154C17.05 177.33 17.9759 176.1 17.9759 174.716V171.795C17.9759 170.873 18.7475 170.258 19.5191 170.258H19.8278C20.7537 170.258 21.371 169.489 21.371 168.721L24.6117 99.2348C24.6117 98.4662 24.6117 91.8558 24.6117 91.8558C24.6117 92.7782 24.766 92.9319 24.766 93.8543V111.379V171.488V182.249V294.625C24.766 295.548 25.5376 296.163 26.3092 296.163H26.6179C27.5438 296.163 28.1611 296.931 28.1611 297.7V302.158C28.1611 304.157 29.8586 305.848 32.0191 305.848H48.6858C50.8463 305.848 52.3895 304.157 52.3895 302.158V297.7C52.3895 296.778 53.1611 296.163 53.9327 296.163H54.2413C55.1673 296.163 55.7845 295.394 55.7845 294.625V183.633C55.7845 182.71 56.5562 182.095 57.3278 182.095H59.7969C60.7228 182.095 61.3401 182.864 61.3401 183.633V294.625C61.3401 295.548 62.1117 296.163 62.8833 296.163H63.0376C63.9636 296.163 64.5808 296.931 64.5808 297.7V302.158C64.5808 304.157 66.2784 305.848 68.2845 305.848H84.9512C87.1117 305.848 88.6549 304.157 88.6549 302.158V297.7C88.6549 296.778 89.4265 296.163 90.1981 296.163H90.5068C91.4327 296.163 92.05 295.394 92.05 294.625V182.095V171.334V111.226V103.847H93.5932L103.47 137.052C103.624 137.667 104.241 138.128 105.013 138.128H150.229C151.155 138.128 151.772 137.36 151.772 136.591C151.772 135.669 152.544 135.054 153.315 135.054H154.704C156.093 135.054 157.173 133.978 157.173 132.748V124.447C157.173 123.217 156.093 122.141 154.859 122.141H153.315C152.389 122.141 151.772 121.372 151.772 120.603V120.45C151.772 119.527 151.001 118.912 150.229 118.912L116.278 118.759C115.661 118.759 115.044 116.299 114.889 115.684L103.315 74.7918C103.161 74.3306 102.852 74.0231 102.389 73.8694L92.3586 69.7187L77.6981 64.3381C76.7722 64.0307 75.8463 64.4919 75.692 65.4143L67.9759 91.7021C67.5129 93.2394 65.1981 93.2394 64.8895 91.5483L61.4944 74.0231C61.4944 73.7157 61.4944 73.4082 61.6487 73.1007L64.8895 66.0292C65.3524 64.9531 64.5808 63.877 63.5006 63.877H58.5623H53.4697C52.3895 63.877 51.6179 65.1068 52.0808 66.0292L55.3216 73.1007C55.4759 73.4082 55.4759 73.7157 55.4759 74.0231L51.9265 91.3946C51.6179 92.9319 49.3031 93.0856 48.8401 91.5483L41.1241 65.2605C40.8154 64.3381 40.0438 63.8769 39.1179 64.1844L13.3463 70.6411C3.16109 73.4082 5.01294 86.9364 4.08701 93.5468C2.85245 103.232 0.846272 157.345 1.00059 168.567C1.00059 169.489 1.7722 170.104 2.5438 170.104H2.85245V170.258Z" fill="black"/>
<path d="M4.39501 171.795C4.39501 171.795 3.46909 185.939 9.4876 186.246C15.5061 186.554 17.2037 179.943 17.8209 174.716C18.5925 169.336 4.39501 171.795 4.39501 171.795Z" fill="black"/>
<path d="M152.698 134.9C152.698 134.9 166.896 135.823 167.204 129.981C167.513 124.139 160.877 122.602 155.63 121.987C150.229 121.372 152.698 134.9 152.698 134.9Z" fill="black"/>
<path d="M133.872 29.9021V109.073H142.977V31.4394H313.501V152.271H142.977V145.507H133.872V153.655C131.865 155.038 130.477 157.19 130.477 159.804C130.477 164.108 133.872 167.49 138.193 167.49H318.285C322.606 167.49 326.001 164.108 326.001 159.804C326.001 157.19 324.612 155.038 322.606 153.655V29.9021C324.612 28.5185 326.001 26.3663 326.001 23.7529C326.001 19.4485 322.606 16.0664 318.285 16.0664H138.193C133.872 16.0664 130.477 19.4485 130.477 23.7529C130.477 26.3663 131.865 28.5185 133.872 29.9021Z" fill="#FDB913"/>
<path d="M174.766 138.743H194.982V102.309H174.766V138.743Z" fill="#FDB913"/>
<path d="M204.859 138.743H224.921V70.6406L204.859 70.7944V138.743Z" fill="#FDB913"/>
<path d="M232.945 138.744H253.161V52.9629L232.945 53.1166V138.744Z" fill="#FDB913"/>
<path d="M261.803 138.744H282.019V66.6445H261.803V138.744Z" fill="#FDB913"/>
<path d="M189.736 240.359H177.545C172.607 240.359 168.44 236.362 168.44 231.289L165.354 205.463C165.354 200.543 169.366 196.393 174.458 196.393H192.823C197.761 196.393 201.928 200.39 201.928 205.463L198.841 231.289C198.841 236.362 194.829 240.359 189.736 240.359Z" fill="black"/>
<path d="M203.625 244.355H163.656C158.717 244.355 152.236 249.89 149.921 256.5L142.205 291.243C142.205 298.007 146.217 303.388 151.31 303.388H215.971C220.909 303.388 225.075 298.007 225.075 291.243L217.359 256.5C215.199 250.043 208.717 244.355 203.625 244.355Z" fill="black"/>
<path d="M287.574 240.359H275.383C270.445 240.359 266.278 236.362 266.278 231.289L263.191 205.463C263.191 200.543 267.204 196.393 272.296 196.393H290.661C295.599 196.393 299.766 200.39 299.766 205.463L296.679 231.289C296.679 236.362 292.667 240.359 287.574 240.359Z" fill="black"/>
<path d="M301.463 244.355H261.494C256.555 244.355 250.074 249.89 247.759 256.5L240.043 291.243C240.043 298.007 244.055 303.388 249.148 303.388H313.808C318.747 303.388 322.913 298.007 322.913 291.243L315.197 256.5C313.037 250.043 306.555 244.355 301.463 244.355Z" fill="black"/>
</svg>
