<svg width="80" height="80" viewBox="0 0 80 80" fill="none" xmlns="http://www.w3.org/2000/svg">
<path d="M39.0867 43.771C39.7247 44.1422 39.793 44.6194 39.3373 45.2556C39.1208 45.5604 38.8474 45.8123 38.5968 46.0774C38.4145 46.2629 38.198 46.4087 38.0157 46.6076C37.6739 46.9919 37.1043 47.3366 37.3549 47.9993C37.5942 48.6223 38.1866 48.4897 38.6765 48.4765C42.2767 48.397 45.8884 48.1584 49.4886 48.2644C53.2597 48.3837 57.0309 48.7681 60.7792 49.179C62.6705 49.3911 64.5048 50.0008 66.134 51.2335C66.2479 51.313 66.3505 51.4058 66.4644 51.4986C68.0936 52.9963 68.0708 54.8255 66.4074 56.257C64.9719 57.4897 63.2857 57.8873 61.5881 58.285C60.1298 58.6296 58.6715 59.067 57.2587 59.6105C56.165 60.0346 55.6295 61.0817 55.6865 62.4602C55.6865 62.5928 55.6751 62.7253 55.6865 62.8579C55.789 64.74 55.0029 65.9992 53.6471 66.8741C51.9495 67.9609 50.1038 68.5839 48.2354 69.0478C42.8806 70.3866 37.4916 71.3409 31.9887 71.2746C30.3937 71.2614 28.81 71.0626 27.272 70.4793C27.0783 70.3998 26.8846 70.3203 26.6909 70.2143C24.7427 69.1804 24.1844 67.4573 25.0731 65.1775C25.1187 65.0582 25.1528 64.9256 25.2212 64.8196C25.8934 63.6797 25.2896 63.1362 24.3895 63.0832C23.159 63.0169 21.9058 62.9639 20.6981 63.1627C18.0891 63.6001 15.5028 64.1701 12.9052 64.7268C11.2532 65.0714 9.62397 65.416 7.94917 64.9389C4.85024 64.0641 4.05271 61.0552 6.22881 58.3513C7.52763 56.7342 9.22521 55.9256 10.9911 55.2629C11.7659 54.9713 12.5406 54.6532 13.2926 54.2953C13.6571 54.123 14.0103 53.8844 14.3179 53.6061C14.8648 53.1156 14.8192 52.5987 14.1584 52.3601C13.566 52.148 12.9394 52.042 12.3241 52.0288C10.9798 52.0155 9.63536 52.1083 8.27957 52.1613C7.84663 52.1746 7.4023 52.2276 6.96936 52.1746C6.28577 52.0818 5.65915 51.8034 5.44268 50.9154C5.2376 50.0803 5.48825 49.3645 6.05791 48.8609C6.68453 48.3307 7.33394 47.8137 8.01753 47.4028C10.6607 45.8918 13.5204 45.1628 16.3915 44.5531C20.6525 43.6385 32.9002 41.9817 39.0867 43.771Z" fill="#FDB913"/>
<path d="M17.5952 37.627L18.5801 35.0273C17.2669 34.594 15.2314 32.9475 17.5952 29.8278L20.5499 25.9282C19.2367 26.3615 17.0042 26.4481 18.5801 23.3284C20.1559 20.2087 21.8631 16.8291 22.5197 15.5292C22.848 14.2293 23.8986 12.4095 25.4745 15.5292C27.0503 18.6489 28.7575 22.0285 29.4141 23.3284C29.7424 24.6279 29.8081 26.9668 27.4443 25.9269L30.399 31.1264" stroke="#FDB913" stroke-width="1.3077" stroke-linecap="round" stroke-linejoin="round"/>
<path d="M57.5617 56.1171C71.7134 56.1171 71.741 47.5609 68.2734 44.6436C67.4675 44.0383 65.4618 41.2676 63.8859 35.0282M12.0744 47.0196C4.99849 41.6112 13.0852 36.9113 23.1241 37.0798C25.2207 36.8293 30.2019 34.5085 33.3536 27.2292C37.2933 18.1301 36.3084 18.1301 39.2631 24.6294C41.6269 29.8289 42.8745 31.9952 43.2028 32.4285" stroke="#FDB913" stroke-width="1.3077" stroke-linecap="round" stroke-linejoin="round"/>
<path d="M41.2336 37.6273L51.0827 10.33C51.411 9.03009 52.4616 7.21027 54.0375 10.33C55.6133 13.4497 59.9469 24.6277 61.9168 29.8268" stroke="#FDB913" stroke-width="1.3077" stroke-linecap="round" stroke-linejoin="round"/>
<path d="M59.9467 23.3303L62.9015 18.1308C63.2298 17.2642 64.2804 16.051 65.8562 18.1308C67.4321 20.2106 69.1393 24.1963 69.7959 25.9292C70.4525 27.2291 70.9778 29.8288 67.826 29.8288L71.7657 35.0283C72.094 36.3282 72.1597 38.9279 69.7959 38.9279L72.7506 44.1274C73.0789 44.994 73.3416 46.9871 71.7657 48.027" stroke="#FDB913" stroke-width="1.3077" stroke-linecap="round" stroke-linejoin="round"/>
<ellipse cx="35.3249" cy="34.8889" rx="1.96983" ry="2.02166" fill="#FDB913"/>
<ellipse cx="51.082" cy="32.8693" rx="1.96983" ry="2.02166" fill="#FDB913"/>
<ellipse cx="56.9923" cy="40.9533" rx="1.96983" ry="2.02166" fill="#FDB913"/>
</svg>
