<svg width="40" height="41" viewBox="0 0 40 41" fill="none" xmlns="http://www.w3.org/2000/svg">
<path d="M9.79562 12.4365C9.79186 12.3763 9.79186 12.3123 9.78058 12.252C9.72044 11.9281 9.81441 11.6532 10.0437 11.4311C10.1602 11.3181 10.164 11.239 10.0663 11.1147C9.84824 10.8398 9.66405 10.5385 9.55128 10.2034C9.44978 9.89459 9.38964 9.58203 9.5588 9.27323C9.6039 9.18661 9.66781 9.11883 9.75803 9.0774C10.1302 8.90041 10.5174 8.82133 10.9271 8.87028C10.9985 8.87781 11.0925 8.88158 11.1188 8.96066C11.1489 9.04351 11.0587 9.06987 11.006 9.11506C10.6903 9.38244 10.5963 9.93601 10.8106 10.3051C10.9008 10.4632 11.0248 10.595 11.179 10.7344C11.209 10.6101 11.1902 10.5122 11.1677 10.4218C11.0511 9.95108 11.1677 9.48411 11.194 9.01715C11.2015 8.91171 11.2729 8.85899 11.3744 8.87028C11.4834 8.88158 11.6112 8.87405 11.6413 9.02468C11.6488 9.07364 11.6488 9.12636 11.6413 9.17532C11.5887 9.51801 11.5812 9.86446 11.6488 10.2072C11.7353 10.6515 11.6864 11.111 11.7842 11.5516C11.8368 11.785 11.9045 12.0148 12.0135 12.2256C12.2052 12.5872 12.3255 12.9788 12.4946 13.3479C12.6863 13.7659 13.0472 14.0182 13.4118 14.2667C13.4908 14.3194 13.5058 14.2592 13.5321 14.2102C13.6825 13.9278 13.8329 13.6454 13.987 13.3667C14.3742 12.67 14.8854 12.0712 15.4681 11.529C15.5508 11.4536 15.6184 11.3633 15.6898 11.2804C14.9719 11.4913 14.3027 11.8679 13.5697 12.0675C14.0283 11.7323 14.5471 11.5064 15.0433 11.2428C14.5734 11.2541 14.1223 11.4198 13.6487 11.3896C14.1411 11.2013 14.6599 11.1147 15.1899 10.9716C15.0959 10.8737 14.9944 10.8925 14.9117 10.8812C14.4193 10.8285 13.9419 10.6478 13.4344 10.7118C13.0923 10.7532 12.7502 10.772 12.4044 10.8022C12.3781 10.8059 12.3555 10.8135 12.3292 10.8135C12.254 10.8135 12.145 10.821 12.1338 10.7457C12.1187 10.6365 12.2428 10.6704 12.3029 10.6591C13.1186 10.5197 13.9268 10.3465 14.7613 10.403C14.814 10.4067 14.8854 10.4256 14.9155 10.3653C14.9493 10.3013 14.8892 10.2636 14.8553 10.2222C14.6824 9.98874 14.4531 9.83057 14.19 9.7176C13.5622 9.44269 12.9119 9.24687 12.2465 9.08494C12.1676 9.06611 12.0924 9.03598 12.0135 9.00962C11.9721 8.99456 11.9195 8.97949 11.9345 8.92301C11.9496 8.86652 12.0022 8.88535 12.0473 8.88535C12.2841 8.90041 12.5209 8.9343 12.754 8.97949C13.3667 9.09247 13.9644 9.24687 14.5358 9.49918C14.8516 9.63851 15.1034 9.86823 15.3553 10.0904C15.547 10.2599 15.7237 10.4482 15.9003 10.6327C16.0319 10.7683 16.0244 10.7984 15.8552 10.9001C15.9267 10.9679 15.9868 11.0281 16.0657 10.9151C16.4605 10.3653 16.9529 9.91342 17.4679 9.48035C17.4942 9.45775 17.5167 9.42763 17.528 9.38997C17.2536 9.5293 17.0281 9.73643 16.7875 9.91342C16.6183 10.0377 16.468 10.1921 16.2462 10.2373C16.171 10.2523 16.0996 10.29 16.1297 10.3917C16.1409 10.4331 16.1522 10.4858 16.1071 10.5122C16.047 10.5461 15.9981 10.5047 15.953 10.4708C15.7425 10.3051 15.5282 10.1394 15.3215 9.96614C14.8177 9.54813 14.2689 9.19791 13.675 8.92677C13.6186 8.90041 13.5622 8.87028 13.5096 8.83639C13.4945 8.82886 13.4908 8.80626 13.4645 8.76484C13.8554 8.7912 14.1825 8.9343 14.5057 9.09247C14.829 9.25063 15.141 9.44269 15.5019 9.64228C15.2951 9.28829 15.0884 8.99079 14.829 8.73471C14.3403 8.26022 13.7877 7.87234 13.2164 7.51082C13.0247 7.39031 12.8931 7.4355 12.7991 7.63885C12.6863 7.87987 12.6262 8.13595 12.5623 8.39202C12.5473 8.44851 12.5435 8.53136 12.4608 8.52759C12.3931 8.52759 12.3668 8.45981 12.3555 8.40709C12.2653 8.03427 12.2653 7.66898 12.5097 7.34889C12.6488 7.16813 12.8555 7.21708 13.0322 7.27734C13.6675 7.48822 14.2351 7.83091 14.7613 8.24515C14.8704 8.33177 14.9794 8.41838 15.0696 8.52006C15.1824 8.64433 15.25 8.61044 15.3177 8.4824C15.5244 8.09452 15.7349 7.71041 15.9981 7.35642C16.0695 7.26227 16.1447 7.16813 16.2199 7.07775C16.2763 7.00996 16.265 6.96477 16.1823 6.93841C16.0733 6.90075 15.9755 6.84426 15.8891 6.77271C15.7725 6.67857 15.7763 6.56559 15.9079 6.50534C16.1748 6.38483 16.3138 6.17018 16.4078 5.90281C16.5732 5.42078 16.8213 4.99147 17.1935 4.63748C17.2724 4.56217 17.3213 4.49438 17.2198 4.38517C17.122 4.27973 17.0995 4.14039 17.1333 3.99729C17.1559 3.90691 17.1258 3.84289 17.0657 3.77887C16.7725 3.47384 16.7311 3.28178 16.9266 2.90897C17.0206 2.72821 16.9679 2.66419 16.8025 2.619C16.7349 2.60017 16.671 2.57381 16.6108 2.54368C16.5394 2.50979 16.498 2.44577 16.5281 2.37422C16.671 2.02776 16.6258 1.67001 16.5883 1.31602C16.5845 1.28589 16.5845 1.252 16.5845 1.22187C16.5883 1.17292 16.5845 1.11643 16.6409 1.09383C16.6973 1.07124 16.7349 1.11266 16.7725 1.14655C16.9754 1.31978 17.1521 1.53067 17.3927 1.65871C17.4829 1.7039 17.5694 1.75662 17.6521 1.80934C17.8175 1.90725 17.8475 2.00516 17.7686 2.18592C17.7461 2.23865 17.716 2.2876 17.6897 2.33656C17.6295 2.44577 17.637 2.51732 17.7724 2.56251C18.0656 2.66042 18.2573 2.84495 18.246 3.18011C18.2423 3.29308 18.3062 3.34957 18.4152 3.3684C18.5994 3.40229 18.6858 3.51903 18.6745 3.70356C18.667 3.8203 18.7159 3.83159 18.8211 3.83159C19.0843 3.82783 19.3437 3.78641 19.6068 3.80523C19.8511 3.8203 20.0428 3.94834 20.2609 4.01612C20.6067 4.1291 20.9638 4.12533 21.3209 4.12533C21.5578 4.12533 21.5615 4.13286 21.5164 4.35128C21.4976 4.44543 21.5502 4.43789 21.6141 4.43789C21.9073 4.43036 22.2043 4.42283 22.4975 4.4266C23.3396 4.43413 24.1703 4.53204 24.9823 4.76176C25.298 4.84837 25.5988 4.97264 25.8769 5.14587C26.0085 5.22872 26.0799 5.22495 26.1137 5.04043C26.1964 4.56593 26.1777 4.09144 26.1551 3.61318C26.1213 3.00311 26.0611 2.40058 25.9596 1.80181C25.9521 1.74909 25.9408 1.67377 26.001 1.65118C26.0874 1.62105 26.0987 1.71143 26.125 1.76039C26.4633 2.4307 26.7941 3.10855 27.1437 3.77511C27.4069 4.27596 27.7076 4.75046 28.0685 5.1873C28.185 5.3304 28.2301 5.45467 28.1173 5.62413C28.0083 5.78606 27.9632 5.95176 28.185 6.0798C28.2827 6.13629 28.3542 6.24926 28.3654 6.35847C28.388 6.55429 28.5196 6.61455 28.6662 6.6974C29.0007 6.88192 29.1511 7.21708 29.2826 7.54848C29.3541 7.72924 29.4405 7.84974 29.621 7.93636C29.9893 8.10958 30.0345 8.47487 30.0833 8.82509C30.0908 8.88535 30.0946 8.94937 30.0946 9.01338C30.0984 9.2318 30.1773 9.3975 30.3465 9.54813C30.6923 9.85693 30.8051 10.3352 30.6622 10.6741C30.5908 10.836 30.4818 10.9227 30.2976 10.9076C29.4443 10.8323 28.5947 10.8925 27.7527 11.0243C27.5046 11.062 27.2603 11.1185 27.0159 11.1712C26.749 11.2315 26.4972 11.2315 26.3167 10.9904C26.1363 10.7457 26.1438 10.4783 26.2566 10.2034C26.3017 10.0979 26.4032 10.0189 26.4145 9.89836C25.2341 10.1582 24.0801 10.4595 23.0163 11.0545C21.975 11.6344 21.024 12.3424 20.0466 13.0918C20.0353 12.9412 20.0955 12.8997 20.1368 12.8583C20.9563 12.0637 21.8134 11.3105 22.7794 10.6967C23.3283 10.3503 23.9222 10.1017 24.5199 9.85693C24.9823 9.66864 25.4484 9.48411 25.9145 9.30335C26.0085 9.2657 26.0649 9.21297 26.0536 9.1113C26.0273 8.82509 26.125 8.59538 26.3468 8.41838C26.4182 8.3619 26.3994 8.328 26.3355 8.27528C25.9296 7.94012 25.9145 7.4468 26.3017 7.07775C26.3618 7.02126 26.3581 6.98737 26.3167 6.92335C26.11 6.58819 26.1288 6.49028 26.4257 6.2229C26.4972 6.16265 26.5084 6.11746 26.4145 6.07227C26.2453 5.98942 26.0799 5.9028 25.9108 5.81996C25.8694 5.79736 25.8281 5.81242 25.7829 5.81996C24.8733 6.02331 23.9711 6.26809 23.0764 6.5317C21.8773 6.88569 20.7308 7.36395 19.6481 7.99284C19.385 8.14348 19.2046 8.38072 18.9865 8.57278C18.6633 8.85899 18.3325 9.14142 18.122 9.53307C18.1182 9.54437 18.1144 9.55567 18.1032 9.61592C18.573 9.19038 19.0956 8.9343 19.6594 8.75354C19.3361 9.08494 18.9264 9.31465 18.5881 9.695C19.9639 8.87781 21.2533 8.01167 22.6554 7.34512C22.6516 7.33006 22.6479 7.31499 22.6441 7.29993C22.49 7.34135 22.3321 7.37525 22.1818 7.4242C22.0276 7.47692 21.881 7.54848 21.7269 7.60496C21.5728 7.66145 21.4337 7.76689 21.2345 7.77819C21.2946 7.63132 21.4111 7.59367 21.5051 7.54094C22.1141 7.20955 22.7531 6.96854 23.4448 6.86309C24.1515 6.75765 24.862 6.70116 25.5724 6.65597C25.6551 6.65221 25.7341 6.65221 25.8168 6.65597C25.8694 6.65974 25.9446 6.65597 25.9408 6.73505C25.9371 6.79907 25.8732 6.79531 25.8243 6.80661C24.8845 6.99866 23.9636 7.26227 23.0764 7.63132C22.193 8.00038 21.3472 8.44474 20.5315 8.95313C19.9075 9.34101 19.3211 9.77785 18.7422 10.2297C18.2047 10.6515 17.7009 11.111 17.1559 11.5252C16.81 11.7926 16.4266 11.9884 16.0244 12.1466C15.7537 12.2558 15.4944 12.38 15.3478 12.6549C15.329 12.6888 15.3064 12.7265 15.2613 12.7114C15.1786 12.6888 15.2012 12.5947 15.1636 12.542C15.1485 12.542 15.1335 12.5382 15.126 12.5457C15.0621 12.6211 14.9643 12.7114 14.9982 12.8018C15.0395 12.911 15.1748 12.8621 15.2688 12.8621C15.8064 12.8621 16.28 12.6813 16.7273 12.3913C17.1446 12.1202 17.5055 11.7813 17.8964 11.4838C17.934 11.4536 17.9678 11.4122 18.0543 11.4235C17.9979 11.608 17.8438 11.7097 17.7348 11.8227C17.0769 12.5005 16.4078 13.1709 15.6447 13.7357C15.2839 14.0031 14.8854 14.0408 14.4644 13.9617C14.2952 13.9278 14.2238 13.9768 14.1411 14.1236C13.9005 14.5567 13.6938 15.0048 13.4833 15.4567C13.3855 15.6639 13.3968 15.6902 13.6148 15.7693C14.2727 16.0103 14.9042 15.871 15.5094 15.5998C16.1672 15.3023 16.7612 14.8919 17.3513 14.4776C18.1671 13.9052 18.9452 13.2876 19.712 12.6512C19.7985 12.5796 19.8887 12.5005 20.0466 12.4667C19.8323 12.7717 19.5767 12.9863 19.3249 13.2048C18.87 13.5964 18.4152 13.9918 17.949 14.3722C17.2536 14.937 16.5394 15.4793 15.7387 15.8898C15.0282 16.2513 14.2652 16.3605 13.4757 16.1911C13.4231 16.1798 13.3667 16.1609 13.3179 16.1346C13.2765 16.1158 13.2389 16.048 13.2051 16.1346C13.1788 16.1986 13.1562 16.2589 13.254 16.3003C13.69 16.4886 14.1373 16.5149 14.596 16.4095C15.344 16.2363 16.0131 15.8747 16.6597 15.4793C16.9942 15.276 17.3438 15.0839 17.6521 14.8391C17.6671 14.8278 17.6821 14.8165 17.7009 14.8128C17.7611 14.7902 17.8325 14.7186 17.8851 14.7939C17.9227 14.8504 17.8513 14.9069 17.81 14.9483C16.8965 15.8446 15.8703 16.5488 14.6298 16.9028C14.3854 16.9706 14.1373 16.9932 13.8855 16.9668C13.6524 16.9442 13.4494 16.8539 13.2916 16.6769C13.1976 16.5714 13.16 16.3831 12.9532 16.4245C12.863 16.1986 12.6337 16.2551 12.4721 16.176C11.8932 15.8823 11.3331 15.5471 10.8782 15.0613C10.5963 14.76 10.5211 14.4249 10.6189 14.037C10.6489 13.9203 10.6339 13.8562 10.5136 13.8035C10.3181 13.7169 10.1866 13.5587 10.0926 13.3667C10.0475 13.2725 10.0024 13.1746 9.94222 13.0843C9.93846 13.2688 10.0174 13.4307 10.0625 13.6002C10.149 13.9353 10.2505 14.263 10.3444 14.5944C10.3595 14.6471 10.3708 14.7149 10.4083 14.7488C10.6226 14.9521 10.6602 15.1931 10.6189 15.4718C10.6038 15.5697 10.6527 15.6789 10.679 15.7844C11.1301 17.43 11.5849 19.0719 12.0398 20.7138C12.2653 21.5235 12.4909 22.3331 12.7164 23.1428C12.739 23.2181 12.754 23.2934 12.7803 23.3688C12.8179 22.7436 13.2051 22.2804 13.5058 21.7833C13.8479 21.2222 14.2238 20.6799 14.5884 20.1339C14.6899 19.9795 14.814 19.8402 14.9455 19.7084C14.9267 19.9079 14.8065 20.0548 14.7162 20.213C14.3817 20.8004 14.0358 21.3842 13.7389 21.9905C13.4419 22.6005 13.1825 23.2256 12.9833 23.8734C12.9608 23.9487 12.9645 24.0202 12.9833 24.0956C13.2126 24.9353 13.4382 25.7789 13.6712 26.6187C13.6938 26.7053 13.6787 26.8521 13.8065 26.8521C13.9381 26.8521 14.0095 26.7392 14.0509 26.6224C14.1637 26.276 14.2802 25.9333 14.3817 25.5831C14.6899 24.5625 14.9568 23.5307 15.2275 22.4988C15.2538 22.3934 15.2914 22.288 15.3854 22.1524C15.3741 22.5704 15.2651 22.9168 15.1899 23.2708C15.0809 23.7905 14.9681 24.314 14.8478 24.8299C14.6298 25.745 14.4456 26.6676 14.1561 27.5639C14.1524 27.5752 14.1524 27.594 14.1449 27.5978C13.908 27.7522 14.0434 27.9442 14.0922 28.125C14.1937 28.5054 14.3178 28.8819 14.4042 29.266C14.4493 29.4581 14.6147 29.5372 14.7162 29.6765C14.7576 29.7368 14.8215 29.6954 14.8478 29.6351C14.8816 29.556 14.9155 29.4732 14.9343 29.3866C15.1335 28.3961 15.2613 27.3944 15.4042 26.3927C15.4906 25.7864 15.5696 25.1764 15.6485 24.5663C15.7086 24.0805 15.7688 23.5947 15.8176 23.1089C15.844 22.8679 15.9116 22.6306 15.9116 22.3821C15.9116 22.3256 15.9229 22.2578 16.0094 22.2051C16.0094 22.3896 16.0206 22.5553 16.0094 22.721C15.9379 23.6663 15.844 24.6077 15.7199 25.5454C15.5808 26.5885 15.438 27.6317 15.2538 28.671C15.1448 29.2886 15.0621 29.91 14.9267 30.5238C14.8666 30.7837 14.8892 31.0134 14.9606 31.2544C15.1297 31.8569 15.2914 32.4595 15.4793 33.062C15.5883 32.7984 15.6109 32.5235 15.641 32.2486C15.7312 31.4201 15.7462 30.5841 15.9041 29.7631C15.9981 29.266 16.0845 28.7652 16.2462 28.2794C16.3514 27.9631 16.3627 27.6279 16.389 27.2965C16.5168 25.7601 16.6258 24.2198 16.7912 22.6871C16.8777 21.9038 17.0168 21.1394 17.2912 20.3975C17.3589 20.213 17.3476 20.0134 17.3589 19.8213C17.3927 19.0267 17.4528 18.2284 17.3401 17.4376C17.3288 17.3622 17.3551 17.2907 17.3777 17.1852C17.0657 17.4225 16.7725 17.6221 16.4605 17.7915C16.2725 17.8932 16.0883 18.0024 15.8853 18.0665C15.5959 18.1531 15.3666 18.364 15.0771 18.4581C15.047 18.4694 15.0132 18.4769 15.0094 18.5146C14.9944 18.974 14.6974 19.2941 14.4493 19.633C14.2426 19.9192 13.9757 20.149 13.7201 20.39C13.2878 20.8005 12.9946 21.2975 12.769 21.8436C12.7502 21.8888 12.7239 21.934 12.6976 21.9754C12.6939 21.9829 12.6751 21.9829 12.6262 21.998C12.6901 21.4218 12.8555 20.8946 13.1449 20.4013C13.0698 20.39 13.0547 20.4389 13.0209 20.4615C12.9758 20.4879 12.9457 20.5745 12.8856 20.5218C12.8329 20.4766 12.8781 20.4163 12.9081 20.3711C13.0923 20.0699 13.2464 19.7573 13.4006 19.441C13.4908 19.2565 13.5584 19.0719 13.5209 18.861C13.4908 18.7029 13.6299 18.6916 13.7727 18.6276C13.2916 18.5899 12.8969 18.4468 12.5285 18.2246C12.0774 17.9572 11.8368 17.543 11.6977 17.061C11.6 16.7296 11.5774 16.3831 11.5511 16.0367C11.5473 15.9877 11.5586 15.9388 11.5661 15.8898C11.5737 15.8597 11.5849 15.8258 11.6225 15.8258C11.6601 15.822 11.6789 15.8521 11.6864 15.8823C11.7052 15.9538 11.7165 16.0291 11.7278 16.1045C11.8142 16.6241 11.9646 17.1175 12.2653 17.5543C12.5097 17.9083 12.8856 18.0589 13.284 18.1644C13.16 18.0665 13.0435 17.961 12.9307 17.8518C12.6337 17.5731 12.5059 17.2078 12.4082 16.8313C12.4007 16.7974 12.4007 16.7559 12.4007 16.7183C12.4007 16.6731 12.4007 16.6204 12.4533 16.6128C12.5059 16.6015 12.5285 16.6543 12.5435 16.6919C12.6187 16.8915 12.7202 17.076 12.8593 17.2455C13.3592 17.848 14.0171 18.0024 14.7538 17.9196C15.7613 17.8104 16.5958 17.3284 17.3626 16.6919C18.3701 15.8559 19.2948 14.9295 20.2534 14.037C21.148 13.2085 22.1291 12.5118 23.2531 12.0336C23.8395 11.7813 24.441 11.5666 25.0725 11.4423C25.1138 11.4348 25.1589 11.4273 25.2041 11.4235C25.2454 11.4235 25.3018 11.4085 25.3206 11.4612C25.3394 11.5214 25.283 11.5478 25.2416 11.5742C25.1815 11.6156 25.0988 11.6231 25.0311 11.7286C25.4146 11.5967 25.7829 11.5478 26.1551 11.5101C26.2904 11.4951 26.3844 11.5327 26.4445 11.657C26.7866 12.3424 27.061 13.0541 27.2941 13.7847C27.3091 13.8261 27.3166 13.8713 27.2791 13.909C27.2264 13.9579 27.1738 13.9316 27.1212 13.9127C26.8092 13.796 26.5084 13.6567 26.1964 13.5475C25.3281 13.2462 24.4297 13.0805 23.52 12.9713C23.332 12.9487 23.1478 12.9299 22.9599 12.9073C22.8321 12.8922 22.7155 12.9035 22.6028 12.9826C21.8961 13.4797 21.1894 13.973 20.5315 14.5379C20.3624 14.6847 20.2759 14.8768 20.1782 15.0651C19.7459 15.871 19.4076 16.7145 19.3061 17.6334C19.2346 18.2849 19.2309 18.9364 19.5166 19.554C19.7233 19.9983 20.0579 20.3147 20.4676 20.567C21.0803 20.9473 21.7419 21.1996 22.4487 21.3465C22.4787 21.354 22.5088 21.3616 22.5389 21.3691C22.5953 21.3842 22.6516 21.3992 22.6704 21.4632C22.6892 21.5348 22.6291 21.5611 22.584 21.5913C22.2156 21.8624 21.8134 22.0808 21.3961 22.2729C20.9375 22.4838 20.4563 22.5704 19.9526 22.5365C19.6857 22.5177 19.4301 22.4386 19.1444 22.3746C19.2497 22.5968 19.3549 22.7888 19.4076 22.9997C19.5842 23.6888 19.5466 24.3667 19.3249 25.0408C19.2534 25.2554 19.2459 25.2554 18.9302 25.1349C19.0317 25.2404 19.1068 25.3119 19.1707 25.3948C19.2271 25.4626 19.3324 25.5492 19.2422 25.632C19.1632 25.7073 19.0805 25.6057 19.0241 25.5454C18.9151 25.4324 18.8136 25.3157 18.7197 25.1876C18.6783 25.1349 18.5881 25.0747 18.6557 24.9956C18.7234 24.9165 18.7911 24.9994 18.8587 25.037C18.964 24.5211 19.1331 24.024 19.1181 23.5006C19.1068 23.0863 18.9565 22.7323 18.6633 22.4386C18.5843 22.3595 18.5317 22.3256 18.4377 22.4311C18.3174 22.5704 18.1445 22.5704 17.9829 22.5252C17.7799 22.4687 17.5731 22.4047 17.4115 22.2541C17.3175 22.1674 17.3025 22.2277 17.2837 22.3106C17.1747 22.7549 17.122 23.2106 17.0619 23.6663C16.9754 24.3064 16.9454 24.9504 16.8514 25.5906C16.7649 26.1818 16.795 26.7806 16.795 27.3756C16.795 27.4359 16.81 27.4848 16.8627 27.5225C16.8927 27.5413 16.9341 27.5677 16.9454 27.5978C17.1183 28.0535 17.5694 28.174 17.9265 28.3961C18.4791 28.7351 19.058 29.0363 19.6331 29.3414C20.6706 29.8949 21.7307 30.4071 22.8396 30.8176C23.6816 31.1264 24.5537 31.3335 25.4146 31.5745C25.7829 31.6762 26.0273 31.5557 26.2979 31.3486C27.046 30.7761 27.6813 30.0983 28.2076 29.3188C28.279 29.2096 28.3504 29.2171 28.4369 29.2962C28.5233 29.3753 28.5647 29.4769 28.6023 29.5861C28.7413 29.9966 28.6662 30.4184 28.6662 30.8364C28.6624 31.39 28.3955 31.7779 28.0158 32.1544C27.5159 32.6515 26.9934 33.1147 26.4521 33.5629C26.3393 33.657 26.2228 33.6909 26.0724 33.6608C24.5462 33.3859 23.0539 32.9905 21.5878 32.4896C20.5165 32.1243 19.4903 31.6574 18.5655 30.9983C17.919 30.5351 17.2987 30.038 16.7273 29.4807C16.6221 29.379 16.5958 29.2585 16.577 29.1192C16.5018 29.5297 16.4041 29.9401 16.3514 30.3544C16.2424 31.164 16.1522 31.9737 16.0695 32.7833C16.0282 33.1938 15.9492 33.5892 15.7575 33.9545C15.7086 34.0449 15.7349 34.1353 15.7613 34.2294C16.0695 35.3479 16.3702 36.4663 16.686 37.5848C16.7537 37.8258 16.6785 38.0291 16.6258 38.2476C16.5657 38.4848 16.4905 38.7183 16.4229 38.9518C16.4041 39.012 16.3965 39.0873 16.3214 39.0911C16.2462 39.0911 16.2274 39.012 16.2124 38.9555C16.0958 38.5451 15.9793 38.1346 15.8628 37.7241C15.6635 37.0161 15.4681 36.3119 15.2726 35.6039C15.2688 35.5927 15.2575 35.5889 15.2463 35.5776C15.1974 35.6002 15.2012 35.6491 15.1974 35.6906C15.0094 36.9634 14.7313 38.2174 14.4644 39.4752C14.4343 39.6146 14.4155 39.7577 14.3892 39.9008C14.3779 39.961 14.3742 40.0363 14.2952 40.0476C14.2238 40.0589 14.2088 39.9874 14.1862 39.9384C13.9344 39.351 13.6863 38.7635 13.4269 38.1798C13.284 37.8522 13.1337 37.5321 13.0247 37.1894C12.9156 36.8504 12.7014 36.568 12.4382 36.327C12.3067 36.2065 12.2465 36.0784 12.239 35.9015C12.2277 35.5663 12.0586 35.3177 11.8218 35.073C11.4609 34.7002 11.0136 34.7265 10.5737 34.6926C10.0926 34.655 9.71292 34.4591 9.46106 34.0336C9.00621 33.2578 8.34086 32.7344 7.49882 32.4557C6.76205 32.2109 6.00271 32.162 5.23586 32.3201C4.16829 32.5386 3.19469 32.9942 2.24364 33.4988C2.17222 33.5365 2.09328 33.6043 2.02186 33.5252C1.95795 33.4537 2.05193 33.3972 2.07824 33.3294C2.28123 32.8361 2.72856 32.6478 3.16837 32.4444C3.76607 32.1695 4.38631 31.9511 5.03663 31.8231C5.84483 31.6611 6.64551 31.7515 7.43868 31.9247C7.99502 32.0452 8.51377 32.2486 8.98742 32.5725C9.25431 32.757 9.43475 33.0131 9.59263 33.2804C9.86704 33.7399 10.2655 33.9696 10.788 34.011C11.0699 34.0336 11.3481 34.0976 11.6075 34.2068C12.0924 34.4102 12.3743 34.8131 12.5397 35.2839C12.6713 35.6642 12.848 36.0069 13.1074 36.3119C13.1412 36.3534 13.1449 36.4211 13.2126 36.3195C13.2728 36.2291 13.3442 36.3383 13.3818 36.3872C13.5509 36.5906 13.7088 36.8015 13.8742 37.0048C13.9156 37.0576 13.9494 37.1442 14.0246 37.1253C14.0922 37.1065 14.0697 37.0161 14.0922 36.9597C14.2952 36.44 14.4381 35.8977 14.6185 35.3705C14.6411 35.3064 14.6599 35.2387 14.735 35.1897C14.7839 35.2688 14.7651 35.3479 14.7501 35.4232C14.5884 36.2592 14.423 37.099 14.2614 37.935C14.2501 37.9877 14.2501 38.063 14.1862 38.0743C14.1148 38.0894 14.0847 38.0179 14.0434 37.9727C14.0171 37.9425 14.0208 37.886 13.9531 37.8672C14.002 38.0706 14.1261 38.2287 14.2351 38.4246C14.2839 38.2099 14.3366 37.9953 14.3779 37.7806C14.4982 37.1781 14.611 36.5755 14.7275 35.9692C14.8027 35.5701 14.8704 35.1671 14.9831 34.7755C15.0282 34.6173 14.9455 34.4667 14.908 34.316C14.7689 33.7888 14.6185 33.2654 14.4719 32.7381C14.4606 32.7043 14.4569 32.6628 14.4155 32.644C14.3742 32.6478 14.3704 32.6817 14.3666 32.708C14.2764 33.5026 14.0546 34.252 13.69 34.9638C13.5472 35.2424 13.3667 35.4985 13.1976 35.7621C13.1224 35.8789 13.0435 35.845 13.0021 35.7433C12.9194 35.5324 12.8442 35.3215 12.8104 35.0956C12.7954 35.0089 12.8367 34.9374 12.8931 34.8734C13.3329 34.3763 13.5472 33.7662 13.7426 33.1486C13.8441 32.8323 13.9193 32.5084 14.0095 32.1883C14.0659 31.9887 14.1223 31.9737 14.299 32.113C14.0546 31.2431 13.8141 30.3883 13.5735 29.5372C13.487 29.5598 13.4833 29.6238 13.4607 29.6728C13.1186 30.4598 12.769 31.2431 12.4382 32.0339C12.1526 32.7156 11.6676 33.1449 10.9572 33.3332C10.7354 33.3934 10.5249 33.3633 10.3181 33.2691C9.90839 33.0771 9.54 32.8135 9.17537 32.5499C9.13026 32.5197 9.0626 32.4783 9.10395 32.4181C9.14154 32.3653 9.21296 32.3955 9.26183 32.4181C9.61518 32.58 9.97229 32.7269 10.3369 32.87C10.7241 33.0244 11.0399 32.9641 11.3406 32.6591C11.6827 32.3164 11.9308 31.9172 12.1638 31.4992C12.6036 30.7197 12.9307 29.8949 13.2239 29.0552C13.3141 28.8029 13.3103 28.5581 13.2352 28.302C13.0359 27.6204 12.8442 26.9388 12.66 26.2534C12.3631 25.1387 12.036 24.0315 11.724 22.9206C11.4421 21.9114 11.1639 20.9021 10.882 19.8967C10.5249 18.6238 10.1678 17.3509 9.81441 16.0743C9.77682 15.9425 9.72795 15.8371 9.59639 15.7618C9.40843 15.6526 9.36708 15.4831 9.46482 15.2722C9.52496 15.1404 9.51369 15.0237 9.4761 14.8919C9.228 14.0445 8.98742 13.1935 8.74684 12.3424C8.69045 12.1428 8.63782 11.9545 8.40476 11.8679C8.22057 11.8001 8.20929 11.6043 8.19049 11.4348C8.17922 11.3256 8.1529 11.2503 8.04765 11.1976C7.90856 11.1223 7.90104 10.9792 7.94991 10.8511C8.02133 10.6478 8.00254 10.4971 7.82586 10.3427C7.6755 10.2109 7.70557 10.0076 7.81083 9.85693C7.95367 9.65358 7.87473 9.45775 7.82586 9.26193C7.80331 9.16778 7.71309 9.13013 7.61911 9.12259C7.46123 9.1113 7.40485 9.02092 7.38981 8.87782C7.37102 8.70082 7.36726 8.52383 7.16051 8.42968C7.05525 8.38072 7.08157 8.23762 7.1154 8.13595C7.15299 8.0192 7.16427 7.92882 7.04022 7.84598C6.93872 7.77819 6.91993 7.65392 6.96504 7.54094C7.02142 7.39408 6.96504 7.29993 6.85978 7.19825C6.60792 6.95347 6.32223 6.76142 5.99895 6.64091C5.84107 6.58442 5.79596 6.48274 5.82228 6.33588C5.89746 5.85762 5.94257 5.37935 5.98392 4.89733C6.06286 4.00859 6.07414 3.11985 6.01399 2.22735C5.96888 1.57209 5.92377 0.913072 5.7922 0.265349C5.77717 0.193798 5.73958 0.0695253 5.8298 0.0506961C5.91625 0.0318669 5.93505 0.159905 5.96136 0.231456C6.31847 1.15409 6.69438 2.07295 7.14547 2.95416C7.61911 3.88432 8.16418 4.76929 8.82953 5.57518C8.98366 5.76347 8.97614 5.83502 8.77315 5.98189C8.54009 6.15135 8.35213 6.3547 8.28447 6.64844C8.25816 6.76518 8.26943 6.85556 8.37845 6.92711C8.48746 6.99866 8.55888 7.10411 8.57016 7.23591C8.5852 7.40537 8.66789 7.52588 8.79194 7.63509C8.91975 7.7443 8.9799 7.8761 8.84833 8.02674C8.7957 8.08699 8.8145 8.13971 8.86337 8.19243C8.91975 8.25269 8.97614 8.31294 9.01749 8.38072C9.07763 8.4824 9.08891 8.59538 8.96862 8.65563C8.83705 8.72342 8.8145 8.82509 8.82578 8.95313C8.83329 9.05481 8.83329 9.15272 8.83705 9.2544C8.84081 9.33348 8.86337 9.41256 8.94607 9.43516C9.22424 9.51048 9.28438 9.74396 9.26935 9.96614C9.25055 10.2749 9.38588 10.5536 9.39715 10.8549C9.40091 10.934 9.46106 10.9904 9.50241 11.0507C9.62646 11.2239 9.69036 11.4085 9.56255 11.608C9.52872 11.6608 9.52872 11.7135 9.54376 11.77C9.60766 12.0035 9.67157 12.2369 9.73547 12.4704C9.78058 12.4365 9.7881 12.4365 9.79562 12.4365ZM11.9496 13.0391C11.9195 13.0767 11.9045 13.0918 11.8969 13.1068C11.5812 13.7734 11.9872 14.6546 12.7051 14.8542C12.8405 14.8919 12.9758 14.9069 13.1111 14.8693C13.1788 14.8504 13.2126 14.8203 13.1374 14.7563C12.5924 14.2969 12.1751 13.747 11.9496 13.0391ZM11.8481 12.8545C11.6827 12.6587 11.5774 12.4704 11.506 12.2595C11.3857 11.9093 11.3707 11.5478 11.3744 11.1825C11.3744 11.1223 11.4083 11.0394 11.3331 11.013C11.2692 10.9904 11.2278 11.0695 11.1827 11.1072C11.0925 11.19 11.0361 11.2955 11.006 11.4122C10.9045 11.8039 11.006 12.1654 11.2128 12.4893C11.3444 12.7001 11.5473 12.8357 11.8481 12.8545ZM17.7912 20.1301C17.7648 20.5707 17.6671 20.9963 17.5731 21.4256C17.5355 21.5988 17.5919 21.7231 17.7348 21.8323C17.7573 21.5536 17.7949 21.5273 18.0656 21.6026C18.1445 21.6252 18.2197 21.6553 18.2949 21.6817C18.3287 21.693 18.3701 21.7118 18.4001 21.6817C18.4415 21.6402 18.4076 21.5988 18.3851 21.5649C18.0919 21.1243 17.9077 20.6461 17.7912 20.1301Z" fill="#FDB913"/>
<path d="M23.3884 19.9984C23.5576 20.0512 23.6252 20.1867 23.7192 20.2884C24.3921 21.0378 25.2191 21.5123 26.2115 21.678C26.6738 21.7533 27.1099 21.5952 27.5046 21.373C27.9557 21.1169 28.3842 20.8194 28.8278 20.5483C29.0646 20.4052 29.309 20.2846 29.5871 20.2357C29.9104 20.1754 30.1811 20.2997 30.4254 20.4842C30.5494 20.5784 30.6359 20.5784 30.7562 20.4955C31.0757 20.2733 31.305 19.9683 31.5268 19.6595C31.7072 19.4072 31.6809 19.1813 31.4892 18.9365C31.0682 18.398 30.6284 17.8745 30.2224 17.3247C29.8991 16.8803 29.5758 16.4284 29.5157 15.8523C29.4706 15.423 29.5458 15.0426 29.9142 14.7602C30.1284 14.5982 30.3389 14.4288 30.5419 14.2555C30.681 14.135 30.8464 14.0898 31.0193 14.0484C31.1321 14.0221 31.4178 14.1501 31.4817 14.248C31.523 14.3158 31.4892 14.361 31.4328 14.3836C30.8314 14.602 30.4442 15.0991 29.9931 15.5058C29.6661 15.7995 29.6773 15.8372 29.8427 16.2552C30.0533 16.7862 30.4104 17.2117 30.7788 17.6297C31.1584 18.059 31.5193 18.4959 31.8163 18.9854C32.0268 19.3357 31.9817 19.5767 31.6697 19.844C31.5682 19.9344 31.4554 20.0097 31.3652 20.1302C31.399 20.134 31.4178 20.1415 31.4328 20.1378C32.0343 20.0097 32.2373 20.3713 32.3049 20.7855C32.3839 21.26 32.3688 21.7345 32.2485 22.2015C32.2034 22.3785 32.0756 22.499 31.914 22.5592C31.5606 22.691 31.3877 22.932 31.3727 23.3086C31.3539 23.7454 31.3276 24.1861 31.2937 24.6229C31.2712 24.9091 31.2674 25.2104 31.1096 25.4589C30.9479 25.715 30.76 25.956 30.5043 26.1217C30.3653 26.2121 30.3577 26.3025 30.4104 26.4343C30.7036 27.1799 31.0193 27.918 31.4479 28.6034C31.8952 29.3189 32.444 29.9515 33.0342 30.5503C33.1733 30.6934 33.3349 30.8139 33.4928 30.9344C33.7334 31.1227 34.0303 31.1453 34.316 31.1566C35.0829 31.183 35.8121 31.3562 36.5264 31.6349C37.0263 31.8307 37.4849 32.0981 37.9247 32.3956C37.9736 32.4295 38.0563 32.4634 38.0262 32.5349C37.9887 32.6215 37.9022 32.5726 37.8458 32.5537C37.3947 32.3993 36.9324 32.2864 36.4662 32.1885C35.8046 32.0454 35.1393 32.0341 34.4664 32.0341C34.0341 32.0341 33.6056 32.0077 33.1808 31.891C32.9402 31.8232 32.7335 31.7027 32.5455 31.5407C31.9704 31.0323 31.602 30.3771 31.2524 29.7105C30.7073 28.6636 30.2788 27.564 29.9292 26.438C29.9066 26.3589 29.8653 26.2987 29.7901 26.3853C29.6134 26.5811 29.3729 26.664 29.1436 26.7544C28.5534 26.9878 28.1737 27.4209 27.8918 27.967C27.6174 28.4979 27.4069 29.0553 27.0949 29.5674C26.8881 29.9026 26.6551 30.2227 26.2942 30.3884C25.8469 30.5955 25.3845 30.5315 24.9484 30.3357C24.144 29.9704 23.4899 29.3942 22.8697 28.7766C22.1404 28.0536 21.4187 27.3155 20.851 26.4531C20.1894 25.4476 19.8361 24.3329 19.7346 23.1391C19.7308 23.1128 19.7308 23.0864 19.7346 23.0638C19.7459 23.0111 19.7346 22.9358 19.806 22.9245C19.8662 22.917 19.8812 22.981 19.9 23.0262C20.0165 23.2823 20.1594 23.527 20.3022 23.768C20.6744 24.3894 21.1142 24.9543 21.663 25.4325C22.3472 26.0275 23.1366 26.3514 24.035 26.4606C25.298 26.6188 26.5611 26.7393 27.8354 26.679C28.3241 26.6564 28.8128 26.6 29.2676 26.4041C29.5759 26.2723 29.7939 26.0464 29.8653 25.7037C29.8766 25.6472 29.8691 25.5606 29.9518 25.5568C30.0194 25.5531 30.0232 25.6359 30.0457 25.6811C30.1961 25.9673 30.3427 25.9673 30.557 25.7338C30.9629 25.2819 31.0983 24.7472 31.1096 24.1559C31.1171 23.7982 31.1133 23.4404 31.1772 23.0864C31.1923 22.9923 31.2298 22.9057 31.2599 22.8191C31.275 22.7701 31.3877 22.7136 31.2862 22.6722C31.2035 22.6383 31.0795 22.6119 31.0344 22.7513C31.0118 22.8153 31.0005 22.8868 30.9855 22.9509C30.9442 23.1128 30.8464 23.2145 30.6735 23.2333C30.0081 23.3048 29.3428 23.3839 28.6737 23.2484C28.5722 23.2295 28.4594 23.1994 28.3767 23.1391C28.2226 23.0224 28.0835 23.0563 27.9219 23.1128C27.031 23.4254 26.1852 23.3689 25.3657 22.8567C24.768 22.4839 24.3545 21.968 24.035 21.3579C23.847 21.0039 23.6591 20.6499 23.4749 20.2922C23.4373 20.2056 23.3884 20.119 23.3884 19.9984ZM29.5909 22.1751C29.8578 22.1638 30.1247 22.3031 30.3953 22.16C30.4855 22.1111 30.5908 22.1148 30.6885 22.1337C30.7224 22.1412 30.7675 22.1487 30.7712 22.1939C30.775 22.2429 30.7299 22.2542 30.6961 22.2617C30.572 22.2843 30.4517 22.3182 30.3427 22.3785C30.2149 22.45 30.0908 22.4651 29.9442 22.4349C29.7563 22.3897 29.5608 22.3785 29.3653 22.3935C29.2676 22.401 29.1661 22.4274 29.1473 22.5329C29.1285 22.6496 29.1699 22.7626 29.2789 22.8228C29.4029 22.8906 29.5345 22.9245 29.6773 22.8944C29.8803 22.8529 30.0833 22.8115 30.2826 22.7701C30.354 22.755 30.4292 22.7324 30.4931 22.8002C30.5307 22.8379 30.5043 22.9509 30.6058 22.9132C30.6998 22.8793 30.76 22.8078 30.7712 22.7023C30.7788 22.6195 30.775 22.5404 30.7825 22.4575C30.7938 22.337 30.8351 22.2429 30.9855 22.3069C31.0795 22.3483 31.1096 22.2805 31.1396 22.2203C31.1772 22.1412 31.1697 22.0697 31.0832 22.0282C31.0081 21.9943 30.9366 21.9604 30.8727 21.9077C30.6848 21.7533 30.587 21.7533 30.384 21.8889C30.3164 21.9341 30.2412 21.9906 30.1623 21.9529C29.8954 21.8286 29.7488 22.0019 29.5909 22.1751Z" fill="#FDB913"/>
<path d="M21.46 39.0494C21.4224 39.0381 21.3623 39.0381 21.3435 39.0117C21.1518 38.718 20.7759 38.5899 20.6556 38.2284C20.618 38.1117 20.6105 38.0326 20.7045 37.946C20.9789 37.6974 21.2946 37.5054 21.6104 37.3171C22.3735 36.8614 23.1478 36.4284 23.9335 36.0103C24.4748 35.7241 25.0387 35.4794 25.5499 35.1329C26.1965 34.6961 26.7528 34.1576 27.2528 33.555C27.8091 32.8809 28.3053 32.1692 28.7376 31.4085C28.9782 30.983 29.2075 30.5537 29.4142 30.1093C29.512 29.9059 29.5533 29.8946 29.745 29.9963C29.9443 30.1018 30.1397 30.2185 30.3427 30.3089C30.5307 30.3917 30.5231 30.5122 30.463 30.6779C30.1736 31.4386 29.7713 32.1353 29.3315 32.8169C28.6624 33.8488 27.858 34.7639 26.9746 35.6112C26.407 36.1535 25.7529 36.5865 25.0988 37.0196C24.1515 37.6447 23.1629 38.1983 22.1705 38.7443C21.9487 38.8686 21.7232 39.0004 21.46 39.0494Z" fill="#FDB913"/>
<path d="M28.6135 13.6467C28.3391 13.6467 28.0647 13.6429 27.7865 13.6467C27.6362 13.6505 27.5384 13.5864 27.4896 13.4396C27.2941 12.8333 27.0761 12.2308 26.7829 11.6621C26.7002 11.504 26.7866 11.4286 26.9257 11.3834C27.3881 11.2253 27.8617 11.101 28.3466 11.0558C28.9293 10.9993 29.5157 10.9692 30.1059 10.973C30.4555 10.9767 30.4705 10.9918 30.5833 11.3157C30.7863 11.9031 30.9517 12.4981 31.0908 13.1044C31.1434 13.3417 31.1058 13.3793 30.8652 13.4245C30.4855 13.4961 30.1059 13.5676 29.7187 13.6128C29.3503 13.6618 28.9819 13.6429 28.6135 13.6467ZM29.0609 11.9182C28.8466 11.9182 28.6774 12.0688 28.6774 12.2684C28.6774 12.404 28.8616 12.6186 28.9857 12.6224C29.2112 12.6299 29.4255 12.4492 29.4217 12.2458C29.4142 12.0651 29.2563 11.9182 29.0609 11.9182Z" fill="#FDB913"/>
<path d="M31.3727 11.2766C31.3727 10.8435 31.2599 10.4933 31.0231 10.1845C30.993 10.1431 30.9592 10.1054 30.9329 10.064C30.9103 10.0263 30.8878 9.98113 30.9329 9.94724C30.9667 9.92088 31.0043 9.94347 31.0381 9.96607C31.2336 10.0979 31.3877 10.2673 31.5005 10.4745C31.523 10.5159 31.5268 10.5724 31.6095 10.5987C31.6697 10.2485 31.6283 9.91711 31.4591 9.60831C31.2862 9.29575 31.0306 9.05473 30.7412 8.84761C30.6509 8.77983 30.6021 8.71581 30.7562 8.67438C30.8427 8.65179 30.8276 8.6066 30.7975 8.55011C30.5344 8.09445 30.2299 7.6915 29.6698 7.57476C29.6285 7.56723 29.5834 7.55593 29.542 7.54463C29.5007 7.53334 29.4556 7.51451 29.4518 7.46179C29.448 7.4053 29.4969 7.394 29.5383 7.37517C29.5683 7.36387 29.5946 7.34505 29.6247 7.34128C29.7713 7.31115 29.7488 7.2396 29.6811 7.14169C29.4255 6.7764 29.0984 6.4902 28.7225 6.25295C28.6098 6.1814 28.497 6.11362 28.388 6.04207C28.3429 6.01194 28.2715 5.98558 28.3053 5.91779C28.3316 5.86507 28.3955 5.88767 28.4406 5.90273C28.9406 6.07972 29.418 6.29814 29.76 6.72745C29.8916 6.89314 30.0194 7.06637 30.1134 7.25843C30.1735 7.37517 30.2638 7.45802 30.3653 7.53334C30.5946 7.69903 30.8088 7.88356 31.0081 8.08315C31.1772 8.25261 31.29 8.44843 31.3125 8.69321C31.3201 8.77983 31.3614 8.84385 31.4216 8.9041C31.914 9.44638 32.1095 10.0941 32.0117 10.8134C31.9704 11.1146 31.8163 11.382 31.6057 11.608C31.4817 11.7398 31.4629 11.8226 31.617 11.9469C32.1019 12.3461 32.3839 12.8808 32.5793 13.4645C32.6545 13.6942 32.6019 13.8336 32.3876 13.9503C32.0568 14.1311 31.7072 14.1574 31.3576 14.0219C31.1847 13.9541 31.181 13.9089 31.3013 13.7696C31.5531 13.4758 31.523 13.1444 31.4291 12.8093C31.3915 12.6737 31.3163 12.5457 31.2599 12.4139C31.1622 12.1879 31.0494 11.9657 31.1735 11.7134C31.2035 11.6532 31.1622 11.608 31.1396 11.5552C31.0381 11.3444 30.8878 11.1674 30.7412 10.9904C30.7073 10.9527 30.666 10.9113 30.7073 10.8586C30.7449 10.8096 30.8013 10.8284 30.8464 10.8473C31.0306 10.9151 31.1547 11.0582 31.29 11.19C31.2975 11.2126 31.3201 11.2314 31.3727 11.2766Z" fill="#FDB913"/>
<path d="M14.1185 14.6766C14.4869 14.6427 14.8027 14.6201 15.1147 14.5297C15.765 14.3414 16.3326 14.01 16.8439 13.5732C17.2724 13.2079 17.6558 12.7936 18.0393 12.3832C19.0279 11.3212 20.2007 10.504 21.4713 9.81863C22.2983 9.3705 23.129 8.93743 23.9861 8.55708C24.0575 8.52695 24.1289 8.48176 24.2342 8.51189C24.144 8.62863 24.0199 8.68888 23.9072 8.7529C22.8509 9.34414 21.8246 9.9768 20.8247 10.6584C19.8699 11.3099 18.9865 12.0442 18.1783 12.8727C17.5694 13.4979 16.919 14.074 16.1259 14.4657C15.6184 14.718 15.0809 14.8498 14.5095 14.8121C14.3892 14.8084 14.2651 14.8046 14.1185 14.6766Z" fill="#FDB913"/>
<path d="M24.441 13.8345C25.283 13.8496 26.0348 14.0002 26.7829 14.1923C27.1663 14.2902 27.5535 14.358 27.9144 14.5275C28.061 14.5952 28.1361 14.7082 28.1437 14.8626C28.1625 15.1526 28.0459 15.2279 27.7677 15.1413C26.7152 14.8137 25.6589 14.5124 24.5387 14.5049C23.7079 14.4973 22.9824 14.7685 22.3208 15.2505C22.2156 15.3258 22.0389 15.4727 21.9976 15.4087C21.9261 15.2919 22.0915 15.1827 22.1818 15.0886C22.5276 14.727 22.8997 14.3919 23.3433 14.1471C23.7079 13.9438 24.0838 13.8119 24.441 13.8345Z" fill="#FDB913"/>
<path d="M26.2002 16.1041C25.6852 16.2849 25.2191 16.4958 24.753 16.7104C24.7266 16.7217 24.6853 16.7368 24.7003 16.7744C24.7116 16.797 24.7454 16.8196 24.7718 16.8272C24.9597 16.8724 25.1477 16.9138 25.3394 16.959C25.4446 16.9816 25.5461 17.0042 25.6514 17.0268C25.6814 17.0343 25.719 17.0381 25.719 17.0757C25.719 17.1134 25.6852 17.1284 25.6551 17.136C25.6175 17.1435 25.58 17.151 25.5424 17.151C25.0574 17.1736 24.58 17.1134 24.1139 16.9778C24.0162 16.9514 23.9184 16.9364 23.8207 16.91C23.7794 16.8987 23.7343 16.8799 23.7267 16.8272C23.723 16.7744 23.7606 16.7481 23.8057 16.7406C24.6289 16.5485 25.3544 16.1041 26.1325 15.7991C26.3844 15.7012 26.6438 15.6334 26.9219 15.6711C26.9746 15.6786 27.0309 15.6711 27.0836 15.6598C26.7189 15.5506 26.3731 15.6372 26.0273 15.7577C25.4597 15.9573 24.9372 16.2623 24.3733 16.4769C24.0538 16.5975 23.7267 16.669 23.3884 16.6954C23.2719 16.7067 23.1554 16.6954 23.0313 16.6313C23.114 16.5636 23.2005 16.5636 23.2756 16.556C23.8395 16.5146 24.3132 16.2548 24.7868 15.9761C25.2003 15.7313 25.61 15.4677 26.0799 15.3359C26.5122 15.2154 26.937 15.2079 27.3129 15.5054C27.3693 15.5506 27.467 15.5882 27.3843 15.6974C27.3467 15.7501 27.4106 15.7501 27.4369 15.769C27.4971 15.8142 27.6249 15.8255 27.5798 15.9271C27.5384 16.0213 27.4369 15.9497 27.358 15.946C27.3204 15.9422 27.2866 15.9196 27.2377 15.9535C27.2941 16.0778 27.373 16.1945 27.3655 16.3451C27.3542 16.5975 27.2339 16.7631 26.9858 16.8046C26.8505 16.8272 26.7152 16.8422 26.5761 16.8234C26.2152 16.7669 26.0874 16.5862 26.1701 16.2322C26.1701 16.202 26.1814 16.1719 26.2002 16.1041Z" fill="#FDB913"/>
<path d="M9.84074 26.5583C10.2016 26.2081 10.4986 25.8692 10.7617 25.5077C11.0549 25.1047 11.3444 24.6942 11.6413 24.2875C11.6714 24.2461 11.694 24.1633 11.7616 24.2047C11.818 24.2423 11.7767 24.3101 11.7541 24.3591C11.3068 25.2817 10.7918 26.1554 10.0324 26.8709C9.53625 27.3379 9.00622 27.7446 8.41981 28.0873C8.34087 28.1324 8.26193 28.1814 8.14915 28.1701C8.17547 28.0119 8.29952 27.9442 8.38973 27.8575C8.98743 27.2701 9.37837 26.5546 9.66782 25.7788C10.04 24.7771 10.4535 23.798 10.9873 22.8716C11.0512 22.7624 11.1226 22.6607 11.194 22.559C11.2128 22.5326 11.2316 22.4987 11.2654 22.51C11.3143 22.5251 11.303 22.5703 11.2917 22.6042C11.2767 22.6531 11.2504 22.6946 11.2316 22.7398C10.8294 23.6247 10.4008 24.4946 10.1114 25.4286C9.99862 25.7788 9.88209 26.129 9.84074 26.5583Z" fill="#FDB913"/>
<path d="M12.754 26.8984C12.7991 27.0152 12.7728 27.0943 12.7502 27.1658C12.3668 28.2767 11.9308 29.365 11.2541 30.3329C10.7091 31.1086 10.0174 31.7413 9.1904 32.2158C9.13402 32.2497 9.07387 32.3024 9.00245 32.2497C8.93479 32.2007 8.9611 32.1292 8.96486 32.0614C8.97238 31.8844 9.05132 31.7601 9.20168 31.6622C10.2805 30.9467 11.0023 29.9224 11.6451 28.8303C12.0022 28.2278 12.3367 27.6139 12.6826 27.0039C12.6901 26.97 12.7127 26.9512 12.754 26.8984Z" fill="#FDB913"/>
<path d="M12.5022 34.2494C12.1676 34.2117 11.818 34.095 11.4534 34.0272C11.412 34.0197 11.3669 33.9971 11.3594 33.9444C11.3519 33.8879 11.3895 33.8615 11.4346 33.854C12.036 33.7259 12.2503 33.2175 12.5022 32.7543C12.7239 32.3476 12.8743 31.907 13.051 31.4777C13.0698 31.4288 13.0698 31.3421 13.145 31.3572C13.2089 31.3685 13.1976 31.4476 13.1938 31.5041C13.1374 32.0388 13.0848 32.5773 12.8743 33.082C12.8442 33.1573 12.8142 33.2326 12.7954 33.3117C12.7803 33.3719 12.6976 33.4473 12.7766 33.4962C12.8405 33.5376 12.9006 33.4548 12.9532 33.4171C13.2013 33.2364 13.3404 32.9803 13.4419 32.6979C13.4645 32.6414 13.4607 32.5322 13.5509 32.5585C13.6261 32.5811 13.6073 32.679 13.5923 32.743C13.5096 33.1949 13.4043 33.6393 13.0998 34.0046C12.9758 34.159 12.7615 34.2494 12.5022 34.2494Z" fill="#FDB913"/>
<path d="M2.71352 32.5156C2.82629 32.2935 3.00672 32.1541 3.16836 31.9997C3.73974 31.4612 4.37127 31.0018 5.05542 30.6139C5.17571 30.5461 5.25841 30.4557 5.31479 30.3315C5.66063 29.5557 6.23953 29.036 7.03269 28.746C7.21312 28.6783 7.3898 28.5954 7.57024 28.5201C7.61535 28.5013 7.67549 28.4636 7.70932 28.505C7.75443 28.5653 7.69053 28.6142 7.64918 28.6406C7.43491 28.795 7.21688 28.9381 7.00262 29.0925C6.71693 29.2958 6.44627 29.518 6.1869 29.7553C5.96887 29.9549 5.83355 30.1921 5.85234 30.5009C5.86362 30.6478 5.78092 30.7118 5.65311 30.7532C5.14939 30.9114 4.67575 31.1411 4.23218 31.4311C3.76982 31.7324 3.35632 32.0976 2.92027 32.429C2.86388 32.4667 2.81877 32.5269 2.71352 32.5156Z" fill="#FDB913"/>
<path d="M7.43867 30.611C7.63415 30.4039 7.86721 30.2683 8.08899 30.1252C8.61902 29.775 9.10394 29.372 9.57007 28.9427C10.3068 28.2649 10.8557 27.4439 11.3744 26.6004C11.6225 26.1937 11.8593 25.7832 12.0999 25.3727C12.1262 25.3313 12.1413 25.2673 12.2052 25.2899C12.2653 25.3125 12.2503 25.3802 12.2353 25.4217C12.145 25.6476 12.0548 25.8773 11.9533 26.0957C11.4458 27.1803 10.8256 28.1933 9.95349 29.0293C9.28438 29.6733 8.50249 30.1553 7.6755 30.5696C7.62663 30.5959 7.57024 30.6072 7.51762 30.6223C7.49506 30.6298 7.47627 30.6185 7.43867 30.611Z" fill="#FDB913"/>
<path d="M12.4307 7.22581C12.3781 7.3049 12.2879 7.2823 12.2127 7.3049C12.1413 7.32749 12.0661 7.33502 11.9947 7.35762C11.8217 7.4141 11.6338 7.45929 11.6075 7.68524C11.5774 7.95262 11.6413 8.18233 11.8781 8.3405C11.9721 8.40075 12.0736 8.45347 12.1789 8.48737C12.2127 8.49866 12.2503 8.52126 12.2465 8.56645C12.2428 8.61164 12.2089 8.63047 12.1751 8.64553C12.1413 8.65683 12.1037 8.66813 12.0661 8.66813C11.6526 8.66813 11.2428 8.70202 10.8331 8.63047C10.6827 8.60411 10.6113 8.54762 10.6151 8.37063C10.6226 7.96768 10.6564 7.58357 10.9421 7.26347C11.0135 7.18062 11.0887 7.09401 11.2015 7.09777C11.5736 7.10907 11.9495 7.13543 12.3217 7.15426C12.363 7.16556 12.4157 7.16556 12.4307 7.22581Z" fill="#FDB913"/>
<path d="M27.3129 17.0309C27.1964 16.9895 27.0347 17.0949 27.0197 16.9443C27.0084 16.82 27.1738 16.8615 27.2603 16.8238C27.358 16.7786 27.4595 16.7522 27.5572 16.7108C27.6625 16.6656 27.7452 16.6468 27.8316 16.7635C27.9181 16.8841 27.9068 16.9669 27.8166 17.0761C27.5685 17.3623 27.2227 17.4527 26.8844 17.5167C25.9333 17.6899 24.9898 17.656 24.0726 17.3171C23.8846 17.2493 23.7042 17.159 23.535 17.0497C23.4937 17.0234 23.4298 17.0046 23.4523 16.9405C23.4786 16.8765 23.5388 16.9104 23.5839 16.9217C23.9297 17.0083 24.2718 17.1138 24.6252 17.1627C25.5161 17.2832 26.407 17.351 27.3129 17.0309Z" fill="#FDB913"/>
<path d="M13.7126 24.4171C13.6524 24.3456 13.69 24.2853 13.7013 24.2288C13.878 23.4041 14.1561 22.6133 14.4531 21.83C14.7275 21.107 15.0884 20.4291 15.4869 19.7663C15.6748 19.4575 15.765 19.1111 15.8477 18.7646C15.8628 18.7044 15.859 18.6403 15.9192 18.5801C15.9981 18.6441 15.9981 18.7269 15.9831 18.8098C15.8891 19.4199 15.7312 19.996 15.4117 20.5421C14.7576 21.6681 14.2088 22.8505 13.8441 24.1083C13.8178 24.2138 13.7614 24.3117 13.7126 24.4171Z" fill="#FDB913"/>
<path d="M31.1772 15.3403C31.4854 15.3139 31.7185 15.4985 31.9892 15.5474C32.0192 15.5512 32.0455 15.5775 32.0493 15.6114C32.0493 15.6604 32.0117 15.6792 31.9779 15.683C31.7749 15.698 31.7599 15.8449 31.7298 15.9993C31.6621 16.3307 31.5005 16.4964 31.2637 16.5077C30.9517 16.519 30.7148 16.3495 30.6284 16.037C30.6021 15.9391 30.5682 15.9428 30.5043 15.988C30.4104 16.052 30.3164 16.1123 30.2224 16.1763C30.1848 16.1989 30.1435 16.2328 30.1021 16.1989C30.0495 16.1575 30.0833 16.1048 30.1096 16.0633C30.275 15.8186 30.5119 15.6566 30.7449 15.4872C30.8765 15.3855 31.0231 15.3177 31.1772 15.3403Z" fill="#FDB913"/>
<path d="M30.0345 23.3693C30.3314 23.2903 30.5758 23.4635 30.8013 23.6292C30.9667 23.7497 31.0156 23.9794 31.0306 24.1903C31.0382 24.3033 30.9404 24.2807 30.8878 24.2317C30.4818 23.8551 29.9931 23.8514 29.4932 23.938C29.1812 23.9907 28.903 24.13 28.6662 24.3522C28.6286 24.3899 28.5835 24.4539 28.5233 24.42C28.4519 24.3786 28.4857 24.2995 28.512 24.2505C28.7 23.9116 28.9143 23.6141 29.3278 23.5049C29.5571 23.4447 29.7713 23.3392 30.0345 23.3693Z" fill="#FDB913"/>
<path d="M18.9001 25.7914C18.9001 26.183 18.5505 26.3977 18.1972 26.2131C18.1295 26.1755 18.0731 26.1755 18.0054 26.1981C17.8701 26.2433 17.7423 26.2244 17.6558 26.1002C17.5995 26.0173 17.5393 26.0022 17.4491 26.0437C17.3438 26.0926 17.2311 26.0926 17.1183 26.0625C17.0055 26.0324 16.9529 25.9458 16.9567 25.8365C16.9604 25.7236 17.0619 25.7349 17.1446 25.701C17.3702 25.6106 17.607 25.6746 17.8325 25.6332C17.9415 25.6144 18.0092 25.5692 18.0769 25.4863C18.2197 25.3131 18.4265 25.2679 18.6332 25.3508C18.8099 25.4223 18.8963 25.5729 18.9001 25.7914Z" fill="#FDB913"/>
<path d="M27.2415 20.9291C27.1926 20.8237 27.2415 20.7559 27.2828 20.6994C27.5723 20.2889 27.7865 19.8332 28.0384 19.4002C28.2038 19.114 28.4444 18.9257 28.7827 18.8918C28.8579 18.8842 28.9443 18.873 28.9782 18.9596C29.012 19.0424 28.9293 19.0763 28.8767 19.1177C28.5271 19.4115 28.4895 19.8295 28.7827 20.1948C28.8729 20.3077 28.809 20.3341 28.7113 20.3529C28.4181 20.4094 28.2489 20.304 28.1587 20.014C28.1437 19.9688 28.1549 19.901 28.0873 19.8973C28.0309 19.8973 28.0121 19.9575 27.9858 19.9989C27.7903 20.304 27.5835 20.6052 27.3204 20.8575C27.3016 20.8801 27.2753 20.899 27.2415 20.9291Z" fill="#FDB913"/>
<path d="M31.1058 17.4157C30.8878 17.427 30.7562 17.2876 30.666 17.1069C30.5983 16.9788 30.5307 16.8696 30.3728 16.847C30.3352 16.8433 30.2901 16.832 30.2938 16.783C30.2976 16.7378 30.3427 16.7303 30.3803 16.7265C30.6284 16.7039 30.8765 16.6776 31.1246 16.6625C31.275 16.655 31.4028 16.6173 31.5155 16.5119C31.6245 16.4064 31.6847 16.4366 31.711 16.5834C31.7937 17.0504 31.5343 17.4119 31.1058 17.4157Z" fill="#FDB913"/>
<path d="M27.2603 18.3673C27.3091 18.1451 27.4745 18.0321 27.5873 17.889C27.8316 17.5689 28.0797 17.2564 28.0985 16.8271C28.1061 16.7028 28.2076 16.6915 28.3128 16.7103C28.5158 16.748 28.6173 16.8497 28.591 16.9965C28.5835 17.0455 28.5609 17.0944 28.5308 17.1321C28.1888 17.5915 27.7903 17.9945 27.3392 18.3485C27.3242 18.356 27.3054 18.356 27.2603 18.3673Z" fill="#FDB913"/>
<path d="M29.4292 20.0506C29.3917 20.0506 29.2939 20.0732 29.2601 19.9753C29.23 19.8924 29.2789 19.8171 29.3278 19.7493C29.5157 19.4933 30.1773 19.4745 30.384 19.7117C30.4292 19.7644 30.4743 19.8247 30.4517 19.8962C30.4254 19.9828 30.3427 19.964 30.2788 19.9678C30.0044 19.9979 29.7375 20.0205 29.4292 20.0506Z" fill="#FDB913"/>
</svg>
