<svg width="80" height="80" viewBox="0 0 80 80" fill="none" xmlns="http://www.w3.org/2000/svg">
<path d="M8.09524 63.5703H5.2381V78.8084H8.09524V63.5703Z" fill="#FDB913"/>
<path d="M9.52381 63.5703C9.52381 63.9456 9.44991 64.317 9.30633 64.6636C9.16271 65.0103 8.95229 65.3251 8.68695 65.5908C8.42167 65.856 8.10672 66.0665 7.76005 66.2098C7.41338 66.3536 7.04186 66.4275 6.66667 66.4275C6.29148 66.4275 5.91995 66.3536 5.57329 66.2098C5.22662 66.0665 4.91167 65.856 4.64636 65.5908C4.38105 65.3251 4.1706 65.0103 4.02701 64.6636C3.88342 64.317 3.80952 63.9456 3.80952 63.5703H6.66667H9.52381Z" fill="#FDB913"/>
<path d="M16.4286 63.5703H13.5714V78.8084H16.4286V63.5703Z" fill="#FDB913"/>
<path d="M17.8571 63.5703C17.8571 63.9456 17.7832 64.317 17.6397 64.6636C17.496 65.0103 17.2856 65.3251 17.0203 65.5908C16.755 65.856 16.44 66.0665 16.0934 66.2098C15.7467 66.3536 15.3752 66.4275 15 66.4275C14.6248 66.4275 14.2533 66.3536 13.9066 66.2098C13.5599 66.0665 13.245 65.856 12.9797 65.5908C12.7144 65.3251 12.5039 65.0103 12.3603 64.6636C12.2168 64.317 12.1429 63.9456 12.1429 63.5703H15H17.8571Z" fill="#FDB913"/>
<path d="M24.7619 63.5703H21.9048V78.8084H24.7619V63.5703Z" fill="#FDB913"/>
<path d="M26.1905 63.5703C26.1905 63.9456 26.1166 64.317 25.973 64.6636C25.8294 65.0103 25.619 65.3251 25.3536 65.5908C25.0883 65.856 24.7734 66.0665 24.4267 66.2098C24.0801 66.3536 23.7085 66.4275 23.3333 66.4275C22.9581 66.4275 22.5866 66.3536 22.24 66.2098C21.8933 66.0665 21.5783 65.856 21.3131 65.5908C21.0477 65.3251 20.8373 65.0103 20.6937 64.6636C20.5501 64.317 20.4762 63.9456 20.4762 63.5703H23.3333H26.1905Z" fill="#FDB913"/>
<path d="M59.0476 63.5703H56.1905V78.8084H59.0476V63.5703Z" fill="#FDB913"/>
<path d="M60.4762 63.5703C60.4762 63.9456 60.4024 64.317 60.2586 64.6636C60.1152 65.0103 59.9048 65.3251 59.6395 65.5908C59.3738 65.856 59.059 66.0665 58.7124 66.2098C58.3657 66.3536 57.9943 66.4275 57.619 66.4275C57.2438 66.4275 56.8724 66.3536 56.5257 66.2098C56.179 66.0665 55.8643 65.856 55.5986 65.5908C55.3333 65.3251 55.1229 65.0103 54.9795 64.6636C54.8357 64.317 54.7619 63.9456 54.7619 63.5703H57.619H60.4762Z" fill="#FDB913"/>
<path d="M67.3809 63.5703H64.5238V78.8084H67.3809V63.5703Z" fill="#FDB913"/>
<path d="M68.8095 63.5703C68.8095 63.9456 68.7357 64.317 68.5919 64.6636C68.4486 65.0103 68.2381 65.3251 67.9729 65.5908C67.7071 65.856 67.3924 66.0665 67.0457 66.2098C66.6991 66.3536 66.3276 66.4275 65.9524 66.4275C65.5771 66.4275 65.2057 66.3536 64.8591 66.2098C64.5124 66.0665 64.1976 65.856 63.9319 65.5908C63.6667 65.3251 63.4562 65.0103 63.3129 64.6636C63.1691 64.317 63.0952 63.9456 63.0952 63.5703H65.9524H68.8095Z" fill="#FDB913"/>
<path d="M75.7143 63.5703H72.8571V78.8084H75.7143V63.5703Z" fill="#FDB913"/>
<path d="M77.1429 63.5703C77.1429 63.9456 77.069 64.317 76.9252 64.6636C76.7819 65.0103 76.5714 65.3251 76.3062 65.5908C76.0405 65.856 75.7257 66.0665 75.3791 66.2098C75.0324 66.3536 74.661 66.4275 74.2857 66.4275C73.9105 66.4275 73.539 66.3536 73.1924 66.2098C72.8457 66.0665 72.531 65.856 72.2652 65.5908C72 65.3251 71.7895 65.0103 71.6462 64.6636C71.5024 64.317 71.4286 63.9456 71.4286 63.5703H74.2857H77.1429Z" fill="#FDB913"/>
<path d="M7.61905 54.5234H4.28572C3.75973 54.5234 3.33334 54.9498 3.33334 55.4758C3.33334 56.0018 3.75973 56.4282 4.28572 56.4282H7.61905C8.14504 56.4282 8.57143 56.0018 8.57143 55.4758C8.57143 54.9498 8.14504 54.5234 7.61905 54.5234Z" fill="#FDB913"/>
<path d="M16.1905 54.5234H12.8571C12.3312 54.5234 11.9048 54.9498 11.9048 55.4758C11.9048 56.0018 12.3312 56.4282 12.8571 56.4282H16.1905C16.7165 56.4282 17.1429 56.0018 17.1429 55.4758C17.1429 54.9498 16.7165 54.5234 16.1905 54.5234Z" fill="#FDB913"/>
<path d="M24.7619 54.5234H21.4286C20.9026 54.5234 20.4762 54.9498 20.4762 55.4758C20.4762 56.0018 20.9026 56.4282 21.4286 56.4282H24.7619C25.2879 56.4282 25.7143 56.0018 25.7143 55.4758C25.7143 54.9498 25.2879 54.5234 24.7619 54.5234Z" fill="#FDB913"/>
<path d="M33.3333 54.5234H30C29.474 54.5234 29.0476 54.9498 29.0476 55.4758C29.0476 56.0018 29.474 56.4282 30 56.4282H33.3333C33.8593 56.4282 34.2857 56.0018 34.2857 55.4758C34.2857 54.9498 33.8593 54.5234 33.3333 54.5234Z" fill="#FDB913"/>
<path d="M50.4762 54.5234H47.1429C46.6169 54.5234 46.1905 54.9498 46.1905 55.4758C46.1905 56.0018 46.6169 56.4282 47.1429 56.4282H50.4762C51.0022 56.4282 51.4286 56.0018 51.4286 55.4758C51.4286 54.9498 51.0022 54.5234 50.4762 54.5234Z" fill="#FDB913"/>
<path d="M59.0476 54.5234H55.7143C55.1883 54.5234 54.7619 54.9498 54.7619 55.4758C54.7619 56.0018 55.1883 56.4282 55.7143 56.4282H59.0476C59.5736 56.4282 60 56.0018 60 55.4758C60 54.9498 59.5736 54.5234 59.0476 54.5234Z" fill="#FDB913"/>
<path d="M67.6191 54.5234H64.2857C63.7597 54.5234 63.3333 54.9498 63.3333 55.4758C63.3333 56.0018 63.7597 56.4282 64.2857 56.4282H67.6191C68.145 56.4282 68.5714 56.0018 68.5714 55.4758C68.5714 54.9498 68.145 54.5234 67.6191 54.5234Z" fill="#FDB913"/>
<path d="M76.1905 54.5234H72.8572C72.3312 54.5234 71.9048 54.9498 71.9048 55.4758C71.9048 56.0018 72.3312 56.4282 72.8572 56.4282H76.1905C76.7165 56.4282 77.1429 56.0018 77.1429 55.4758C77.1429 54.9498 76.7165 54.5234 76.1905 54.5234Z" fill="#FDB913"/>
<path d="M9.52381 59.7617H6.19048C5.66449 59.7617 5.2381 60.1881 5.2381 60.7141C5.2381 61.2401 5.66449 61.6665 6.19048 61.6665H9.52381C10.0498 61.6665 10.4762 61.2401 10.4762 60.7141C10.4762 60.1881 10.0498 59.7617 9.52381 59.7617Z" fill="#FDB913"/>
<path d="M18.0952 59.7617H14.7619C14.2359 59.7617 13.8095 60.1881 13.8095 60.7141C13.8095 61.2401 14.2359 61.6665 14.7619 61.6665H18.0952C18.6212 61.6665 19.0476 61.2401 19.0476 60.7141C19.0476 60.1881 18.6212 59.7617 18.0952 59.7617Z" fill="#FDB913"/>
<path d="M26.6667 59.7617H23.3333C22.8073 59.7617 22.381 60.1881 22.381 60.7141C22.381 61.2401 22.8073 61.6665 23.3333 61.6665H26.6667C27.1927 61.6665 27.619 61.2401 27.619 60.7141C27.619 60.1881 27.1927 59.7617 26.6667 59.7617Z" fill="#FDB913"/>
<path d="M57.6191 59.7617H54.2857C53.7597 59.7617 53.3333 60.1881 53.3333 60.7141C53.3333 61.2401 53.7597 61.6665 54.2857 61.6665H57.6191C58.145 61.6665 58.5714 61.2401 58.5714 60.7141C58.5714 60.1881 58.145 59.7617 57.6191 59.7617Z" fill="#FDB913"/>
<path d="M66.1905 59.7617H62.8571C62.3312 59.7617 61.9048 60.1881 61.9048 60.7141C61.9048 61.2401 62.3312 61.6665 62.8571 61.6665H66.1905C66.7165 61.6665 67.1428 61.2401 67.1428 60.7141C67.1428 60.1881 66.7165 59.7617 66.1905 59.7617Z" fill="#FDB913"/>
<path d="M74.7619 59.7617H71.4286C70.9026 59.7617 70.4762 60.1881 70.4762 60.7141C70.4762 61.2401 70.9026 61.6665 71.4286 61.6665H74.7619C75.2879 61.6665 75.7143 61.2401 75.7143 60.7141C75.7143 60.1881 75.2879 59.7617 74.7619 59.7617Z" fill="#FDB913"/>
<path d="M44.1733 62H36.8267C36.3701 62 36 62.4477 36 63C36 63.5523 36.3701 64 36.8267 64H44.1733C44.6299 64 45 63.5523 45 63C45 62.4477 44.6299 62 44.1733 62Z" fill="#FDB913"/>
<path d="M45.0845 66.0938H35.2381C34.7121 66.0938 34.2857 66.5201 34.2857 67.0461C34.2857 67.5721 34.7121 67.9985 35.2381 67.9985H45.0845C45.6105 67.9985 46.0368 67.5721 46.0368 67.0461C46.0368 66.5201 45.6105 66.0938 45.0845 66.0938Z" fill="#FDB913"/>
<path d="M47.9816 70H33.0184C32.4559 70 32 70.4477 32 71C32 71.5523 32.4559 72 33.0184 72H47.9816C48.5441 72 49 71.5523 49 71C49 70.4477 48.5441 70 47.9816 70Z" fill="#FDB913"/>
<path d="M50.8263 74H30.1737C29.5255 74 29 74.4477 29 75C29 75.5523 29.5255 76 30.1737 76H50.8263C51.4745 76 52 75.5523 52 75C52 74.4477 51.4745 74 50.8263 74Z" fill="#FDB913"/>
<path fill-rule="evenodd" clip-rule="evenodd" d="M35.4762 57.1426H1.42857H0.714287V57.8569V63.5711V64.2854H1.42857H29.5238H29.8031L30.0083 64.096L35.477 59.048H35.4762V57.1426ZM36.9048 57.1426H37.5412L37.0246 57.6194H36.9048V57.1426ZM2.14286 62.8569V58.5711H33.8874L29.2445 62.8569H2.14286Z" fill="#FDB913"/>
<path fill-rule="evenodd" clip-rule="evenodd" d="M45.054 59.048L50.9637 64.1135L51.1643 64.2854H51.4286H79.0476H79.7619V63.5711V57.8569V57.1426H79.0476H45.4762V59.048H45.054ZM43.3873 57.6194L42.831 57.1426H44.0476V57.6194H43.3873ZM51.6928 62.8569L46.6928 58.5711H78.3333V62.8569H51.6928Z" fill="#FDB913"/>
<path d="M21.4286 47.8574H19.5238V52.6193H21.4286V47.8574Z" fill="#FDB913"/>
<path d="M61.4286 47.8574H59.5238V52.6193H61.4286V47.8574Z" fill="#FDB913"/>
<path d="M36.4286 12.1426C33.9524 17.2854 33.1746 29.0473 33.0952 34.5235L36.4286 33.5711C36.4286 27.4759 37.8572 23.8886 38.5714 22.8569H42.381C43.9048 26.095 44.127 31.3489 44.0476 33.5711L47.381 34.5235C47.1905 22.1426 45.2381 14.6029 44.2857 12.1426H36.4286Z" stroke="#FDB913" stroke-width="1.42857"/>
<path d="M40.4925 1.42969C37.8399 3.68077 36.1905 5.00112 37.3297 7.62016H43.6554C44.7619 4.76302 42.703 3.68077 40.4925 1.42969Z" fill="#FDB913"/>
<path d="M44.0476 33.5753L47.381 35.0039C47.238 25.7093 45.1416 15.0039 45.1416 15.0039C45.1416 15.0039 36.6097 15.0152 35.3941 15.0039C33.7277 20.9273 33.1623 30.378 33.0952 35.0039L36.4286 33.5753C36.4286 27.4801 37.8572 23.8928 38.5714 22.8611H42.381C43.9048 26.0991 44.127 31.3531 44.0476 33.5753Z" fill="#FDB913"/>
<path d="M40.4893 37.8574C38.3673 38.7232 38.4262 39.8055 38.7209 40.2384H42.2577C42.6114 39.8055 42.2577 38.7232 40.4893 37.8574Z" fill="#FDB913"/>
<path d="M46.9048 8.81055H34.0476C33.6531 8.81055 33.3333 9.13034 33.3333 9.52483C33.3333 9.91932 33.6531 10.2391 34.0476 10.2391H46.9048C47.2992 10.2391 47.619 9.91932 47.619 9.52483C47.619 9.13034 47.2992 8.81055 46.9048 8.81055Z" fill="#FDB913"/>
<path fill-rule="evenodd" clip-rule="evenodd" d="M43.9362 32.8574H36.3002L19.0476 39.2655V42.1693L20.43 43.782L20.8342 43.1756L21.0463 42.8576H21.4286H59.5238H59.9062L60.1181 43.1756L60.4912 43.7352L61.4286 42.0947V39.2631L43.9362 32.8574ZM20.4762 40.2588L36.5569 34.286H43.6829L60 40.2613V41.7153L59.3474 42.8574H21.519L20.4762 41.6408V40.2588Z" fill="#FDB913"/>
<path d="M43.3333 44.5234H37.6191C37.0931 44.5234 36.6667 44.9498 36.6667 45.4758C36.6667 46.0018 37.0931 46.4282 37.6191 46.4282H43.3333C43.8593 46.4282 44.2857 46.0018 44.2857 45.4758C44.2857 44.9498 43.8593 44.5234 43.3333 44.5234Z" fill="#FDB913"/>
<path d="M41.1905 30.2383H39.2857C38.8912 30.2383 38.5714 30.5581 38.5714 30.9526C38.5714 31.3471 38.8912 31.6669 39.2857 31.6669H41.1905C41.585 31.6669 41.9048 31.3471 41.9048 30.9526C41.9048 30.5581 41.585 30.2383 41.1905 30.2383Z" fill="#FDB913"/>
<path fill-rule="evenodd" clip-rule="evenodd" d="M44.0476 57.6177L44.0476 48.5703H36.9048V57.6177H44.0476Z" fill="#FDB913"/>
<path fill-rule="evenodd" clip-rule="evenodd" d="M35.4762 47.8574H26.6667V52.6193H28.5714V49.7622H35.4762V47.8574ZM44.0476 49.7622H36.9048V48.571H44.0476V49.7622ZM45.4762 49.7622H51.4286V52.6193H53.3333V47.8574H45.4762V49.7622Z" fill="#FDB913"/>
<path fill-rule="evenodd" clip-rule="evenodd" d="M35.4762 51.9043H1.42857H0.714287V52.6186V57.8567V58.571H1.42857H35.4762V57.1424H2.14286V53.3329H35.4762V51.9043ZM36.9048 57.1424V57.6185H44.0476V57.1424H36.9048ZM44.0476 53.3329H36.9048V51.9043H44.0476V53.3329ZM45.4762 57.1424H78.3333V53.3329H45.4762V51.9043H79.0476H79.7619V52.6186V57.8567V58.571H79.0476H45.4762V57.1424Z" fill="#FDB913"/>
<path d="M7.14286 46.9043H4.28571V52.1424H7.14286V46.9043Z" fill="#FDB913"/>
<path d="M14.7619 46.9043H11.9048V52.1424H14.7619V46.9043Z" fill="#FDB913"/>
<path fill-rule="evenodd" clip-rule="evenodd" d="M5.0041 45.9524C4.82619 43.4053 5.16419 37.649 7.93919 35H11.1412C12.0307 35.2547 13.8095 37.8018 13.8095 45.9524H11.4286C11.4286 42.0543 10.6624 40.8361 10.2793 40.7143H8.90014C7.70486 41.9812 7.55929 44.7342 7.63591 45.9524H5.0041Z" fill="#FDB913"/>
<path d="M9.53034 31.666C8.46934 32.5318 8.49881 33.6141 8.6462 34.047H10.4146C10.5914 33.6141 10.4146 32.5318 9.53034 31.666Z" fill="#FDB913"/>
<path d="M15.2381 45.9531H3.57143C3.17694 45.9531 2.85715 46.2729 2.85715 46.6674C2.85715 47.0619 3.17694 47.3817 3.57143 47.3817H15.2381C15.6326 47.3817 15.9524 47.0619 15.9524 46.6674C15.9524 46.2729 15.6326 45.9531 15.2381 45.9531Z" fill="#FDB913"/>
<path d="M68.0952 46.9043H65.2381V52.1424H68.0952V46.9043Z" fill="#FDB913"/>
<path d="M75.7143 46.9043H72.8571V52.1424H75.7143V46.9043Z" fill="#FDB913"/>
<path fill-rule="evenodd" clip-rule="evenodd" d="M65.9567 45.9524C65.7786 43.4053 66.1167 37.649 68.8914 35H72.0938C72.9829 35.2547 74.7619 37.8018 74.7619 45.9524H72.381C72.381 42.0543 71.6148 40.8361 71.2314 40.7143H69.8524C68.6572 41.9812 68.5114 44.7342 68.5881 45.9524H65.9567Z" fill="#FDB913"/>
<path d="M70.4829 31.666C69.4219 32.5318 69.4514 33.6141 69.5986 34.047H71.3671C71.5438 33.6141 71.3671 32.5318 70.4829 31.666Z" fill="#FDB913"/>
<path d="M76.1905 45.9531H64.5238C64.1293 45.9531 63.8095 46.2729 63.8095 46.6674C63.8095 47.0619 64.1293 47.3817 64.5238 47.3817H76.1905C76.585 47.3817 76.9048 47.0619 76.9048 46.6674C76.9048 46.2729 76.585 45.9531 76.1905 45.9531Z" fill="#FDB913"/>
<path fill-rule="evenodd" clip-rule="evenodd" d="M45.2038 42.8576H50.9529L40.4762 35L29.9994 42.8576H35.2724C35.4414 41.2788 36.2146 41.1905 37.1428 41.1905H43.3333C44.2616 41.1905 45.0348 41.2788 45.2038 42.8576Z" fill="#FDB913"/>
<path fill-rule="evenodd" clip-rule="evenodd" d="M61.0463 47.1423H47.9151L45.0578 44.2852H59.1416L61.0463 47.1423ZM21.8109 44.2852H35.8946L33.0374 47.1423H19.9061L21.8109 44.2852Z" fill="#FDB913"/>
<rect x="1" y="78" width="79" height="2" fill="#FDB913"/>
</svg>
