<svg width="80" height="80" viewBox="0 0 80 80" fill="none" xmlns="http://www.w3.org/2000/svg">
<path d="M14.9368 24C31.7845 24 49.5267 24 66.2997 24C67.1197 27.4535 67.3434 30.6817 68.6107 33.4595C74.2763 45.997 74.9472 58.2342 67.7161 70.3964C66.2252 72.8739 64.5106 74 61.4542 74C47.4393 73.7748 33.4245 73.8499 19.3351 74C16.6514 74 15.0114 73.0991 13.595 70.7718C6.06576 58.6847 6.66213 46.4474 12.2532 33.9099C13.5205 30.982 13.9677 27.7538 14.9368 24ZM38.2701 30.8318C39.9101 31.1321 41.5501 31.3574 43.1156 31.6577C44.0102 32.8589 44.8302 34.1351 45.7248 35.3363C44.8302 36.6877 43.9356 38.039 43.0411 39.3904C41.401 39.7658 39.8355 40.1411 38.1955 40.4414C39.0155 38.1892 38.5682 36.4625 36.0336 36.0871C35.2882 35.9369 33.9463 36.7628 33.7227 37.4384C33.4245 38.2643 33.7972 40.1411 34.3191 40.2913C35.5118 40.7417 36.9282 40.3664 38.2701 40.3664C39.0901 44.3453 39.8355 48.3994 40.8047 53.2042C38.4192 51.5526 37.0028 50.6517 35.5864 49.6757C35.2882 49.9009 35.0645 50.1261 34.7664 50.3514C35.2882 51.3273 35.81 52.3033 36.4064 53.2793C38.1955 56.2072 41.6247 58.4595 39.6119 62.6637C38.4937 61.8378 37.2264 61.012 36.0336 60.1111C35.7355 60.3363 35.4373 60.6366 35.1391 60.8619C37.1519 64.1652 39.0901 67.4685 40.6556 69.946C41.9974 68.3694 43.712 66.5676 45.2029 64.5405C46.0229 63.3393 46.3957 61.8378 46.9921 60.4865C46.6193 60.2613 46.3211 60.1111 45.9484 59.8859C44.532 60.9369 43.1156 62.0631 42.072 62.8138C38.0464 56.8829 46.9921 55.0811 46.6193 49.0751C44.532 50.5766 43.1156 51.6276 41.1028 53.1291C41.5501 49.5255 41.9229 46.5225 42.2956 43.5195C42.4447 42.0931 42.6683 40.5916 42.892 39.1652C44.2338 39.6907 45.5757 40.3664 46.9921 40.5916C47.3648 40.6667 48.483 38.7898 48.2594 38.3393C47.663 37.1381 46.5448 36.2372 45.5757 35.2613C46.5448 34.4354 47.8121 33.8348 48.2594 32.7838C48.483 32.1832 47.2902 30.2312 46.7684 30.2312C45.5011 30.3063 44.2338 31.1321 42.892 31.6577C43.4883 29.8559 44.0847 27.9039 41.401 27.3033C38.5682 26.7027 38.1955 28.6547 38.1955 30.9069C37.45 30.6066 36.4064 29.7808 35.8846 30.0811C34.8409 30.6066 33.7972 31.5826 33.2754 32.6336C33.0518 33.009 34.3191 34.6607 34.99 34.8108C35.8846 34.961 37.2264 34.2853 37.8228 33.6096C38.5682 33.009 38.1955 31.7327 38.2701 30.8318ZM25.5971 44.045C25.6716 42.6937 26.0444 41.2673 25.7462 40.0661C25.5971 39.6156 23.2861 39.1652 22.9134 39.5405C22.0934 40.4414 21.8697 41.9429 21.3479 43.1441C21.0497 42.994 20.677 42.6186 20.4533 42.6186C19.2606 42.7688 17.7696 42.6937 16.9496 43.3694C16.5023 43.7447 17.0987 45.4715 17.2478 46.5225C18.5897 46.1471 19.9315 45.9219 21.1988 45.3964C21.6461 45.2462 21.8697 44.4204 22.1679 43.8949C23.3607 43.8949 24.5534 43.8949 25.7462 43.8949C26.1189 44.5706 26.3425 45.5465 26.8644 45.7718C28.0571 46.2222 29.399 46.2973 30.6663 46.5225C30.8154 45.3964 31.3372 43.6697 30.9645 43.3694C30.0699 42.7688 28.5789 42.6937 27.3862 42.6937C26.7153 42.7688 26.1934 43.5946 25.5971 44.045ZM59.4414 43.6697C59.8141 44.4204 59.9632 45.5466 60.5596 45.9219C61.3051 46.4475 62.6469 46.973 63.3924 46.6727C64.1379 46.3724 64.9579 44.9459 64.8088 44.1952C64.6597 43.2943 63.5415 42.018 62.796 42.018C61.7524 41.9429 60.7087 42.9189 59.5905 43.3694C60.336 41.4174 60.4105 39.6156 57.7268 39.2402C54.8195 38.8649 54.6704 40.8919 54.894 43.0691C54.5958 42.8438 54.2977 42.6937 53.9995 42.4685C52.2849 41.1171 50.8685 41.7177 50.1976 43.5195C49.8994 44.3453 50.7194 45.5465 51.0176 46.5976C52.2103 46.1471 53.4776 45.8469 54.5958 45.2462C55.0431 45.021 55.2668 44.1952 55.565 43.6697C56.9068 43.8198 58.1741 43.7447 59.4414 43.6697ZM21.1242 52.3784C21.1242 51.3273 21.3479 50.1261 20.9752 49.2252C20.677 48.5495 19.4097 47.7237 18.8133 47.8739C17.9187 48.0991 16.6514 49 16.5023 49.8258C16.2787 50.6517 17.0242 52.2282 17.7696 52.5285C18.7387 52.9039 20.0806 52.3784 21.1988 52.2282C21.9443 55.6066 22.7643 59.0601 23.5098 62.4384C23.2116 62.5135 22.9134 62.5886 22.6152 62.6637C21.4224 61.8378 20.2297 60.9369 19.0369 60.1111C18.7387 60.3363 18.4406 60.6366 18.1424 60.8619C20.1551 64.1652 22.1679 67.4685 24.1061 70.6967C24.4043 69.6457 24.8516 68.3694 25.2989 67.018C28.4299 67.3934 31.4863 64.0901 30.7408 61.1622C30.7408 61.012 30.0699 61.0871 29.6972 61.0871C28.0571 61.5375 26.4171 61.9129 24.628 62.3634C24.628 62.5886 24.4789 62.1381 24.628 61.6877C25.1498 58.5345 25.8953 55.3063 26.5662 52.0781C27.908 52.1532 29.2499 52.6036 30.5172 52.2282C30.9645 52.0781 31.4117 50.1261 31.1135 49.3754C30.7408 48.5496 28.8771 47.5736 28.6535 47.7988C27.6844 48.6246 27.1626 49.9009 26.4171 50.952C24.628 51.4775 22.8388 51.9279 21.1242 52.3784ZM63.0942 61.0871C61.4542 61.5375 59.7396 61.988 58.025 62.5135C58.025 62.6637 57.8759 62.2132 57.9505 61.7628C58.6959 58.5345 59.4414 55.3063 60.1123 52.0781C61.976 53.1291 63.9888 53.8048 64.7342 51.027C64.9579 50.2012 63.5415 48.8499 62.8706 47.7988C61.8269 48.8499 60.7832 49.8258 59.8141 50.8769C58.3977 50.952 56.9068 51.1021 55.4904 51.1772C54.4468 50.0511 53.4776 48.7748 52.2849 47.949C52.0613 47.7988 50.4212 49 50.0485 49.8258C49.8248 50.5015 50.4212 52.1532 50.943 52.3033C52.2103 52.6036 53.6267 52.2282 54.9686 52.0781C55.6395 55.5315 56.3104 59.0601 57.1304 63.3393C54.9686 61.8378 53.7013 60.9369 52.5085 60.1111C52.2849 60.3363 51.9867 60.5616 51.7631 60.7117C53.7758 64.0901 55.7141 67.4685 57.8014 70.997C57.8759 70.3964 57.9505 69.6456 58.0996 68.97C58.2486 68.2943 58.6214 67.6937 58.845 67.018C62.0505 67.3934 64.9579 64.1652 64.2124 61.1622C64.1379 61.0871 63.4669 61.1622 63.0942 61.0871ZM41.0283 32.4835C39.9846 33.985 38.8664 34.8859 39.0155 35.6366C39.1646 36.3874 40.2828 37.2883 41.1774 37.5886C41.5501 37.7387 42.892 36.3874 42.892 35.7117C42.892 34.8108 41.9229 33.985 41.0283 32.4835ZM26.8644 47.2733C25.3734 46.3724 24.4789 45.3213 23.8079 45.5466C23.0625 45.6967 22.2425 46.973 22.0934 47.7988C22.0188 48.3243 23.3607 49.5255 23.957 49.4505C24.7025 49.3754 25.448 48.3994 26.8644 47.2733Z" fill="#FDB913"/>
<path d="M40.0923 9.34783C33.9769 9.38577 21.3859 12.3248 19.8195 18.2601C19.4466 19.5443 17.214 20.9327 21.1672 21.8351C21.9131 22.0086 22.1369 23.64 21.3164 24.0912C20.3468 24.6118 17.7362 24.8895 16.319 24.6465C15.1255 24.4383 13.6338 23.0152 14.0813 22.7028C16.7665 20.8979 15.8714 18.8154 16.9157 16.9064C19.3771 12.2901 24.3746 8.64565 34.7424 7.36142C45.707 6.00776 56.597 8.54152 61.2961 13.5396C62.937 15.2404 63.4592 17.1841 64.5034 19.0237C65.1001 20.0302 65.7714 21.0715 66.5173 22.0433C67.3378 23.0846 67.2632 23.9523 65.1001 24.6118C62.937 25.2713 60.9977 25.063 59.4314 24.1953C57.7904 23.2929 58.0142 22.1475 60.0281 21.6268C62.4895 20.9674 61.3758 20.0649 61.0774 19.1278C58.5033 10.4436 44.1692 9.32253 40.0923 9.34783Z" fill="#FDB913"/>
</svg>
