<svg width="347" height="308" viewBox="0 0 347 308" fill="none" xmlns="http://www.w3.org/2000/svg">
<path d="M173.677 307.935C119.542 307.935 65.3422 307.935 11.207 307.935C10.0442 307.935 8.8168 307.999 7.65399 307.935C3.71337 307.741 0.935547 305.024 0.935547 301.467C1.00015 297.846 3.71337 295.259 7.78319 295.259C18.5715 295.194 29.2951 295.13 40.0834 295.259C42.9258 295.324 44.024 294.612 44.024 291.508C43.8948 275.793 43.8948 260.012 44.024 244.297C44.024 241.387 43.1196 240.481 40.2772 240.675C37.8224 240.869 35.303 240.74 32.8482 240.675C29.1013 240.546 26.6465 238.347 26.3235 234.855C26.0005 231.492 28.1323 228.711 31.75 227.935C34.5278 227.353 37.3702 227.547 40.148 227.676C43.055 227.806 44.0886 226.835 44.024 223.796C43.8948 201.807 43.9594 179.819 43.9594 157.83C43.9594 156.86 43.9594 155.89 43.9594 154.92C44.0886 150.91 46.6081 148.129 50.1611 148C53.8433 147.87 56.6211 150.716 56.6211 154.92C56.6857 177.426 56.6211 199.996 56.6211 222.502C56.6211 227.612 56.6211 227.547 61.7892 227.612C63.598 227.612 65.4714 227.676 67.2156 228C70.5102 228.711 72.7066 231.751 72.3836 234.855C72.0606 238.088 69.5412 240.481 66.0528 240.675C63.9856 240.805 61.983 240.805 59.9158 240.675C57.3963 240.481 56.4919 241.387 56.5565 243.974C56.6857 255.421 56.5565 266.803 56.5565 278.25C56.5565 282.906 56.6211 287.498 56.5565 292.155C56.4919 294.354 57.2671 295.259 59.5282 295.259C79.0375 295.194 98.4822 295.194 117.992 295.259C121.286 295.259 120.899 293.189 120.899 291.12C120.899 264.41 120.899 237.636 120.899 210.926C120.899 202.001 120.834 193.012 120.963 184.087C121.028 181.371 120.123 180.077 117.281 180.271C115.278 180.401 113.147 180.401 111.144 180.142C107.203 179.689 104.684 176.779 104.942 173.222C105.201 169.665 107.655 167.402 111.661 167.208C113.599 167.143 115.537 167.013 117.475 167.208C120.253 167.466 121.092 166.173 120.963 163.586C120.834 160.352 120.963 157.119 120.963 153.885C120.963 132.349 120.963 110.748 120.963 89.2126C120.963 87.4017 121.028 85.5262 121.415 83.7801C122.061 80.8051 124.839 78.7356 127.746 78.8003C130.847 78.865 133.496 81.2578 133.948 84.3621C134.142 85.5262 134.077 86.755 134.077 87.9191C134.077 112.947 134.077 137.911 134.077 162.939C134.077 167.143 134.077 167.143 138.405 167.143C140.537 167.143 142.734 167.078 144.865 167.208C148.354 167.466 150.809 169.859 151.132 173.093C151.39 176.391 149.194 179.366 145.641 179.948C143.315 180.336 140.925 180.207 138.535 180.271C134.142 180.336 134.142 180.336 134.142 184.863C134.142 201.484 134.142 218.04 134.142 234.661C134.142 253.545 134.206 272.365 134.077 291.249C134.077 294.353 134.981 295.259 138.082 295.259C159.723 295.13 181.365 295.13 203.006 295.259C206.107 295.259 207.076 294.289 207.076 291.185C206.946 267.708 207.011 244.168 207.076 220.692C207.076 217.652 206.171 216.294 203.07 216.553C200.809 216.747 198.548 216.682 196.287 216.488C192.282 216.165 189.763 213.384 189.892 209.762C190.021 206.14 192.734 203.618 196.74 203.489C199.001 203.424 201.262 203.359 203.523 203.489C206.236 203.683 207.14 202.519 207.076 199.932C206.946 192.042 207.011 184.216 207.011 176.326C207.011 167.596 207.011 158.865 207.011 150.134C207.011 148.388 207.076 146.642 207.463 145.025C208.109 141.727 210.693 139.851 213.988 140.045C217.153 140.239 219.608 142.503 219.996 145.736C220.125 146.771 220.06 147.87 220.06 148.97C220.06 165.785 220.125 182.6 219.996 199.414C219.996 202.713 220.9 203.941 224.195 203.553C225.874 203.359 227.619 203.424 229.363 203.553C233.174 203.812 235.823 206.334 235.952 209.827C236.081 213.19 233.562 216.035 229.75 216.488C227.748 216.747 225.681 216.747 223.613 216.617C220.706 216.359 219.996 217.587 219.996 220.368C220.06 242.228 220.06 264.151 220.06 286.011C220.06 287.951 220.189 289.891 219.996 291.831C219.737 294.612 220.965 295.259 223.549 295.259C239.57 295.194 255.655 295.194 271.676 295.194C277.684 295.194 283.756 295.065 289.764 295.259C292.477 295.324 293.253 294.289 293.253 291.637C293.188 249.471 293.188 207.369 293.253 165.203C293.253 162.745 292.477 161.646 289.893 161.775C287.309 161.904 284.725 161.84 282.141 161.775C278.136 161.646 275.358 159.123 275.294 155.566C275.229 151.88 278.071 149.164 282.206 149.035C284.467 148.97 286.728 149.035 288.989 149.035C293.188 149.035 293.188 149.035 293.188 144.637C293.188 130.926 293.188 117.28 293.188 103.57C293.188 101.371 293.317 99.2368 295.126 97.62C297.193 95.8738 299.583 95.3564 302.038 96.4559C304.751 97.6847 305.914 99.9482 305.914 102.923C305.85 116.698 305.914 130.538 305.914 144.313C305.914 149.035 305.914 148.97 310.695 149.035C312.31 149.035 313.925 148.97 315.54 149.099C319.093 149.487 321.418 152.204 321.354 155.631C321.289 158.929 318.899 161.452 315.411 161.71C313.279 161.84 311.082 161.904 308.951 161.775C306.496 161.581 305.591 162.68 305.85 165.009C305.914 165.461 305.85 165.849 305.85 166.302C305.85 207.822 305.85 249.277 305.85 290.797C305.85 295.194 305.85 295.194 310.307 295.194C319.868 295.194 329.493 295.194 339.054 295.194C343.899 295.194 346.806 297.522 346.806 301.403C346.806 305.477 343.899 307.87 338.86 307.87C292.8 307.87 246.676 307.87 200.616 307.87C191.765 307.935 182.721 307.935 173.677 307.935Z" fill="black"/>
<path d="M213.471 134.677C192.476 134.613 177.295 115.211 182.334 94.7744C182.98 92.0582 182.463 90.5061 180.46 88.6952C170.189 79.5117 160.047 70.1989 149.904 60.8214C148.354 59.3339 147.191 59.3339 145.447 60.498C136.274 66.5126 126.519 67.806 116.248 63.7317C114.374 63.0203 113.147 63.2143 111.661 64.5724C101.26 74.2733 90.795 83.8448 80.2651 93.4163C79.0377 94.5804 78.7793 95.5505 79.5545 97.038C89.5676 117.474 75.6785 140.886 53.5205 143.343C36.9828 145.154 20.1221 132.155 18.3133 115.276C16.8275 101.694 21.7371 90.8294 33.236 83.5214C44.5411 76.4075 56.2983 76.6662 67.668 83.6508C69.4768 84.7502 70.6396 84.6209 72.1901 83.2627C81.7509 74.4026 91.3118 65.5425 100.937 56.8117C102.811 55.1302 102.681 53.9661 101.325 52.026C89.6968 35.2111 95.7046 12.8345 113.987 4.10369C126.002 -1.65216 140.537 0.740724 150.227 10.0536C159.853 19.3017 162.889 33.465 157.527 45.7527C156.429 48.3396 156.817 49.7624 158.819 51.5086C168.703 60.3687 178.458 69.2935 188.148 78.283C189.634 79.6411 190.538 79.7058 192.153 78.3476C206.688 65.7365 226.521 67.2887 238.859 82.0986C240.474 84.0388 241.572 84.1682 243.64 83.0687C251.069 79.1237 258.562 75.308 266.056 71.6217C268.317 70.5223 268.834 69.2935 268.188 66.8359C263.795 50.9265 273.614 33.853 289.054 28.6792C304.946 23.3114 321.806 30.49 329.106 45.8174C335.631 59.5926 331.302 76.2781 318.705 85.6556C306.625 94.6451 289.571 93.869 278.524 83.7155C276.392 81.7753 274.842 81.6459 272.387 82.9394C264.57 87.0784 256.689 91.0234 248.743 94.9038C246.611 95.9385 245.772 97.1673 245.901 99.6249C247.387 119.027 232.787 134.742 213.471 134.677ZM194.22 102.47C194.22 113.141 203.264 122.066 213.859 121.937C224.518 121.808 233.304 112.818 233.239 102.147C233.174 91.7348 224.195 82.9394 213.665 82.9394C202.877 82.8747 194.22 91.6055 194.22 102.47ZM127.876 52.8667C138.535 52.802 147.385 43.8772 147.32 33.2063C147.256 22.6647 138.47 14.1279 127.746 14.0632C116.894 14.0632 108.237 22.7293 108.302 33.5296C108.366 44.4593 116.958 52.9314 127.876 52.8667ZM299.584 39.9969C288.731 39.9969 280.074 48.663 280.139 59.4633C280.204 70.0049 288.925 78.7357 299.519 78.7357C310.501 78.7357 319.222 69.9402 319.158 59.0106C319.093 48.4043 310.372 39.9322 299.584 39.9969ZM50.2259 130.409C60.9496 130.474 69.8644 121.678 69.8644 111.007C69.8644 100.466 61.1434 91.4761 50.6781 91.3468C39.9544 91.2174 30.8458 100.207 30.8458 111.007C30.7812 121.484 39.696 130.344 50.2259 130.409Z" fill="#FDB913"/>
<rect x="26" y="227" width="47" height="14" rx="7" fill="#FDB913"/>
<rect x="104.5" y="166.5" width="47" height="14" rx="7" fill="#FDB913"/>
<rect x="189" y="203" width="47" height="14" rx="7" fill="#FDB913"/>
<rect x="275" y="148" width="47" height="14" rx="7" fill="#FDB913"/>
</svg>
