<svg width="81" height="82" viewBox="0 0 81 82" fill="none" xmlns="http://www.w3.org/2000/svg">
<path d="M37.4444 33L37.2469 34.0312L36.4963 37.7993C35.2914 38.2752 34.2049 38.9446 33.2173 39.7428L29.5432 38.4736L28.5556 38.1562L28.042 39.0685L25.5136 43.4315L25 44.3438L25.7506 45.018L28.5951 47.5168C28.4914 48.1663 28.358 48.8158 28.358 49.5C28.358 50.1842 28.4914 50.8337 28.5951 51.4832L25.7506 53.982L25 54.6562L25.5136 55.5685L28.042 59.9315L28.5556 60.8437L29.5432 60.5264L33.2173 59.2572C34.2049 60.0554 35.2914 60.7248 36.4963 61.2007L37.2469 64.9687L37.4444 66H44.5556L44.7531 64.9687L45.5037 61.2007C46.7086 60.7248 47.7951 60.0554 48.7827 59.2572L52.4568 60.5264L53.4444 60.8437L53.958 59.9315L56.4864 55.5685L57 54.6562L56.2494 53.982L53.4049 51.4832C53.5086 50.8337 53.642 50.1842 53.642 49.5C53.642 48.8158 53.5086 48.1663 53.4049 47.5168L56.2494 45.018L57 44.3438L56.4864 43.4315L53.958 39.0685L53.4444 38.1562L52.4568 38.4736L48.7827 39.7428C47.7951 38.9446 46.7086 38.2752 45.5037 37.7993L44.7531 34.0312L44.5556 33H37.4444ZM39.4988 35.5385H42.5012L43.1333 38.8305L43.2914 39.5841L44.0025 39.8221C45.4395 40.2733 46.7432 41.0368 47.8346 42.0433L48.3877 42.5589L49.0988 42.3209L52.2988 41.2103L53.8 43.7885L51.2716 46.0493L50.679 46.5252L50.8765 47.2788C51.0395 48.0027 51.1136 48.7414 51.1136 49.5C51.1136 50.2586 51.0395 50.9973 50.8765 51.7212L50.7185 52.4748L51.2716 52.9507L53.8 55.2115L52.2988 57.7897L49.0988 56.6791L48.3877 56.4411L47.8346 56.9567C46.7432 57.9632 45.4395 58.7267 44.0025 59.1779L43.2914 59.4159L43.1333 60.1695L42.5012 63.4615H39.4988L38.8667 60.1695L38.7086 59.4159L37.9975 59.1779C36.5605 58.7267 35.2568 57.9632 34.1654 56.9567L33.6123 56.4411L32.9012 56.6791L29.7012 57.7897L28.2 55.2115L30.7284 52.9507L31.321 52.4748L31.1235 51.7212C30.9605 50.9973 30.8864 50.2586 30.8864 49.5C30.8864 48.7414 30.9605 48.0027 31.1235 47.2788L31.321 46.5252L30.7284 46.0493L28.2 43.7885L29.7012 41.2103L32.9012 42.3209L33.6123 42.5589L34.1654 42.0433C35.2568 41.0368 36.5605 40.2733 37.9975 39.8221L38.7086 39.5841L38.8667 38.8305L39.4988 35.5385ZM41 43.1538C37.5235 43.1538 34.679 46.0096 34.679 49.5C34.679 52.9904 37.5235 55.8462 41 55.8462C44.4765 55.8462 47.321 52.9904 47.321 49.5C47.321 46.0096 44.4765 43.1538 41 43.1538ZM41 45.6923C43.1086 45.6923 44.7926 47.383 44.7926 49.5C44.7926 51.617 43.1086 53.3077 41 53.3077C38.8914 53.3077 37.2074 51.617 37.2074 49.5C37.2074 47.383 38.8914 45.6923 41 45.6923Z" fill="#FDB913"/>
<path d="M40 0C34.9879 0 30.9 4.14506 30.9 9.22727C30.9 12.4043 32.4996 15.226 34.9219 16.8892C30.2855 18.9077 27 23.5728 27 29H29.6C29.6 23.1609 34.2414 18.4545 40 18.4545C45.7586 18.4545 50.4 23.1609 50.4 29H53C53 23.5728 49.7145 18.9077 45.0781 16.8892C47.5004 15.226 49.1 12.4043 49.1 9.22727C49.1 4.14506 45.0121 0 40 0ZM40 2.63636C43.6055 2.63636 46.5 5.57138 46.5 9.22727C46.5 12.8832 43.6055 15.8182 40 15.8182C36.3945 15.8182 33.5 12.8832 33.5 9.22727C33.5 5.57138 36.3945 2.63636 40 2.63636Z" fill="black"/>
<path d="M13 53C7.98789 53 3.9 57.1451 3.9 62.2273C3.9 65.4043 5.49961 68.226 7.92187 69.8892C3.28555 71.9077 0 76.5728 0 82H2.6C2.6 76.1609 7.24141 71.4545 13 71.4545C18.7586 71.4545 23.4 76.1609 23.4 82H26C26 76.5728 22.7145 71.9077 18.0781 69.8892C20.5004 68.226 22.1 65.4043 22.1 62.2273C22.1 57.1451 18.0121 53 13 53ZM13 55.6364C16.6055 55.6364 19.5 58.5714 19.5 62.2273C19.5 65.8832 16.6055 68.8182 13 68.8182C9.39453 68.8182 6.5 65.8832 6.5 62.2273C6.5 58.5714 9.39453 55.6364 13 55.6364Z" fill="black"/>
<path d="M68 53C62.9879 53 58.9 57.1451 58.9 62.2273C58.9 65.4043 60.4996 68.226 62.9219 69.8892C58.2855 71.9077 55 76.5728 55 82H57.6C57.6 76.1609 62.2414 71.4545 68 71.4545C73.7586 71.4545 78.4 76.1609 78.4 82H81C81 76.5728 77.7145 71.9077 73.0781 69.8892C75.5004 68.226 77.1 65.4043 77.1 62.2273C77.1 57.1451 73.0121 53 68 53ZM68 55.6364C71.6055 55.6364 74.5 58.5714 74.5 62.2273C74.5 65.8832 71.6055 68.8182 68 68.8182C64.3945 68.8182 61.5 65.8832 61.5 62.2273C61.5 58.5714 64.3945 55.6364 68 55.6364Z" fill="black"/>
<path fill-rule="evenodd" clip-rule="evenodd" d="M24.1541 18.2939H13.8638H10.4337V21.7241V46.8781H13.8638V21.7241H24.1541V18.2939ZM56.1685 21.7241H65.3154V46.8783H68.7455V21.7241V18.2939H65.3154H56.1685V21.7241ZM28.7276 73.1757H50.4516V76.6058H28.7276V73.1757Z" fill="#FDB913"/>
</svg>
