<svg width="1600" height="78" viewBox="0 0 1600 78" fill="none" xmlns="http://www.w3.org/2000/svg">
<path fill-rule="evenodd" clip-rule="evenodd" d="M0 11C94.5452 45.7147 266.295 59.5086 399.639 57.7019C534.324 54.9937 666.801 39.1987 801.486 25.4905C933.963 12.6955 1066.44 3.90057 1201.13 1.19236C1333.6 -0.602603 1468.29 4.68919 1534.53 7.2917L1600.76 9.89422V140.894L1534.53 138.292C1468.29 135.689 1333.6 130.397 1201.13 125.192C1066.44 119.901 933.963 114.696 801.486 109.49C666.801 104.199 534.324 98.9937 399.639 93.7019C267.162 88.4968 132.477 83.205 66.2385 80.6025L0 78V11Z" fill="#F7F9FB"/>
</svg>
