<?xml version="1.0" encoding="utf-8"?>
<!-- Generator: Adobe Illustrator 23.0.0, SVG Export Plug-In . SVG Version: 6.00 Build 0)  -->
<svg version="1.1" id="ea61258a-e793-48f7-8624-3c5ca462ffd9"
	 xmlns="http://www.w3.org/2000/svg" xmlns:xlink="http://www.w3.org/1999/xlink" x="0px" y="0px" viewBox="0 0 1600 770.2"
	 style="enable-background:new 0 0 1600 770.2;" xml:space="preserve">
<style type="text/css">
	.st0{fill:#FDB913;}
	.st1{fill:#3F3D56;}
	.st2{fill:#E6E6E6;}
	.st3{fill:#FFFFFF;}
	.st4{fill:#2F2E41;}
	.st5{fill:#FFB8B8;}
	.st6{fill:#575A89;}
	.st7{opacity:0.2;enable-background:new    ;}
	.st8{opacity:0.15;fill:#FDB913;enable-background:new    ;}
	.st9{opacity:0.1;enable-background:new    ;}
	.st10{fill:#A0616A;}
	.st11{fill:#F2ABA5;}
	.st12{fill:#D0CDE1;}
</style>
<title>remotely</title>
<g>
	<path class="st0" d="M105.5,295.3l3.2-4.9c-0.9-2.6-2-5.1-3.2-7.6l-2,1.6l1.6-2.5c-1.5-3-2.7-4.9-2.7-4.9s-6.3,10-8.4,20.5l4,6.2
		l-4.5-3.6c-0.2,1.2-0.2,2.5-0.2,3.7c0,12.5,4.1,22.6,9.1,22.6s9.1-10.1,9.1-22.6c-0.1-4-0.8-7.9-2.1-11.7L105.5,295.3z"/>
	<path class="st0" d="M127.8,306.1l5.7-1.2c1.2-2.5,2.2-5,3.1-7.6L134,297l2.9-0.6c1.1-3.2,1.5-5.4,1.5-5.4s-11.5,2.6-20.5,8.5
		l-1.6,7.3l-0.6-5.7c-1,0.8-1.9,1.6-2.8,2.4c-8.8,8.8-13.1,18.9-9.5,22.4c3.6,3.6,13.6-0.7,22.4-9.5c2.7-2.9,5-6.2,6.8-9.7
		L127.8,306.1z"/>
	<path class="st1" d="M129.9,354.4c-13.1,0.8-27.5,0-42.7,0v-34.9c13.4,2.1,27.8,1.9,42.7,0V354.4z"/>
	<rect x="495.5" y="365.4" class="st2" width="177.5" height="230.2"/>
	<rect x="124.7" y="377.4" class="st2" width="9.2" height="218.2"/>
	<rect x="40.6" y="349.7" class="st2" width="632.5" height="18.5"/>
	<rect x="120.1" y="368.2" class="st2" width="18.5" height="18.5"/>
	<polygon class="st1" points="598.3,378.8 597.2,382.9 571.3,382.9 569.8,378.8 503.8,378.8 503.8,421.3 664.7,421.3 664.7,378.8 	
		"/>
	<polygon class="st1" points="598.3,432.4 597.2,436.6 571.3,436.6 569.8,432.4 503.8,432.4 503.8,475 664.7,475 664.7,432.4 	"/>
	<polygon class="st1" points="598.3,486 597.2,490.2 571.3,490.2 569.8,486 503.8,486 503.8,528.6 664.7,528.6 664.7,486 	"/>
	<polygon class="st1" points="598.3,539.7 597.2,543.8 571.3,543.8 569.8,539.7 503.8,539.7 503.8,582.2 664.7,582.2 664.7,539.7 	
		"/>
	<polygon class="st2" points="383.6,346.9 329.1,346.9 330.9,322.8 381.8,322.8 	"/>
	<rect x="326.3" y="344.1" class="st2" width="61" height="5.5"/>
	<path class="st1" d="M460.8,168H252.3c-3.1,0-5.5,2.5-5.5,5.5l0,0v127.1h219.6V173.5C466.4,170.4,463.9,168,460.8,168L460.8,168z"
		/>
	<path class="st2" d="M246.8,300.7v20.8c0,3.1,2.5,5.5,5.5,5.5l0,0h208.5c3.1,0,5.5-2.5,5.5-5.5l0,0v-20.8H246.8z"/>
	<rect x="257.9" y="179.5" class="st3" width="197.9" height="111"/>
	<circle class="st1" cx="356.8" cy="313.6" r="5.5"/>
	<g>
		<path class="st1" d="M826.1,594.2c-20.2,1.3-42.2-0.1-65.7,0v-53.6c20.6,3.2,42.7,2.9,65.7,0V594.2z"/>
		<polygon class="st1" points="795.6,545.4 790,545.4 791.9,437 793.7,437 		"/>
		<polygon class="st1" points="820.5,546.2 815,546.2 816.8,437.8 818.7,437.8 		"/>
		<polygon class="st1" points="773.4,546.2 767.8,546.2 769.7,437.8 771.5,437.8 		"/>
		<path class="st2" d="M800.2,367.7l9-13.8c-2.7-7.3-5.7-14.5-9.2-21.5l-5.8,4.7l4.6-7.1c-4.4-8.6-7.8-14-7.8-14s-18,28.3-24,58.3
			l11.5,17.8l-12.7-10.3c-0.5,3.5-0.7,7-0.7,10.5c0,35.5,11.6,64.3,25.9,64.3c14.3,0,25.9-28.8,25.9-64.3c0-11-2.5-22.5-5.9-33.2
			L800.2,367.7z"/>
		<path class="st0" d="M825.1,369.5l9-13.8c-2.7-7.3-5.7-14.5-9.2-21.5l-5.8,4.7l4.6-7.1c-4.4-8.6-7.8-14-7.8-14s-18,28.3-24,58.3
			l11.5,17.8l-12.7-10.3c-0.5,3.5-0.7,7-0.7,10.5c0,35.5,11.6,64.3,25.9,64.3s25.9-28.8,25.9-64.3c0-11-2.5-22.5-5.9-33.2
			L825.1,369.5z"/>
		<path class="st0" d="M778,369.5l9-13.8c-2.7-7.3-5.7-14.5-9.2-21.5l-5.8,4.7l4.6-7.1c-4.4-8.6-7.8-14-7.8-14s-18,28.3-24,58.3
			l11.5,17.8l-12.7-10.3c-0.5,3.5-0.7,7-0.7,10.5c0,35.5,11.6,64.3,25.9,64.3c14.3,0,25.9-28.8,25.9-64.3c0-11-2.5-22.5-5.9-33.2
			L778,369.5z"/>
	</g>
	<rect x="322" y="210.8" class="st1" width="53.4" height="3.1"/>
	<rect x="322" y="222" class="st0" width="82.4" height="3.1"/>
	<rect x="322" y="232.5" class="st0" width="67.1" height="3.1"/>
	<rect x="322" y="243" class="st1" width="39.2" height="3.1"/>
	<rect x="322" y="253.5" class="st1" width="59.2" height="3.1"/>
	<rect x="297.7" y="209.8" class="st1" width="6.5" height="6.5"/>
	<rect x="297.7" y="220.3" class="st0" width="6.5" height="6.5"/>
	<rect x="297.7" y="230.8" class="st0" width="6.5" height="6.5"/>
	<rect x="297.7" y="241.3" class="st1" width="6.5" height="6.5"/>
	<rect x="297.7" y="251.9" class="st1" width="6.5" height="6.5"/>
	<path class="st0" d="M446.6,205h-28c-1.9-11-1.9-22.3,0-33.4h28C443.4,182.6,443.2,194.2,446.6,205z"/>
	<path class="st4" d="M242.8,271.9l-11.5-2.8c-16.4,0-29.7-13.2-29.7-29.6c0-2,0.2-4,0.6-5.9l0,0c0-21.4,17.3-38.8,38.7-38.8l0,0
		c21.4,0,38.8,17.3,38.8,38.7l0,0C286.3,256.2,265.8,277.5,242.8,271.9z"/>
	<circle class="st5" cx="255.4" cy="247.5" r="28.5"/>
	<path class="st5" d="M236.9,262.4c0,0-8.7,29.7-13.6,32.2c-5,2.5,39.6,6.2,39.6,6.2s-1.2-28.5,1.2-31
		C266.6,267.3,236.9,262.4,236.9,262.4z"/>
	<path class="st4" d="M281.4,445.6c0,0,55.7-5,63.2,13.6c7.4,18.6-5,128.8-5,128.8h-23.5v-90.4c0,0-100.3-28.5-100.3-38.4
		S281.4,445.6,281.4,445.6z"/>
	<path class="st4" d="M335.9,583.1l12.4,5c0,0,14.9-1.2,8.7,9.9c-3.6,6.6-10,11.1-17.3,12.4c0,0-23.5,8.7-24.8,0
		c-1.2-8.7,6.2-26,6.2-26L335.9,583.1z"/>
	<path class="st4" d="M250.5,445.6c0,0,55.7-5,63.2,13.6c7.4,18.6-5,128.8-5,128.8h-23.5v-90.4c0,0-71.2-16.5-71.2-26.4
		c0-4.7-4.9-28.3,3.7-33.3C227.3,432.3,250.5,445.6,250.5,445.6z"/>
	<path class="st4" d="M305,583.1l12.4,5c0,0,14.9-1.2,8.7,9.9c-3.6,6.6-10,11.1-17.3,12.4c0,0-23.5,8.7-24.8,0
		c-1.2-8.7,6.2-26,6.2-26L305,583.1z"/>
	<path class="st6" d="M224.5,290.9l37.2,4c11.8,1.3,21.4,10,23.9,21.6L300,385c0,0,5,68.1-5,71.8s-23.5-14.9-42.1-12.4
		s-42.7,8-42.7,8s-3.8-121.9-4.3-131.9C204.9,300.6,224.5,290.9,224.5,290.9z"/>
	<path class="st5" d="M312.6,449.2l15.3,9c0,0,27.4-3.9,26.6,5.7c-0.9,9.6-30.8,7.8-30.8,7.8l-18.4-11.3L312.6,449.2z"/>
	<circle class="st4" cx="200.1" cy="206" r="18.4"/>
	<path class="st4" d="M217.1,196.1c0-10.2-8.2-18.4-18.4-18.4c-1.2,0-2.4,0.1-3.6,0.4c9.2-4.3,20.1-0.4,24.5,8.8
		c4.3,9.2,0.4,20.1-8.8,24.5c-1.4,0.6-2.8,1.1-4.2,1.4C213,209.7,217.1,203.2,217.1,196.1z"/>
	<path class="st4" d="M232.9,206.5l24.8-4.6l19.1,12c9.6,6,14.8,17,13.3,28.2l-19.1-4.8l-4.3-10.7l-5.1,8.4L235,269.2l-15-9.5
		l-13.3-20.9L232.9,206.5z"/>
	<path class="st6" d="M253.3,301.4l12.4-6.2c0,0,26,3.7,31,21.1c5,17.3,27.2,137.4,27.2,137.4l-21.1,9.9l-29.7-73.1L253.3,301.4z"/>
	<polygon class="st7" points="263.9,350.1 276.3,398.2 298.2,452.3 297.5,454.1 271.3,399.1 	"/>
	<polygon class="st1" points="171.4,615.4 167,613.9 209.4,488.1 215.5,490.3 	"/>
	<polygon class="st1" points="333.2,615.4 337.6,613.9 295.3,488.1 289.1,490.3 	"/>
	<polygon class="st1" points="243.8,641.4 248.4,641.4 249.8,494.4 243.3,494.4 	"/>
	<path class="st0" d="M160.7,414.3l12.7,51.3c3.6,14.6,15,26.1,29.6,29.7l0,0c35.4,8.8,72.4,8.6,107.6-0.7l18.9-5
		c11-2.9,19.3-12.4,20.1-23.7c0.3-4-0.4-8-2.1-11.7c-0.1-0.2-0.1-0.3-0.2-0.5c-5-10.3-15.4-17-26.9-17.4l-20.1-0.6l-73-32.4
		c0,0-25.1-12.8-45.8-14.2C167.9,388.2,157.4,401,160.7,414.3z"/>
	<rect x="533.9" y="253" class="st2" width="72.1" height="98"/>
	<rect x="542.2" y="264.3" class="st3" width="55.5" height="75.4"/>
	<rect x="564" y="284.1" class="st1" width="26.9" height="3.1"/>
	<rect x="549" y="282.4" class="st1" width="6.5" height="6.5"/>
	<rect x="564" y="297" class="st1" width="26.9" height="3.1"/>
	<rect x="549" y="295.3" class="st1" width="6.5" height="6.5"/>
	<rect x="564" y="310" class="st1" width="26.9" height="3.1"/>
	<rect x="549" y="308.3" class="st1" width="6.5" height="6.5"/>
	<path class="st1" d="M569.9,255.8L569.9,255.8c1.5,0,2.8,1.2,2.8,2.8l0,0c0,1.5-1.2,2.8-2.8,2.8l0,0c-1.5,0-2.8-1.2-2.8-2.8l0,0
		C567.2,257,568.4,255.8,569.9,255.8z"/>
</g>
<g>
	<path class="st8" d="M940.6,481.9c0,89.8,132.4,162.5,295.6,162.5c87.7,0,166.5-21,220.6-54.4c35.3-21.8,60.2-48.8,70.1-78.7
		c3.2-9.5,4.9-19.5,4.9-29.5c0-89.8-245-494.7-295.6-162.5S940.6,392.1,940.6,481.9z"/>
	<path class="st9" d="M1089.4,540.8c0,33.1,104.7,60,233.8,60c49.7,0,95.8-4,133.7-10.8c35.3-21.8,60.2-48.8,70.1-78.7
		c-40.1-18.3-116.4-30.6-203.9-30.6C1194,480.8,1089.4,507.7,1089.4,540.8z"/>
	<path class="st4" d="M1258.1,198.9c18.5-31.3,55.2-32.8,55.2-32.8s35.7-4.6,58.6,43.1c21.4,44.4,50.8,87.4,4.7,97.8l-8.3-25.9
		l-5.2,27.8c-6.6,0.5-13.1,0.6-19.7,0.3c-49.4-1.6-96.4,0.5-94.9-17.2C1250.7,268.5,1240.3,229.1,1258.1,198.9z"/>
	<path class="st4" d="M1379.3,473.2c0.7,3.4,1.2,6.9,2.4,10.2c1.2,3.3,2.9,6.3,4,9.6c3.4,10.5-1.3,22.2-8.8,30.3
		c-6.5,7-14.9,12-24.1,14.3c-6.8,1.7-13.8,1.9-20.7,2.2c-19.3,0.7-39,1.2-57.3-5c-5.8-2-11.3-4.5-16.6-7.6c-1.7-0.8-3.1-2-4.3-3.4
		c-1.4-2-1.6-4.6-1.6-7c0-8.2,1.7-16.3,1.3-24.4c-0.2-4.5-1.1-9-0.6-13.5c0.9-10.2,9.1-19.4,19.1-21.5c5.2-1.1,10.5-0.5,15.8,0
		c13.7,1.3,27.4,1.9,41.2,1.8c14-0.1,28-2.2,42-2.5c4.1-0.1,4,1.2,5.4,5.2C1377.6,465.6,1378.6,469.4,1379.3,473.2z"/>
	<path class="st10" d="M1339.5,271.5c0.7,3.5,1.4,7.2,3.5,10.1c2.4,3.3,6.4,5.3,9.1,8.4c4,4.8,4.2,11.6,4.2,17.8
		c0,5.7-0.1,11.9-3.3,16.6c-2.1,3.1-5.2,5.3-8.3,7.3c-12,8.1-25,16.3-39.5,16.6c-6,0.1-12.4-1.4-16.4-6c-1.7-2.1-3-4.5-4-7.1
		c-3.7-9.1-5.9-18.8-6.6-28.6c-0.3-4.6-0.3-9.4,1.3-13.7c1.8-4.9,5.3-8.9,7.7-13.6c2.8-5.5,3.8-11.8,2.9-17.9
		c-0.1-0.4-0.1-0.9,0.1-1.3c0.4-0.4,1-0.7,1.6-0.6l28.7-2.1c2.7-0.1,5.3-0.4,8-0.9c1.5-0.3,5.6-2.5,7.1-1.9
		C1338.2,255.9,1338.9,268.6,1339.5,271.5z"/>
	<path class="st11" d="M1339.5,272.4c0.7,3.5,1.4,7.2,3.5,10.1c2.4,3.3,6.4,5.3,9.1,8.4c4,4.8,4.2,11.6,4.2,17.8
		c0,5.7-0.1,11.9-3.3,16.6c-2.1,3.1-5.2,5.3-8.3,7.3c-12,8.1-25,16.3-39.5,16.6c-6,0.1-12.4-1.4-16.4-6c-1.7-2.1-3-4.5-4-7.1
		c-3.7-9.1-5.9-18.8-6.6-28.6c-0.3-4.6-0.3-9.4,1.3-13.7c1.8-4.9,5.3-8.9,7.7-13.6c2.8-5.5,3.8-11.8,2.9-17.9
		c-0.1-0.4-0.1-0.9,0.1-1.3c0.4-0.4,1-0.7,1.6-0.6l28.7-2.1c2.7-0.1,5.3-0.4,8-0.9c1.5-0.3,5.6-2.5,7.1-1.9
		C1338.2,256.7,1338.9,269.5,1339.5,272.4z"/>
	<circle class="st5" cx="1312" cy="233.2" r="42.1"/>
	<path class="st12" d="M1333.6,327.6c-2.2,2.3-4.5,4.6-7.4,5.9s-6.1,1.7-9.2,1.8c-7.6,0.2-15.8-1.2-21.1-6.6
		c-6.8-7-6.6-18.4-11.9-26.6c-0.4-0.7-1-1.4-1.7-1.9c-0.9-0.5-1.9-0.7-2.9-0.7c-6.7-0.1-12.6,4.3-17.9,8.5c-2.4,1.9-4.8,3.8-6.3,6.4
		c-1,2-1.8,4.2-2.1,6.5c-2.6,12.8-3.5,26-4.3,39c-0.5,7.2-0.9,14.4-0.9,21.7c0.1,23.8,5.7,47.3,11.2,70.5c0.7,3,1.7,6.3,4.4,7.8
		c1.2,0.5,2.5,0.9,3.8,0.9c15.8,1.9,31.6,3.7,47.5,4c6.2,0.1,12.4-0.1,18.6-0.5c1.1,0,2.1-0.2,3.1-0.5c1.4-0.7,2.5-1.7,3.4-2.9
		c8.6-10.8,9.1-25.8,9-39.6c-0.1-33.8-1.3-67.6-3.6-101.3c-0.2-2.8-0.2-6.2,1.8-8.4C1343.3,317.3,1338.3,322.6,1333.6,327.6z"/>
	<path class="st6" d="M1342.5,278.9c1.4,2.6,11.9,9,13.9,11.1c11.3,11.9,32,11.5,42.3,24.2c3.6,4.5,5.5,10.1,6.9,15.7
		c2,7.9,3,16.6-0.3,24.1c-3.2,7.2-9.8,12.2-14.4,18.6c-5,7.1-7.2,15.6-9.4,24c-1.6,6.2-3.2,12.5-2.6,18.9c0.7,7.2,4.2,13.8,6.3,20.8
		c2.1,7,2.4,15.2-2.4,20.7c-3.5,4-9,5.6-14.3,6.5c-6.7,1.1-13.5,1.5-20.3,1.8c-6,0.3-12.6,0.3-17.2-3.5c-3.6-3-5.2-8-5.4-12.7
		c-0.2-4.7,0.8-9.4,1.4-14.1c0.6-4.9,0.9-9.8,1.1-14.7c0.9-22,1-44.1,0.4-66.2c-0.1-4.6-0.3-9.2,0.7-13.7c1.3-5.9,4.5-11.2,7.1-16.6
		c5.3-10.8,7.8-21.2,7-33.2C1342.6,278.8,1337.4,269.8,1342.5,278.9z"/>
	<path class="st6" d="M1283.4,279.8c-2.2,2.2-9.5,3-12.3,4.4c-2.5,1.3-5.3,2-8.1,2.8c-10.1,2.9-19.6,7.3-28.4,13
		c-1.8,1.1-3.4,2.5-4.7,4.1c-1.5,2.1-2.1,4.8-2.6,7.4c-1.3,6.7-2.7,13.4-2.4,20.3c0.3,7.2,2.5,14.2,4.7,21.1l8.1,25.8
		c6,19.3,12.1,38.7,13.8,58.8c0.9,11.1,0.5,22.4-1.2,33.4c-0.2,1.1-0.3,2.4,0.4,3.2c0.5,0.5,1.2,0.8,2,0.9c3.9,0.6,7.7-1.4,11.2-3.1
		c10.8-5.4,22.3-9.1,34.2-11.2c-4.6-6.7-8.2-14.1-10.6-21.9c-1.4-5-2.4-10-3.2-15.1l-3.8-21.7c-1.4-8-2.8-15.9-3.2-24
		c-0.3-3-0.1-6.1,0.5-9c0.7-2.9,2.1-5.5,3.4-8.2c6.2-12.9,9.1-27.6,6.7-41.6c-1.1-6.2-3.1-12.3-2.3-18.5c0.8-6,0-10.6,1.5-16.5
		C1293.2,260.1,1287.4,275.6,1283.4,279.8z"/>
	<path class="st6" d="M1398.8,334.6c2.8,5.9,7.5,10.8,9.1,17.1c0.6,2.9,0.9,6,0.8,9c0,4.5,0.1,9.2-1.3,13.5
		c-0.9,2.8-2.4,5.3-3.4,8.1c-1.5,3.8-2.1,7.9-1.9,11.9c0.3,5.6,2.2,11.1,2.3,16.8c0.2,8.9-3.9,17.2-7.9,25.1
		c-3.8-9.5-14.6-14-24.1-10.2c-1,0.4-1.9,0.9-2.8,1.4c-1.1-1-1.2-2.6-1.2-4c-0.3-10.3-0.6-20.6-0.9-30.9
		c-0.4-15.9-0.8-32.1,2.8-47.6c1.7-7,4.2-14,8.9-19.4c2.5-2.9,10.9-10.4,15-7.2c1.8,1.4,1.4,5.4,1.7,7.3
		C1396.6,328.7,1397.5,331.8,1398.8,334.6z"/>
	<path class="st6" d="M1224.1,317.8c-1.3,4.2-1.4,8.6-1.4,13c-0.1,8.9,0.1,17.8,0.4,26.7c0.1,4.6,0.4,9.2,1.7,13.5
		c0.9,2.9,2.3,5.6,3.3,8.4c2.8,8.6,1.3,17.8,1,26.8c-0.2,2.9,0.1,5.8,0.7,8.7c1.5,5.6,5.5,10.1,8.3,15.2c2.7,4.8,4.3,10.2,7.4,14.7
		c3.2,4.5,8.6,8,14,6.7c4-1,6.9-4.6,8.9-8.3c4.3-8,5.8-17.3,4.2-26.3c-2-10.9-8.4-20.6-10.7-31.5c-3.2-14.9,1.7-30.3,1.5-45.6
		c0.1-2.4-0.3-4.8-1-7.1c-1.2-3.5-3.8-6.3-6.2-9.1c-3-3.5-5.8-7.2-8.4-11c-1.7-2.6-4.1-9.2-7.1-9.7
		C1233.7,301.6,1225.8,312.5,1224.1,317.8z"/>
	<path class="st4" d="M1434.3,466.5c3.8-0.9,7.7-1.4,11.6-1.2c15.9,0.9,28.1,14.5,27.2,30.4c-0.1,1.2-0.2,2.4-0.4,3.6
		c-0.8,4.4-2.6,8.5-4.6,12.5c-3.1,6.2-6.7,12.4-12.4,16.4c-3.3,2.3-7.2,3.8-11,5.2l-29.9,11.3c-4.4,1.7-8.8,3.3-13.2,4.8
		c-22.3,7.7-45.6,12.3-69.1,13.7c-7.2,0.4-14.5,0.5-21.5-1.1c-1.7-0.4-3.4-1-4.4-2.4c-0.6-1-0.9-2.1-1-3.2l-1.8-12.9
		c-0.3-1.8-0.5-3.7,0.2-5.4c0.8-2.2,3-3.5,5-4.7c19.7-11.3,42.6-17.5,59.1-33c3.9-3.6,7.2-9.4,11.9-11.9c5.4-2.8,11.7-4.4,17.2-7
		C1409.2,476,1421.1,469.5,1434.3,466.5z"/>
	<path class="st9" d="M1404.4,483.9c-10.6,3.3-55.2,26.2-62.8,34.3c1,0.4,35.8-19.1,36.8-19.4c9.5-2.8,19-5.7,28-9.9
		c1.8-0.8,11.8-4.8,11.3-7.1C1417.3,479.2,1406.3,483.3,1404.4,483.9z"/>
	<path class="st5" d="M1272.6,570c-0.6,0-1.2-0.1-1.7-0.5c-0.4-0.5-0.6-1.2-0.5-1.9c0-5.8,0-11.7,0-17.5c5-2.4,10.7-3.2,16.2-3.9
		l25.8-3.5c-0.6,0.1,4,11.1,3.3,12.6c-1.3,2.6-10.8,4.9-13.5,6.1C1292.9,565.7,1283.2,570.4,1272.6,570z"/>
	<path class="st5" d="M1353.7,550c4.9,0.8,10.3,1.5,13.5,5.3c4,4.8,2.3,12,0.4,18c-0.3,1.2-0.9,2.3-1.7,3.3
		c-1.3,1.3-3.3,1.5-5.1,1.6c-4.5,0.3-9.2,0.5-13.1-1.7c-1.8-1-3.4-2.5-5.1-3.8c-2.9-1.9-6-3.3-9.3-4.3c-6.1-1.9-12.4-3.2-18.7-3.9
		c-2.5-0.3-5-0.4-7.4-1.3c-2.3-0.9-4.5-2.6-5.2-5c-0.9-3.2,1-6.4,2.7-9.2c2.2-3.5,4.6-7.2,7.9-9.7c4.8-3.7,7.2-0.9,12,1.5
		C1333.8,545.2,1343.6,548.3,1353.7,550z"/>
	<path class="st4" d="M1366.4,554.4l31-9.2c3.8-1.1,7.6-2.2,11.5-2.2s8,1.3,10.6,4.3c2.4,2.8,3.1,6.7,3.7,10.3l1.3,7.8
		c0.7,4,1.3,8,0.7,12c-0.6,4-2.6,8-6.2,9.9c-4.3,2.3-9.5,1.2-14.3,0.2c-9.7-2-19.5-3-29.4-3.1c-3.7,0-7.6,0-10.9-1.7
		c-3.9-2.1-6.2-6.4-6.6-10.8C1357.3,565.1,1359.5,556.4,1366.4,554.4z"/>
	<path class="st4" d="M1260.4,546.4c-4-0.7-7.6-3-11.4-4.3c-5.4-1.9-11.3-1.9-17-1.9c-2.1,0-4.4,0.1-6.1,1.2
		c-2.5,1.7-3.2,5.1-3.6,8.1c-0.9,6-1.7,12.1-2.6,18.1c-0.5,3.4-1,6.9-0.2,10.3c0.8,3.4,3.1,6.6,6.4,7.5c4.1,1.1,8-1.5,11.8-3.2
		c9.6-4.2,20.7-3.2,30.6-6.3c1.9-0.6,3.8-1.5,4.6-3.3c0.3-1,0.5-2.1,0.4-3.1c-0.2-5.8,1.1-13.8-0.7-19.4
		C1271,545,1264.9,546.4,1260.4,546.4z"/>
	<path class="st4" d="M1194.9,459.2c-6.2-1.6-12.6-2-19-1.3c-5.1,0.6-10.3,2-14,5.5c-4.5,4.3-5.9,10.9-6.1,17.1
		c-0.2,12.4,3.9,24.4,11.6,34.1c1.9,2.4,4.1,4.6,6.6,6.4c2.7,1.7,5.6,3.1,8.6,4.2l66.9,26.4c17.6,6.9,35.3,13.9,53.7,18.5
		c2.1,1,4.6,0.1,5.6-1.9v-0.1c5.9-8.4,10.8-17.4,14.7-26.8c0.6-0.8,0.5-1.9-0.3-2.5c-0.2-0.1-0.3-0.2-0.5-0.3l-47.4-27.2
		c-3.4-1.9-6.8-3.9-9.6-6.6c-2-2-3.7-4.3-4.9-6.9c-1-2.1-1.1-6.9-2.3-8.4c-1.2-1.5-5.4-1.6-7.4-2.2c-2.7-0.8-5.4-1.9-8-3
		c-10.6-4.7-20-11.6-30.2-17.2C1207.3,463.5,1201.2,460.9,1194.9,459.2z"/>
	<path class="st9" d="M1221.7,479.5c8.1,6.1,18.7,11.7,26.7,18c2.8,2.1,48.6,27.9,49.3,31.4c-7.5,1.3-55.4-32.3-62.3-35.6
		c-6.9-3.3-12.9-8.1-19-12.7c-1.5-1.2-8-4.8-3.6-6.1C1215.3,473.7,1219.9,478.3,1221.7,479.5z"/>
	<path class="st1" d="M1277.7,280.4h71.4c6,0,10.9,4.9,10.9,10.9v4h0.8v9h-0.8v6.3h0.8v5.4h-0.8v66.1c0,6-4.9,10.9-10.9,10.9h-71.4
		c-6,0-10.9-4.9-10.9-10.9v-90.7C1266.7,285.3,1271.6,280.4,1277.7,280.4z"/>
	<polygon class="st4" points="1266.3,195.9 1302.5,177 1352.6,184.7 1362.9,230.4 1337.2,229.4 1330,212.6 1330,229.2 1318.1,228.7 
		1311.2,202 1306.9,230.4 1264.6,229.6 	"/>
	<path class="st5" d="M1389.4,453.3c-1.8,2.7-3.9,5.3-6.8,6.7c-3.6,1.8-8,1.5-11.6-0.3c-3.6-1.9-6.5-4.8-8.4-8.4
		c-3.9-7-4.8-15.3-4.3-23.2s2.2-15.8,2.9-23.8c0.5-5.8,0.6-11.6,0.6-17.4c0-1.2,0-2.5-0.7-3.5c-0.9-1.2-2.5-1.5-3.9-1.9
		c-7.9-2.4-13.2-9.8-17-17.2c-2.5-4.9-4.7-10.3-4.2-15.8s4.4-11.1,10-11.6c4.5-0.5,8.7,2.4,12,5.6c8.3,8.1,13.6,18.7,15.1,30.1
		c0.7,5.6,0.5,11.4,2,16.8c3.3,11.6,13.4,18.7,18.5,29.2C1399.2,430,1396.1,443.1,1389.4,453.3z"/>
	<path class="st5" d="M1239.5,408.9c2.3,5.4,6.8,9.7,12.3,11.8c3.4,1.4,7.2,1.6,10.7,0.7c3.6-1,6.5-3.6,7.8-7
		c0.5-1.7,0.8-3.5,0.9-5.3c0.5-7.8,0.3-15.9-2.5-23.2c-1.1-2.8-2.6-5.5-3.4-8.4c-1-3.3-1.1-6.8-1.3-10.3l-0.9-21.4
		c-0.2-1.6,0-3.1,0.3-4.6c0.9-3.1,3.8-5.1,6.5-6.9c6.4-4.5,12.7-9.7,15.8-16.8c0.9-2.2,1.6-4.6,1.1-7c-0.9-4.2-5.2-7-9.4-7.9
		c-11.3-2.5-22.5,4.7-25,16c-0.1,0.3-0.1,0.6-0.2,0.9c-0.4,2.4-0.4,4.9-0.7,7.3c-0.5,5.2-2.2,10.1-3.2,15.2
		c-2.5,12.5-1.2,25.5-3.7,38C1242.5,390.6,1234.6,397.4,1239.5,408.9z"/>
	<circle class="st12" cx="1312.4" cy="319.6" r="9"/>
</g>
</svg>
