<?xml version="1.0" encoding="utf-8"?>
<!-- Generator: Adobe Illustrator 23.0.0, SVG Export Plug-In . SVG Version: 6.00 Build 0)  -->
<svg version="1.1" id="ea61258a-e793-48f7-8624-3c5ca462ffd9"
	 xmlns="http://www.w3.org/2000/svg" xmlns:xlink="http://www.w3.org/1999/xlink" x="0px" y="0px" viewBox="0 0 616.3 555.7"
	 style="enable-background:new 0 0 616.3 555.7;" xml:space="preserve">
<style type="text/css">
	.st0{opacity:0.15;fill:#FDB913;enable-background:new    ;}
	.st1{opacity:0.1;enable-background:new    ;}
	.st2{fill:#2F2E41;}
	.st3{fill:#A0616A;}
	.st4{fill:#F2ABA5;}
	.st5{fill:#FFB8B8;}
	.st6{fill:#D0CDE1;}
	.st7{fill:#575A89;}
	.st8{fill:#3F3D56;}
</style>
<title>remotely</title>
<g>
	<path class="st0" d="M5.1,335.1c0,89.8,132.4,162.5,295.6,162.5c87.7,0,166.5-21,220.6-54.4c35.3-21.8,60.2-48.8,70.1-78.7
		c3.2-9.5,4.9-19.5,4.9-29.5c0-89.8-245-494.7-295.6-162.5S5.1,245.3,5.1,335.1z"/>
	<path class="st1" d="M153.9,394c0,33.1,104.7,60,233.8,60c49.7,0,95.8-4,133.7-10.8c35.3-21.8,60.2-48.8,70.1-78.7
		c-40.1-18.3-116.4-30.6-203.9-30.6C258.5,334,153.9,360.9,153.9,394z"/>
	<path class="st2" d="M322.6,52.1c18.5-31.3,55.2-32.8,55.2-32.8s35.7-4.6,58.6,43.1c21.4,44.4,50.8,87.4,4.7,97.8l-8.3-25.9
		l-5.2,27.8c-6.6,0.5-13.1,0.6-19.7,0.3c-49.4-1.6-96.4,0.5-94.9-17.2C315.2,121.7,304.8,82.3,322.6,52.1z"/>
	<path class="st2" d="M443.8,326.4c0.7,3.4,1.2,6.9,2.4,10.2c1.2,3.3,2.9,6.3,4,9.6c3.4,10.5-1.3,22.2-8.8,30.3
		c-6.5,7-14.9,12-24.1,14.3c-6.8,1.7-13.8,1.9-20.7,2.2c-19.3,0.7-39,1.2-57.3-5c-5.8-2-11.3-4.5-16.6-7.6c-1.7-0.8-3.1-2-4.3-3.4
		c-1.4-2-1.6-4.6-1.6-7c0-8.2,1.7-16.3,1.3-24.4c-0.2-4.5-1.1-9-0.6-13.5c0.9-10.2,9.1-19.4,19.1-21.5c5.2-1.1,10.5-0.5,15.8,0
		c13.7,1.3,27.4,1.9,41.2,1.8c14-0.1,28-2.2,42-2.5c4.1-0.1,4,1.2,5.4,5.2C442.1,318.8,443.1,322.6,443.8,326.4z"/>
	<path class="st3" d="M404,124.7c0.7,3.5,1.4,7.2,3.5,10.1c2.4,3.3,6.4,5.3,9.1,8.4c4,4.8,4.2,11.6,4.2,17.8
		c0,5.7-0.1,11.9-3.3,16.6c-2.1,3.1-5.2,5.3-8.3,7.3c-12,8.1-25,16.3-39.5,16.6c-6,0.1-12.4-1.4-16.4-6c-1.7-2.1-3-4.5-4-7.1
		c-3.7-9.1-5.9-18.8-6.6-28.6c-0.3-4.6-0.3-9.4,1.3-13.7c1.8-4.9,5.3-8.9,7.7-13.6c2.8-5.5,3.8-11.8,2.9-17.9
		c-0.1-0.4-0.1-0.9,0.1-1.3c0.4-0.4,1-0.7,1.6-0.6l28.7-2.1c2.7-0.1,5.3-0.4,8-0.9c1.5-0.3,5.6-2.5,7.1-1.9
		C402.7,109.1,403.4,121.8,404,124.7z"/>
	<path class="st4" d="M404,125.6c0.7,3.5,1.4,7.2,3.5,10.1c2.4,3.3,6.4,5.3,9.1,8.4c4,4.8,4.2,11.6,4.2,17.8
		c0,5.7-0.1,11.9-3.3,16.6c-2.1,3.1-5.2,5.3-8.3,7.3c-12,8.1-25,16.3-39.5,16.6c-6,0.1-12.4-1.4-16.4-6c-1.7-2.1-3-4.5-4-7.1
		c-3.7-9.1-5.9-18.8-6.6-28.6c-0.3-4.6-0.3-9.4,1.3-13.7c1.8-4.9,5.3-8.9,7.7-13.6c2.8-5.5,3.8-11.8,2.9-17.9
		c-0.1-0.4-0.1-0.9,0.1-1.3c0.4-0.4,1-0.7,1.6-0.6l28.7-2.1c2.7-0.1,5.3-0.4,8-0.9c1.5-0.3,5.6-2.5,7.1-1.9
		C402.7,109.9,403.4,122.7,404,125.6z"/>
	<circle class="st5" cx="376.5" cy="86.4" r="42.1"/>
	<path class="st6" d="M398.1,180.8c-2.2,2.3-4.5,4.6-7.4,5.9s-6.1,1.7-9.2,1.8c-7.6,0.2-15.8-1.2-21.1-6.6
		c-6.8-7-6.6-18.4-11.9-26.6c-0.4-0.7-1-1.4-1.7-1.9c-0.9-0.5-1.9-0.7-2.9-0.7c-6.7-0.1-12.6,4.3-17.9,8.5c-2.4,1.9-4.8,3.8-6.3,6.4
		c-1,2-1.8,4.2-2.1,6.5c-2.6,12.8-3.5,26-4.3,39c-0.5,7.2-0.9,14.4-0.9,21.7c0.1,23.8,5.7,47.3,11.2,70.5c0.7,3,1.7,6.3,4.4,7.8
		c1.2,0.5,2.5,0.9,3.8,0.9c15.8,1.9,31.6,3.7,47.5,4c6.2,0.1,12.4-0.1,18.6-0.5c1.1,0,2.1-0.2,3.1-0.5c1.4-0.7,2.5-1.7,3.4-2.9
		c8.6-10.8,9.1-25.8,9-39.6c-0.1-33.8-1.3-67.6-3.6-101.3c-0.2-2.8-0.2-6.2,1.8-8.4C407.8,170.5,402.8,175.8,398.1,180.8z"/>
	<path class="st7" d="M407,132.1c1.4,2.6,11.9,9,13.9,11.1c11.3,11.9,32,11.5,42.3,24.2c3.6,4.5,5.5,10.1,6.9,15.7
		c2,7.9,3,16.6-0.3,24.1c-3.2,7.2-9.8,12.2-14.4,18.6c-5,7.1-7.2,15.6-9.4,24c-1.6,6.2-3.2,12.5-2.6,18.9c0.7,7.2,4.2,13.8,6.3,20.8
		c2.1,7,2.4,15.2-2.4,20.7c-3.5,4-9,5.6-14.3,6.5c-6.7,1.1-13.5,1.5-20.3,1.8c-6,0.3-12.6,0.3-17.2-3.5c-3.6-3-5.2-8-5.4-12.7
		c-0.2-4.7,0.8-9.4,1.4-14.1c0.6-4.9,0.9-9.8,1.1-14.7c0.9-22,1-44.1,0.4-66.2c-0.1-4.6-0.3-9.2,0.7-13.7c1.3-5.9,4.5-11.2,7.1-16.6
		c5.3-10.8,7.8-21.2,7-33.2C407.1,132,401.9,123,407,132.1z"/>
	<path class="st7" d="M347.9,133c-2.2,2.2-9.5,3-12.3,4.4c-2.5,1.3-5.3,2-8.1,2.8c-10.1,2.9-19.6,7.3-28.4,13
		c-1.8,1.1-3.4,2.5-4.7,4.1c-1.5,2.1-2.1,4.8-2.6,7.4c-1.3,6.7-2.7,13.4-2.4,20.3c0.3,7.2,2.5,14.2,4.7,21.1l8.1,25.8
		c6,19.3,12.1,38.7,13.8,58.8c0.9,11.1,0.5,22.4-1.2,33.4c-0.2,1.1-0.3,2.4,0.4,3.2c0.5,0.5,1.2,0.8,2,0.9c3.9,0.6,7.7-1.4,11.2-3.1
		c10.8-5.4,22.3-9.1,34.2-11.2c-4.6-6.7-8.2-14.1-10.6-21.9c-1.4-5-2.4-10-3.2-15.1l-3.8-21.7c-1.4-8-2.8-15.9-3.2-24
		c-0.3-3-0.1-6.1,0.5-9c0.7-2.9,2.1-5.5,3.4-8.2c6.2-12.9,9.1-27.6,6.7-41.6c-1.1-6.2-3.1-12.3-2.3-18.5c0.8-6,0-10.6,1.5-16.5
		C357.7,113.3,351.9,128.8,347.9,133z"/>
	<path class="st7" d="M463.3,187.8c2.8,5.9,7.5,10.8,9.1,17.1c0.6,2.9,0.9,6,0.8,9c0,4.5,0.1,9.2-1.3,13.5c-0.9,2.8-2.4,5.3-3.4,8.1
		c-1.5,3.8-2.1,7.9-1.9,11.9c0.3,5.6,2.2,11.1,2.3,16.8c0.2,8.9-3.9,17.2-7.9,25.1c-3.8-9.5-14.6-14-24.1-10.2
		c-1,0.4-1.9,0.9-2.8,1.4c-1.1-1-1.2-2.6-1.2-4c-0.3-10.3-0.6-20.6-0.9-30.9c-0.4-15.9-0.8-32.1,2.8-47.6c1.7-7,4.2-14,8.9-19.4
		c2.5-2.9,10.9-10.4,15-7.2c1.8,1.4,1.4,5.4,1.7,7.3C461.1,181.9,462,185,463.3,187.8z"/>
	<path class="st7" d="M288.6,171c-1.3,4.2-1.4,8.6-1.4,13c-0.1,8.9,0.1,17.8,0.4,26.7c0.1,4.6,0.4,9.2,1.7,13.5
		c0.9,2.9,2.3,5.6,3.3,8.4c2.8,8.6,1.3,17.8,1,26.8c-0.2,2.9,0.1,5.8,0.7,8.7c1.5,5.6,5.5,10.1,8.3,15.2c2.7,4.8,4.3,10.2,7.4,14.7
		c3.2,4.5,8.6,8,14,6.7c4-1,6.9-4.6,8.9-8.3c4.3-8,5.8-17.3,4.2-26.3c-2-10.9-8.4-20.6-10.7-31.5c-3.2-14.9,1.7-30.3,1.5-45.6
		c0.1-2.4-0.3-4.8-1-7.1c-1.2-3.5-3.8-6.3-6.2-9.1c-3-3.5-5.8-7.2-8.4-11c-1.7-2.6-4.1-9.2-7.1-9.7
		C298.2,154.8,290.3,165.7,288.6,171z"/>
	<path class="st2" d="M498.8,319.7c3.8-0.9,7.7-1.4,11.6-1.2c15.9,0.9,28.1,14.5,27.2,30.4c-0.1,1.2-0.2,2.4-0.4,3.6
		c-0.8,4.4-2.6,8.5-4.6,12.5c-3.1,6.2-6.7,12.4-12.4,16.4c-3.3,2.3-7.2,3.8-11,5.2l-29.9,11.3c-4.4,1.7-8.8,3.3-13.2,4.8
		c-22.3,7.7-45.6,12.3-69.1,13.7c-7.2,0.4-14.5,0.5-21.5-1.1c-1.7-0.4-3.4-1-4.4-2.4c-0.6-1-0.9-2.1-1-3.2l-1.8-12.9
		c-0.3-1.8-0.5-3.7,0.2-5.4c0.8-2.2,3-3.5,5-4.7c19.7-11.3,42.6-17.5,59.1-33c3.9-3.6,7.2-9.4,11.9-11.9c5.4-2.8,11.7-4.4,17.2-7
		C473.7,329.2,485.6,322.7,498.8,319.7z"/>
	<path class="st1" d="M468.9,337.1c-10.6,3.3-55.2,26.2-62.8,34.3c1,0.4,35.8-19.1,36.8-19.4c9.5-2.8,19-5.7,28-9.9
		c1.8-0.8,11.8-4.8,11.3-7.1C481.8,332.4,470.8,336.5,468.9,337.1z"/>
	<path class="st5" d="M337.1,423.2c-0.6,0-1.2-0.1-1.7-0.5c-0.4-0.5-0.6-1.2-0.5-1.9c0-5.8,0-11.7,0-17.5c5-2.4,10.7-3.2,16.2-3.9
		l25.8-3.5c-0.6,0.1,4,11.1,3.3,12.6c-1.3,2.6-10.8,4.9-13.5,6.1C357.4,418.9,347.7,423.6,337.1,423.2z"/>
	<path class="st5" d="M418.2,403.2c4.9,0.8,10.3,1.5,13.5,5.3c4,4.8,2.3,12,0.4,18c-0.3,1.2-0.9,2.3-1.7,3.3
		c-1.3,1.3-3.3,1.5-5.1,1.6c-4.5,0.3-9.2,0.5-13.1-1.7c-1.8-1-3.4-2.5-5.1-3.8c-2.9-1.9-6-3.3-9.3-4.3c-6.1-1.9-12.4-3.2-18.7-3.9
		c-2.5-0.3-5-0.4-7.4-1.3c-2.3-0.9-4.5-2.6-5.2-5c-0.9-3.2,1-6.4,2.7-9.2c2.2-3.5,4.6-7.2,7.9-9.7c4.8-3.7,7.2-0.9,12,1.5
		C398.3,398.4,408.1,401.5,418.2,403.2z"/>
	<path class="st2" d="M430.9,407.6l31-9.2c3.8-1.1,7.6-2.2,11.5-2.2s8,1.3,10.6,4.3c2.4,2.8,3.1,6.7,3.7,10.3l1.3,7.8
		c0.7,4,1.3,8,0.7,12c-0.6,4-2.6,8-6.2,9.9c-4.3,2.3-9.5,1.2-14.3,0.2c-9.7-2-19.5-3-29.4-3.1c-3.7,0-7.6,0-10.9-1.7
		c-3.9-2.1-6.2-6.4-6.6-10.8C421.8,418.3,424,409.6,430.9,407.6z"/>
	<path class="st2" d="M324.9,399.6c-4-0.7-7.6-3-11.4-4.3c-5.4-1.9-11.3-1.9-17-1.9c-2.1,0-4.4,0.1-6.1,1.2
		c-2.5,1.7-3.2,5.1-3.6,8.1c-0.9,6-1.7,12.1-2.6,18.1c-0.5,3.4-1,6.9-0.2,10.3c0.8,3.4,3.1,6.6,6.4,7.5c4.1,1.1,8-1.5,11.8-3.2
		c9.6-4.2,20.7-3.2,30.6-6.3c1.9-0.6,3.8-1.5,4.6-3.3c0.3-1,0.5-2.1,0.4-3.1c-0.2-5.8,1.1-13.8-0.7-19.4
		C335.5,398.2,329.4,399.6,324.9,399.6z"/>
	<path class="st2" d="M259.4,312.4c-6.2-1.6-12.6-2-19-1.3c-5.1,0.6-10.3,2-14,5.5c-4.5,4.3-5.9,10.9-6.1,17.1
		c-0.2,12.4,3.9,24.4,11.6,34.1c1.9,2.4,4.1,4.6,6.6,6.4c2.7,1.7,5.6,3.1,8.6,4.2l66.9,26.4c17.6,6.9,35.3,13.9,53.7,18.5
		c2.1,1,4.6,0.1,5.6-1.9v-0.1c5.9-8.4,10.8-17.4,14.7-26.8c0.6-0.8,0.5-1.9-0.3-2.5c-0.2-0.1-0.3-0.2-0.5-0.3l-47.4-27.2
		c-3.4-1.9-6.8-3.9-9.6-6.6c-2-2-3.7-4.3-4.9-6.9c-1-2.1-1.1-6.9-2.3-8.4c-1.2-1.5-5.4-1.6-7.4-2.2c-2.7-0.8-5.4-1.9-8-3
		c-10.6-4.7-20-11.6-30.2-17.2C271.8,316.7,265.7,314.1,259.4,312.4z"/>
	<path class="st1" d="M286.2,332.7c8.1,6.1,18.7,11.7,26.7,18c2.8,2.1,48.6,27.9,49.3,31.4c-7.5,1.3-55.4-32.3-62.3-35.6
		c-6.9-3.3-12.9-8.1-19-12.7c-1.5-1.2-8-4.8-3.6-6.1C279.8,326.9,284.4,331.5,286.2,332.7z"/>
	<path class="st8" d="M342.2,133.6h71.4c6,0,10.9,4.9,10.9,10.9v4h0.8v9h-0.8v6.3h0.8v5.4h-0.8v66.1c0,6-4.9,10.9-10.9,10.9h-71.4
		c-6,0-10.9-4.9-10.9-10.9v-90.7C331.2,138.5,336.1,133.6,342.2,133.6z"/>
	<polygon class="st2" points="330.8,49.1 367,30.2 417.1,37.9 427.4,83.6 401.7,82.6 394.5,65.8 394.5,82.4 382.6,81.9 375.7,55.2 
		371.4,83.6 329.1,82.8 	"/>
	<path class="st5" d="M453.9,306.5c-1.8,2.7-3.9,5.3-6.8,6.7c-3.6,1.8-8,1.5-11.6-0.3c-3.6-1.9-6.5-4.8-8.4-8.4
		c-3.9-7-4.8-15.3-4.3-23.2s2.2-15.8,2.9-23.8c0.5-5.8,0.6-11.6,0.6-17.4c0-1.2,0-2.5-0.7-3.5c-0.9-1.2-2.5-1.5-3.9-1.9
		c-7.9-2.4-13.2-9.8-17-17.2c-2.5-4.9-4.7-10.3-4.2-15.8s4.4-11.1,10-11.6c4.5-0.5,8.7,2.4,12,5.6c8.3,8.1,13.6,18.7,15.1,30.1
		c0.7,5.6,0.5,11.4,2,16.8c3.3,11.6,13.4,18.7,18.5,29.2C463.7,283.2,460.6,296.3,453.9,306.5z"/>
	<path class="st5" d="M304,262.1c2.3,5.4,6.8,9.7,12.3,11.8c3.4,1.4,7.2,1.6,10.7,0.7c3.6-1,6.5-3.6,7.8-7c0.5-1.7,0.8-3.5,0.9-5.3
		c0.5-7.8,0.3-15.9-2.5-23.2c-1.1-2.8-2.6-5.5-3.4-8.4c-1-3.3-1.1-6.8-1.3-10.3l-0.9-21.4c-0.2-1.6,0-3.1,0.3-4.6
		c0.9-3.1,3.8-5.1,6.5-6.9c6.4-4.5,12.7-9.7,15.8-16.8c0.9-2.2,1.6-4.6,1.1-7c-0.9-4.2-5.2-7-9.4-7.9c-11.3-2.5-22.5,4.7-25,16
		c-0.1,0.3-0.1,0.6-0.2,0.9c-0.4,2.4-0.4,4.9-0.7,7.3c-0.5,5.2-2.2,10.1-3.2,15.2c-2.5,12.5-1.2,25.5-3.7,38
		C307,243.8,299.1,250.6,304,262.1z"/>
	<circle class="st6" cx="376.9" cy="172.8" r="9"/>
</g>
</svg>
