<svg width="156" height="65" viewBox="0 0 156 65" fill="none" xmlns="http://www.w3.org/2000/svg">
<path d="M0 2.4741H4.52315L9.39966 17.245C9.96506 18.7998 10.4598 21.2028 10.4598 21.2028C10.4598 21.2028 11.1665 18.7998 11.8026 17.245L18.1633 2.19141H18.7287L25.16 17.245C25.7961 18.7998 26.4321 21.2028 26.4321 21.2028C26.4321 21.2028 26.9975 18.7998 27.5629 17.245L32.5101 2.4741H36.7506L27.0682 30.5317H26.5028L19.5767 13.994C19.082 12.6512 18.5166 10.6016 18.5166 10.6016C18.5166 10.6016 17.8806 12.6512 17.3152 13.994L10.2478 30.5317H9.68236L0 2.4741Z" fill="white"/>
<path d="M68.4125 2.19141H68.8365L82.1233 17.7397L95.2687 2.19141H95.6927V30.2491H91.5936V15.8315C91.5936 14.2767 91.735 11.8031 91.735 11.8031C91.735 11.8031 90.3921 13.8526 89.2614 15.1248L82.2646 23.535H81.7699L74.7732 15.1248C73.713 13.8526 72.2996 11.8031 72.2996 11.8031C72.2996 11.8031 72.4409 14.2767 72.4409 15.8315V30.2491H68.3418V2.19141H68.4125Z" fill="white"/>
<path d="M100.357 2.47461H118.026V6.29101H104.739V17.1042H116.542V20.8499H104.739V26.5038H118.662V30.3202H100.357V2.47461Z" fill="white"/>
<path d="M128.628 13.994C127.497 12.7925 126.013 10.8843 126.013 10.8843C126.013 10.8843 126.296 13.1459 126.296 14.9128V30.2491H122.268V2.19141H122.833L138.169 18.6585C139.229 19.7893 140.714 21.7682 140.714 21.7682C140.714 21.7682 140.431 19.2946 140.431 17.7397V2.4741H144.459V30.5317H143.894L128.628 13.994Z" fill="white"/>
<path d="M2.11914 49.753C2.11914 41.2014 8.69184 35.0527 16.9607 35.0527C25.1589 35.0527 31.7316 41.2014 31.7316 49.753C31.7316 58.3045 25.1589 64.4532 16.9607 64.4532C8.69184 64.4532 2.11914 58.3045 2.11914 49.753ZM27.1378 49.753C27.1378 43.6043 22.8973 39.0105 16.9607 39.0105C10.9534 39.0105 6.71296 43.6043 6.71296 49.753C6.71296 55.9016 10.9534 60.4954 16.9607 60.4954C22.968 60.4248 27.1378 55.8309 27.1378 49.753Z" fill="white"/>
<path d="M31.5215 35.4057H36.186L41.2745 50.6714C41.8399 52.2969 42.4053 54.7705 42.4053 54.7705C42.4053 54.7705 43.112 52.2969 43.8188 50.6714L50.3915 35.123H50.8862L57.5296 50.6714C58.2363 52.2969 58.8724 54.7705 58.8724 54.7705C58.8724 54.7705 59.4378 52.2969 60.0032 50.6714L65.021 35.4057H69.3322L59.4378 64.3822H58.8724L51.805 47.279C51.2396 45.8655 50.6035 43.7453 50.6035 43.7453C50.6035 43.7453 49.8968 45.8655 49.3314 47.279L42.0519 64.3822H41.4865L31.5215 35.4057Z" fill="white"/>
<path d="M78.4473 47.3497C77.3165 46.1482 75.7617 44.1693 75.7617 44.1693C75.7617 44.1693 76.0444 46.5016 76.0444 48.2684V64.0995H71.9453V35.123H72.5107L88.3417 52.0848C89.4725 53.2863 91.0273 55.2652 91.0273 55.2652C91.0273 55.2652 90.7446 52.7209 90.7446 51.1661V35.4057H94.8437V64.3822H94.2783L78.4473 47.3497Z" fill="white"/>
<path d="M99.5781 35.4062H117.812V39.364H104.031V50.5305H116.187V54.347H104.031V60.2129H118.377V64.1H99.5781V35.4062Z" fill="white"/>
<path d="M122.268 35.4062H130.183C139.371 35.4062 145.519 41.131 145.519 49.7532C145.519 58.3755 139.441 64.1 130.183 64.1H122.268V35.4062ZM129.83 60.1423C137.321 60.1423 140.784 55.8312 140.784 49.7532C140.784 43.6046 137.251 39.364 129.83 39.364H126.72V60.2129H129.83V60.1423Z" fill="white"/>
<path d="M44.1691 13.2846C44.9465 13.5673 45.724 13.9914 46.5014 14.6274L46.572 14.5568C46.8547 14.2034 47.1374 13.85 47.3495 13.4967C47.6322 13.0019 47.8442 12.5072 47.9855 11.9418C48.0562 11.7298 48.0562 11.5884 48.1269 11.3764L48.1976 11.0937C48.2682 10.8817 48.2682 10.7404 48.2682 10.599C48.3389 9.89227 48.3389 9.11485 48.2682 8.33744C48.1976 7.56002 47.9855 6.71193 47.7735 5.79317C47.7735 5.65182 47.7028 5.58114 47.5615 5.4398C47.3495 5.08643 46.9961 4.80373 46.572 4.66238C46.2187 4.59171 45.936 4.59171 45.5826 4.66238C45.1586 4.80373 44.7345 5.08643 44.5225 5.51047C44.3105 5.93452 44.2398 6.42923 44.3811 6.85328C44.4518 6.99463 44.4518 7.13598 44.5225 7.348C44.5932 7.48935 44.5932 7.70137 44.6638 7.84272C44.6638 7.98407 44.7345 8.12541 44.7345 8.19609C44.7345 8.33744 44.8052 8.40811 44.8052 8.54946C44.8759 9.2562 44.8759 9.89227 44.8052 10.4577C44.7345 10.7404 44.6638 10.9524 44.5932 11.1644C44.5225 11.3764 44.4518 11.5884 44.3105 11.7298C44.1691 11.9418 44.0278 12.1538 43.8158 12.3659C43.6744 12.5072 43.5331 12.7192 43.321 12.8606C43.2504 12.8606 43.2504 12.9313 43.1797 12.9313C43.321 13.0019 43.5331 13.0726 43.6744 13.0726L44.1691 13.2846Z" fill="#F69321"/>
<path d="M39.7882 11.0237C40.9897 11.0237 41.9084 10.0342 41.9084 8.90343C41.9084 7.77264 40.919 6.7832 39.7882 6.7832C38.6574 6.7832 37.668 7.77264 37.668 8.90343C37.668 10.0342 38.5867 11.0237 39.7882 11.0237Z" fill="#F69321"/>
<path d="M44.3832 20.0018C44.5246 20.2138 44.5952 20.4965 44.7366 20.7085C44.8073 20.9206 44.8779 21.1326 44.8779 21.3446C44.8779 21.4153 44.8779 21.486 44.8779 21.486C45.0193 21.4153 45.09 21.2739 45.2313 21.2033L45.6553 20.8499C46.2914 20.3552 47.0688 19.8605 47.9876 19.5071C47.9876 19.4364 47.9876 19.4364 47.9169 19.3657C47.7756 18.9417 47.5636 18.5883 47.3515 18.1643C47.0688 17.6696 46.7155 17.2455 46.3621 16.8215C46.2207 16.6801 46.0794 16.5388 45.938 16.3974L45.7967 16.2561C45.6553 16.1147 45.514 16.0441 45.4433 15.9734C44.8779 15.5493 44.2419 15.1253 43.5351 14.8426C42.8284 14.4892 41.9803 14.2065 41.0615 13.9945C40.9202 13.9945 40.8495 13.9238 40.7082 13.9238C40.2134 13.9238 39.7894 14.0652 39.5067 14.4185C39.224 14.6306 39.0826 14.9133 39.012 15.2666C38.8706 15.6907 39.012 16.1854 39.224 16.6094C39.436 17.0335 39.8601 17.3162 40.2841 17.3869C40.4255 17.4575 40.6375 17.4575 40.7788 17.5282C40.9202 17.5989 41.1322 17.5989 41.2735 17.6696C41.4149 17.7402 41.4856 17.7402 41.6269 17.8109C41.6976 17.8816 41.8389 17.8816 41.9096 17.9523C42.5457 18.235 43.1111 18.5176 43.5351 18.9417C43.7471 19.083 43.8885 19.2951 44.0298 19.4364C44.1712 19.6484 44.3125 19.7898 44.3832 20.0018Z" fill="#D91F5D"/>
<path d="M40.778 20.5659C40.4246 20.3539 40.0713 20.2832 39.7179 20.2832C38.9405 20.2832 38.2337 20.7072 37.8804 21.3433C37.5977 21.838 37.527 22.4034 37.6683 22.9688C37.8097 23.5342 38.1631 23.9583 38.6578 24.241C39.0111 24.453 39.3645 24.5237 39.7179 24.5237C40.4953 24.5237 41.202 24.0996 41.5554 23.4635C41.8381 22.9688 41.9088 22.4034 41.7674 21.838C41.6261 21.3433 41.2727 20.8486 40.778 20.5659Z" fill="#D91F5D"/>
<path d="M46.1504 26.8568C46.6451 26.8568 47.0692 26.6447 47.3519 26.2914C47.4932 26.15 47.5639 26.0794 47.7052 25.938C47.8466 25.7967 47.9879 25.726 48.0586 25.5846C48.1293 25.514 48.2706 25.4433 48.3413 25.3019C48.412 25.2313 48.4827 25.1606 48.624 25.0899C49.1894 24.6659 49.7548 24.3832 50.3202 24.1712C50.6029 24.1005 50.8149 24.0298 51.0269 23.9591C51.5216 23.8885 51.9457 23.8885 52.4404 23.9591C52.6524 24.0298 52.8645 24.1005 53.0765 24.1712C53.1472 24.1712 53.1472 24.2418 53.2178 24.2418C53.2178 24.1005 53.1472 23.9591 53.1472 23.8178L53.0765 23.3231C52.9351 22.5456 52.9351 21.6269 53.0765 20.6374C53.0058 20.6374 53.0058 20.6374 52.9351 20.6374C52.5111 20.4961 52.087 20.4961 51.663 20.4961C51.0976 20.4961 50.5322 20.5668 50.0375 20.7081C49.8255 20.7788 49.6841 20.7788 49.4721 20.8495L49.1894 20.9201C48.9774 20.9908 48.836 21.0615 48.7654 21.0615C48.1293 21.3442 47.4225 21.6976 46.7865 22.1923C46.1504 22.687 45.5143 23.2524 44.8783 23.8885C44.8076 23.9591 44.7369 24.1005 44.6663 24.2418C44.4542 24.5952 44.3836 25.0899 44.4542 25.514C44.5249 25.8673 44.6663 26.15 44.949 26.3621C45.2317 26.7154 45.6557 26.8568 46.1504 26.8568Z" fill="#652F8F"/>
<path d="M51.3789 27.1406C51.0255 27.1406 50.6015 27.2113 50.3188 27.4233C49.2587 27.9887 48.9053 29.3315 49.5414 30.3916C49.8948 31.0277 50.6722 31.4517 51.3789 31.4517C51.7323 31.4517 52.1563 31.3811 52.439 31.169C53.4991 30.6037 53.8525 29.2608 53.2164 28.2007C52.8631 27.5647 52.1563 27.1406 51.3789 27.1406Z" fill="#652F8F"/>
<path d="M58.8709 18.1631C58.0934 17.8804 57.316 17.4564 56.5386 16.8203L56.4679 16.891C56.1852 17.2444 55.9025 17.5977 55.6905 17.9511C55.4078 18.4458 55.1958 18.9405 55.0545 19.5059C54.9838 19.6473 54.9838 19.8593 54.9131 20.0713L54.8424 20.354C54.7718 20.566 54.7718 20.7074 54.7718 20.8487C54.7011 21.5555 54.7011 22.3329 54.7718 23.1103C54.8424 23.8877 55.0545 24.7358 55.2665 25.6546C55.2665 25.7959 55.3372 25.8666 55.4078 26.008C55.6198 26.3613 55.9732 26.644 56.3973 26.7854C56.7506 26.856 57.0333 26.9267 57.3867 26.7854C57.8107 26.644 58.2348 26.3613 58.4468 25.9373C58.6588 25.5132 58.7295 25.0185 58.5882 24.5945C58.5175 24.4531 58.5175 24.3118 58.4468 24.0997C58.3761 23.9584 58.3761 23.7464 58.3055 23.605C58.3055 23.4637 58.2348 23.3223 58.2348 23.2517C58.2348 23.1103 58.2348 23.0396 58.1641 22.8983C58.0934 22.1915 58.0934 21.5555 58.1641 20.9901C58.2348 20.7074 58.3055 20.4954 58.3761 20.2833C58.4468 20.0713 58.5175 19.8593 58.6588 19.718C58.8002 19.5059 58.9415 19.2939 59.1536 19.0819C59.2949 18.9405 59.4363 18.7285 59.6483 18.5872C59.719 18.5872 59.7189 18.5165 59.7896 18.5165C59.6483 18.4458 59.5069 18.3751 59.3656 18.3751L58.8709 18.1631Z" fill="#E90E8B"/>
<path d="M63.1827 20.4258C61.9813 20.4258 61.0625 21.4152 61.0625 22.546C61.0625 23.6768 62.0519 24.6662 63.1827 24.6662C64.3135 24.6662 65.303 23.6768 65.303 22.546C65.303 21.4152 64.3842 20.4258 63.1827 20.4258Z" fill="#E90E8B"/>
<path d="M62.3348 17.4583C62.7589 17.4583 63.1829 17.3169 63.5363 16.9635C63.819 16.7515 63.9604 16.4688 64.031 16.1154C64.1724 15.6914 64.031 15.1967 63.819 14.7726C63.607 14.3486 63.1829 14.0659 62.7589 13.9952C62.6175 13.9245 62.4055 13.9246 62.2642 13.8539C62.1228 13.7832 61.9108 13.7832 61.7695 13.7125C61.6281 13.6419 61.5574 13.6419 61.4161 13.5712C61.3454 13.5005 61.2041 13.5005 61.1334 13.4298C60.4973 13.1471 59.9319 12.8644 59.5079 12.4404C59.2959 12.299 59.1545 12.087 59.0132 11.9457C58.8718 11.8043 58.7305 11.5923 58.6598 11.451C58.5184 11.2389 58.4478 10.9562 58.3064 10.7442C58.2358 10.5322 58.1651 10.3202 58.1651 10.1081C58.1651 10.0375 58.1651 9.9668 58.1651 9.9668C58.0237 10.1081 57.8824 10.1788 57.8117 10.2495L57.2463 10.6029C56.6102 11.0976 55.8328 11.5923 54.9141 11.9457C54.9141 12.0163 54.9141 12.0163 54.9847 12.087C55.1261 12.5111 55.3381 12.8644 55.5501 13.2885C55.8328 13.7832 56.1862 14.2072 56.5396 14.6313C56.6809 14.7726 56.8223 14.914 56.9636 15.0553L57.1756 15.2674C57.317 15.4087 57.4583 15.4794 57.529 15.5501C58.0944 15.9741 58.7305 16.3981 59.4372 16.6808C60.144 17.0342 60.992 17.3169 61.9108 17.5289C62.0522 17.4583 62.1935 17.4583 62.3348 17.4583Z" fill="#1D76BB"/>
<path d="M62.1926 10.8859C63.182 11.4512 64.5955 11.0979 65.1609 10.1084C65.7263 9.04832 65.3729 7.77619 64.3835 7.14012C64.0301 6.9281 63.6767 6.85742 63.3233 6.85742C62.5459 6.85742 61.8392 7.28147 61.4858 7.91753C61.2031 8.41225 61.1325 8.97765 61.2738 9.54304C61.3445 10.1084 61.6978 10.6032 62.1926 10.8859Z" fill="#1D76BB"/>
<path d="M49.8949 8.12746C50.0362 8.90487 50.0362 9.82364 49.8949 10.8131C49.9656 10.8131 49.9656 10.8131 50.0362 10.8131C51.0257 11.0251 52.0151 10.9544 53.0046 10.7424C53.2166 10.6717 53.3579 10.6717 53.57 10.6011L53.8526 10.5304C54.0647 10.4597 54.1353 10.389 54.2767 10.389C54.9128 10.1063 55.6195 9.75296 56.2556 9.25825C56.8916 8.76353 57.5277 8.19813 58.1638 7.56206C58.2344 7.49139 58.3051 7.35004 58.3758 7.20869C58.6585 6.78465 58.7292 6.3606 58.5878 5.93656C58.5171 5.58319 58.3758 5.30049 58.0931 5.08847C57.7397 4.80577 57.3157 4.59375 56.8916 4.59375C56.3969 4.59375 55.9022 4.80577 55.6195 5.15914C55.4782 5.30049 55.4075 5.37117 55.2661 5.51251C55.1248 5.65386 54.9834 5.72454 54.9128 5.86589C54.8421 5.93656 54.7007 6.00723 54.6301 6.14858C54.5594 6.21926 54.4887 6.28993 54.3474 6.3606C53.782 6.78465 53.2166 7.06735 52.7219 7.27937C52.4392 7.35004 52.2271 7.42072 52.0151 7.49139C51.5204 7.56207 51.0964 7.56207 50.6016 7.49139C50.3896 7.42072 50.1776 7.35004 49.9656 7.27937C49.8949 7.27937 49.8949 7.20869 49.8242 7.20869C49.8242 7.35004 49.8949 7.56206 49.8949 7.70341V8.12746Z" fill="#D7DE27"/>
<path d="M52.651 4.02843C53.7112 3.46303 54.0645 2.12023 53.4285 1.06011C53.0751 0.424045 52.3683 0 51.5909 0C51.2376 0 50.8135 0.0706742 50.5308 0.282697C50.0361 0.565393 49.6827 1.06011 49.5414 1.55483C49.4 2.12023 49.4707 2.68562 49.7534 3.18034C50.2481 4.24045 51.6616 4.59382 52.651 4.02843Z" fill="#D7DE27"/>
<path d="M150.182 2.47302V3.17976H148.839V6.64279H147.991V3.10909H146.719V2.40234H150.182V2.47302ZM154.634 6.57212L154.493 4.1692C154.493 3.81583 154.493 3.46246 154.493 3.03841H154.422C154.281 3.39178 154.21 3.8865 154.069 4.23987L153.362 6.50145H152.514L151.737 4.1692C151.666 3.8865 151.525 3.39178 151.454 2.96774H151.383C151.383 3.32111 151.383 3.74515 151.383 4.09852L151.242 6.57212H150.464L150.747 2.47302H151.949L152.655 4.52257C152.797 4.87594 152.797 5.15864 152.938 5.58268C153.079 5.22931 153.15 4.87594 153.221 4.59324L153.928 2.54369H155.129L155.412 6.64279H154.634V6.57212Z" fill="white"/>
</svg>
